<?xml version="1.0" encoding="UTF-8" standalone="no"?><!-- Generator: Gravit.io --><svg xmlns="http://www.w3.org/2000/svg" xmlns:xlink="http://www.w3.org/1999/xlink" style="isolation:isolate" viewBox="0 0 397.1 512" width="397.1pt" height="512pt"><defs><clipPath id="_clipPath_89m7vkXMHf1aJcPCLhVfIt4QyS0c2XkL"><rect width="397.1" height="512"/></clipPath></defs><g clip-path="url(#_clipPath_89m7vkXMHf1aJcPCLhVfIt4QyS0c2XkL)"><g><g><g><linearGradient id="_lgradient_0" x1="0.008775828972206103" y1="-0.002758424173865303" x2="0.98954944957312" y2="1.010493795420266" gradientTransform="matrix(19.976,0,0,19.968,143.496,423.082)" gradientUnits="userSpaceOnUse"><stop offset="2.608695652173913%" stop-opacity="1" style="stop-color:rgb(58,0,95)"/><stop offset="24.347826086956523%" stop-opacity="1" style="stop-color:rgb(39,24,126)"/><stop offset="67.49194528289767%" stop-opacity="1" style="stop-color:rgb(20,81,143)"/><stop offset="98.69565217391305%" stop-opacity="1" style="stop-color:rgb(37,113,191)"/></linearGradient><path d=" M 153.478 443.05 C 149.24 443.05 145.382 440.278 144.018 436.266 C 142.695 432.375 143.943 427.928 147.134 425.322 C 150.466 422.6 155.273 422.337 158.891 424.652 C 162.286 426.824 164.059 430.973 163.298 434.93 C 162.404 439.583 158.22 443.05 153.478 443.05 L 153.478 443.05 Z " fill="url(#_lgradient_0)"/><linearGradient id="_lgradient_1" x1="0.008775828972206103" y1="-0.002758424173865303" x2="0.98954944957312" y2="1.010493795420266" gradientTransform="matrix(20,0,0,65.802,287.451,253.005)" gradientUnits="userSpaceOnUse"><stop offset="2.608695652173913%" stop-opacity="1" style="stop-color:rgb(58,0,95)"/><stop offset="24.347826086956523%" stop-opacity="1" style="stop-color:rgb(39,24,126)"/><stop offset="67.49194528289767%" stop-opacity="1" style="stop-color:rgb(20,81,143)"/><stop offset="98.69565217391305%" stop-opacity="1" style="stop-color:rgb(37,113,191)"/></linearGradient><path d=" M 297.451 318.807 C 291.929 318.807 287.451 314.33 287.451 308.807 L 287.451 263.005 C 287.451 257.482 291.929 253.005 297.451 253.005 C 302.973 253.005 307.451 257.482 307.451 263.005 L 307.451 308.807 C 307.451 314.33 302.973 318.807 297.451 318.807 Z " fill="url(#_lgradient_1)"/><linearGradient id="_lgradient_2" x1="0.008775828972206103" y1="-0.002758424173865303" x2="0.98954944957312" y2="1.010493795420266" gradientTransform="matrix(20,0,0,20,287.34,333.585)" gradientUnits="userSpaceOnUse"><stop offset="2.608695652173913%" stop-opacity="1" style="stop-color:rgb(58,0,95)"/><stop offset="24.347826086956523%" stop-opacity="1" style="stop-color:rgb(39,24,126)"/><stop offset="67.49194528289767%" stop-opacity="1" style="stop-color:rgb(20,81,143)"/><stop offset="98.69565217391305%" stop-opacity="1" style="stop-color:rgb(37,113,191)"/></linearGradient><circle vector-effect="non-scaling-stroke" cx="297.33989432430894" cy="343.5849999999999" r="10" fill="url(#_lgradient_2)"/><linearGradient id="_lgradient_3" x1="0.008775828972206103" y1="-0.002758424173865303" x2="0.98954944957312" y2="1.010493795420266" gradientTransform="matrix(397.118,0,0,512,-0.009,0)" gradientUnits="userSpaceOnUse"><stop offset="2.608695652173913%" stop-opacity="1" style="stop-color:rgb(58,0,95)"/><stop offset="29.421072506582767%" stop-opacity="1" style="stop-color:rgb(39,24,126)"/><stop offset="67.49194528289767%" stop-opacity="1" style="stop-color:rgb(20,81,143)"/><stop offset="98.69565217391305%" stop-opacity="1" style="stop-color:rgb(37,113,191)"/></linearGradient><path d=" M 395.126 361.901 L 315.328 195.844 C 313.538 192.119 310.739 189.147 307.341 187.186 L 307.341 67.942 C 307.34 30.479 276.862 0 239.398 0 L 67.932 0 C 30.469 0 -0.009 30.479 -0.009 67.942 L -0.009 444.058 C -0.009 481.521 30.47 512 67.932 512 L 239.398 512 C 276.862 512 307.34 481.522 307.34 444.058 L 307.34 390.501 L 377.137 390.501 C 384.04 390.501 390.355 387.013 394.03 381.169 C 397.706 375.327 398.115 368.124 395.126 361.901 L 395.126 361.901 Z  M 19.991 67.942 C 19.991 41.507 41.498 20 67.932 20 L 239.398 20 C 265.834 20 287.34 41.507 287.34 67.942 L 287.34 68.947 L 19.991 68.947 L 19.991 67.942 Z  M 287.34 423.053 L 198.871 423.053 C 193.349 423.053 188.871 427.53 188.871 433.053 C 188.871 438.576 193.349 443.053 198.871 443.053 L 287.34 443.053 L 287.34 444.058 C 287.34 470.493 265.833 492 239.398 492 L 67.932 492 C 41.497 492 19.991 470.493 19.991 444.058 L 19.991 443.053 L 108.459 443.053 C 113.981 443.053 118.459 438.576 118.459 433.053 C 118.459 427.53 113.981 423.053 108.459 423.053 L 19.991 423.053 L 19.991 88.947 L 287.341 88.947 L 287.341 187.186 C 283.942 189.147 281.143 192.119 279.353 195.844 L 199.556 361.9 C 196.566 368.122 196.974 375.325 200.649 381.169 C 204.324 387.013 210.639 390.501 217.542 390.501 L 287.34 390.501 L 287.34 423.053 Z  M 217.583 370.563 L 297.341 204.588 L 377.138 370.501 L 217.583 370.563 Z " fill="url(#_lgradient_3)"/><linearGradient id="_lgradient_4" x1="0.008775828972206103" y1="-0.002758424173865303" x2="0.98954944957312" y2="1.010493795420266" gradientTransform="matrix(181.513,0,0,181.467,52.74,137.34)" gradientUnits="userSpaceOnUse"><stop offset="2.608695652173913%" stop-opacity="1" style="stop-color:rgb(58,0,95)"/><stop offset="24.347826086956523%" stop-opacity="1" style="stop-color:rgb(39,24,126)"/><stop offset="67.49194528289767%" stop-opacity="1" style="stop-color:rgb(20,81,143)"/><stop offset="98.69565217391305%" stop-opacity="1" style="stop-color:rgb(37,113,191)"/></linearGradient><path d=" M 109.872 318.807 C 124.5 318.792 139.128 313.229 150.27 302.101 L 217.519 234.838 C 228.304 224.052 234.252 209.709 234.252 194.44 C 234.252 179.186 228.304 164.843 217.519 154.042 C 195.249 131.772 159.006 131.772 136.737 154.042 L 69.473 221.305 C 58.688 232.092 52.74 246.45 52.74 261.704 C 52.74 276.958 58.688 291.301 69.473 302.101 C 80.616 313.229 95.229 318.807 109.872 318.807 Z  M 155.065 172.385 C 161.155 166.308 169.138 163.262 177.12 163.262 C 185.118 163.262 193.1 166.308 199.191 172.385 L 199.191 172.385 C 205.082 178.275 208.325 186.115 208.325 194.44 C 208.325 202.778 205.082 210.605 199.176 216.495 L 174.716 240.956 L 130.604 196.844 L 155.065 172.385 Z  M 87.801 239.647 L 112.276 215.187 L 156.388 259.298 L 131.927 283.759 C 119.761 295.925 99.968 295.925 87.801 283.759 C 81.91 277.867 78.667 270.028 78.667 261.704 C 78.667 253.364 81.91 245.539 87.801 239.647 Z " fill="url(#_lgradient_4)"/></g></g></g></g></svg>