<?xml version="1.0" encoding="UTF-8" standalone="no"?><!-- Generator: Gravit.io --><svg xmlns="http://www.w3.org/2000/svg" xmlns:xlink="http://www.w3.org/1999/xlink" style="isolation:isolate" viewBox="0 0 480 472" width="480pt" height="472pt"><defs><clipPath id="_clipPath_IHwqvOOlmb1FMeKXhGoeIskKFanwv3Lj"><rect width="480" height="472"/></clipPath></defs><g clip-path="url(#_clipPath_IHwqvOOlmb1FMeKXhGoeIskKFanwv3Lj)"><g><g><g><g><linearGradient id="_lgradient_31" x1="0.10834379914934367" y1="0.07838941198519422" x2="0.9443276373840268" y2="0.9971480398959605" gradientTransform="matrix(479.954,0,0,472.003,0.023,-0.001)" gradientUnits="userSpaceOnUse"><stop offset="0%" stop-opacity="1" style="stop-color:rgb(58,0,95)"/><stop offset="31.73913043478261%" stop-opacity="1" style="stop-color:rgb(39,24,126)"/><stop offset="70.43478260869566%" stop-opacity="1" style="stop-color:rgb(20,81,143)"/><stop offset="98.69565217391305%" stop-opacity="1" style="stop-color:rgb(37,113,191)"/></linearGradient><path d=" M 477.667 98.379 C 477.656 98.368 477.644 98.356 477.633 98.345 L 477.633 98.345 L 381.633 2.345 C 380.106 0.794 378.004 -0.054 375.829 0.001 C 373.657 0.04 371.595 0.962 370.118 2.556 L 340.399 34.556 C 337.5 37.678 337.555 42.524 340.524 45.579 L 342.777 47.896 L 330.977 59.696 L 312.336 55.04 C 295.617 50.948 277.978 55.958 265.906 68.228 L 231.902 107.857 L 192.39 68.345 C 181.126 57.017 164.407 53.068 149.265 58.157 C 148.361 58.461 147.518 58.921 146.773 59.516 L 144.601 61.266 L 139.335 56.001 L 149.679 45.657 C 152.803 42.535 152.804 37.471 149.682 34.348 C 149.681 34.347 149.68 34.346 149.679 34.345 L 117.679 2.345 C 114.557 -0.779 109.493 -0.78 106.37 2.342 C 106.369 2.343 106.368 2.344 106.367 2.345 L 2.367 106.345 C -0.757 109.467 -0.758 114.531 2.364 117.654 C 2.365 117.655 2.366 117.656 2.367 117.657 L 34.367 149.657 C 37.489 152.781 42.553 152.782 45.677 149.66 C 45.678 149.659 45.679 149.658 45.68 149.657 L 49.293 146.044 L 68.25 165.001 L 63.594 183.642 C 59.51 200.115 64.31 217.526 76.258 229.58 L 144.024 299.296 L 144.024 361.837 C 144.171 376.176 152.217 389.264 164.946 395.868 C 171.771 399.5 176.033 406.605 176.024 414.337 L 176.024 416.001 L 168.024 416.001 C 163.608 415.998 160.027 419.576 160.024 423.992 C 160.024 423.995 160.024 423.998 160.024 424.001 L 160.024 464.001 C 160.021 468.417 163.599 471.998 168.015 472.001 C 168.018 472.001 168.021 472.001 168.024 472.001 L 320.024 472.001 C 324.44 472.004 328.021 468.426 328.024 464.01 C 328.024 464.007 328.024 464.004 328.024 464.001 L 328.024 424.001 C 328.027 419.585 324.449 416.004 320.033 416.001 C 320.03 416.001 320.027 416.001 320.024 416.001 L 312.024 416.001 L 312.024 407.962 L 324.704 396.267 C 336.838 387.087 343.985 372.764 344.024 357.548 L 344.024 263.832 C 353.497 262.694 362.303 258.374 369.001 251.579 L 411.29 205.657 C 421.231 195.788 424.692 181.124 420.212 167.852 C 418.93 163.994 425.821 151.368 434.031 141.685 C 435.496 143.139 437.468 143.969 439.532 144 L 439.61 144 C 441.716 144 443.738 143.169 445.235 141.687 L 477.602 109.687 C 480.743 106.583 480.772 101.52 477.667 98.379 Z  M 40.024 132.689 L 19.337 112.001 L 112.024 19.313 L 132.712 40 L 40.024 132.689 Z  M 144.733 277.071 L 87.649 218.345 C 79.618 210.263 76.382 198.579 79.11 187.517 L 84.868 164.486 C 85.553 161.761 84.754 158.877 82.766 156.892 L 60.606 134.732 L 128.024 67.314 L 138.368 77.658 C 141.257 80.545 145.856 80.794 149.04 78.236 L 155.61 72.947 C 164.688 70.409 174.43 72.976 181.079 79.658 L 225.179 123.758 L 225.103 123.815 C 221.534 127.094 218.874 131.242 217.384 135.854 C 212.426 133.167 206.776 132.032 201.165 132.596 C 186.644 134.49 175.84 146.953 176.024 161.596 L 176.024 245.26 C 160.113 248.545 147.756 261.107 144.733 277.071 Z  M 312.024 456.001 L 176.024 456.001 L 176.024 432.001 L 312.024 432.001 L 312.024 456.001 Z  M 328.024 357.548 C 327.931 368.004 322.91 377.803 314.477 383.986 L 298.61 398.564 C 296.961 400.079 296.023 402.216 296.024 404.455 L 296.024 416.002 L 192.024 416.002 L 192.024 414.338 C 192.042 400.693 184.518 388.155 172.469 381.752 C 164.962 377.92 160.178 370.264 160.024 361.838 L 160.024 284.455 C 160.055 274.318 166.462 265.297 176.024 261.929 L 176.024 312.002 L 192.024 312.002 L 192.024 161.595 C 191.779 155.148 196.387 149.533 202.758 148.517 C 206.152 148.167 209.536 149.271 212.071 151.556 C 214.6 153.82 216.039 157.059 216.024 160.454 L 216.024 280.001 L 232.024 280.001 L 232.024 144.454 C 232.019 137.829 237.386 132.455 244.011 132.45 C 244.381 132.45 244.75 132.467 245.118 132.5 C 251.597 133.58 256.266 139.303 256.024 145.867 L 256.024 280 L 272.024 280 L 272.024 168.454 C 272.019 161.829 277.386 156.455 284.011 156.45 C 284.381 156.45 284.75 156.467 285.118 156.5 C 291.597 157.58 296.266 163.303 296.024 169.867 L 296.024 280 L 312.024 280 L 312.024 213.927 C 321.586 217.295 327.993 226.316 328.024 236.453 L 328.024 357.548 Z  M 405.039 172.915 L 405.039 172.915 C 407.58 180.553 405.525 188.971 399.75 194.579 L 357.461 240.501 C 353.802 244.199 349.124 246.72 344.023 247.743 L 344.023 236.454 C 343.998 217.454 330.633 201.084 312.023 197.259 L 312.023 169.868 C 312.304 154.997 301.275 142.331 286.507 140.563 C 281.491 140.141 276.452 141.058 271.905 143.219 C 270.963 129.377 260.287 118.173 246.507 116.563 C 246.167 116.534 245.832 116.598 245.492 116.582 L 277.632 79.095 C 285.715 71.067 297.398 67.831 308.46 70.556 L 331.491 76.314 C 334.216 76.997 337.099 76.199 339.085 74.212 L 353.93 59.367 L 422.86 130.252 C 415.476 138.818 400.307 158.725 405.039 172.915 Z  M 439.72 124.641 L 357.297 39.875 L 376.188 19.523 L 460.633 103.968 L 439.72 124.641 Z " fill="url(#_lgradient_31)"/></g></g></g></g></g></svg>