<?xml version="1.0" encoding="UTF-8" standalone="no"?><!-- Generator: Gravit.io --><svg xmlns="http://www.w3.org/2000/svg" xmlns:xlink="http://www.w3.org/1999/xlink" style="isolation:isolate" viewBox="0 0 50 55" width="50pt" height="55pt"><defs><clipPath id="_clipPath_647ZDofQQ3IlwHF0WfXsD7VPfhcxnMiy"><rect width="50" height="55"/></clipPath></defs><g clip-path="url(#_clipPath_647ZDofQQ3IlwHF0WfXsD7VPfhcxnMiy)"><g><g><g><g><linearGradient id="_lgradient_0" x1="0" y1="0.5" x2="1" y2="0.5" gradientTransform="matrix(2,0,0,2,4,28)" gradientUnits="userSpaceOnUse"><stop offset="0%" stop-opacity="1" style="stop-color:rgb(58,0,95)"/><stop offset="20%" stop-opacity="1" style="stop-color:rgb(39,24,126)"/><stop offset="64.34782608695652%" stop-opacity="1" style="stop-color:rgb(20,81,143)"/><stop offset="100%" stop-opacity="1" style="stop-color:rgb(37,113,191)"/></linearGradient><circle vector-effect="non-scaling-stroke" cx="5" cy="29" r="1" fill="url(#_lgradient_0)"/><linearGradient id="_lgradient_1" x1="0" y1="0.5" x2="1" y2="0.5" gradientTransform="matrix(2,0,0,2,4,34)" gradientUnits="userSpaceOnUse"><stop offset="0%" stop-opacity="1" style="stop-color:rgb(58,0,95)"/><stop offset="20%" stop-opacity="1" style="stop-color:rgb(39,24,126)"/><stop offset="64.34782608695652%" stop-opacity="1" style="stop-color:rgb(20,81,143)"/><stop offset="100%" stop-opacity="1" style="stop-color:rgb(37,113,191)"/></linearGradient><circle vector-effect="non-scaling-stroke" cx="5" cy="35" r="1" fill="url(#_lgradient_1)"/><linearGradient id="_lgradient_2" x1="0" y1="0.5" x2="1" y2="0.5" gradientTransform="matrix(2,0,0,2,7,31)" gradientUnits="userSpaceOnUse"><stop offset="0%" stop-opacity="1" style="stop-color:rgb(58,0,95)"/><stop offset="20%" stop-opacity="1" style="stop-color:rgb(39,24,126)"/><stop offset="64.34782608695652%" stop-opacity="1" style="stop-color:rgb(20,81,143)"/><stop offset="100%" stop-opacity="1" style="stop-color:rgb(37,113,191)"/></linearGradient><circle vector-effect="non-scaling-stroke" cx="8" cy="32" r="1" fill="url(#_lgradient_2)"/><linearGradient id="_lgradient_3" x1="0" y1="0.5" x2="1" y2="0.5" gradientTransform="matrix(2,0,0,2,13,31)" gradientUnits="userSpaceOnUse"><stop offset="0%" stop-opacity="1" style="stop-color:rgb(58,0,95)"/><stop offset="20%" stop-opacity="1" style="stop-color:rgb(39,24,126)"/><stop offset="64.34782608695652%" stop-opacity="1" style="stop-color:rgb(20,81,143)"/><stop offset="100%" stop-opacity="1" style="stop-color:rgb(37,113,191)"/></linearGradient><circle vector-effect="non-scaling-stroke" cx="14" cy="32" r="1" fill="url(#_lgradient_3)"/><linearGradient id="_lgradient_4" x1="0" y1="0.5" x2="1" y2="0.5" gradientTransform="matrix(2,0,0,2,10,34)" gradientUnits="userSpaceOnUse"><stop offset="0%" stop-opacity="1" style="stop-color:rgb(58,0,95)"/><stop offset="20%" stop-opacity="1" style="stop-color:rgb(39,24,126)"/><stop offset="64.34782608695652%" stop-opacity="1" style="stop-color:rgb(20,81,143)"/><stop offset="100%" stop-opacity="1" style="stop-color:rgb(37,113,191)"/></linearGradient><circle vector-effect="non-scaling-stroke" cx="11" cy="35" r="1" fill="url(#_lgradient_4)"/><linearGradient id="_lgradient_5" x1="0" y1="0.5" x2="1" y2="0.5" gradientTransform="matrix(2,0,0,2,16,34)" gradientUnits="userSpaceOnUse"><stop offset="0%" stop-opacity="1" style="stop-color:rgb(58,0,95)"/><stop offset="20%" stop-opacity="1" style="stop-color:rgb(39,24,126)"/><stop offset="64.34782608695652%" stop-opacity="1" style="stop-color:rgb(20,81,143)"/><stop offset="100%" stop-opacity="1" style="stop-color:rgb(37,113,191)"/></linearGradient><circle vector-effect="non-scaling-stroke" cx="17" cy="35" r="1" fill="url(#_lgradient_5)"/><linearGradient id="_lgradient_6" x1="0" y1="0.5" x2="1" y2="0.5" gradientTransform="matrix(2,0,0,2,19,31)" gradientUnits="userSpaceOnUse"><stop offset="0%" stop-opacity="1" style="stop-color:rgb(58,0,95)"/><stop offset="20%" stop-opacity="1" style="stop-color:rgb(39,24,126)"/><stop offset="64.34782608695652%" stop-opacity="1" style="stop-color:rgb(20,81,143)"/><stop offset="100%" stop-opacity="1" style="stop-color:rgb(37,113,191)"/></linearGradient><circle vector-effect="non-scaling-stroke" cx="20" cy="32" r="1" fill="url(#_lgradient_6)"/><linearGradient id="_lgradient_7" x1="0" y1="0.5" x2="1" y2="0.5" gradientTransform="matrix(2,0,0,2,25,31)" gradientUnits="userSpaceOnUse"><stop offset="0%" stop-opacity="1" style="stop-color:rgb(58,0,95)"/><stop offset="20%" stop-opacity="1" style="stop-color:rgb(39,24,126)"/><stop offset="64.34782608695652%" stop-opacity="1" style="stop-color:rgb(20,81,143)"/><stop offset="100%" stop-opacity="1" style="stop-color:rgb(37,113,191)"/></linearGradient><circle vector-effect="non-scaling-stroke" cx="26" cy="32" r="1" fill="url(#_lgradient_7)"/><linearGradient id="_lgradient_8" x1="0" y1="0.5" x2="1" y2="0.5" gradientTransform="matrix(2,0,0,2,22,34)" gradientUnits="userSpaceOnUse"><stop offset="0%" stop-opacity="1" style="stop-color:rgb(58,0,95)"/><stop offset="20%" stop-opacity="1" style="stop-color:rgb(39,24,126)"/><stop offset="64.34782608695652%" stop-opacity="1" style="stop-color:rgb(20,81,143)"/><stop offset="100%" stop-opacity="1" style="stop-color:rgb(37,113,191)"/></linearGradient><circle vector-effect="non-scaling-stroke" cx="23" cy="35" r="1" fill="url(#_lgradient_8)"/><linearGradient id="_lgradient_9" x1="0" y1="0.5" x2="1" y2="0.5" gradientTransform="matrix(2,0,0,2,28,34)" gradientUnits="userSpaceOnUse"><stop offset="0%" stop-opacity="1" style="stop-color:rgb(58,0,95)"/><stop offset="20%" stop-opacity="1" style="stop-color:rgb(39,24,126)"/><stop offset="64.34782608695652%" stop-opacity="1" style="stop-color:rgb(20,81,143)"/><stop offset="100%" stop-opacity="1" style="stop-color:rgb(37,113,191)"/></linearGradient><circle vector-effect="non-scaling-stroke" cx="29" cy="35" r="1" fill="url(#_lgradient_9)"/><linearGradient id="_lgradient_10" x1="0" y1="0.5" x2="1" y2="0.5" gradientTransform="matrix(2,0,0,2,31,31)" gradientUnits="userSpaceOnUse"><stop offset="0%" stop-opacity="1" style="stop-color:rgb(58,0,95)"/><stop offset="20%" stop-opacity="1" style="stop-color:rgb(39,24,126)"/><stop offset="64.34782608695652%" stop-opacity="1" style="stop-color:rgb(20,81,143)"/><stop offset="100%" stop-opacity="1" style="stop-color:rgb(37,113,191)"/></linearGradient><circle vector-effect="non-scaling-stroke" cx="32" cy="32" r="1" fill="url(#_lgradient_10)"/><linearGradient id="_lgradient_11" x1="0" y1="0.5" x2="1" y2="0.5" gradientTransform="matrix(2,0,0,2,37,31)" gradientUnits="userSpaceOnUse"><stop offset="0%" stop-opacity="1" style="stop-color:rgb(58,0,95)"/><stop offset="20%" stop-opacity="1" style="stop-color:rgb(39,24,126)"/><stop offset="64.34782608695652%" stop-opacity="1" style="stop-color:rgb(20,81,143)"/><stop offset="100%" stop-opacity="1" style="stop-color:rgb(37,113,191)"/></linearGradient><circle vector-effect="non-scaling-stroke" cx="38" cy="32" r="1" fill="url(#_lgradient_11)"/><linearGradient id="_lgradient_12" x1="0" y1="0.5" x2="1" y2="0.5" gradientTransform="matrix(2,0,0,2,34,34)" gradientUnits="userSpaceOnUse"><stop offset="0%" stop-opacity="1" style="stop-color:rgb(58,0,95)"/><stop offset="20%" stop-opacity="1" style="stop-color:rgb(39,24,126)"/><stop offset="64.34782608695652%" stop-opacity="1" style="stop-color:rgb(20,81,143)"/><stop offset="100%" stop-opacity="1" style="stop-color:rgb(37,113,191)"/></linearGradient><circle vector-effect="non-scaling-stroke" cx="35" cy="35" r="1" fill="url(#_lgradient_12)"/><linearGradient id="_lgradient_13" x1="0" y1="0.5" x2="1" y2="0.5" gradientTransform="matrix(2,0,0,2,40,34)" gradientUnits="userSpaceOnUse"><stop offset="0%" stop-opacity="1" style="stop-color:rgb(58,0,95)"/><stop offset="20%" stop-opacity="1" style="stop-color:rgb(39,24,126)"/><stop offset="64.34782608695652%" stop-opacity="1" style="stop-color:rgb(20,81,143)"/><stop offset="100%" stop-opacity="1" style="stop-color:rgb(37,113,191)"/></linearGradient><circle vector-effect="non-scaling-stroke" cx="41" cy="35" r="1" fill="url(#_lgradient_13)"/><linearGradient id="_lgradient_14" x1="0" y1="0.5" x2="1" y2="0.5" gradientTransform="matrix(2,0,0,2,43,31)" gradientUnits="userSpaceOnUse"><stop offset="0%" stop-opacity="1" style="stop-color:rgb(58,0,95)"/><stop offset="20%" stop-opacity="1" style="stop-color:rgb(39,24,126)"/><stop offset="64.34782608695652%" stop-opacity="1" style="stop-color:rgb(20,81,143)"/><stop offset="100%" stop-opacity="1" style="stop-color:rgb(37,113,191)"/></linearGradient><circle vector-effect="non-scaling-stroke" cx="44" cy="32" r="1" fill="url(#_lgradient_14)"/><linearGradient id="_lgradient_15" x1="0" y1="0.5" x2="1" y2="0.5" gradientTransform="matrix(2,0,0,2,46,28)" gradientUnits="userSpaceOnUse"><stop offset="0%" stop-opacity="1" style="stop-color:rgb(58,0,95)"/><stop offset="20%" stop-opacity="1" style="stop-color:rgb(39,24,126)"/><stop offset="64.34782608695652%" stop-opacity="1" style="stop-color:rgb(20,81,143)"/><stop offset="100%" stop-opacity="1" style="stop-color:rgb(37,113,191)"/></linearGradient><circle vector-effect="non-scaling-stroke" cx="47" cy="29" r="1" fill="url(#_lgradient_15)"/><linearGradient id="_lgradient_16" x1="-6.500000000000001" y1="-18.250000000000004" x2="18.3125" y2="8.749999999999996" gradientTransform="matrix(2,0,0,2,13,37)" gradientUnits="userSpaceOnUse"><stop offset="0%" stop-opacity="1" style="stop-color:rgb(58,0,95)"/><stop offset="37.03276559772016%" stop-opacity="1" style="stop-color:rgb(39,24,126)"/><stop offset="59.81617102369617%" stop-opacity="1" style="stop-color:rgb(20,81,143)"/><stop offset="100%" stop-opacity="1" style="stop-color:rgb(37,113,191)"/></linearGradient><circle vector-effect="non-scaling-stroke" cx="14" cy="38" r="1" fill="url(#_lgradient_16)"/><linearGradient id="_lgradient_17" x1="0" y1="0.5" x2="1" y2="0.5" gradientTransform="matrix(2,0,0,2,19,37)" gradientUnits="userSpaceOnUse"><stop offset="0%" stop-opacity="1" style="stop-color:rgb(58,0,95)"/><stop offset="20%" stop-opacity="1" style="stop-color:rgb(39,24,126)"/><stop offset="64.34782608695652%" stop-opacity="1" style="stop-color:rgb(20,81,143)"/><stop offset="100%" stop-opacity="1" style="stop-color:rgb(37,113,191)"/></linearGradient><circle vector-effect="non-scaling-stroke" cx="20" cy="38" r="1" fill="url(#_lgradient_17)"/><linearGradient id="_lgradient_18" x1="0" y1="0.5" x2="1" y2="0.5" gradientTransform="matrix(2,0,0,2,25,37)" gradientUnits="userSpaceOnUse"><stop offset="0%" stop-opacity="1" style="stop-color:rgb(58,0,95)"/><stop offset="20%" stop-opacity="1" style="stop-color:rgb(39,24,126)"/><stop offset="64.34782608695652%" stop-opacity="1" style="stop-color:rgb(20,81,143)"/><stop offset="100%" stop-opacity="1" style="stop-color:rgb(37,113,191)"/></linearGradient><circle vector-effect="non-scaling-stroke" cx="26" cy="38" r="1" fill="url(#_lgradient_18)"/><linearGradient id="_lgradient_19" x1="0" y1="0.5" x2="1" y2="0.5" gradientTransform="matrix(2,0,0,2,31,37)" gradientUnits="userSpaceOnUse"><stop offset="0%" stop-opacity="1" style="stop-color:rgb(58,0,95)"/><stop offset="20%" stop-opacity="1" style="stop-color:rgb(39,24,126)"/><stop offset="64.34782608695652%" stop-opacity="1" style="stop-color:rgb(20,81,143)"/><stop offset="100%" stop-opacity="1" style="stop-color:rgb(37,113,191)"/></linearGradient><circle vector-effect="non-scaling-stroke" cx="32" cy="38" r="1" fill="url(#_lgradient_19)"/><linearGradient id="_lgradient_20" x1="0" y1="0.5" x2="1" y2="0.5" gradientTransform="matrix(2,0,0,2,37,37)" gradientUnits="userSpaceOnUse"><stop offset="0%" stop-opacity="1" style="stop-color:rgb(58,0,95)"/><stop offset="20%" stop-opacity="1" style="stop-color:rgb(39,24,126)"/><stop offset="64.34782608695652%" stop-opacity="1" style="stop-color:rgb(20,81,143)"/><stop offset="100%" stop-opacity="1" style="stop-color:rgb(37,113,191)"/></linearGradient><circle vector-effect="non-scaling-stroke" cx="38" cy="38" r="1" fill="url(#_lgradient_20)"/><linearGradient id="_lgradient_21" x1="0" y1="0.5" x2="1" y2="0.5" gradientTransform="matrix(50,0,0,55,0,0)" gradientUnits="userSpaceOnUse"><stop offset="0%" stop-opacity="1" style="stop-color:rgb(58,0,95)"/><stop offset="20%" stop-opacity="1" style="stop-color:rgb(39,24,126)"/><stop offset="64.34782608695652%" stop-opacity="1" style="stop-color:rgb(20,81,143)"/><stop offset="100%" stop-opacity="1" style="stop-color:rgb(37,113,191)"/></linearGradient><path d=" M 49.93 8.652 C 49.921 8.627 49.912 8.603 49.901 8.58 C 49.891 8.559 49.886 8.536 49.875 8.516 C 48.656 3.639 38.107 0 25 0 C 11.893 0 1.344 3.639 0.125 8.516 C 0.114 8.536 0.109 8.559 0.099 8.58 C 0.088 8.604 0.079 8.627 0.07 8.652 C 0.029 8.761 0 8.876 0 9 L 0 9.5 L 0 33 L 0 33.5 L 0 46 C 0 46.162 0.043 46.315 0.117 46.451 C 1.298 51.346 11.864 55 25 55 C 38.106 55 48.655 51.361 49.875 46.484 C 49.955 46.341 50 46.176 50 46 L 50 33.5 L 50 33 L 50 9.5 L 50 9 C 50 8.876 49.971 8.761 49.93 8.652 Z  M 44.632 37.243 C 44.459 37.098 44.244 37 44 37 C 43.448 37 43 37.448 43 38 C 43 38.011 43.006 38.02 43.006 38.031 C 41.001 38.878 38.439 39.603 35.462 40.128 C 35.322 40.053 35.17 40 35 40 C 34.706 40 34.449 40.132 34.266 40.333 C 32.909 40.539 31.471 40.702 29.963 40.815 C 29.874 40.355 29.487 40 29 40 C 28.474 40 28.055 40.41 28.015 40.926 C 27.032 40.97 26.033 41 25 41 C 24.659 41 24.332 40.987 23.996 40.982 C 23.986 40.438 23.546 40 23 40 C 22.473 40 22.054 40.411 22.015 40.928 C 20.597 40.865 19.226 40.764 17.924 40.619 C 17.773 40.256 17.417 40 17 40 C 16.678 40 16.405 40.162 16.222 40.398 C 13.35 39.989 10.822 39.395 8.725 38.68 C 8.893 38.501 9 38.264 9 38 C 9 37.448 8.552 37 8 37 C 7.448 37 7 37.448 7 38 C 7 38.013 7.007 38.023 7.007 38.036 C 3.82 36.691 2 35.057 2 33.5 C 2 33.387 2.013 33.274 2.031 33.162 C 2.04 33.106 2.022 33.051 2.022 32.995 C 2.564 32.983 3 32.544 3 32 C 3 31.448 2.552 31 2 31 L 2 27 C 2.527 27 2.946 26.589 2.985 26.072 C 4.713 27.295 7.116 28.347 10.032 29.161 C 10.112 29.633 10.505 30 11 30 C 11.32 30 11.591 29.84 11.774 29.607 C 15.597 30.493 20.119 31 25 31 C 30.674 31 35.863 30.315 40.029 29.146 C 40.103 29.626 40.499 30 41 30 C 41.552 30 42 29.552 42 29 C 42 28.844 41.957 28.701 41.894 28.57 C 44.514 27.671 46.596 26.555 48 25.291 L 48 29 L 48 32.717 C 47.958 32.86 47.944 33.011 47.969 33.162 C 47.988 33.274 48 33.387 48 33.5 C 48 33.798 47.91 34.099 47.779 34.4 C 47.597 34.163 47.323 34 47 34 C 46.448 34 46 34.448 46 35 C 46 35.408 46.246 35.756 46.596 35.911 C 46.076 36.369 45.42 36.815 44.632 37.243 Z  M 48 21.747 C 47.992 21.778 47.973 21.805 47.968 21.838 C 47.401 25.297 38.036 29 25 29 C 11.964 29 2.599 25.297 2.032 21.838 C 2.027 21.805 2.008 21.779 2 21.747 L 2 13.268 C 5.431 16.431 13.244 19 25 19 C 36.756 19 44.569 16.431 48 13.268 L 48 21.747 Z  M 25 2 C 38.038 2 47.402 5.703 47.968 9.161 L 47.969 9.167 C 47.987 9.278 48 9.388 48 9.5 C 48 13.048 38.555 17 25 17 C 11.445 17 2 13.048 2 9.5 C 2 9.388 2.013 9.278 2.031 9.167 L 2.032 9.161 C 2.598 5.703 11.962 2 25 2 Z  M 47.968 45.838 C 47.401 49.297 38.036 53 25 53 C 11.964 53 2.599 49.297 2.032 45.838 C 2.024 45.793 2.013 45.749 2 45.707 L 2 37.268 C 5.431 40.431 13.244 43 25 43 C 36.756 43 44.569 40.431 48 37.268 L 48 45.703 C 47.986 45.747 47.976 45.792 47.968 45.838 Z " fill="url(#_lgradient_21)"/></g></g></g></g></g></svg>