<?xml version="1.0" encoding="UTF-8" standalone="no"?><!-- Generator: Gravit.io --><svg xmlns="http://www.w3.org/2000/svg" xmlns:xlink="http://www.w3.org/1999/xlink" style="isolation:isolate" viewBox="0 0 865 788.55" width="865pt" height="788.55pt"><defs><clipPath id="_clipPath_wTbLliFhbwQa1kKhYLaH20R5umqviEQ7"><rect width="865" height="788.55"/></clipPath></defs><g clip-path="url(#_clipPath_wTbLliFhbwQa1kKhYLaH20R5umqviEQ7)"><clipPath id="_clipPath_yInFwsNITz9O9qwfj9P67AaqsTz17vqs"><rect x="0" y="0" width="865" height="788.55" transform="matrix(1,0,0,1,0,0)" fill="rgb(255,255,255)"/></clipPath><g clip-path="url(#_clipPath_yInFwsNITz9O9qwfj9P67AaqsTz17vqs)"><g><clipPath id="_clipPath_30mnFtMNFwkNmmFt4uYHSIUu9jvzzcIQ"><rect x="0" y="0" width="865" height="788.55" transform="matrix(1,0,0,1,0,0)" fill="rgb(255,255,255)"/></clipPath><g clip-path="url(#_clipPath_30mnFtMNFwkNmmFt4uYHSIUu9jvzzcIQ)"><g><g><clipPath id="_clipPath_zuEGCMEXFDsHGJvN0vK82f2KntqG0VbB"><rect x="0" y="0" width="865" height="788.55" transform="matrix(1,0,0,1,0,0)" fill="rgb(255,255,255)"/></clipPath><g clip-path="url(#_clipPath_zuEGCMEXFDsHGJvN0vK82f2KntqG0VbB)"><g><g><g><g><path d=" M 444.142 27.5 L 826.858 27.5 C 847.909 27.5 865 44.591 865 65.642 L 865 583.358 C 865 604.409 847.909 621.5 826.858 621.5 L 444.142 621.5 C 423.091 621.5 406 604.409 406 583.358 L 406 65.642 C 406 44.591 423.091 27.5 444.142 27.5 Z " fill="rgb(242,242,242)"/><clipPath id="_clipPath_s3lKmtkVXxBbCbZW6TsWto2Fx6CHgL3j"><path d=" M -1730 -1577.1 L 1730 -1577.1 L 1730 1577.1 L -1730 1577.1 L -1730 -1577.1 L -1730 -1577.1 Z  M 422.142 0.5 L 804.858 0.5 C 825.909 0.5 843 17.591 843 38.642 L 843 556.358 C 843 577.409 825.909 594.5 804.858 594.5 L 422.142 594.5 C 401.091 594.5 384 577.409 384 556.358 L 384 38.642 C 384 17.591 401.091 0.5 422.142 0.5 Z " fill-rule="evenodd" fill="rgb(255,255,255)"/></clipPath><g clip-path="url(#_clipPath_s3lKmtkVXxBbCbZW6TsWto2Fx6CHgL3j)"><g><clipPath id="_clipPath_92hu19KTLqF6y0fibvpePc3n8QfXa5nR"><path d=" M -1730 -1577.1 L 1730 -1577.1 L 1730 1577.1 L -1730 1577.1 L -1730 -1577.1 Z  M 422.142 0.5 L 804.858 0.5 C 825.909 0.5 843 17.591 843 38.642 L 843 556.358 C 843 577.409 825.909 594.5 804.858 594.5 L 422.142 594.5 C 401.091 594.5 384 577.409 384 556.358 L 384 38.642 C 384 17.591 401.091 0.5 422.142 0.5 Z " fill-rule="evenodd" fill="rgb(255,255,255)"/></clipPath><g clip-path="url(#_clipPath_92hu19KTLqF6y0fibvpePc3n8QfXa5nR)"><mask id="_mask_zpfLpxjLTj1fNwE1OCLOcU6FkhYi7z9E" x="-200%" y="-200%" width="400%" height="400%"><rect x="-200%" y="-200%" width="400%" height="400%" style="fill:white;"/><path d=" M 422.142 0.5 L 804.858 0.5 C 825.909 0.5 843 17.591 843 38.642 L 843 556.358 C 843 577.409 825.909 594.5 804.858 594.5 L 422.142 594.5 C 401.091 594.5 384 577.409 384 556.358 L 384 38.642 C 384 17.591 401.091 0.5 422.142 0.5 Z " fill="black" stroke="none"/></mask><path d=" M 422.142 0.5 L 804.858 0.5 C 825.909 0.5 843 17.591 843 38.642 L 843 556.358 C 843 577.409 825.909 594.5 804.858 594.5 L 422.142 594.5 C 401.091 594.5 384 577.409 384 556.358 L 384 38.642 C 384 17.591 401.091 0.5 422.142 0.5 Z " fill="none" mask="url(#_mask_zpfLpxjLTj1fNwE1OCLOcU6FkhYi7z9E)" vector-effect="non-scaling-stroke" stroke-width="2" stroke="rgb(63,61,86)" stroke-opacity="10000" stroke-linejoin="miter" stroke-linecap="butt" stroke-miterlimit="2"/><path d=" M 422.142 0.5 L 804.858 0.5 C 825.909 0.5 843 17.591 843 38.642 L 843 556.358 C 843 577.409 825.909 594.5 804.858 594.5 L 422.142 594.5 C 401.091 594.5 384 577.409 384 556.358 L 384 38.642 C 384 17.591 401.091 0.5 422.142 0.5 Z " fill="none"/></g><path d=" M 422.142 0.5 L 804.858 0.5 C 825.909 0.5 843 17.591 843 38.642 L 843 556.358 C 843 577.409 825.909 594.5 804.858 594.5 L 422.142 594.5 C 401.091 594.5 384 577.409 384 556.358 L 384 38.642 C 384 17.591 401.091 0.5 422.142 0.5 Z " fill="none"/></g></g><path d=" M 422.142 0.5 L 804.858 0.5 C 825.909 0.5 843 17.591 843 38.642 L 843 556.358 C 843 577.409 825.909 594.5 804.858 594.5 L 422.142 594.5 C 401.091 594.5 384 577.409 384 556.358 L 384 38.642 C 384 17.591 401.091 0.5 422.142 0.5 Z " fill="none"/><rect x="407.5" y="61.971" width="408" height="471.059" transform="matrix(1,0,0,1,0,0)" fill="none" vector-effect="non-scaling-stroke" stroke-width="1" stroke="rgb(63,61,86)" stroke-opacity="1000000" stroke-linejoin="miter" stroke-linecap="butt" stroke-miterlimit="2"/><circle vector-effect="non-scaling-stroke" cx="613.50002" cy="31" r="10" fill="none" stroke-width="1" stroke="rgb(63,61,86)" stroke-opacity="1000000" stroke-linejoin="miter" stroke-linecap="butt" stroke-miterlimit="10"/><circle vector-effect="non-scaling-stroke" cx="613.50002" cy="563.5" r="22" fill="none" stroke-width="1" stroke="rgb(63,61,86)" stroke-opacity="1000000" stroke-linejoin="miter" stroke-linecap="butt" stroke-miterlimit="10"/><path d=" M 600.99 113.567 C 583.218 113.567 566.174 120.627 553.607 133.194 C 541.04 145.761 533.981 162.805 533.981 180.577 C 533.981 217.585 604.181 354.084 604.181 354.084 C 604.181 354.084 668 217.585 668 180.577 C 668 143.568 637.999 113.567 600.99 113.567 L 600.99 113.567 L 600.99 113.567 L 600.99 113.567 Z  M 600.99 225.25 C 586.794 225.25 573.995 216.698 568.562 203.582 C 563.129 190.466 566.132 175.369 576.171 165.33 C 586.209 155.291 601.306 152.288 614.423 157.721 C 627.539 163.154 636.091 175.953 636.091 190.15 C 636.091 209.535 620.376 225.25 600.99 225.25 L 600.99 225.25 L 600.99 225.25 L 600.99 225.25 Z " fill="rgb(25,229,28)"/><ellipse vector-effect="non-scaling-stroke" cx="601.00002" cy="400.5" rx="67" ry="22" fill="rgb(25,229,28)"/><clipPath id="_clipPath_bIfQPewkrGjYdvvXL2C5atjOk5hPOmNx"><path d=" M -2371 -1909.6 L 1089 -1909.6 L 1089 1244.6 L -2371 1244.6 L -2371 -1909.6 L -2371 -1909.6 L -2371 -1909.6 Z  M 361.881 95.957 C 353.187 96.448 345.517 101.811 342.071 109.808 C 337.117 121.782 343.495 135.847 353.07 144.579 C 362.644 153.31 374.943 158.301 386.118 164.861 C 401.128 173.672 414.615 185.904 422.125 201.605 C 429.635 217.306 430.434 236.755 421.606 251.755 C 413.412 265.677 398.513 274.01 384.304 281.694 L 361.881 95.957 L 361.881 95.957 L 361.881 95.957 Z " fill-rule="evenodd" fill="rgb(255,255,255)"/></clipPath><g clip-path="url(#_clipPath_bIfQPewkrGjYdvvXL2C5atjOk5hPOmNx)"><g><g><clipPath id="_clipPath_nHsTqpw7j54RtxYdTzVqUHmeAfFlUTl2"><path d=" M -1730 -1577.1 L 1730 -1577.1 L 1730 1577.1 L -1730 1577.1 L -1730 -1577.1 L -1730 -1577.1 Z  M 361.881 95.957 C 353.187 96.448 345.517 101.811 342.071 109.808 C 337.117 121.782 343.495 135.847 353.07 144.579 C 362.644 153.31 374.943 158.301 386.118 164.861 C 401.128 173.672 414.615 185.904 422.125 201.605 C 429.635 217.306 430.434 236.755 421.606 251.755 C 413.412 265.677 398.513 274.01 384.304 281.694 L 361.881 95.957 L 361.881 95.957 Z " fill-rule="evenodd" fill="rgb(255,255,255)"/></clipPath><g clip-path="url(#_clipPath_nHsTqpw7j54RtxYdTzVqUHmeAfFlUTl2)"><g><clipPath id="_clipPath_4I7kxUdy5sjNRnzzb121dcGiphTGHJvJ"><path d=" M -1730 -1577.1 L 1730 -1577.1 L 1730 1577.1 L -1730 1577.1 L -1730 -1577.1 Z  M 361.881 95.957 C 353.187 96.448 345.517 101.811 342.071 109.808 C 337.117 121.782 343.495 135.847 353.07 144.579 C 362.644 153.31 374.943 158.301 386.118 164.861 C 401.128 173.672 414.615 185.904 422.125 201.605 C 429.635 217.306 430.434 236.755 421.606 251.755 C 413.412 265.677 398.513 274.01 384.304 281.694 L 361.881 95.957 Z " fill-rule="evenodd" fill="rgb(255,255,255)"/></clipPath><g clip-path="url(#_clipPath_4I7kxUdy5sjNRnzzb121dcGiphTGHJvJ)"><mask id="_mask_fyE4mx1JoCCrXBJsq37G5Df1Dhs5i0pI" x="-200%" y="-200%" width="400%" height="400%"><rect x="-200%" y="-200%" width="400%" height="400%" style="fill:white;"/><path d=" M 361.881 95.957 C 353.187 96.448 345.517 101.811 342.071 109.808 C 337.117 121.782 343.495 135.847 353.07 144.579 C 362.644 153.31 374.943 158.301 386.118 164.861 C 401.128 173.672 414.615 185.904 422.125 201.605 C 429.635 217.306 430.434 236.755 421.606 251.755 C 413.412 265.677 398.513 274.01 384.304 281.694" fill="black" stroke="none"/></mask><path d=" M 361.881 95.957 C 353.187 96.448 345.517 101.811 342.071 109.808 C 337.117 121.782 343.495 135.847 353.07 144.579 C 362.644 153.31 374.943 158.301 386.118 164.861 C 401.128 173.672 414.615 185.904 422.125 201.605 C 429.635 217.306 430.434 236.755 421.606 251.755 C 413.412 265.677 398.513 274.01 384.304 281.694" fill="none" mask="url(#_mask_fyE4mx1JoCCrXBJsq37G5Df1Dhs5i0pI)" vector-effect="non-scaling-stroke" stroke-width="2" stroke="rgb(63,61,86)" stroke-opacity="1000000" stroke-linejoin="miter" stroke-linecap="butt" stroke-miterlimit="10"/><path d=" M 361.881 95.957 C 353.187 96.448 345.517 101.811 342.071 109.808 C 337.117 121.782 343.495 135.847 353.07 144.579 C 362.644 153.31 374.943 158.301 386.118 164.861 C 401.128 173.672 414.615 185.904 422.125 201.605 C 429.635 217.306 430.434 236.755 421.606 251.755 C 413.412 265.677 398.513 274.01 384.304 281.694" fill="none"/></g><path d=" M 361.881 95.957 C 353.187 96.448 345.517 101.811 342.071 109.808 C 337.117 121.782 343.495 135.847 353.07 144.579 C 362.644 153.31 374.943 158.301 386.118 164.861 C 401.128 173.672 414.615 185.904 422.125 201.605 C 429.635 217.306 430.434 236.755 421.606 251.755 C 413.412 265.677 398.513 274.01 384.304 281.694" fill="none"/></g></g><path d=" M 361.881 95.957 C 353.187 96.448 345.517 101.811 342.071 109.808 C 337.117 121.782 343.495 135.847 353.07 144.579 C 362.644 153.31 374.943 158.301 386.118 164.861 C 401.128 173.672 414.615 185.904 422.125 201.605 C 429.635 217.306 430.434 236.755 421.606 251.755 C 413.412 265.677 398.513 274.01 384.304 281.694" fill="none"/></g></g></g><path d=" M 361.881 95.957 C 353.187 96.448 345.517 101.811 342.071 109.808 C 337.117 121.782 343.495 135.847 353.07 144.579 C 362.644 153.31 374.943 158.301 386.118 164.861 C 401.128 173.672 414.615 185.904 422.125 201.605 C 429.635 217.306 430.434 236.755 421.606 251.755 C 413.412 265.677 398.513 274.01 384.304 281.694" fill="none"/><ellipse vector-effect="non-scaling-stroke" cx="374.50001999999995" cy="97" rx="17.5" ry="8.5" fill="rgb(25,229,28)"/><ellipse vector-effect="non-scaling-stroke" cx="388.50001999999995" cy="153" rx="17.5" ry="8.5" fill="rgb(25,229,28)"/><ellipse vector-effect="non-scaling-stroke" cx="356.50001999999995" cy="162" rx="17.5" ry="8.5" fill="rgb(25,229,28)"/><ellipse vector-effect="non-scaling-stroke" cx="406.50001999999995" cy="209" rx="17.5" ry="8.5" fill="rgb(25,229,28)"/><ellipse vector-effect="non-scaling-stroke" cx="441.50001999999995" cy="209" rx="17.5" ry="8.5" fill="rgb(25,229,28)"/><clipPath id="_clipPath_U5XnEOVpYy9WmxrMb6BSitPFsHE8qa4N"><path d=" M -2371 -1909.6 L 1089 -1909.6 L 1089 1244.6 L -2371 1244.6 L -2371 -1909.6 L -2371 -1909.6 L -2371 -1909.6 Z  M 47.491 778.564 L 406 778.564 L 47.491 778.564 L 47.491 778.564 L 47.491 778.564 Z " fill-rule="evenodd" fill="rgb(255,255,255)"/></clipPath><g clip-path="url(#_clipPath_U5XnEOVpYy9WmxrMb6BSitPFsHE8qa4N)"><g><g><clipPath id="_clipPath_nPLA0q6koVYqjokIx2ujmHXQP4yaJo55"><path d=" M -1730 -1577.1 L 1730 -1577.1 L 1730 1577.1 L -1730 1577.1 L -1730 -1577.1 L -1730 -1577.1 Z  M 47.491 778.564 L 406 778.564 L 47.491 778.564 L 47.491 778.564 Z " fill-rule="evenodd" fill="rgb(255,255,255)"/></clipPath><g clip-path="url(#_clipPath_nPLA0q6koVYqjokIx2ujmHXQP4yaJo55)"><g><clipPath id="_clipPath_zHFpCbVeAs6Leb0rNUEtdnJPpbzXK82O"><path d=" M -1730 -1577.1 L 1730 -1577.1 L 1730 1577.1 L -1730 1577.1 L -1730 -1577.1 Z  M 47.491 778.564 L 406 778.564 L 47.491 778.564 Z " fill-rule="evenodd" fill="rgb(255,255,255)"/></clipPath><g clip-path="url(#_clipPath_zHFpCbVeAs6Leb0rNUEtdnJPpbzXK82O)"><mask id="_mask_nzD7EQXjkT34YwLCX68KMk1OqX7VaoDA" x="-200%" y="-200%" width="400%" height="400%"><rect x="-200%" y="-200%" width="400%" height="400%" style="fill:white;"/><line x1="47.491" y1="778.564" x2="406" y2="778.564" fill="black" stroke="none"/></mask><line x1="47.491" y1="778.564" x2="406" y2="778.564" mask="url(#_mask_nzD7EQXjkT34YwLCX68KMk1OqX7VaoDA)" vector-effect="non-scaling-stroke" stroke-width="2" stroke="rgb(63,61,86)" stroke-opacity="1000000" stroke-linejoin="miter" stroke-linecap="butt" stroke-miterlimit="10"/></g></g></g></g></g></g><clipPath id="_clipPath_3MWBDUAAP6ghmHHF5QOeJgCM52eiS227"><path d=" M -2371 -1909.6 L 1089 -1909.6 L 1089 1244.6 L -2371 1244.6 L -2371 -1909.6 L -2371 -1909.6 L -2371 -1909.6 Z  M 34.343 605.323 C 26.247 605.78 19.105 610.774 15.896 618.221 C 11.283 629.371 17.223 642.468 26.138 650.598 C 35.054 658.729 46.507 663.377 56.913 669.485 C 70.889 677.69 83.449 689.08 90.442 703.701 C 97.435 718.322 98.179 736.432 89.959 750.4 C 82.329 763.364 68.455 771.124 55.223 778.28 L 34.343 605.323 L 34.343 605.323 L 34.343 605.323 Z " fill-rule="evenodd" fill="rgb(255,255,255)"/></clipPath><g clip-path="url(#_clipPath_3MWBDUAAP6ghmHHF5QOeJgCM52eiS227)"><g><g><clipPath id="_clipPath_DV4pB7md7FwsvMqmPOqeW1EPrIeAeVrD"><path d=" M -1730 -1577.1 L 1730 -1577.1 L 1730 1577.1 L -1730 1577.1 L -1730 -1577.1 L -1730 -1577.1 Z  M 34.343 605.323 C 26.247 605.78 19.105 610.774 15.896 618.221 C 11.283 629.371 17.223 642.468 26.138 650.598 C 35.054 658.729 46.507 663.377 56.913 669.485 C 70.889 677.69 83.449 689.08 90.442 703.701 C 97.435 718.322 98.179 736.432 89.959 750.4 C 82.329 763.364 68.455 771.124 55.223 778.28 L 34.343 605.323 L 34.343 605.323 Z " fill-rule="evenodd" fill="rgb(255,255,255)"/></clipPath><g clip-path="url(#_clipPath_DV4pB7md7FwsvMqmPOqeW1EPrIeAeVrD)"><g><clipPath id="_clipPath_PxOz4nkNV75RqL6LKeewsWLzxKOq2bY8"><path d=" M -1730 -1577.1 L 1730 -1577.1 L 1730 1577.1 L -1730 1577.1 L -1730 -1577.1 Z  M 34.343 605.323 C 26.247 605.78 19.105 610.774 15.896 618.221 C 11.283 629.371 17.223 642.468 26.138 650.598 C 35.054 658.729 46.507 663.377 56.913 669.485 C 70.889 677.69 83.449 689.08 90.442 703.701 C 97.435 718.322 98.179 736.432 89.959 750.4 C 82.329 763.364 68.455 771.124 55.223 778.28 L 34.343 605.323 Z " fill-rule="evenodd" fill="rgb(255,255,255)"/></clipPath><g clip-path="url(#_clipPath_PxOz4nkNV75RqL6LKeewsWLzxKOq2bY8)"><mask id="_mask_aPBmiBvEMvPNgYDkdyce5jjSM2vXS9e8" x="-200%" y="-200%" width="400%" height="400%"><rect x="-200%" y="-200%" width="400%" height="400%" style="fill:white;"/><path d=" M 34.343 605.323 C 26.247 605.78 19.105 610.774 15.896 618.221 C 11.283 629.371 17.223 642.468 26.138 650.598 C 35.054 658.729 46.507 663.377 56.913 669.485 C 70.889 677.69 83.449 689.08 90.442 703.701 C 97.435 718.322 98.179 736.432 89.959 750.4 C 82.329 763.364 68.455 771.124 55.223 778.28" fill="black" stroke="none"/></mask><path d=" M 34.343 605.323 C 26.247 605.78 19.105 610.774 15.896 618.221 C 11.283 629.371 17.223 642.468 26.138 650.598 C 35.054 658.729 46.507 663.377 56.913 669.485 C 70.889 677.69 83.449 689.08 90.442 703.701 C 97.435 718.322 98.179 736.432 89.959 750.4 C 82.329 763.364 68.455 771.124 55.223 778.28" fill="none" mask="url(#_mask_aPBmiBvEMvPNgYDkdyce5jjSM2vXS9e8)" vector-effect="non-scaling-stroke" stroke-width="2" stroke="rgb(63,61,86)" stroke-opacity="1000000" stroke-linejoin="miter" stroke-linecap="butt" stroke-miterlimit="10"/><path d=" M 34.343 605.323 C 26.247 605.78 19.105 610.774 15.896 618.221 C 11.283 629.371 17.223 642.468 26.138 650.598 C 35.054 658.729 46.507 663.377 56.913 669.485 C 70.889 677.69 83.449 689.08 90.442 703.701 C 97.435 718.322 98.179 736.432 89.959 750.4 C 82.329 763.364 68.455 771.124 55.223 778.28" fill="none"/></g><path d=" M 34.343 605.323 C 26.247 605.78 19.105 610.774 15.896 618.221 C 11.283 629.371 17.223 642.468 26.138 650.598 C 35.054 658.729 46.507 663.377 56.913 669.485 C 70.889 677.69 83.449 689.08 90.442 703.701 C 97.435 718.322 98.179 736.432 89.959 750.4 C 82.329 763.364 68.455 771.124 55.223 778.28" fill="none"/></g></g><path d=" M 34.343 605.323 C 26.247 605.78 19.105 610.774 15.896 618.221 C 11.283 629.371 17.223 642.468 26.138 650.598 C 35.054 658.729 46.507 663.377 56.913 669.485 C 70.889 677.69 83.449 689.08 90.442 703.701 C 97.435 718.322 98.179 736.432 89.959 750.4 C 82.329 763.364 68.455 771.124 55.223 778.28" fill="none"/></g></g></g><path d=" M 34.343 605.323 C 26.247 605.78 19.105 610.774 15.896 618.221 C 11.283 629.371 17.223 642.468 26.138 650.598 C 35.054 658.729 46.507 663.377 56.913 669.485 C 70.889 677.69 83.449 689.08 90.442 703.701 C 97.435 718.322 98.179 736.432 89.959 750.4 C 82.329 763.364 68.455 771.124 55.223 778.28" fill="none"/><ellipse vector-effect="non-scaling-stroke" cx="46.09406000000001" cy="606.29358" rx="16.295870000000036" ry="7.915139999999951" fill="rgb(25,229,28)"/><ellipse vector-effect="non-scaling-stroke" cx="59.13076000000001" cy="658.44037" rx="16.295870000000036" ry="7.915139999999951" fill="rgb(25,229,28)"/><ellipse vector-effect="non-scaling-stroke" cx="29.332589999999982" cy="666.8211" rx="16.295870000000036" ry="7.915139999999951" fill="rgb(25,229,28)"/><ellipse vector-effect="non-scaling-stroke" cx="75.89223000000004" cy="710.58716" rx="16.295870000000036" ry="7.915140000000065" fill="rgb(25,229,28)"/><ellipse vector-effect="non-scaling-stroke" cx="108.48397" cy="710.58716" rx="16.295870000000036" ry="7.915140000000065" fill="rgb(25,229,28)"/><clipPath id="_clipPath_Qjfs0UWKBCcXpwOUy2wJMsfaJgPQNoQb"><path d=" M -2371 -1909.6 L 1089 -1909.6 L 1089 1244.6 L -2371 1244.6 L -2371 -1909.6 L -2371 -1909.6 L -2371 -1909.6 Z  M 73.857 637.302 C 80.468 637.675 86.301 641.754 88.922 647.835 C 92.689 656.941 87.838 667.637 80.557 674.277 C 73.276 680.917 63.923 684.713 55.425 689.701 C 44.011 696.402 33.754 705.704 28.043 717.644 C 22.331 729.584 21.724 744.375 28.437 755.782 C 34.668 766.369 45.998 772.706 56.805 778.55 L 73.857 637.302 L 73.857 637.302 L 73.857 637.302 Z " fill-rule="evenodd" fill="rgb(255,255,255)"/></clipPath><g clip-path="url(#_clipPath_Qjfs0UWKBCcXpwOUy2wJMsfaJgPQNoQb)"><g><g><clipPath id="_clipPath_19YZNHhXjHpJfWkyHq0SOMbyIof8SdwW"><path d=" M -1730 -1577.1 L 1730 -1577.1 L 1730 1577.1 L -1730 1577.1 L -1730 -1577.1 L -1730 -1577.1 Z  M 73.857 637.302 C 80.468 637.675 86.301 641.754 88.922 647.835 C 92.689 656.941 87.838 667.637 80.557 674.277 C 73.276 680.917 63.923 684.713 55.425 689.701 C 44.011 696.402 33.754 705.704 28.043 717.644 C 22.331 729.584 21.724 744.375 28.437 755.782 C 34.668 766.369 45.998 772.706 56.805 778.55 L 73.857 637.302 L 73.857 637.302 Z " fill-rule="evenodd" fill="rgb(255,255,255)"/></clipPath><g clip-path="url(#_clipPath_19YZNHhXjHpJfWkyHq0SOMbyIof8SdwW)"><g><clipPath id="_clipPath_Fy7ReuNXuwgfbh0FmhCAdOhFR8jXgVl9"><path d=" M -1730 -1577.1 L 1730 -1577.1 L 1730 1577.1 L -1730 1577.1 L -1730 -1577.1 Z  M 73.857 637.302 C 80.468 637.675 86.301 641.754 88.922 647.835 C 92.689 656.941 87.838 667.637 80.557 674.277 C 73.276 680.917 63.923 684.713 55.425 689.701 C 44.011 696.402 33.754 705.704 28.043 717.644 C 22.331 729.584 21.724 744.375 28.437 755.782 C 34.668 766.369 45.998 772.706 56.805 778.55 L 73.857 637.302 Z " fill-rule="evenodd" fill="rgb(255,255,255)"/></clipPath><g clip-path="url(#_clipPath_Fy7ReuNXuwgfbh0FmhCAdOhFR8jXgVl9)"><mask id="_mask_8NIziobIhU1uTogq8OC5MYu7w7wxHwcz" x="-200%" y="-200%" width="400%" height="400%"><rect x="-200%" y="-200%" width="400%" height="400%" style="fill:white;"/><path d=" M 73.857 637.302 C 80.468 637.675 86.301 641.754 88.922 647.835 C 92.689 656.941 87.838 667.637 80.557 674.277 C 73.276 680.917 63.923 684.713 55.425 689.701 C 44.011 696.402 33.754 705.704 28.043 717.644 C 22.331 729.584 21.724 744.375 28.437 755.782 C 34.668 766.369 45.998 772.706 56.805 778.55" fill="black" stroke="none"/></mask><path d=" M 73.857 637.302 C 80.468 637.675 86.301 641.754 88.922 647.835 C 92.689 656.941 87.838 667.637 80.557 674.277 C 73.276 680.917 63.923 684.713 55.425 689.701 C 44.011 696.402 33.754 705.704 28.043 717.644 C 22.331 729.584 21.724 744.375 28.437 755.782 C 34.668 766.369 45.998 772.706 56.805 778.55" fill="none" mask="url(#_mask_8NIziobIhU1uTogq8OC5MYu7w7wxHwcz)" vector-effect="non-scaling-stroke" stroke-width="2" stroke="rgb(63,61,86)" stroke-opacity="1000000" stroke-linejoin="miter" stroke-linecap="butt" stroke-miterlimit="10"/><path d=" M 73.857 637.302 C 80.468 637.675 86.301 641.754 88.922 647.835 C 92.689 656.941 87.838 667.637 80.557 674.277 C 73.276 680.917 63.923 684.713 55.425 689.701 C 44.011 696.402 33.754 705.704 28.043 717.644 C 22.331 729.584 21.724 744.375 28.437 755.782 C 34.668 766.369 45.998 772.706 56.805 778.55" fill="none"/></g><path d=" M 73.857 637.302 C 80.468 637.675 86.301 641.754 88.922 647.835 C 92.689 656.941 87.838 667.637 80.557 674.277 C 73.276 680.917 63.923 684.713 55.425 689.701 C 44.011 696.402 33.754 705.704 28.043 717.644 C 22.331 729.584 21.724 744.375 28.437 755.782 C 34.668 766.369 45.998 772.706 56.805 778.55" fill="none"/></g></g><path d=" M 73.857 637.302 C 80.468 637.675 86.301 641.754 88.922 647.835 C 92.689 656.941 87.838 667.637 80.557 674.277 C 73.276 680.917 63.923 684.713 55.425 689.701 C 44.011 696.402 33.754 705.704 28.043 717.644 C 22.331 729.584 21.724 744.375 28.437 755.782 C 34.668 766.369 45.998 772.706 56.805 778.55" fill="none"/></g></g></g><path d=" M 73.857 637.302 C 80.468 637.675 86.301 641.754 88.922 647.835 C 92.689 656.941 87.838 667.637 80.557 674.277 C 73.276 680.917 63.923 684.713 55.425 689.701 C 44.011 696.402 33.754 705.704 28.043 717.644 C 22.331 729.584 21.724 744.375 28.437 755.782 C 34.668 766.369 45.998 772.706 56.805 778.55" fill="none"/><ellipse vector-effect="non-scaling-stroke" cx="64.26008999999999" cy="638.09485" rx="13.308300000000031" ry="6.46402999999998" fill="rgb(25,229,28)"/><ellipse vector-effect="non-scaling-stroke" cx="53.61343999999997" cy="680.68142" rx="13.308300000000031" ry="6.46402999999998" fill="rgb(25,229,28)"/><ellipse vector-effect="non-scaling-stroke" cx="77.94862" cy="687.52569" rx="13.308300000000031" ry="6.46402999999998" fill="rgb(25,229,28)"/><ellipse vector-effect="non-scaling-stroke" cx="39.924909999999954" cy="723.2679800000001" rx="13.308300000000031" ry="6.464030000000093" fill="rgb(25,229,28)"/><ellipse vector-effect="non-scaling-stroke" cx="13.308300000000031" cy="723.2679800000001" rx="13.308300000000031" ry="6.464030000000093" fill="rgb(25,229,28)"/><path d=" M 129.846 737.504 C 129.846 737.504 139.157 742.16 145.676 743.092 C 145.676 743.092 155.861 737.43 154.493 735.139 C 154.493 735.139 158.713 734.711 162.437 743.092 C 162.437 743.092 178.268 761.715 187.579 762.647 C 196.891 763.578 196.964 776.185 192.235 776.615 C 187.114 777.08 178.268 780.339 167.093 776.615 C 155.919 772.89 145.676 762.647 141.02 762.647 C 136.364 762.647 120.534 755.197 125.19 751.472 C 129.846 747.748 129.846 737.504 129.846 737.504 Z " fill="rgb(58,0,95)"/><path d=" M 221.624 758.544 C 226.378 758.909 231.159 758.616 235.832 757.672 C 242.231 756.117 243.188 748.634 241.068 747.014 C 238.947 745.395 244.827 745.051 251.396 751.45 C 251.396 751.45 273.008 762.867 282.001 760.275 C 290.993 757.684 295.74 769.363 291.509 771.517 C 284.333 775.452 276.357 777.702 268.183 778.099 C 256.425 778.788 243.091 775.83 238.767 777.558 C 234.444 779.286 216.98 778.245 219.92 773.058 C 222.861 767.871 221.624 758.544 221.624 758.544 Z " fill="rgb(58,0,95)"/><circle vector-effect="non-scaling-stroke" cx="205.79359999999997" cy="278.04816000000005" r="36.316509999999994" fill="rgb(160,97,106)"/><path d=" M 177.392 292.482 C 177.392 292.482 182.979 331.592 169.943 337.179 C 169.943 337.179 236.057 340.904 236.057 340.904 C 236.057 340.904 224.883 305.518 227.677 296.206 C 230.47 286.894 177.392 292.482 177.392 292.482 Z " fill="rgb(160,97,106)"/><path d=" M 164.356 515.037 C 164.356 515.037 161.562 585.807 158.768 593.257 C 158.768 593.257 153.181 650.991 153.181 650.991 L 128.97 742.248 L 151.319 749.697 C 151.319 749.697 182.048 695.688 185.773 689.17 C 189.498 682.651 219.296 578.358 219.296 578.358 C 219.296 578.358 216.502 642.61 216.502 664.028 C 216.502 685.445 222.09 763.665 222.09 763.665 L 239.782 761.803 L 263.062 663.096 C 263.062 663.096 296.585 529.936 274.236 515.037 C 251.888 500.138 164.356 515.037 164.356 515.037 Z " fill="rgb(28,0,45)"/><path d=" M 300.31 537.385 C 300.31 537.385 301.241 591.395 290.067 583.014 C 290.067 583.014 290.067 532.729 290.067 532.729 L 300.31 537.385 L 300.31 537.385 L 300.31 537.385 Z " fill="rgb(160,97,106)"/><path d=" M 145.732 518.761 C 145.732 518.761 146.663 572.771 135.489 564.39 C 135.489 564.39 135.489 514.106 135.489 514.106 L 145.732 518.761 L 145.732 518.761 L 145.732 518.761 Z " fill="rgb(160,97,106)"/><path d=" M 282.617 361.39 C 282.617 361.39 263.993 339.972 248.163 342.766 C 248.163 342.766 145.732 344.628 145.732 344.628 C 145.732 344.628 116.865 380.945 124.314 388.394 C 124.314 388.394 155.975 528.073 155.975 528.073 C 155.975 528.073 220.227 519.693 242.576 519.693 C 242.576 519.693 274.236 515.968 274.236 515.968 C 274.236 515.968 244.438 456.372 258.406 429.367 C 272.374 402.362 292.86 373.495 292.86 373.495 L 282.617 361.39 L 282.617 361.39 L 282.617 361.39 Z " fill="rgb(25,229,28)"/><path d=" M 277.03 367.908 L 292.86 373.495 C 292.86 373.495 302.172 406.087 302.172 432.161 C 302.172 458.234 303.103 471.271 306.828 480.583 C 310.553 489.894 322.658 533.661 316.14 542.972 C 312.541 548.273 308.143 552.985 303.103 556.94 L 281.686 555.078 C 281.686 555.078 280.755 524.349 275.167 521.555 C 275.167 521.555 262.131 501.069 262.131 501.069 C 262.131 501.069 244.438 444.266 255.612 425.642 C 266.787 407.018 277.03 367.908 277.03 367.908 Z " fill="rgb(25,229,28)"/><path d=" M 217.434 402.362 C 217.434 402.362 226.745 361.39 209.053 363.252 C 209.053 363.252 167.149 366.046 160.631 366.046 C 160.631 366.046 116.865 361.39 111.278 385.601 C 111.278 385.601 98.241 439.61 114.071 458.234 C 114.071 458.234 119.658 540.179 141.076 545.766 C 162.493 551.353 219.296 557.871 239.782 530.867 C 260.268 503.862 251.888 474.064 251.888 474.064 L 242.576 474.064 L 217.434 402.362 L 217.434 402.362 L 217.434 402.362 Z " fill="rgb(58,0,95)"/><path d=" M 248.163 475.927 L 255.612 425.642 L 251.888 477.789 L 248.163 475.927 L 248.163 475.927 L 248.163 475.927 L 248.163 475.927 Z " fill="rgb(63,61,86)"/><g style="opacity:0.1;"><g style="opacity:0.1;"><g style="opacity:0.1;"><g opacity="0.1"><path d=" M 123.383 464.752 C 123.383 464.752 139.213 472.202 171.805 467.546 L 171.805 481.514 L 123.383 477.789 L 123.383 464.752 L 123.383 464.752 L 123.383 464.752 Z " fill="rgb(0,0,0)"/></g></g></g></g><path d=" M 208.587 362.787 L 232.798 349.75 L 212.312 367.443 L 208.587 362.787 L 208.587 362.787 L 208.587 362.787 L 208.587 362.787 Z " fill="rgb(63,61,86)"/><path d=" M 260.268 349.284 C 260.268 349.284 278.892 355.803 278.892 349.284 C 278.892 349.284 262.131 337.179 251.888 333.454 C 251.888 333.454 193.223 324.142 185.773 321.349 C 185.773 321.349 142.938 313.899 140.145 325.073 C 140.145 325.073 136.42 359.528 150.388 362.321 C 150.388 362.321 200.672 357.665 219.296 359.528 C 237.92 361.39 260.268 349.284 260.268 349.284 Z " fill="rgb(0,225,4)"/><path d=" M 130.367 370.236 L 136.696 356.942 L 137.817 373.03 L 130.367 370.236 L 130.367 370.236 L 130.367 370.236 L 130.367 370.236 Z " fill="rgb(63,61,86)"/><ellipse vector-effect="non-scaling-stroke" cx="199.50000999999997" cy="276.03211" rx="34" ry="39.5" fill="rgb(47,46,65)"/><ellipse vector-effect="non-scaling-stroke" cx="205.50000999999997" cy="255.03211" rx="34" ry="21.5" fill="rgb(47,46,65)"/><ellipse vector-effect="non-scaling-stroke" cx="232.00000999999997" cy="287.53211" rx="3.5" ry="6" fill="rgb(160,97,106)"/><path d=" M 227.118 249.619 C 230.695 247.661 233.751 244.122 236.038 239.287 C 236.262 240.362 236.322 241.464 236.217 242.557 C 237.702 242.39 239.144 241.955 240.475 241.273 L 240.156 244.759 C 242.725 243.185 245.086 241.294 247.184 239.131 C 247.753 244.216 246.901 249.36 244.722 253.989 C 242.867 257.653 240.346 260.035 237.851 262.382" fill="rgb(47,46,65)"/></g></g></g></g></g></g></g></g></g></g></g></svg>