<?xml version="1.0" encoding="UTF-8" standalone="no"?><!-- Generator: Gravit.io --><svg xmlns="http://www.w3.org/2000/svg" xmlns:xlink="http://www.w3.org/1999/xlink" style="isolation:isolate" viewBox="0 0 798.681 647.009" width="798.681pt" height="647.009pt"><defs><clipPath id="_clipPath_ntU6jcC2oKQeCkzTDxi7WQTjKFF1XrsK"><rect width="798.681" height="647.009"/></clipPath></defs><g clip-path="url(#_clipPath_ntU6jcC2oKQeCkzTDxi7WQTjKFF1XrsK)"><clipPath id="_clipPath_BznOTRsGllxLHllmvtRqOvZ0cIE1kzAp"><rect x="0" y="0" width="798.681" height="647.009" transform="matrix(1,0,0,1,0,0)" fill="rgb(255,255,255)"/></clipPath><g clip-path="url(#_clipPath_BznOTRsGllxLHllmvtRqOvZ0cIE1kzAp)"><g><clipPath id="_clipPath_986LLI3pjnYphEtVUphnd25wYydq5x8p"><rect x="0" y="0" width="798.681" height="647.009" transform="matrix(1,0,0,1,0,0)" fill="rgb(255,255,255)"/></clipPath><g clip-path="url(#_clipPath_986LLI3pjnYphEtVUphnd25wYydq5x8p)"><g><g><clipPath id="_clipPath_F0Chok0XwzL5iqxOK6PgLbPtIQSPeeP3"><rect x="0" y="0" width="798.681" height="647.009" transform="matrix(1,0,0,1,0,0)" fill="rgb(255,255,255)"/></clipPath><g clip-path="url(#_clipPath_F0Chok0XwzL5iqxOK6PgLbPtIQSPeeP3)"><g><g><g><clipPath id="_clipPath_9NZp63g9k3mjQyjENTHTDMG3TMCwH0vE"><rect x="0" y="0" width="798.681" height="647.009" transform="matrix(1,0,0,1,0,0)" fill="rgb(255,255,255)"/></clipPath><g clip-path="url(#_clipPath_9NZp63g9k3mjQyjENTHTDMG3TMCwH0vE)"><g><g><g><g><g><g><path d=" M 126.832 0 L 74.02 103.009 L 84.681 103.009 L 84.681 187.009 L 30.953 187.009 L 0 247.381 L 383.53 444.017 L 510.363 196.636 L 126.832 0 L 126.832 0 L 126.832 0 L 126.832 0 L 126.832 0 Z " fill="rgb(242,242,242)"/><rect x="115.681" y="67.009" width="588" height="295" transform="matrix(1,0,0,1,0,0)" fill="rgb(58,0,95)"/><g style="opacity:0.3;"><g style="opacity:0.3;"><g style="opacity:0.3;"><g style="opacity:0.3;"><g opacity="0.3"><rect x="198.181" y="173.009" width="434" height="1" transform="matrix(1,0,0,1,0,0)" fill="rgb(58,7,132)"/></g></g></g></g></g><g style="opacity:0.3;"><g style="opacity:0.3;"><g style="opacity:0.3;"><g style="opacity:0.3;"><g opacity="0.3"><rect x="198.681" y="198.009" width="434" height="1" transform="matrix(1,0,0,1,0,0)" fill="rgb(58,7,132)"/></g></g></g></g></g><g style="opacity:0.3;"><g style="opacity:0.3;"><g style="opacity:0.3;"><g style="opacity:0.3;"><g opacity="0.3"><rect x="198.681" y="248.009" width="434" height="1" transform="matrix(1,0,0,1,0,0)" fill="rgb(58,7,132)"/></g></g></g></g></g><g style="opacity:0.3;"><g style="opacity:0.3;"><g style="opacity:0.3;"><g style="opacity:0.3;"><g opacity="0.3"><rect x="198.681" y="270.009" width="434" height="1" transform="matrix(1,0,0,1,0,0)" fill="rgb(58,7,132)"/></g></g></g></g></g><g style="opacity:0.3;"><g style="opacity:0.3;"><g style="opacity:0.3;"><g style="opacity:0.3;"><g opacity="0.3"><rect x="198.681" y="223.009" width="434" height="1" transform="matrix(1,0,0,1,0,0)" fill="rgb(58,7,132)"/></g></g></g></g></g><ellipse vector-effect="non-scaling-stroke" cx="566.68127" cy="630.00861" rx="186" ry="17" fill="rgb(63,61,86)"/><path d=" M 210.722 270.733 L 209.342 269.285 L 273.943 207.712 L 330.889 248.674 L 376.94 197.618 L 397.133 214.782 L 452.062 181.824 L 513.076 222.833 L 608.837 168.364 L 609.825 170.102 L 512.988 225.184 L 452.002 184.193 L 396.931 217.235 L 377.124 200.399 L 331.175 251.343 L 274.121 210.305 L 210.722 270.733 L 210.722 270.733 L 210.722 270.733 L 210.722 270.733 L 210.722 270.733 Z " fill="rgb(25,229,28)"/><path d=" M 396.757 595.847 C 401.457 613.22 417.555 623.981 417.555 623.981 C 417.555 623.981 426.033 606.572 421.333 589.198 C 416.633 571.824 400.535 561.064 400.535 561.064 C 400.535 561.064 392.057 578.473 396.757 595.847 Z " fill="rgb(74,106,74)"/><path d=" M 403.663 592.113 C 416.56 604.667 418.135 623.966 418.135 623.966 C 418.135 623.966 398.8 622.911 385.904 610.356 C 373.007 597.802 371.432 578.503 371.432 578.503 C 371.432 578.503 390.766 579.558 403.663 592.113 Z " fill="rgb(25,229,28)"/><g style="opacity:0.4;"><g style="opacity:0.4;"><g style="opacity:0.4;"><g style="opacity:0.4;"><g opacity="0.4"><circle vector-effect="non-scaling-stroke" cx="765.18127" cy="53.508609999999976" r="33.5" fill="rgb(0,0,0)"/></g></g></g></g></g><g style="opacity:0.4;"><g style="opacity:0.4;"><g style="opacity:0.4;"><g style="opacity:0.4;"><g opacity="0.4"><circle vector-effect="non-scaling-stroke" cx="703.18127" cy="69.50860999999998" r="23.5" fill="rgb(0,0,0)"/></g></g></g></g></g><g style="opacity:0.4;"><g style="opacity:0.4;"><g style="opacity:0.4;"><g style="opacity:0.4;"><g opacity="0.4"><circle vector-effect="non-scaling-stroke" cx="674.18127" cy="500.50861" r="12.5" fill="rgb(0,0,0)"/></g></g></g></g></g><g style="opacity:0.4;"><g style="opacity:0.4;"><g style="opacity:0.4;"><g style="opacity:0.4;"><g opacity="0.4"><circle vector-effect="non-scaling-stroke" cx="461.18127000000004" cy="565.50861" r="9.5" fill="rgb(0,0,0)"/></g></g></g></g></g><g style="opacity:0.4;"><g style="opacity:0.4;"><g style="opacity:0.4;"><g style="opacity:0.4;"><g opacity="0.4"><circle vector-effect="non-scaling-stroke" cx="429.18127000000004" cy="439.50861" r="12.5" fill="rgb(0,0,0)"/></g></g></g></g></g><circle vector-effect="non-scaling-stroke" cx="608.18127" cy="173.50860999999998" r="13" fill="rgb(25,229,28)"/><path d=" M 523.714 408.974 L 512.693 410.199 C 512.693 410.199 507.795 432.24 512.693 461.628 C 512.693 461.628 523.714 520.404 523.714 520.404 C 523.714 520.404 528.612 615.915 531.061 617.139 C 531.061 617.139 555.551 625.711 556.775 618.364 C 556.775 618.364 558 443.26 558 443.26 L 575.143 524.077 C 575.143 524.077 577.592 625.711 582.49 625.711 C 582.49 625.711 603.306 624.486 603.306 615.915 C 603.306 615.915 606.98 494.689 606.98 494.689 C 606.98 494.689 605.755 411.423 600.857 408.974 C 595.959 406.525 523.714 408.974 523.714 408.974 Z " fill="rgb(58,0,95)"/><path d=" M 533.51 613.466 C 533.51 613.466 522.489 612.242 520.04 613.466 C 520.04 613.466 513.918 623.262 520.04 628.16 C 520.04 628.16 542.081 640.405 546.979 640.405 C 550.376 640.254 553.707 639.421 556.775 637.956 L 554.326 617.14 L 533.51 613.466 L 533.51 613.466 L 533.51 613.466 L 533.51 613.466 Z " fill="rgb(58,0,95)"/><path d=" M 582.49 619.589 L 583.714 636.732 C 583.714 636.732 599.633 639.181 600.857 636.732 C 600.857 636.732 614.327 628.16 615.551 626.936 C 615.551 626.936 618 612.242 610.653 611.017 C 610.653 611.017 600.857 613.466 600.857 613.466 L 582.49 619.589 L 582.49 619.589 L 582.49 619.589 L 582.49 619.589 Z " fill="rgb(58,0,95)"/><path d=" M 479.632 306.116 C 479.632 306.116 450.244 334.28 453.917 348.974 C 457.591 363.668 486.979 406.525 486.979 406.525 C 486.979 406.525 515.142 421.219 518.816 406.525 C 522.489 391.831 499.224 395.505 499.224 395.505 L 480.856 351.423 L 501.673 322.035 L 479.632 306.116 L 479.632 306.116 L 479.632 306.116 L 479.632 306.116 Z " fill="rgb(160,97,106)"/><path d=" M 610.945 263.269 C 610.945 263.269 637.717 246.053 637.097 234.226 C 637.097 234.226 620.339 185.106 620.339 185.106 C 620.339 185.106 607.713 158.857 602.694 169.584 C 602.694 169.584 609.291 191.731 609.291 191.731 L 616.788 228.313 L 596.412 247.752 L 610.945 263.269 L 610.945 263.269 L 610.945 263.269 L 610.945 263.269 Z " fill="rgb(160,97,106)"/><circle vector-effect="non-scaling-stroke" cx="544.53033" cy="216.72768999999994" r="22.04101999999989" fill="rgb(160,97,106)"/><path d=" M 533.51 230.197 L 537.183 253.463 L 564.122 248.565 C 564.122 248.565 562.898 225.299 562.898 222.85 C 562.898 220.401 533.51 230.197 533.51 230.197 Z " fill="rgb(160,97,106)"/><path d=" M 532.285 253.463 C 532.285 253.463 562.898 246.116 566.571 248.565 C 566.571 248.565 588.612 253.463 588.612 253.463 L 609.429 285.3 L 603.306 325.708 C 603.306 325.708 602.082 390.607 604.531 401.627 C 604.531 401.627 620.449 413.872 592.286 416.321 C 592.286 416.321 559.224 415.097 539.632 419.995 C 539.632 419.995 504.122 417.546 509.02 412.648 C 509.02 412.648 522.489 329.382 512.693 322.035 C 512.693 322.035 499.224 276.728 499.224 276.728 C 499.224 276.728 532.285 259.585 532.285 253.463 Z " fill="rgb(25,229,28)"/><path d=" M 584.939 257.136 L 588.612 253.463 L 595.959 246.116 C 595.959 246.116 619.837 256.524 618.613 260.197 C 618.613 260.197 609.429 285.3 609.429 285.3 L 598.408 288.973 L 584.939 257.136 L 584.939 257.136 L 584.939 257.136 L 584.939 257.136 Z " fill="rgb(25,229,28)"/><path d=" M 513.918 279.177 L 499.224 276.728 C 499.224 276.728 488.203 288.973 484.53 293.871 C 484.53 293.871 473.509 311.014 473.509 311.014 L 499.224 329.382 L 518.816 308.565 L 513.918 279.177 L 513.918 279.177 L 513.918 279.177 L 513.918 279.177 Z " fill="rgb(25,229,28)"/><path d=" M 552.222 190.025 L 551.996 188.259 C 550.498 188.251 549.009 188.485 547.585 188.952 C 547.44 187.888 547.533 186.804 547.858 185.779 C 546.411 186.151 545.033 186.75 543.775 187.554 L 542.884 184.332 L 530.643 190.365 C 526.249 192.531 521.616 194.91 519.104 199.116 C 516.304 203.805 516.791 209.831 518.706 214.945 C 520.62 220.06 523.801 224.587 526.351 229.416 C 527.319 231.493 528.482 233.473 529.825 235.33 C 534.446 241.09 543.44 242.253 549.954 238.777 C 552.433 237.583 554.409 235.549 555.532 233.037 C 556.007 231.479 556.379 229.891 556.646 228.284 C 557.452 224.992 558.388 218.198 561.061 216.115 C 562.238 215.199 564.57 218.237 565.545 217.108 C 568.05 214.209 567.524 209.737 565.968 206.235 C 564.475 202.718 562.729 199.313 560.745 196.047 C 559.905 194.734 552.195 189.813 552.222 190.025 Z " fill="rgb(47,46,65)"/><rect x="12.681" y="115.009" width="64" height="64" transform="matrix(1,0,0,1,0,0)" fill="rgb(58,0,95)"/></g></g></g></g></g></g></g></g></g></g></g></g></g></g></g></g></g></svg>