<svg xmlns="http://www.w3.org/2000/svg" style="isolation:isolate" viewBox="0 0 1046 729.87">
  <defs>
    <clipPath id="a">
      <path d="M0 0h1046v729.87H0z"/>
    </clipPath>
  </defs>
  <g clip-path="url(#a)">
    <path fill="#19E51C" d="M417.15 93.3C337.044 16.95 215.889 3.307 120.81 59.93c94.98 34 199.78 35.25 296.34 33.37zM967.64 645.48L863.92 465.83c-.588-1.028-1.681-1.662-2.865-1.662-1.184 0-2.277.634-2.865 1.662L754.47 645.48c-.616 1.024-.63 2.301-.036 3.339.593 1.037 1.701 1.672 2.896 1.661h30.94c1.826.005 3.305 1.484 3.31 3.31v38.34c0 1.824 1.476 3.304 3.3 3.31h40.37c1.828 0 3.31-1.482 3.31-3.31V673.6c0-1.823 1.477-3.3 3.3-3.3h38.38c1.824 0 3.304 1.476 3.31 3.3v18.53c0 1.828 1.482 3.31 3.31 3.31h40.36c1.828 0 3.31-1.482 3.31-3.31v-38.38c0-1.828 1.482-3.31 3.31-3.31h30.94c1.18-.003 2.269-.634 2.858-1.657.589-1.022.59-2.28.002-3.303zM823 665.36c-.615.633-1.458.993-2.34 1h-14.53c-1.828 0-3.31-1.482-3.31-3.31s1.482-3.31 3.31-3.31h14.56c1.338 0 2.545.807 3.057 2.043.512 1.237.229 2.66-.717 3.607l-.03-.03zm95.28 0c-.615.633-1.458.993-2.34 1h-14.52c-1.828 0-3.31-1.482-3.31-3.31s1.482-3.31 3.31-3.31H916c1.338 0 2.545.807 3.057 2.043.512 1.237.229 2.66-.717 3.607l-.06-.03zM326.55 647.06L222.83 467.41c-.592-1.023-1.684-1.652-2.865-1.652-1.181 0-2.273.629-2.865 1.652l-89.59 155.17c11.193 14.105 23.75 27.071 37.49 38.71h14.6c1.828 0 3.31 1.482 3.31 3.31s-1.482 3.31-3.31 3.31h-6.16c7.545 5.674 15.576 10.67 24 14.93v-7.65c0-1.828 1.482-3.31 3.31-3.31h38.38c1.824.006 3.3 1.486 3.3 3.31v18.52c-.002.481.104.956.31 1.39.541 1.169 1.712 1.918 3 1.92h40.37c1.039.004 2.017-.491 2.63-1.33.444-.571.681-1.277.67-2v-38.35c0-1.828 1.482-3.31 3.31-3.31h30.94c1.188.009 2.29-.619 2.888-1.646.597-1.027.598-2.296.002-3.324zM258 662.26c.615-.633 1.458-.993 2.34-1h14.56c1.828 0 3.31 1.482 3.31 3.31s-1.482 3.31-3.31 3.31h-14.57c-1.338 0-2.545-.807-3.057-2.043-.512-1.237-.229-2.66.717-3.607l.01.03zm-65.15-66.48c-1.828 0-3.31-1.482-3.31-3.31v-25.14c0-1.828 1.482-3.31 3.31-3.31h54.25c1.824.006 3.3 1.486 3.3 3.31v25.14c0 1.824-1.476 3.304-3.3 3.31h-54.25zM736.53 324.34H608.18v-27.76c0-3.667-2.973-6.64-6.64-6.64h-37.69v-29.57c0-2.309-1.871-4.18-4.18-4.18h-48.55c-2.309 0-4.18 1.871-4.18 4.18v29.56h-44.31c-3.667 0-6.64 2.973-6.64 6.64v27.76H333.6c-.742.005-1.34.608-1.34 1.35v368.53c0 .742.598 1.345 1.34 1.35h81.34c.358 0 .701-.142.955-.395.253-.254.395-.597.395-.955v-49.58c.005-.743.607-1.345 1.35-1.35H452c.743.005 1.345.607 1.35 1.35v49.58c0 .742.598 1.345 1.34 1.35h160.75c.743-.005 1.345-.607 1.35-1.35v-49.58c0-.742.598-1.345 1.34-1.35h34.36c.358 0 .701.142.955.395.253.254.395.597.395.955v49.58c.005.743.607 1.345 1.35 1.35h81.34c.743-.005 1.345-.607 1.35-1.35V325.69c-.005-.743-.607-1.345-1.35-1.35zm-334.8 301.72c0 .355-.141.696-.392.948-.252.251-.593.392-.948.392h-50.24c-.357.003-.701-.137-.954-.389s-.396-.594-.396-.951v-17.13c0-.358.142-.701.395-.955.254-.253.597-.395.955-.395h50.24c.742.005 1.34.608 1.34 1.35v17.13zm0-44.34c.003.357-.137.701-.389.954s-.594.396-.951.396h-50.24c-.359.003-.704-.139-.958-.392-.253-.254-.395-.599-.392-.958v-17.15c-.003-.359.139-.704.392-.958.254-.253.599-.395.958-.392h50.24c.357 0 .699.143.951.396s.392.597.389.954v17.15zm0-44.33c0 .742-.598 1.345-1.34 1.35h-50.24c-.358 0-.701-.142-.955-.395-.253-.254-.395-.597-.395-.955v-17.16c0-.358.142-.701.395-.955.254-.253.597-.395.955-.395h50.24c.742.005 1.34.608 1.34 1.35v17.16zm0-44.34c.003.357-.137.701-.389.954s-.594.396-.951.396h-50.24c-.359.003-.704-.139-.958-.392-.253-.254-.395-.599-.392-.958v-17.12c-.003-.359.139-.704.392-.958.254-.253.599-.395.958-.392h50.24c.357 0 .699.143.951.396s.392.597.389.954v17.12zm0-44.33c0 .742-.598 1.345-1.34 1.35h-50.24c-.358 0-.701-.142-.955-.395-.253-.254-.395-.597-.395-.955v-17.16c0-.357.143-.699.396-.951s.597-.392.954-.389h50.24c.355 0 .696.141.948.392.251.252.392.593.392.948v17.16zm0-44.33c0 .74-.6 1.34-1.34 1.34h-50.24c-.357.003-.701-.137-.954-.389s-.396-.594-.396-.951v-17.16c0-.358.142-.701.395-.955.254-.253.597-.395.955-.395h50.24c.742.005 1.34.608 1.34 1.35v17.16zm0-44.34c.003.357-.137.701-.389.954s-.594.396-.951.396h-50.24c-.359.003-.704-.139-.958-.392-.253-.254-.395-.599-.392-.958v-17.12c-.003-.359.139-.704.392-.958.254-.253.599-.395.958-.392h50.24c.357 0 .699.143.951.396s.392.597.389.954v17.12zm119.11 266c0 .357-.143.699-.396.951s-.597.392-.954.389h-50.24c-.742 0-1.345-.598-1.35-1.34v-17.12c.005-.743.607-1.345 1.35-1.35h50.24c.358 0 .701.142.955.395.253.254.395.597.395.955v17.12zm0-44.34c.003.359-.139.704-.392.958-.254.253-.599.395-.958.392h-50.24c-.358 0-.701-.142-.955-.395-.253-.254-.395-.597-.395-.955v-17.14c0-.358.142-.701.395-.955.254-.253.597-.395.955-.395h50.24c.359-.003.704.139.958.392.253.254.395.599.392.958v17.14zm0-44.33c0 .358-.142.701-.395.955-.254.253-.597.395-.955.395h-50.24c-.743-.005-1.345-.607-1.35-1.35v-17.15c.005-.743.607-1.345 1.35-1.35h50.24c.358 0 .701.142.955.395.253.254.395.597.395.955v17.15zm0-44.34c.003.359-.139.704-.392.958-.254.253-.599.395-.958.392h-50.24c-.358 0-.701-.142-.955-.395-.253-.254-.395-.597-.395-.955v-17.11c0-.358.142-.701.395-.955.254-.253.597-.395.955-.395h50.24c.359-.003.704.139.958.392.253.254.395.599.392.958v17.11zm0-44.33c0 .358-.142.701-.395.955-.254.253-.597.395-.955.395h-50.24c-.743-.005-1.345-.607-1.35-1.35v-17.15c.005-.742.608-1.34 1.35-1.34h50.24c.357-.003.701.137.954.389s.396.594.396.951v17.15zm0-44.33c0 .357-.143.699-.396.951s-.597.392-.954.389h-50.24c-.742 0-1.345-.598-1.35-1.34v-17.15c.005-.743.607-1.345 1.35-1.35h50.24c.358 0 .701.142.955.395.253.254.395.597.395.955v17.15zm0-44.34c.003.359-.139.704-.392.958-.254.253-.599.395-.958.392h-50.24c-.358 0-.701-.142-.955-.395-.253-.254-.395-.597-.395-.955v-17.11c0-.358.142-.701.395-.955.254-.253.597-.395.955-.395h50.24c.359-.003.704.139.958.392.253.254.395.599.392.958v17.11zm81.39 266c0 .357-.143.699-.396.951s-.597.392-.954.389h-50.24c-.742 0-1.345-.598-1.35-1.34v-17.11c.005-.743.607-1.345 1.35-1.35h50.24c.358 0 .701.142.955.395.253.254.395.597.395.955v17.11zm0-44.34c.003.359-.139.704-.392.958-.254.253-.599.395-.958.392h-50.24c-.358 0-.701-.142-.955-.395-.253-.254-.395-.597-.395-.955v-17.13c0-.358.142-.701.395-.955.254-.253.597-.395.955-.395h50.24c.359-.003.704.139.958.392.253.254.395.599.392.958v17.13zm0-44.33c0 .358-.142.701-.395.955-.254.253-.597.395-.955.395h-50.24c-.743-.005-1.345-.607-1.35-1.35v-17.14c.005-.743.607-1.345 1.35-1.35h50.24c.358 0 .701.142.955.395.253.254.395.597.395.955v17.14zm0-44.34c.003.359-.139.704-.392.958-.254.253-.599.395-.958.392h-50.24c-.358 0-.701-.142-.955-.395-.253-.254-.395-.597-.395-.955v-17.1c0-.358.142-.701.395-.955.254-.253.597-.395.955-.395h50.24c.359-.003.704.139.958.392.253.254.395.599.392.958v17.1zm0-44.33c0 .358-.142.701-.395.955-.254.253-.597.395-.955.395h-50.24c-.743-.005-1.345-.607-1.35-1.35v-17.14c.005-.742.608-1.34 1.35-1.34h50.24c.357-.003.701.137.954.389s.396.594.396.951v17.14zm0-44.33c0 .357-.143.699-.396.951s-.597.392-.954.389h-50.24c-.742 0-1.345-.598-1.35-1.34v-17.14c.005-.743.607-1.345 1.35-1.35h50.24c.358 0 .701.142.955.395.253.254.395.597.395.955v17.14zm0-44.34c.003.359-.139.704-.392.958-.254.253-.599.395-.958.392h-50.24c-.358 0-.701-.142-.955-.395-.253-.254-.395-.597-.395-.955v-17.1c0-.358.142-.701.395-.955.254-.253.597-.395.955-.395h50.24c.359-.003.704.139.958.392.253.254.395.599.392.958v17.1zm119.11 266c-.005.742-.608 1.34-1.35 1.34h-50.24c-.357.003-.701-.137-.954-.389s-.396-.594-.396-.951v-17.1c0-.358.142-.701.395-.955.254-.253.597-.395.955-.395H720c.743.005 1.345.607 1.35 1.35l-.01 17.1zm0-44.34c0 .358-.142.701-.395.955-.254.253-.597.395-.955.395h-50.24c-.359.003-.704-.139-.958-.392-.253-.254-.395-.599-.392-.958v-17.12c-.003-.359.139-.704.392-.958.254-.253.599-.395.958-.392H720c.358 0 .701.142.955.395.253.254.395.597.395.955l-.01 17.12zm0-44.33c-.005.743-.607 1.345-1.35 1.35h-50.24c-.358 0-.701-.142-.955-.395-.253-.254-.395-.597-.395-.955v-17.13c0-.358.142-.701.395-.955.254-.253.597-.395.955-.395H720c.743.005 1.345.607 1.35 1.35l-.01 17.13zm0-44.34c0 .358-.142.701-.395.955-.254.253-.597.395-.955.395h-50.24c-.359.003-.704-.139-.958-.392-.253-.254-.395-.599-.392-.958v-17.09c-.003-.359.139-.704.392-.958.254-.253.599-.395.958-.392H720c.358 0 .701.142.955.395.253.254.395.597.395.955l-.01 17.09zm0-44.33c-.005.743-.607 1.345-1.35 1.35h-50.24c-.358 0-.701-.142-.955-.395-.253-.254-.395-.597-.395-.955v-17.13c0-.357.143-.699.396-.951s.597-.392.954-.389H720c.742 0 1.345.598 1.35 1.34l-.01 17.13zm0-44.33c.005.36-.133.707-.385.964-.251.257-.595.403-.955.406h-50.25c-.357.003-.701-.137-.954-.389s-.396-.594-.396-.951v-17.16c0-.358.142-.701.395-.955.254-.253.597-.395.955-.395H720c.743.005 1.345.607 1.35 1.35l-.01 17.13zm0-44.34c0 .358-.142.701-.395.955-.254.253-.597.395-.955.395h-50.24c-.359.003-.704-.139-.958-.392-.253-.254-.395-.599-.392-.958v-17.09c-.003-.359.139-.704.392-.958.254-.253.599-.395.958-.392H720c.358 0 .701.142.955.395.253.254.395.597.395.955l-.01 17.09zM371 224.46c-5.647-1.075-11.486-.441-16.77 1.82-6.441 2.871-13.803 2.853-20.23-.05-7.58-3.324-16.238-3.152-23.68.47-2.103 1.108-4.443 1.691-6.82 1.7-9.6 0-17.59-9.67-19.25-22.43 1.918-1.398 3.548-3.153 4.8-5.17 5.63-9.07 14.35-14.9 24.14-14.9 9.79 0 18.4 5.76 24 14.73 3.415 5.512 9.466 8.835 15.95 8.76h.25c7.72 0 14.34 6.13 17.61 15.07z" opacity=".1"/>
    <path fill="#19E51C" d="M400.2 184.41l-15.52 9.84 9.42-17.13c-2.67-2.131-5.974-3.31-9.39-3.35h-.25c-1.078.016-2.156-.065-3.22-.24l-5.24 3.34 2.26-4.1c-3.729-1.303-6.95-3.754-9.2-7l-9.42 6 5.93-10.84c-5.51-6.61-12.93-10.66-21.09-10.66-9.79 0-18.51 5.82-24.14 14.89-3.395 5.541-9.506 8.829-16 8.61h-.53c-10.81 0-19.57 12.25-19.57 27.37 0 15.12 8.76 27.37 19.57 27.37 2.379-.006 4.72-.593 6.82-1.71 7.444-3.619 16.101-3.787 23.68-.46 6.409 2.86 13.731 2.86 20.14 0 7.52-3.27 16.091-3.105 23.48.45 2.08 1.089 4.392 1.662 6.74 1.67 10.81 0 19.57-12.26 19.57-27.37.069-5.81-1.32-11.545-4.04-16.68zM832 406.93c-3.953-.749-8.039-.307-11.74 1.27-4.486 2.006-9.614 2.006-14.1 0-5.308-2.327-11.369-2.206-16.58.33-1.47.777-3.107 1.185-4.77 1.19-6.72 0-12.31-6.77-13.47-15.7 1.34-.982 2.48-2.211 3.36-3.62 3.94-6.35 10-10.43 16.89-10.43 6.89 0 12.89 4 16.83 10.31 2.388 3.859 6.622 6.185 11.16 6.13h.18c5.3-.02 9.93 4.27 12.24 10.52z" opacity=".1"/>
    <path fill="#19E51C" d="M852.42 378.93l-10.86 6.89 6.59-12c-1.869-1.489-4.181-2.313-6.57-2.34h-.17c-.754.009-1.506-.048-2.25-.17l-3.69 2.33 1.58-2.86c-2.606-.916-4.858-2.626-6.44-4.89l-6.61 4.16 4.16-7.57c-3.85-4.63-9-7.47-14.76-7.47-6.85 0-13 4.08-16.9 10.43-2.375 3.861-6.639 6.151-11.17 6H785c-7.56 0-13.7 8.57-13.7 19.15 0 10.58 6.14 19.16 13.7 19.16 1.663-.005 3.3-.413 4.77-1.19 5.211-2.538 11.275-2.655 16.58-.32 4.489 1.993 9.611 1.993 14.1 0 5.263-2.285 11.26-2.168 16.43.32 1.459.756 3.077 1.153 4.72 1.16 7.57 0 13.7-8.57 13.7-19.16.024-4.056-.966-8.054-2.88-11.63zM238.62 342.93c3.953-.748 8.039-.306 11.74 1.27 4.482 2.007 9.608 2.007 14.09 0 5.308-2.327 11.369-2.206 16.58.33 1.471.775 3.107 1.184 4.77 1.19 6.72 0 12.32-6.77 13.48-15.7-1.342-.98-2.483-2.209-3.36-3.62-3.92-6.37-10.05-10.47-16.92-10.47-6.87 0-12.88 4-16.82 10.31-2.395 3.864-6.634 6.196-11.18 6.15h-.17c-5.32 0-9.96 4.29-12.21 10.54z" opacity=".1"/>
    <path fill="#19E51C" d="M218.14 314.93l10.86 6.86-6.6-12c1.869-1.488 4.181-2.311 6.57-2.34h.18c.754.009 1.506-.048 2.25-.17l3.68 2.33-1.58-2.86c2.609-.915 4.865-2.625 6.45-4.89l6.59 4.18-4.17-7.57c3.86-4.63 9.05-7.47 14.77-7.47 6.85 0 13 4.08 16.9 10.43 2.374 3.863 6.639 6.153 11.17 6h.36c7.57 0 13.7 8.57 13.7 19.15 0 10.58-6.13 19.16-13.7 19.16-1.663-.007-3.299-.416-4.77-1.19-5.211-2.538-11.275-2.655-16.58-.32-4.485 1.993-9.605 1.993-14.09 0-5.267-2.285-11.266-2.169-16.44.32-1.459.757-3.077 1.155-4.72 1.16-7.56 0-13.7-8.57-13.7-19.16-.025-4.052.961-8.046 2.87-11.62z" opacity=".1"/>
    <path fill="#3F3D56" d="M218.68 700.06c13.54 8.6 33.05-.1 46.68 8.37 3.52 2.18 6.36 5.39 10 7.37 4.37 2.39 9.51 2.82 14.48 3 41.62 1.61 83.94-10 124.52-.62 11.35 2.62 22.45 6.88 34.08 7.5 20.09 1.09 39.34-8.71 59.45-9.25 30.5-.82 60.47 19.59 89.9 11.54 9.68-2.65 18.56-8.3 28.55-9.25 11.13-1 21.83 3.85 32.65 6.68 38.37 10 78.33-6.2 118-7.41 25.87-.79 51.49 4.85 77.34 6.15 18.38.92 36.8-.37 55.16-1.65 7-.49 14.33-1.09 20.19-4.93 5.86-3.84 9.46-12.09 5.84-18.09l-716.84.59z"/>
    <path d="M218.68 700.06c13.54 8.6 33.05-.1 46.68 8.37 3.52 2.18 6.36 5.39 10 7.37 4.37 2.39 9.51 2.82 14.48 3 41.62 1.61 83.94-10 124.52-.62 11.35 2.62 22.45 6.88 34.08 7.5 20.09 1.09 39.34-8.71 59.45-9.25 30.5-.82 60.47 19.59 89.9 11.54 9.68-2.65 18.56-8.3 28.55-9.25 11.13-1 21.83 3.85 32.65 6.68 38.37 10 78.33-6.2 118-7.41 25.87-.79 51.49 4.85 77.34 6.15 18.38.92 36.8-.37 55.16-1.65 7-.49 14.33-1.09 20.19-4.93 5.86-3.84 9.46-12.09 5.84-18.09l-716.84.59z" opacity=".1"/>
    <path fill="#3F3D56" d="M218.68 695.06c13.54 8.6 33.05-.1 46.68 8.37 3.52 2.18 6.36 5.39 10 7.37 4.37 2.39 9.51 2.82 14.48 3 41.62 1.61 83.94-10 124.52-.62 11.35 2.62 22.45 6.88 34.08 7.5 20.09 1.09 39.34-8.71 59.45-9.25 30.5-.82 60.47 19.59 89.9 11.54 9.68-2.65 18.56-8.3 28.55-9.25 11.13-1 21.83 3.85 32.65 6.68 38.37 10 78.33-6.2 118-7.41 25.87-.79 51.49 4.85 77.34 6.15 18.38.92 36.8-.37 55.16-1.65 7-.49 14.33-1.09 20.19-4.93 5.86-3.84 9.46-12.09 5.84-18.09l-716.84.59z"/>
    <g opacity=".1">
      <path fill="#3F3D56" d="M122.35 571.86c.041 4.34-1.074 8.613-3.23 12.38 4.307 7.692 4.307 17.068 0 24.76 1.095 1.873 1.917 3.894 2.44 6-10.916-14.388-20.964-29.415-30.09-45 .22-3.717 1.302-7.333 3.16-10.56-2.156-3.767-3.271-8.04-3.23-12.38-.013-2.933.481-5.846 1.46-8.61.466-1.311 1.059-2.574 1.77-3.77 2.82-4.79 7.26-7.88 12.24-7.88s9.43 3.09 12.25 7.88c.686 1.162 1.265 2.383 1.73 3.65 1.003 2.801 1.51 5.755 1.5 8.73.041 4.34-1.074 8.613-3.23 12.38 2.163 3.779 3.278 8.066 3.23 12.42z" opacity=".1"/>
      <ellipse cx="106.87" cy="522.35" fill="#3F3D56" opacity=".1" rx="15.47" ry="20.26" vector-effect="non-scaling-stroke"/>
      <ellipse cx="106.87" cy="497.59" fill="#3F3D56" opacity=".1" rx="15.47" ry="20.26" vector-effect="non-scaling-stroke"/>
      <path fill="#19E51C" d="M180.67 373.93c.026 16.629-5.567 32.778-15.87 45.83 15.957 20.289 20.211 47.417 11.231 71.616-8.981 24.2-29.902 41.986-55.231 46.954-1.78.36-3.59.64-5.42.86-5.645.675-11.348.705-17 .09q-2.82-.3-5.57-.83c-8.084-1.494-15.859-4.337-23-8.41C56.5 502.85 44.875 474.867 35 446.25c2.598-9.624 7.119-18.622 13.29-26.45-15.498-19.688-20.011-45.869-12-69.61l56.28 18.89-52.78-27.42c2.324-4.796 5.157-9.329 8.45-13.52-17.157-21.804-20.702-51.364-9.187-76.607 11.516-25.243 36.163-41.942 63.876-43.277 27.713-1.336 53.852 12.916 67.741 36.934l-54.41 40 59-30.6c7.624 18.939 7.111 40.182-1.42 58.73l-44-.33 40.66 6.68c-1.726 2.956-3.654 5.789-5.77 8.48 10.317 13.03 15.933 29.16 15.94 45.78z" opacity=".1"/>
      <path d="M180.67 465.63c-.006 35.423-25.065 65.894-59.82 72.74-1.78.36-3.59.64-5.42.86-5.645.675-11.348.705-17 .09q-2.82-.3-5.57-.83c-8.084-1.494-15.859-4.337-23-8.41-13.328-27.202-24.97-55.198-34.86-83.83 2.598-9.624 7.119-18.622 13.29-26.45-10.308-13.064-15.901-29.228-15.87-45.87 0-8.32 142.32 33.22 132.38 45.83 10.312 13.063 15.905 29.228 15.87 45.87z" opacity=".1"/>
    </g>
    <g opacity=".1">
      <path fill="#3F3D56" d="M1014.9 552.58c-2.9 9.26-6 18.45-9.18 27.43-.884-2.647-1.33-5.42-1.32-8.21 0-8.93 4.4-16.51 10.5-19.22z" opacity=".1"/>
      <path fill="#19E51C" d="M1046 393.02c0 17.55-3.54 45.28-10 77-5.658 27.858-12.717 55.413-21.15 82.56-2.9 9.26-6 18.45-9.18 27.43-3.65 10.2-7.5 20.12-11.53 29.61-22.348-8.204-39.422-26.606-45.932-49.506-6.509-22.899-1.669-47.531 13.022-66.264-15.5-19.745-20.011-45.97-12-69.76l56.28 18.93-52.78-27.48c2.324-4.806 5.157-9.348 8.45-13.55-14.248-18.167-19.255-41.918-13.553-64.29 5.702-22.373 21.468-40.83 42.673-49.96 22.717 15.498 39.816 37.922 48.75 63.93l-9.75 7.26 10.46-5.43c3.509 10.782 5.557 21.985 6.09 33.31h-2.94l3 .49c.09 1.89.09 3.79.09 5.72z" opacity=".1"/>
      <path d="M1036.05 470.02c-5.658 27.858-12.717 55.413-21.15 82.56-2.9 9.26-6 18.45-9.18 27.43-3.65 10.2-7.5 20.12-11.53 29.61-22.348-8.204-39.422-26.606-45.932-49.506-6.509-22.899-1.669-47.531 13.022-66.264-10.297-13.089-15.884-29.266-15.86-45.92 0-5 51.72 8.1 90.63 22.09z" opacity=".1"/>
    </g>
    <path fill="#19E51C" d="M1045.87 387.28v-.47c-.533-11.325-2.581-22.528-6.09-33.31-.2-.61-.4-1.23-.61-1.83-8.934-26.008-26.033-48.432-48.75-63.93-52.677-35.89-123.809-27.097-166.16 20.54-2.142-12.139-5.53-24.025-10.11-35.47-33.367 4.218-67.042 5.473-100.63 3.75 20.583 9.491 41.924 17.241 63.8 23.17l-.78 2.9c-24.551-6.666-48.427-15.605-71.32-26.7l-6.91-3.35 7.66.5c35.684 2.337 71.509 1.309 107-3.07-7.679-18.314-18.329-35.235-31.52-50.08-57.56-5.8-114.67-17.88-168-41.83l1.23-2.73c51.91 23.33 107.54 35.32 163.7 41.22-38.54-41.314-94.262-62.105-150.445-56.133-56.184 5.972-106.29 38.01-135.285 86.503-5.32-51.582-26.746-100.18-61.24-138.9-30.708 12.27-62.415 21.875-94.77 28.71-48.659 10.342-98.458 14.305-148.14 11.79 20.583 9.491 41.924 17.241 63.8 23.17l-.78 2.9c-24.544-6.668-48.414-15.606-71.3-26.7l-6.91-3.35 7.66.5c84.685 5.562 169.542-7.882 248.36-39.35q-4.45-4.87-9.16-9.52c-98.42 2-205.61 1-302.65-34.33C44.403 107.009-.08 186.827 0 272.75 0 319.21 12.77 383.1 35 447.2c9.906 28.688 21.565 56.741 34.91 84 6.79 13.8 14 27.21 21.57 40.05 9.127 15.584 19.175 30.611 30.09 45q2.94 3.87 5.95 7.6c11.186 14.157 23.74 27.177 37.48 38.87q4.17 3.48 8.39 6.63c7.541 5.7 15.572 10.72 24 15 14.67 7.35 29.81 11.66 45.3 12.28 1.24.05 2.49.08 3.73.08v.51h672v-.51h.5c3.873-.015 7.715-.691 11.36-2 23.76-8.43 45.64-42.28 63.83-85.06 4-9.49 7.88-19.41 11.53-29.61 3.22-9 6.28-18.17 9.18-27.43 8.433-27.147 15.492-54.702 21.15-82.56 6.41-31.72 10-59.45 10-77 .03-1.96.03-3.86-.1-5.77z" opacity=".1"/>
    <path fill="#19E51C" d="M334.06 667.79l19.14-11.26c-2.59-4.42-5.899-8.377-9.79-11.71l-36.11 11.23 28.3-16.63c-14.253-7.808-31.567-7.515-45.549.769-13.981 8.284-22.553 23.33-22.551 39.581 0 25.4 20.59 26.28 46 26.28s46-.88 46-26.28c.009-6.432-1.337-12.793-3.95-18.67l-21.49 6.69z"/>
    <path d="M338.93 692.48c-2.037-2.04-4.314-3.826-6.78-5.32-3.48-2.31-7.07-4.67-11.17-5.45-3.6-.69-7.31-.11-11-.32-6.365-.389-12.358-3.134-16.81-7.7-2.61-2.7-4.67-6-7.81-8.09-3.39-2.22-7.69-2.7-11.71-2.15-1.167.166-2.322.403-3.46.71-1.806 5.006-2.726 10.288-2.72 15.61 0 25.4 20.59 26.28 46 26.28 12.33 0 23.52-.21 31.78-3.32l-1.38-2.58c-1.318-2.754-2.978-5.331-4.94-7.67z" opacity=".1"/>
    <circle cx="547.34" cy="185.77" r="35.75" fill="#3F3D56" vector-effect="non-scaling-stroke"/>
    <path fill="#3F3D56" d="M526.6 463.87c3.69 25.89-.81 52.29-7.82 77.48-1.31 4.69-2.72 9.42-5.17 13.63-2.45 4.21-5.86 7.83-8.74 11.79-6 8.26-9.52 18-12.81 27.64-9.07 26.674-16.688 53.821-22.82 81.32-.369 1.127-.369 2.343 0 3.47.87 2 3.51 2.26 5.68 2.25l28.06-.15c1-1.92-.85-4-2-5.84-4-6.22-.16-14.3 3.37-20.81 8.579-15.811 15.221-32.599 19.78-50 1.92-7.33 3.48-14.82 6.6-21.73 3.77-8.38 9.68-15.59 14.48-23.43 5.58-9.11 9.65-19 13.69-28.93 5.64-13.78 11.33-27.73 13.55-42.45 2.09-13.82 1.06-27.9-.3-41.81.128-.839-.155-1.689-.762-2.284-.606-.594-1.461-.861-2.298-.716l-37.65-1.94c-7.76-.4-9.6-2.1-8.42 5.52.82 5.69 2.76 11.23 3.58 16.99z"/>
    <path d="M526.6 463.87c3.69 25.89-.81 52.29-7.82 77.48-1.31 4.69-2.72 9.42-5.17 13.63-2.45 4.21-5.86 7.83-8.74 11.79-6 8.26-9.52 18-12.81 27.64-9.07 26.674-16.688 53.821-22.82 81.32-.369 1.127-.369 2.343 0 3.47.87 2 3.51 2.26 5.68 2.25l28.06-.15c1-1.92-.85-4-2-5.84-4-6.22-.16-14.3 3.37-20.81 8.579-15.811 15.221-32.599 19.78-50 1.92-7.33 3.48-14.82 6.6-21.73 3.77-8.38 9.68-15.59 14.48-23.43 5.58-9.11 9.65-19 13.69-28.93 5.64-13.78 11.33-27.73 13.55-42.45 2.09-13.82 1.06-27.9-.3-41.81.128-.839-.155-1.689-.762-2.284-.606-.594-1.461-.861-2.298-.716l-37.65-1.94c-7.76-.4-9.6-2.1-8.42 5.52.82 5.69 2.76 11.23 3.58 16.99z" opacity=".1"/>
    <path fill="#3F3D56" d="M534 400.93c-7.65 11-15.67 23.66-13.13 36.83 1.93 10 9.55 17.75 16.74 25 28.74 28.86 57 60.92 66.78 100.47 2.52 10.22 3.74 20.71 5.91 31 3.94 18.7 11 36.58 18 54.35l18.76 47.35c11.919.293 22.748-6.9 27.1-18-2.46-.19-5.67-2.57-7.11-4.57-8-11.07-9.64-25.31-11.69-38.81-2.27-14.92-5.3-29.72-8.34-44.51l-13.44-65.44c-1.55-7.55-3.1-15.11-5.12-22.55-7.82-28.82-22.64-56-24.93-85.8-.34-4.38-.55-9.19-3.52-12.44-3.12-3.43-8.24-4-12.87-4.27-18.73-1.2-34.89-3.03-53.14 1.39z"/>
    <path fill="#F2F2F2" d="M483.47 675.06c-2.04-.484-4.124-.752-6.22-.8-4.072.144-7.838 2.201-10.16 5.55-1.168 1.872-2.086 3.889-2.73 6l-2.71 7.78c-.8 2.28-1.58 4.91-.39 7 .885 1.298 2.16 2.282 3.64 2.81 6.56 2.92 14 3.08 21.1 3.78 6.94.68 13.82 1.9 20.67 3.18 2.36.45 4.71.9 7.1 1.14 5.34.54 10.72 0 16.06-.48l5.51-.53c1.844-.08 3.669-.416 5.42-1 1.768-.6 3.213-1.897 4-3.59 1.36-3.37-1.56-7.36-5.13-8.06-1.45-.28-3-.15-4.42-.34-1.666-.286-3.291-.773-4.84-1.45-7-2.77-14.17-5.57-20.37-9.93-1.72-1.21-3.52-2.9-3.33-5 .179-.899.478-1.771.89-2.59.841-2.146.869-4.525.08-6.69-.34-.92-1-1.89-1.93-2-2.64-.32-2.32 3.53-2.71 5-.53 2-1.49 2.18-3.37 2-5.4-.49-10.8-.76-16.16-1.78zM641.34 701.93c.048 3.907 1.392 7.688 3.82 10.75.742.913 1.669 1.66 2.72 2.19 1.582.651 3.294.922 5 .79 4.76-.104 9.464-1.055 13.89-2.81 1.559-.706 3.163-1.311 4.8-1.81 2.061-.422 4.144-.722 6.24-.9 8.27-1.19 15.53-6.07 23.52-8.54 2.387-.592 4.727-1.36 7-2.3 3.16-1.49 5.72-4 8.23-6.43 1.48-1.312 2.754-2.839 3.78-4.53 1.47-2.73 1.56-6 1.62-9.09.054-.483-.029-.972-.24-1.41-.228-.316-.54-.561-.9-.71-2.43-1.2-5.31-.6-8-.13-9.72 1.73-19.67 1.41-29.54 1.09-1.925.265-3.788-.798-4.54-2.59l-3.75-6c-1.07-1.72-2.77-3.69-4.71-3.1-1.55.47-2.18 2.37-2.12 4 .06 1.63.56 3.25.25 4.84-.447 1.769-1.605 3.274-3.2 4.16-1.575.857-3.256 1.502-5 1.92-5.52 1.56-11.94 3.33-16.21 7.39-3.14 2.88-2.85 9.33-2.66 13.22z"/>
    <path fill="#D5ABB0" d="M639.4 305.19c2.153-1.645 4.001-3.656 5.46-5.94 1.257-2.577 2.046-5.357 2.33-8.21l1.57-9.92c.87-5.47 1.89-11.26 5.54-15.43 3.65-4.17 10.92-5.66 14.63-1.54 1.62 1.79 2.26 4.25 2.66 6.64 2.311 14.435-2.034 29.14-11.82 40-4.49 4.92-10 8.83-14.75 13.48-4.14 4-7.73 8.59-11.55 12.94-9.238 10.508-19.819 19.754-31.47 27.5.14-7.44 1.09-15.42 0-22.81-.81-5.34-3-8.22 2.17-11.71 12-8.16 24.11-15.54 35.23-25zM538.56 232.01c-.39 5.32-2.6 10.76-7 13.83q18.69 6.54 36.87 14.42c-2.34-2.25-3.05-5.7-3.16-8.94-.31-8.47 2.62-16.8 6.9-24.1.681-.926 1.074-2.032 1.13-3.18-.14-2.36-2.94-3.45-5.24-4-7.847-1.904-15.856-3.065-23.92-3.47-3.45-.11-7.54-1.2-6.76 3.19.74 4.1 1.49 8.1 1.18 12.25z"/>
    <circle cx="562.66" cy="205.63" r="29.23" fill="#D5ABB0" vector-effect="non-scaling-stroke"/>
    <path fill="#FF6F61" d="M591.6 284.58c-1.021-2.195-2.264-4.279-3.71-6.22-5.3-7.61-10.74-15.21-17.54-21.51-5.151-4.594-10.726-8.689-16.65-12.23-3.196-2.191-6.711-3.877-10.42-5-2.201-.488-4.439-.792-6.69-.91l-7.59-.62c-.666-.088-1.341-.068-2 .06-2.06.52-3 3.08-2.56 5.15.44 2.07 2 3.75 3.38 5.32.34 15.49-6.55 30.77-7.48 46.24-1.63 27.05 14.88 52.21 16.2 79.28.136 1.223.006 2.461-.38 3.63-.22.56-.55 1.07-.8 1.62-.78 1.7-.75 3.63-.89 5.5-.545 6.669-3.465 12.922-8.23 17.62 1.238 1.537 2.83 2.752 4.64 3.54 3.19 1.39 7 1.51 10.39 2.48 8.84 2.58 17.9 5.18 27.09 4.63 1.142-2.484 1.849-5.146 2.09-7.87 1.3-.81 2.8.92 3 2.44.2 1.52-.09 3.29 1 4.39 1.09 1.1 2.47.93 3.8.76 5.61-.71 11-2.6 16.5-3.87s11.38-1.88 16.73-.06c1.08-1.37.62-3.4-.26-4.9-.88-1.5-2.13-2.82-2.63-4.49-.252-.962-.359-1.956-.32-2.95 0-8.55 1.76-17.19.09-25.58-.49-2.46-1.27-4.86-1.77-7.33-1-4.79-.85-9.73-.72-14.62.13-4.89-.46-10.18-.56-15.14-.003-2.05-.137-4.097-.4-6.13-.34-2.13-1-4.21-1.18-6.36-.54-5.46 1.66-10.88 1.33-16.36-.55-8.32-10.22-12.84-13.46-20.51z"/>
    <path fill="#D5ABB0" d="M525.63 280.66c-7.08 18.78-10.54 38.7-14 58.48l-8 46.46c-2.27 13.13-4.55 26.34-4.46 39.66 0 3.74.24 7.55-.74 11.16-1.28 4.74-4.46 8.69-6.87 13-4.89 8.802-6.519 19.046-4.6 28.93.82 4.15 3.06 8.86 7.27 9.34 3.46.38 6.45-2.37 8.47-5.21 4.64-6.51 6.94-14.37 9-22.11 6.632-25.295 11.269-51.07 13.87-77.09.247-3.294.712-6.567 1.39-9.8.883-3.333 2.013-6.595 3.38-9.76q4.59-11.38 9.19-22.76c7.07-17.53 14.18-35.14 23.89-51.36-9.6-2.76-19.59-6-29.19-8.73-2.77-.82-5.74-.33-8.6-.21z"/>
    <path fill="#FF6F61" d="M542.27 294.93c-6.72-1.45-13.67-1-20.53-1.17-.974.071-1.945-.182-2.76-.72-1.39-1.19-.8-3.42-.1-5.11l3.32-8c.545-1.654 1.454-3.164 2.66-4.42 1.69-1.5 4.07-1.87 6.31-2.14 7.29-.84 14.79-1.12 21.86.85 7.07 1.97 13.72 6.45 16.88 13.08 1.32 2.76 1.93 6.24.18 8.75-2.6 3.73-8.43 7.9-12.78 5.86-5.21-2.47-9.2-5.74-15.04-6.98z"/>
    <path fill="#3F3D56" d="M578 160.23c-5.776-.062-11.444 1.572-16.3 4.7-9.361-8.87-22.774-12.011-35.1-8.22-1.782-10.226-10.95-17.491-21.312-16.888-10.363.602-18.627 8.88-19.212 19.244-.585 10.364 6.695 19.519 16.924 21.284-5.548 18.949 5.316 38.807 24.265 44.355 18.949 5.548 38.807-5.316 44.355-24.265 2.109.432 4.257.65 6.41.65 14.1 0 25.54-9.15 25.54-20.43s-11.49-20.43-25.57-20.43z"/>
    <path d="M583.09 190.87c-2.153.006-4.302-.212-6.41-.65-1.002 3.658-2.581 7.131-4.68 10.29 1.977.381 3.986.575 6 .58 13.18 0 24-8 25.39-18.24-4.69 4.88-12.04 8.02-20.3 8.02zM542.23 216.41c-11.343-.016-22.007-5.407-28.746-14.532-6.739-9.124-8.755-20.902-5.434-31.748-9.767-1.718-16.89-10.203-16.89-20.12-.002-1.228.108-2.453.33-3.66-5.081 5.489-6.756 13.316-4.367 20.403 2.389 7.088 8.46 12.304 15.827 13.597-5.732 18.819 4.819 38.733 23.609 44.561 18.79 5.828 38.757-4.621 44.681-23.381-6.706 9.346-17.507 14.886-29.01 14.88z" opacity=".1"/>
    <path fill="#3a3768" d="M672.566 276.213c.151.108.186.317.078.467l-2.828 3.965c-.108.15-.317.185-.468.078-.15-.108-.185-.317-.078-.467l2.829-3.965c.107-.15.317-.185.467-.078zM656.793 259.62c.086.061.105.18.044.265l-.836 1.172c-.061.086-.18.105-.265.044-.085-.06-.105-.179-.044-.265l.836-1.172c.061-.085.18-.105.265-.044zM654.846 262.353c.095.067.117.199.049.293l-1.597 2.238c-.067.095-.199.117-.293.049-.094-.067-.116-.198-.049-.292l1.597-2.239c.068-.094.199-.116.293-.049zM652.368 265.839c.09.065.111.19.047.279l-1.627 2.28c-.064.09-.189.11-.279.046-.089-.064-.11-.189-.046-.279l1.626-2.279c.064-.09.189-.111.279-.047z"/>
    <path fill="#3a3768" d="M663.292 258.062l14.196 10.13c1.132.808 1.396 2.383.588 3.515l-23.611 33.09c-.808 1.132-2.383 1.395-3.516.588l-14.196-10.13c-1.132-.808-1.395-2.383-.587-3.515l23.611-33.09c.808-1.132 2.383-1.395 3.515-.588z"/>
    <path d="M663.292 258.062l14.196 10.13c1.132.808 1.396 2.383.588 3.515l-23.611 33.09c-.808 1.132-2.383 1.395-3.516.588l-14.196-10.13c-1.132-.808-1.395-2.383-.587-3.515l23.611-33.09c.808-1.132 2.383-1.395 3.515-.588z" style="stroke:none;fill:#000000;stroke-miterlimit:10" opacity=".1"/>
    <path fill="#3a3768" d="M662.365 256.198l14.197 10.13c1.132.808 1.395 2.383.587 3.515l-23.611 33.09c-.808 1.132-2.383 1.395-3.515.587l-14.197-10.13c-1.132-.807-1.395-2.382-.587-3.515l23.611-33.089c.808-1.132 2.383-1.396 3.515-.588z"/>
    <path fill="#19E51C" d="M675.28 266.93l-2.09-1.5-.18.25c-.463.637-1.348.792-2 .35l-6.68-4.77c-.66-.472-.812-1.39-.34-2.05l.18-.25-2-1.4c-.384-.277-.863-.389-1.33-.313-.468.077-.885.337-1.16.723l-23.08 32.35c-.571.802-.388 1.914.41 2.49l13.14 9.37c.385.276.865.387 1.332.308.468-.079.884-.341 1.158-.728l23.08-32.34c.274-.388.382-.869.299-1.337-.083-.467-.349-.883-.739-1.153z"/>
    <path fill="#e6e8ec" d="M667.16 261.309l2.035 1.452c.144.102.178.302.075.446-.103.144-.303.177-.446.075l-2.035-1.452c-.144-.103-.178-.303-.075-.447.103-.144.303-.177.446-.074z"/>
    <circle cx="669.9" cy="263.72" r=".36" fill="#E6E8EC" vector-effect="non-scaling-stroke"/>
    <path fill="#19E51C" d="M670 13.93c-37.003 0-67 29.997-67 67 0 37 70.2 159.54 70.2 159.54S737 117.98 737 80.93c0-37.003-29.997-67-67-67zm0 111.68c-19.385 0-35.1-15.715-35.1-35.1s15.715-35.1 35.1-35.1 35.1 15.715 35.1 35.1c.011 9.315-3.683 18.252-10.267 24.842-6.584 6.589-15.518 10.291-24.833 10.288v-.03z"/>
    <path d="M670 13.93c-37.003 0-67 29.997-67 67 0 37 70.2 159.54 70.2 159.54S737 117.98 737 80.93c0-37.003-29.997-67-67-67zm0 111.68c-19.385 0-35.1-15.715-35.1-35.1s15.715-35.1 35.1-35.1 35.1 15.715 35.1 35.1c.011 9.315-3.683 18.252-10.267 24.842-6.584 6.589-15.518 10.291-24.833 10.288v-.03z" opacity=".1"/>
    <path fill="#19E51C" d="M670 0c-37.003 0-67 29.997-67 67 0 37 70.2 173.5 70.2 173.5S737 104.02 737 67.01c.003-17.771-7.055-34.816-19.62-47.383C704.814 7.06 687.771 0 670 0zm0 111.68c-19.385 0-35.1-15.715-35.1-35.1s15.715-35.1 35.1-35.1 35.1 15.715 35.1 35.1c0 9.309-3.698 18.237-10.281 24.819-6.582 6.583-15.51 10.281-24.819 10.281z"/>
  </g>
</svg>
