<?xml version="1.0" encoding="UTF-8" standalone="no"?><!-- Generator: Gravit.io --><svg xmlns="http://www.w3.org/2000/svg" xmlns:xlink="http://www.w3.org/1999/xlink" style="isolation:isolate" viewBox="0 0 1046 729.87" width="1046pt" height="729.87pt"><defs><clipPath id="_clipPath_gBHp2VwMel9GSuKkqleE7Z5KYS8AY6Zf"><rect width="1046" height="729.87"/></clipPath></defs><g clip-path="url(#_clipPath_gBHp2VwMel9GSuKkqleE7Z5KYS8AY6Zf)"><g opacity="0.1"><path d=" M 417.15 93.3 C 337.044 16.95 215.889 3.307 120.81 59.93 C 215.79 93.93 320.59 95.18 417.15 93.3 Z " fill="rgb(25,229,28)"/></g><g opacity="0.1"><path d=" M 967.64 645.48 L 863.92 465.83 C 863.332 464.802 862.239 464.168 861.055 464.168 C 859.871 464.168 858.778 464.802 858.19 465.83 L 754.47 645.48 C 753.854 646.504 753.84 647.781 754.434 648.819 C 755.027 649.856 756.135 650.491 757.33 650.48 L 788.27 650.48 C 790.096 650.485 791.575 651.964 791.58 653.79 L 791.58 692.13 C 791.58 693.954 793.056 695.434 794.88 695.44 L 835.25 695.44 C 837.078 695.44 838.56 693.958 838.56 692.13 L 838.56 673.6 C 838.56 671.777 840.037 670.3 841.86 670.3 L 880.24 670.3 C 882.064 670.3 883.544 671.776 883.55 673.6 L 883.55 692.13 C 883.55 693.958 885.032 695.44 886.86 695.44 L 927.22 695.44 C 929.048 695.44 930.53 693.958 930.53 692.13 L 930.53 653.75 C 930.53 651.922 932.012 650.44 933.84 650.44 L 964.78 650.44 C 965.96 650.437 967.049 649.806 967.638 648.783 C 968.227 647.761 968.228 646.503 967.64 645.48 L 967.64 645.48 Z  M 823 665.36 C 822.385 665.993 821.542 666.353 820.66 666.36 L 806.13 666.36 C 804.302 666.36 802.82 664.878 802.82 663.05 C 802.82 661.222 804.302 659.74 806.13 659.74 L 820.69 659.74 C 822.028 659.74 823.235 660.547 823.747 661.783 C 824.259 663.02 823.976 664.443 823.03 665.39 L 823 665.36 Z  M 918.28 665.36 C 917.665 665.993 916.822 666.353 915.94 666.36 L 901.42 666.36 C 899.592 666.36 898.11 664.878 898.11 663.05 C 898.11 661.222 899.592 659.74 901.42 659.74 L 916 659.74 C 917.338 659.74 918.545 660.547 919.057 661.783 C 919.569 663.02 919.286 664.443 918.34 665.39 L 918.28 665.36 Z " fill="rgb(25,229,28)"/></g><g opacity="0.1"><path d=" M 326.55 647.06 L 222.83 467.41 C 222.238 466.387 221.146 465.758 219.965 465.758 C 218.784 465.758 217.692 466.387 217.1 467.41 L 127.51 622.58 C 138.703 636.685 151.26 649.651 165 661.29 L 179.6 661.29 C 181.428 661.29 182.91 662.772 182.91 664.6 C 182.91 666.428 181.428 667.91 179.6 667.91 L 173.44 667.91 C 180.985 673.584 189.016 678.58 197.44 682.84 L 197.44 675.19 C 197.44 673.362 198.922 671.88 200.75 671.88 L 239.13 671.88 C 240.954 671.886 242.43 673.366 242.43 675.19 L 242.43 693.71 C 242.428 694.191 242.534 694.666 242.74 695.1 C 243.281 696.269 244.452 697.018 245.74 697.02 L 286.11 697.02 C 287.149 697.024 288.127 696.529 288.74 695.69 C 289.184 695.119 289.421 694.413 289.41 693.69 L 289.41 655.34 C 289.41 653.512 290.892 652.03 292.72 652.03 L 323.66 652.03 C 324.848 652.039 325.95 651.411 326.548 650.384 C 327.145 649.357 327.146 648.088 326.55 647.06 Z  M 258 662.26 C 258.615 661.627 259.458 661.267 260.34 661.26 L 274.9 661.26 C 276.728 661.26 278.21 662.742 278.21 664.57 C 278.21 666.398 276.728 667.88 274.9 667.88 L 260.33 667.88 C 258.992 667.88 257.785 667.073 257.273 665.837 C 256.761 664.6 257.044 663.177 257.99 662.23 L 258 662.26 Z  M 192.85 595.78 C 191.022 595.78 189.54 594.298 189.54 592.47 L 189.54 567.33 C 189.54 565.502 191.022 564.02 192.85 564.02 L 247.1 564.02 C 248.924 564.026 250.4 565.506 250.4 567.33 L 250.4 592.47 C 250.4 594.294 248.924 595.774 247.1 595.78 L 192.85 595.78 Z " fill="rgb(25,229,28)"/></g><g opacity="0.1"><path d=" M 736.53 324.34 L 608.18 324.34 L 608.18 296.58 C 608.18 292.913 605.207 289.94 601.54 289.94 L 563.85 289.94 L 563.85 260.37 C 563.85 258.061 561.979 256.19 559.67 256.19 L 511.12 256.19 C 508.811 256.19 506.94 258.061 506.94 260.37 L 506.94 289.93 L 462.63 289.93 C 458.963 289.93 455.99 292.903 455.99 296.57 L 455.99 324.33 L 333.6 324.33 C 332.858 324.335 332.26 324.938 332.26 325.68 L 332.26 694.21 C 332.26 694.952 332.858 695.555 333.6 695.56 L 414.94 695.56 C 415.298 695.56 415.641 695.418 415.895 695.165 C 416.148 694.911 416.29 694.568 416.29 694.21 L 416.29 644.63 C 416.295 643.887 416.897 643.285 417.64 643.28 L 452 643.28 C 452.743 643.285 453.345 643.887 453.35 644.63 L 453.35 694.21 C 453.35 694.952 453.948 695.555 454.69 695.56 L 615.44 695.56 C 616.183 695.555 616.785 694.953 616.79 694.21 L 616.79 644.63 C 616.79 643.888 617.388 643.285 618.13 643.28 L 652.49 643.28 C 652.848 643.28 653.191 643.422 653.445 643.675 C 653.698 643.929 653.84 644.272 653.84 644.63 L 653.84 694.21 C 653.845 694.953 654.447 695.555 655.19 695.56 L 736.53 695.56 C 737.273 695.555 737.875 694.953 737.88 694.21 L 737.88 325.69 C 737.875 324.947 737.273 324.345 736.53 324.34 L 736.53 324.34 Z  M 401.73 626.06 C 401.73 626.415 401.589 626.756 401.338 627.008 C 401.086 627.259 400.745 627.4 400.39 627.4 L 350.15 627.4 C 349.793 627.403 349.449 627.263 349.196 627.011 C 348.943 626.759 348.8 626.417 348.8 626.06 L 348.8 608.93 C 348.8 608.572 348.942 608.229 349.195 607.975 C 349.449 607.722 349.792 607.58 350.15 607.58 L 400.39 607.58 C 401.132 607.585 401.73 608.188 401.73 608.93 L 401.73 626.06 Z  M 401.73 581.72 C 401.733 582.077 401.593 582.421 401.341 582.674 C 401.089 582.927 400.747 583.07 400.39 583.07 L 350.15 583.07 C 349.791 583.073 349.446 582.931 349.192 582.678 C 348.939 582.424 348.797 582.079 348.8 581.72 L 348.8 564.57 C 348.797 564.211 348.939 563.866 349.192 563.612 C 349.446 563.359 349.791 563.217 350.15 563.22 L 400.39 563.22 C 400.747 563.22 401.089 563.363 401.341 563.616 C 401.593 563.869 401.733 564.213 401.73 564.57 L 401.73 581.72 Z  M 401.73 537.39 C 401.73 538.132 401.132 538.735 400.39 538.74 L 350.15 538.74 C 349.792 538.74 349.449 538.598 349.195 538.345 C 348.942 538.091 348.8 537.748 348.8 537.39 L 348.8 520.23 C 348.8 519.872 348.942 519.529 349.195 519.275 C 349.449 519.022 349.792 518.88 350.15 518.88 L 400.39 518.88 C 401.132 518.885 401.73 519.488 401.73 520.23 L 401.73 537.39 Z  M 401.73 493.05 C 401.733 493.407 401.593 493.751 401.341 494.004 C 401.089 494.257 400.747 494.4 400.39 494.4 L 350.15 494.4 C 349.791 494.403 349.446 494.261 349.192 494.008 C 348.939 493.754 348.797 493.409 348.8 493.05 L 348.8 475.93 C 348.797 475.571 348.939 475.226 349.192 474.972 C 349.446 474.719 349.791 474.577 350.15 474.58 L 400.39 474.58 C 400.747 474.58 401.089 474.723 401.341 474.976 C 401.593 475.229 401.733 475.573 401.73 475.93 L 401.73 493.05 Z  M 401.73 448.72 C 401.73 449.462 401.132 450.065 400.39 450.07 L 350.15 450.07 C 349.792 450.07 349.449 449.928 349.195 449.675 C 348.942 449.421 348.8 449.078 348.8 448.72 L 348.8 431.56 C 348.8 431.203 348.943 430.861 349.196 430.609 C 349.449 430.357 349.793 430.217 350.15 430.22 L 400.39 430.22 C 400.745 430.22 401.086 430.361 401.338 430.612 C 401.589 430.864 401.73 431.205 401.73 431.56 L 401.73 448.72 Z  M 401.73 404.39 C 401.73 405.13 401.13 405.73 400.39 405.73 L 350.15 405.73 C 349.793 405.733 349.449 405.593 349.196 405.341 C 348.943 405.089 348.8 404.747 348.8 404.39 L 348.8 387.23 C 348.8 386.872 348.942 386.529 349.195 386.275 C 349.449 386.022 349.792 385.88 350.15 385.88 L 400.39 385.88 C 401.132 385.885 401.73 386.488 401.73 387.23 L 401.73 404.39 Z  M 401.73 360.05 C 401.733 360.407 401.593 360.751 401.341 361.004 C 401.089 361.257 400.747 361.4 400.39 361.4 L 350.15 361.4 C 349.791 361.403 349.446 361.261 349.192 361.008 C 348.939 360.754 348.797 360.409 348.8 360.05 L 348.8 342.93 C 348.797 342.571 348.939 342.226 349.192 341.972 C 349.446 341.719 349.791 341.577 350.15 341.58 L 400.39 341.58 C 400.747 341.58 401.089 341.723 401.341 341.976 C 401.593 342.229 401.733 342.573 401.73 342.93 L 401.73 360.05 Z  M 520.84 626.05 C 520.84 626.407 520.697 626.749 520.444 627.001 C 520.191 627.253 519.847 627.393 519.49 627.39 L 469.25 627.39 C 468.508 627.39 467.905 626.792 467.9 626.05 L 467.9 608.93 C 467.905 608.187 468.507 607.585 469.25 607.58 L 519.49 607.58 C 519.848 607.58 520.191 607.722 520.445 607.975 C 520.698 608.229 520.84 608.572 520.84 608.93 L 520.84 626.05 Z  M 520.84 581.71 C 520.843 582.069 520.701 582.414 520.448 582.668 C 520.194 582.921 519.849 583.063 519.49 583.06 L 469.25 583.06 C 468.892 583.06 468.549 582.918 468.295 582.665 C 468.042 582.411 467.9 582.068 467.9 581.71 L 467.9 564.57 C 467.9 564.212 468.042 563.869 468.295 563.615 C 468.549 563.362 468.892 563.22 469.25 563.22 L 519.49 563.22 C 519.849 563.217 520.194 563.359 520.448 563.612 C 520.701 563.866 520.843 564.211 520.84 564.57 L 520.84 581.71 Z  M 520.84 537.38 C 520.84 537.738 520.698 538.081 520.445 538.335 C 520.191 538.588 519.848 538.73 519.49 538.73 L 469.25 538.73 C 468.507 538.725 467.905 538.123 467.9 537.38 L 467.9 520.23 C 467.905 519.487 468.507 518.885 469.25 518.88 L 519.49 518.88 C 519.848 518.88 520.191 519.022 520.445 519.275 C 520.698 519.529 520.84 519.872 520.84 520.23 L 520.84 537.38 Z  M 520.84 493.04 C 520.843 493.399 520.701 493.744 520.448 493.998 C 520.194 494.251 519.849 494.393 519.49 494.39 L 469.25 494.39 C 468.892 494.39 468.549 494.248 468.295 493.995 C 468.042 493.741 467.9 493.398 467.9 493.04 L 467.9 475.93 C 467.9 475.572 468.042 475.229 468.295 474.975 C 468.549 474.722 468.892 474.58 469.25 474.58 L 519.49 474.58 C 519.849 474.577 520.194 474.719 520.448 474.972 C 520.701 475.226 520.843 475.571 520.84 475.93 L 520.84 493.04 Z  M 520.84 448.71 C 520.84 449.068 520.698 449.411 520.445 449.665 C 520.191 449.918 519.848 450.06 519.49 450.06 L 469.25 450.06 C 468.507 450.055 467.905 449.453 467.9 448.71 L 467.9 431.56 C 467.905 430.818 468.508 430.22 469.25 430.22 L 519.49 430.22 C 519.847 430.217 520.191 430.357 520.444 430.609 C 520.697 430.861 520.84 431.203 520.84 431.56 L 520.84 448.71 Z  M 520.84 404.38 C 520.84 404.737 520.697 405.079 520.444 405.331 C 520.191 405.583 519.847 405.723 519.49 405.72 L 469.25 405.72 C 468.508 405.72 467.905 405.122 467.9 404.38 L 467.9 387.23 C 467.905 386.487 468.507 385.885 469.25 385.88 L 519.49 385.88 C 519.848 385.88 520.191 386.022 520.445 386.275 C 520.698 386.529 520.84 386.872 520.84 387.23 L 520.84 404.38 Z  M 520.84 360.04 C 520.843 360.399 520.701 360.744 520.448 360.998 C 520.194 361.251 519.849 361.393 519.49 361.39 L 469.25 361.39 C 468.892 361.39 468.549 361.248 468.295 360.995 C 468.042 360.741 467.9 360.398 467.9 360.04 L 467.9 342.93 C 467.9 342.572 468.042 342.229 468.295 341.975 C 468.549 341.722 468.892 341.58 469.25 341.58 L 519.49 341.58 C 519.849 341.577 520.194 341.719 520.448 341.972 C 520.701 342.226 520.843 342.571 520.84 342.93 L 520.84 360.04 Z  M 602.23 626.04 C 602.23 626.397 602.087 626.739 601.834 626.991 C 601.581 627.243 601.237 627.383 600.88 627.38 L 550.64 627.38 C 549.898 627.38 549.295 626.782 549.29 626.04 L 549.29 608.93 C 549.295 608.187 549.897 607.585 550.64 607.58 L 600.88 607.58 C 601.238 607.58 601.581 607.722 601.835 607.975 C 602.088 608.229 602.23 608.572 602.23 608.93 L 602.23 626.04 Z  M 602.23 581.7 C 602.233 582.059 602.091 582.404 601.838 582.658 C 601.584 582.911 601.239 583.053 600.88 583.05 L 550.64 583.05 C 550.282 583.05 549.939 582.908 549.685 582.655 C 549.432 582.401 549.29 582.058 549.29 581.7 L 549.29 564.57 C 549.29 564.212 549.432 563.869 549.685 563.615 C 549.939 563.362 550.282 563.22 550.64 563.22 L 600.88 563.22 C 601.239 563.217 601.584 563.359 601.838 563.612 C 602.091 563.866 602.233 564.211 602.23 564.57 L 602.23 581.7 Z  M 602.23 537.37 C 602.23 537.728 602.088 538.071 601.835 538.325 C 601.581 538.578 601.238 538.72 600.88 538.72 L 550.64 538.72 C 549.897 538.715 549.295 538.113 549.29 537.37 L 549.29 520.23 C 549.295 519.487 549.897 518.885 550.64 518.88 L 600.88 518.88 C 601.238 518.88 601.581 519.022 601.835 519.275 C 602.088 519.529 602.23 519.872 602.23 520.23 L 602.23 537.37 Z  M 602.23 493.03 C 602.233 493.389 602.091 493.734 601.838 493.988 C 601.584 494.241 601.239 494.383 600.88 494.38 L 550.64 494.38 C 550.282 494.38 549.939 494.238 549.685 493.985 C 549.432 493.731 549.29 493.388 549.29 493.03 L 549.29 475.93 C 549.29 475.572 549.432 475.229 549.685 474.975 C 549.939 474.722 550.282 474.58 550.64 474.58 L 600.88 474.58 C 601.239 474.577 601.584 474.719 601.838 474.972 C 602.091 475.226 602.233 475.571 602.23 475.93 L 602.23 493.03 Z  M 602.23 448.7 C 602.23 449.058 602.088 449.401 601.835 449.655 C 601.581 449.908 601.238 450.05 600.88 450.05 L 550.64 450.05 C 549.897 450.045 549.295 449.443 549.29 448.7 L 549.29 431.56 C 549.295 430.818 549.898 430.22 550.64 430.22 L 600.88 430.22 C 601.237 430.217 601.581 430.357 601.834 430.609 C 602.087 430.861 602.23 431.203 602.23 431.56 L 602.23 448.7 Z  M 602.23 404.37 C 602.23 404.727 602.087 405.069 601.834 405.321 C 601.581 405.573 601.237 405.713 600.88 405.71 L 550.64 405.71 C 549.898 405.71 549.295 405.112 549.29 404.37 L 549.29 387.23 C 549.295 386.487 549.897 385.885 550.64 385.88 L 600.88 385.88 C 601.238 385.88 601.581 386.022 601.835 386.275 C 602.088 386.529 602.23 386.872 602.23 387.23 L 602.23 404.37 Z  M 602.23 360.03 C 602.233 360.389 602.091 360.734 601.838 360.988 C 601.584 361.241 601.239 361.383 600.88 361.38 L 550.64 361.38 C 550.282 361.38 549.939 361.238 549.685 360.985 C 549.432 360.731 549.29 360.388 549.29 360.03 L 549.29 342.93 C 549.29 342.572 549.432 342.229 549.685 341.975 C 549.939 341.722 550.282 341.58 550.64 341.58 L 600.88 341.58 C 601.239 341.577 601.584 341.719 601.838 341.972 C 602.091 342.226 602.233 342.571 602.23 342.93 L 602.23 360.03 Z  M 721.34 626.03 C 721.335 626.772 720.732 627.37 719.99 627.37 L 669.75 627.37 C 669.393 627.373 669.049 627.233 668.796 626.981 C 668.543 626.729 668.4 626.387 668.4 626.03 L 668.4 608.93 C 668.4 608.572 668.542 608.229 668.795 607.975 C 669.049 607.722 669.392 607.58 669.75 607.58 L 720 607.58 C 720.743 607.585 721.345 608.187 721.35 608.93 L 721.34 626.03 Z  M 721.34 581.69 C 721.34 582.048 721.198 582.391 720.945 582.645 C 720.691 582.898 720.348 583.04 719.99 583.04 L 669.75 583.04 C 669.391 583.043 669.046 582.901 668.792 582.648 C 668.539 582.394 668.397 582.049 668.4 581.69 L 668.4 564.57 C 668.397 564.211 668.539 563.866 668.792 563.612 C 669.046 563.359 669.391 563.217 669.75 563.22 L 720 563.22 C 720.358 563.22 720.701 563.362 720.955 563.615 C 721.208 563.869 721.35 564.212 721.35 564.57 L 721.34 581.69 Z  M 721.34 537.36 C 721.335 538.103 720.733 538.705 719.99 538.71 L 669.75 538.71 C 669.392 538.71 669.049 538.568 668.795 538.315 C 668.542 538.061 668.4 537.718 668.4 537.36 L 668.4 520.23 C 668.4 519.872 668.542 519.529 668.795 519.275 C 669.049 519.022 669.392 518.88 669.75 518.88 L 720 518.88 C 720.743 518.885 721.345 519.487 721.35 520.23 L 721.34 537.36 Z  M 721.34 493.02 C 721.34 493.378 721.198 493.721 720.945 493.975 C 720.691 494.228 720.348 494.37 719.99 494.37 L 669.75 494.37 C 669.391 494.373 669.046 494.231 668.792 493.978 C 668.539 493.724 668.397 493.379 668.4 493.02 L 668.4 475.93 C 668.397 475.571 668.539 475.226 668.792 474.972 C 669.046 474.719 669.391 474.577 669.75 474.58 L 720 474.58 C 720.358 474.58 720.701 474.722 720.955 474.975 C 721.208 475.229 721.35 475.572 721.35 475.93 L 721.34 493.02 Z  M 721.34 448.69 C 721.335 449.433 720.733 450.035 719.99 450.04 L 669.75 450.04 C 669.392 450.04 669.049 449.898 668.795 449.645 C 668.542 449.391 668.4 449.048 668.4 448.69 L 668.4 431.56 C 668.4 431.203 668.543 430.861 668.796 430.609 C 669.049 430.357 669.393 430.217 669.75 430.22 L 720 430.22 C 720.742 430.22 721.345 430.818 721.35 431.56 L 721.34 448.69 Z  M 721.34 404.36 C 721.345 404.72 721.207 405.067 720.955 405.324 C 720.704 405.581 720.36 405.727 720 405.73 L 669.75 405.73 C 669.393 405.733 669.049 405.593 668.796 405.341 C 668.543 405.089 668.4 404.747 668.4 404.39 L 668.4 387.23 C 668.4 386.872 668.542 386.529 668.795 386.275 C 669.049 386.022 669.392 385.88 669.75 385.88 L 720 385.88 C 720.743 385.885 721.345 386.487 721.35 387.23 L 721.34 404.36 Z  M 721.34 360.02 C 721.34 360.378 721.198 360.721 720.945 360.975 C 720.691 361.228 720.348 361.37 719.99 361.37 L 669.75 361.37 C 669.391 361.373 669.046 361.231 668.792 360.978 C 668.539 360.724 668.397 360.379 668.4 360.02 L 668.4 342.93 C 668.397 342.571 668.539 342.226 668.792 341.972 C 669.046 341.719 669.391 341.577 669.75 341.58 L 720 341.58 C 720.358 341.58 720.701 341.722 720.955 341.975 C 721.208 342.229 721.35 342.572 721.35 342.93 L 721.34 360.02 Z " fill="rgb(25,229,28)"/></g><g opacity="0.1"><path d=" M 371 224.46 C 365.353 223.385 359.514 224.019 354.23 226.28 C 347.789 229.151 340.427 229.133 334 226.23 C 326.42 222.906 317.762 223.078 310.32 226.7 C 308.217 227.808 305.877 228.391 303.5 228.4 C 293.9 228.4 285.91 218.73 284.25 205.97 C 286.168 204.572 287.798 202.817 289.05 200.8 C 294.68 191.73 303.4 185.9 313.19 185.9 C 322.98 185.9 331.59 191.66 337.19 200.63 C 340.605 206.142 346.656 209.465 353.14 209.39 L 353.39 209.39 C 361.11 209.39 367.73 215.52 371 224.46 Z " fill="rgb(25,229,28)"/></g><g opacity="0.1"><path d=" M 400.2 184.41 L 384.68 194.25 L 394.1 177.12 C 391.43 174.989 388.126 173.81 384.71 173.77 L 384.46 173.77 C 383.382 173.786 382.304 173.705 381.24 173.53 L 376 176.87 L 378.26 172.77 C 374.531 171.467 371.31 169.016 369.06 165.77 L 359.64 171.77 L 365.57 160.93 C 360.06 154.32 352.64 150.27 344.48 150.27 C 334.69 150.27 325.97 156.09 320.34 165.16 C 316.945 170.701 310.834 173.989 304.34 173.77 L 303.81 173.77 C 293 173.77 284.24 186.02 284.24 201.14 C 284.24 216.26 293 228.51 303.81 228.51 C 306.189 228.504 308.53 227.917 310.63 226.8 C 318.074 223.181 326.731 223.013 334.31 226.34 C 340.719 229.2 348.041 229.2 354.45 226.34 C 361.97 223.07 370.541 223.235 377.93 226.79 C 380.01 227.879 382.322 228.452 384.67 228.46 C 395.48 228.46 404.24 216.2 404.24 201.09 C 404.309 195.28 402.92 189.545 400.2 184.41 L 400.2 184.41 Z " fill="rgb(25,229,28)"/></g><g opacity="0.1"><path d=" M 832 406.93 C 828.047 406.181 823.961 406.623 820.26 408.2 C 815.774 410.206 810.646 410.206 806.16 408.2 C 800.852 405.873 794.791 405.994 789.58 408.53 C 788.11 409.307 786.473 409.715 784.81 409.72 C 778.09 409.72 772.5 402.95 771.34 394.02 C 772.68 393.038 773.82 391.809 774.7 390.4 C 778.64 384.05 784.7 379.97 791.59 379.97 C 798.48 379.97 804.48 383.97 808.42 390.28 C 810.808 394.139 815.042 396.465 819.58 396.41 L 819.76 396.41 C 825.06 396.39 829.69 400.68 832 406.93 Z " fill="rgb(25,229,28)"/></g><g opacity="0.1"><path d=" M 852.42 378.93 L 841.56 385.82 L 848.15 373.82 C 846.281 372.331 843.969 371.507 841.58 371.48 L 841.41 371.48 C 840.656 371.489 839.904 371.432 839.16 371.31 L 835.47 373.64 L 837.05 370.78 C 834.444 369.864 832.192 368.154 830.61 365.89 L 824 370.05 L 828.16 362.48 C 824.31 357.85 819.16 355.01 813.4 355.01 C 806.55 355.01 800.4 359.09 796.5 365.44 C 794.125 369.301 789.861 371.591 785.33 371.44 L 785 371.44 C 777.44 371.44 771.3 380.01 771.3 390.59 C 771.3 401.17 777.44 409.75 785 409.75 C 786.663 409.745 788.3 409.337 789.77 408.56 C 794.981 406.022 801.045 405.905 806.35 408.24 C 810.839 410.233 815.961 410.233 820.45 408.24 C 825.713 405.955 831.71 406.072 836.88 408.56 C 838.339 409.316 839.957 409.713 841.6 409.72 C 849.17 409.72 855.3 401.15 855.3 390.56 C 855.324 386.504 854.334 382.506 852.42 378.93 L 852.42 378.93 Z " fill="rgb(25,229,28)"/></g><g opacity="0.1"><path d=" M 238.62 342.93 C 242.573 342.182 246.659 342.624 250.36 344.2 C 254.842 346.207 259.968 346.207 264.45 344.2 C 269.758 341.873 275.819 341.994 281.03 344.53 C 282.501 345.305 284.137 345.714 285.8 345.72 C 292.52 345.72 298.12 338.95 299.28 330.02 C 297.938 329.04 296.797 327.811 295.92 326.4 C 292 320.03 285.87 315.93 279 315.93 C 272.13 315.93 266.12 319.93 262.18 326.24 C 259.785 330.104 255.546 332.436 251 332.39 L 250.83 332.39 C 245.51 332.39 240.87 336.68 238.62 342.93 Z " fill="rgb(25,229,28)"/></g><g opacity="0.1"><path d=" M 218.14 314.93 L 229 321.79 L 222.4 309.79 C 224.269 308.302 226.581 307.479 228.97 307.45 L 229.15 307.45 C 229.904 307.459 230.656 307.402 231.4 307.28 L 235.08 309.61 L 233.5 306.75 C 236.109 305.835 238.365 304.125 239.95 301.86 L 246.54 306.04 L 242.37 298.47 C 246.23 293.84 251.42 291 257.14 291 C 263.99 291 270.14 295.08 274.04 301.43 C 276.414 305.293 280.679 307.583 285.21 307.43 L 285.57 307.43 C 293.14 307.43 299.27 316 299.27 326.58 C 299.27 337.16 293.14 345.74 285.57 345.74 C 283.907 345.733 282.271 345.324 280.8 344.55 C 275.589 342.012 269.525 341.895 264.22 344.23 C 259.735 346.223 254.615 346.223 250.13 344.23 C 244.863 341.945 238.864 342.061 233.69 344.55 C 232.231 345.307 230.613 345.705 228.97 345.71 C 221.41 345.71 215.27 337.14 215.27 326.55 C 215.245 322.498 216.231 318.504 218.14 314.93 L 218.14 314.93 Z " fill="rgb(25,229,28)"/></g><path d=" M 218.68 700.06 C 232.22 708.66 251.73 699.96 265.36 708.43 C 268.88 710.61 271.72 713.82 275.36 715.8 C 279.73 718.19 284.87 718.62 289.84 718.8 C 331.46 720.41 373.78 708.8 414.36 718.18 C 425.71 720.8 436.81 725.06 448.44 725.68 C 468.53 726.77 487.78 716.97 507.89 716.43 C 538.39 715.61 568.36 736.02 597.79 727.97 C 607.47 725.32 616.35 719.67 626.34 718.72 C 637.47 717.72 648.17 722.57 658.99 725.4 C 697.36 735.4 737.32 719.2 776.99 717.99 C 802.86 717.2 828.48 722.84 854.33 724.14 C 872.71 725.06 891.13 723.77 909.49 722.49 C 916.49 722 923.82 721.4 929.68 717.56 C 935.54 713.72 939.14 705.47 935.52 699.47 L 218.68 700.06 Z " fill="rgb(63,61,86)"/><g opacity="0.1"><path d=" M 218.68 700.06 C 232.22 708.66 251.73 699.96 265.36 708.43 C 268.88 710.61 271.72 713.82 275.36 715.8 C 279.73 718.19 284.87 718.62 289.84 718.8 C 331.46 720.41 373.78 708.8 414.36 718.18 C 425.71 720.8 436.81 725.06 448.44 725.68 C 468.53 726.77 487.78 716.97 507.89 716.43 C 538.39 715.61 568.36 736.02 597.79 727.97 C 607.47 725.32 616.35 719.67 626.34 718.72 C 637.47 717.72 648.17 722.57 658.99 725.4 C 697.36 735.4 737.32 719.2 776.99 717.99 C 802.86 717.2 828.48 722.84 854.33 724.14 C 872.71 725.06 891.13 723.77 909.49 722.49 C 916.49 722 923.82 721.4 929.68 717.56 C 935.54 713.72 939.14 705.47 935.52 699.47 L 218.68 700.06 Z " fill="rgb(0,0,0)"/></g><path d=" M 218.68 695.06 C 232.22 703.66 251.73 694.96 265.36 703.43 C 268.88 705.61 271.72 708.82 275.36 710.8 C 279.73 713.19 284.87 713.62 289.84 713.8 C 331.46 715.41 373.78 703.8 414.36 713.18 C 425.71 715.8 436.81 720.06 448.44 720.68 C 468.53 721.77 487.78 711.97 507.89 711.43 C 538.39 710.61 568.36 731.02 597.79 722.97 C 607.47 720.32 616.35 714.67 626.34 713.72 C 637.47 712.72 648.17 717.57 658.99 720.4 C 697.36 730.4 737.32 714.2 776.99 712.99 C 802.86 712.2 828.48 717.84 854.33 719.14 C 872.71 720.06 891.13 718.77 909.49 717.49 C 916.49 717 923.82 716.4 929.68 712.56 C 935.54 708.72 939.14 700.47 935.52 694.47 L 218.68 695.06 Z " fill="rgb(63,61,86)"/><g style="opacity:0.1;"><g opacity="0.1"><path d=" M 122.35 571.86 C 122.391 576.2 121.276 580.473 119.12 584.24 C 123.427 591.932 123.427 601.308 119.12 609 C 120.215 610.873 121.037 612.894 121.56 615 C 110.644 600.612 100.596 585.585 91.47 570 L 91.47 570 C 91.69 566.283 92.772 562.667 94.63 559.44 C 92.474 555.673 91.359 551.4 91.4 547.06 C 91.387 544.127 91.881 541.214 92.86 538.45 C 93.326 537.139 93.919 535.876 94.63 534.68 C 97.45 529.89 101.89 526.8 106.87 526.8 C 111.85 526.8 116.3 529.89 119.12 534.68 C 119.806 535.842 120.385 537.063 120.85 538.33 C 121.853 541.131 122.36 544.085 122.35 547.06 C 122.391 551.4 121.276 555.673 119.12 559.44 C 121.283 563.219 122.398 567.506 122.35 571.86 Z " fill="rgb(63,61,86)"/></g><g opacity="0.1"><ellipse vector-effect="non-scaling-stroke" cx="106.87" cy="522.35" rx="15.469999999999999" ry="20.25999999999999" fill="rgb(63,61,86)"/></g><g opacity="0.1"><ellipse vector-effect="non-scaling-stroke" cx="106.87" cy="497.59000000000003" rx="15.469999999999999" ry="20.26000000000002" fill="rgb(63,61,86)"/></g><g opacity="0.1"><path d=" M 180.67 373.93 C 180.696 390.559 175.103 406.708 164.8 419.76 C 180.757 440.049 185.011 467.177 176.031 491.376 C 167.05 515.576 146.129 533.362 120.8 538.33 C 119.02 538.69 117.21 538.97 115.38 539.19 C 109.735 539.865 104.032 539.895 98.38 539.28 Q 95.56 538.98 92.81 538.45 C 84.726 536.956 76.951 534.113 69.81 530.04 C 56.5 502.85 44.875 474.867 35 446.25 C 37.598 436.626 42.119 427.628 48.29 419.8 C 32.792 400.112 28.279 373.931 36.29 350.19 L 92.57 369.08 L 39.79 341.66 C 42.114 336.864 44.947 332.331 48.24 328.14 C 31.083 306.336 27.538 276.776 39.053 251.533 C 50.569 226.29 75.216 209.591 102.929 208.256 C 130.642 206.92 156.781 221.172 170.67 245.19 L 116.26 285.19 L 175.26 254.59 C 182.884 273.529 182.371 294.772 173.84 313.32 L 129.84 312.99 L 170.5 319.67 C 168.774 322.626 166.846 325.459 164.73 328.15 C 175.047 341.18 180.663 357.31 180.67 373.93 L 180.67 373.93 Z " fill="rgb(25,229,28)"/></g><g opacity="0.1"><path d=" M 180.67 465.63 C 180.664 501.053 155.605 531.524 120.85 538.37 C 119.07 538.73 117.26 539.01 115.43 539.23 C 109.785 539.905 104.082 539.935 98.43 539.32 Q 95.61 539.02 92.86 538.49 C 84.776 536.996 77.001 534.153 69.86 530.08 C 56.532 502.878 44.89 474.882 35 446.25 C 37.598 436.626 42.119 427.628 48.29 419.8 C 37.982 406.736 32.389 390.572 32.42 373.93 C 32.42 365.61 174.74 407.15 164.8 419.76 C 175.112 432.823 180.705 448.988 180.67 465.63 L 180.67 465.63 Z " fill="rgb(0,0,0)"/></g></g><g style="opacity:0.1;"><g opacity="0.1"><path d=" M 1014.9 552.58 C 1012 561.84 1008.9 571.03 1005.72 580.01 C 1004.836 577.363 1004.39 574.59 1004.4 571.8 C 1004.4 562.87 1008.8 555.29 1014.9 552.58 Z " fill="rgb(63,61,86)"/></g><g opacity="0.1"><path d=" M 1046 393.02 C 1046 410.57 1042.46 438.3 1036 470.02 C 1030.342 497.878 1023.283 525.433 1014.85 552.58 C 1011.95 561.84 1008.85 571.03 1005.67 580.01 C 1002.02 590.21 998.17 600.13 994.14 609.62 C 971.792 601.416 954.718 583.014 948.208 560.114 C 941.699 537.215 946.539 512.583 961.23 493.85 C 945.73 474.105 941.219 447.88 949.23 424.09 L 1005.51 443.02 L 952.73 415.54 C 955.054 410.734 957.887 406.192 961.18 401.99 C 946.932 383.823 941.925 360.072 947.627 337.7 C 953.329 315.327 969.095 296.87 990.3 287.74 C 1013.017 303.238 1030.116 325.662 1039.05 351.67 L 1029.3 358.93 L 1039.76 353.5 C 1043.269 364.282 1045.317 375.485 1045.85 386.81 L 1042.91 386.81 L 1045.91 387.3 C 1046 389.19 1046 391.09 1046 393.02 Z " fill="rgb(25,229,28)"/></g><g opacity="0.1"><path d=" M 1036.05 470.02 C 1030.392 497.878 1023.333 525.433 1014.9 552.58 C 1012 561.84 1008.9 571.03 1005.72 580.01 C 1002.07 590.21 998.22 600.13 994.19 609.62 C 971.842 601.416 954.768 583.014 948.258 560.114 C 941.749 537.215 946.589 512.583 961.28 493.85 C 950.983 480.761 945.396 464.584 945.42 447.93 C 945.42 442.93 997.14 456.03 1036.05 470.02 Z " fill="rgb(0,0,0)"/></g></g><g opacity="0.1"><path d=" M 1045.87 387.28 C 1045.87 387.13 1045.87 386.97 1045.87 386.81 C 1045.337 375.485 1043.289 364.282 1039.78 353.5 C 1039.58 352.89 1039.38 352.27 1039.17 351.67 C 1030.236 325.662 1013.137 303.238 990.42 287.74 C 937.743 251.85 866.611 260.643 824.26 308.28 C 822.118 296.141 818.73 284.255 814.15 272.81 C 780.783 277.028 747.108 278.283 713.52 276.56 C 734.103 286.051 755.444 293.801 777.32 299.73 L 776.54 302.63 C 751.989 295.964 728.113 287.025 705.22 275.93 L 698.31 272.58 L 705.97 273.08 C 741.654 275.417 777.479 274.389 812.97 270.01 C 805.291 251.696 794.641 234.775 781.45 219.93 C 723.89 214.13 666.78 202.05 613.45 178.1 L 614.68 175.37 C 666.59 198.7 722.22 210.69 778.38 216.59 C 739.84 175.276 684.118 154.485 627.935 160.457 C 571.751 166.429 521.645 198.467 492.65 246.96 C 487.33 195.378 465.904 146.78 431.41 108.06 C 400.702 120.33 368.995 129.935 336.64 136.77 C 287.981 147.112 238.182 151.075 188.5 148.56 C 209.083 158.051 230.424 165.801 252.3 171.73 L 251.52 174.63 C 226.976 167.962 203.106 159.024 180.22 147.93 L 173.31 144.58 L 180.97 145.08 C 265.655 150.642 350.512 137.198 429.33 105.73 Q 424.88 100.86 420.17 96.21 C 321.75 98.21 214.56 97.21 117.52 61.88 C 44.403 107.009 -0.08 186.827 0 272.75 C 0 319.21 12.77 383.1 35 447.2 C 44.906 475.888 56.565 503.941 69.91 531.2 C 76.7 545 83.91 558.41 91.48 571.25 L 91.48 571.25 C 100.607 586.834 110.655 601.861 121.57 616.25 Q 124.51 620.12 127.52 623.85 C 138.706 638.007 151.26 651.027 165 662.72 L 165 662.72 Q 169.17 666.2 173.39 669.35 C 180.931 675.05 188.962 680.07 197.39 684.35 C 212.06 691.7 227.2 696.01 242.69 696.63 C 243.93 696.68 245.18 696.71 246.42 696.71 L 246.42 697.22 L 918.42 697.22 L 918.42 696.71 L 918.92 696.71 C 922.793 696.695 926.635 696.019 930.28 694.71 C 954.04 686.28 975.92 652.43 994.11 609.65 C 998.11 600.16 1001.99 590.24 1005.64 580.04 C 1008.86 571.04 1011.92 561.87 1014.82 552.61 C 1023.253 525.463 1030.312 497.908 1035.97 470.05 C 1042.38 438.33 1045.97 410.6 1045.97 393.05 C 1046 391.09 1046 389.19 1045.87 387.28 Z " fill="rgb(25,229,28)"/></g><path d=" M 334.06 667.79 L 353.2 656.53 C 350.61 652.11 347.301 648.153 343.41 644.82 L 307.3 656.05 L 335.6 639.42 C 321.347 631.612 304.033 631.905 290.051 640.189 C 276.07 648.473 267.498 663.519 267.5 679.77 C 267.5 705.17 288.09 706.05 313.5 706.05 C 338.91 706.05 359.5 705.17 359.5 679.77 C 359.509 673.338 358.163 666.977 355.55 661.1 L 334.06 667.79 Z " fill="rgb(25,229,28)"/><g opacity="0.1"><path d=" M 338.93 692.48 C 336.893 690.44 334.616 688.654 332.15 687.16 C 328.67 684.85 325.08 682.49 320.98 681.71 C 317.38 681.02 313.67 681.6 309.98 681.39 C 303.615 681.001 297.622 678.256 293.17 673.69 C 290.56 670.99 288.5 667.69 285.36 665.6 C 281.97 663.38 277.67 662.9 273.65 663.45 C 272.483 663.616 271.328 663.853 270.19 664.16 C 268.384 669.166 267.464 674.448 267.47 679.77 C 267.47 705.17 288.06 706.05 313.47 706.05 C 325.8 706.05 336.99 705.84 345.25 702.73 L 343.87 700.15 C 342.552 697.396 340.892 694.819 338.93 692.48 Z " fill="rgb(0,0,0)"/></g><circle vector-effect="non-scaling-stroke" cx="547.34" cy="185.77" r="35.75" fill="rgb(63,61,86)"/><path d=" M 526.6 463.87 C 530.29 489.76 525.79 516.16 518.78 541.35 C 517.47 546.04 516.06 550.77 513.61 554.98 C 511.16 559.19 507.75 562.81 504.87 566.77 C 498.87 575.03 495.35 584.77 492.06 594.41 C 482.99 621.084 475.372 648.231 469.24 675.73 C 468.871 676.857 468.871 678.073 469.24 679.2 C 470.11 681.2 472.75 681.46 474.92 681.45 L 502.98 681.3 C 503.98 679.38 502.13 677.3 500.98 675.46 C 496.98 669.24 500.82 661.16 504.35 654.65 C 512.929 638.839 519.571 622.051 524.13 604.65 C 526.05 597.32 527.61 589.83 530.73 582.92 C 534.5 574.54 540.41 567.33 545.21 559.49 C 550.79 550.38 554.86 540.49 558.9 530.56 C 564.54 516.78 570.23 502.83 572.45 488.11 C 574.54 474.29 573.51 460.21 572.15 446.3 C 572.278 445.461 571.995 444.611 571.388 444.016 C 570.782 443.422 569.927 443.155 569.09 443.3 L 531.44 441.36 C 523.68 440.96 521.84 439.26 523.02 446.88 C 523.84 452.57 525.78 458.11 526.6 463.87 Z " fill="rgb(63,61,86)"/><g opacity="0.1"><path d=" M 526.6 463.87 C 530.29 489.76 525.79 516.16 518.78 541.35 C 517.47 546.04 516.06 550.77 513.61 554.98 C 511.16 559.19 507.75 562.81 504.87 566.77 C 498.87 575.03 495.35 584.77 492.06 594.41 C 482.99 621.084 475.372 648.231 469.24 675.73 C 468.871 676.857 468.871 678.073 469.24 679.2 C 470.11 681.2 472.75 681.46 474.92 681.45 L 502.98 681.3 C 503.98 679.38 502.13 677.3 500.98 675.46 C 496.98 669.24 500.82 661.16 504.35 654.65 C 512.929 638.839 519.571 622.051 524.13 604.65 C 526.05 597.32 527.61 589.83 530.73 582.92 C 534.5 574.54 540.41 567.33 545.21 559.49 C 550.79 550.38 554.86 540.49 558.9 530.56 C 564.54 516.78 570.23 502.83 572.45 488.11 C 574.54 474.29 573.51 460.21 572.15 446.3 C 572.278 445.461 571.995 444.611 571.388 444.016 C 570.782 443.422 569.927 443.155 569.09 443.3 L 531.44 441.36 C 523.68 440.96 521.84 439.26 523.02 446.88 C 523.84 452.57 525.78 458.11 526.6 463.87 Z " fill="rgb(0,0,0)"/></g><path d=" M 534 400.93 C 526.35 411.93 518.33 424.59 520.87 437.76 C 522.8 447.76 530.42 455.51 537.61 462.76 C 566.35 491.62 594.61 523.68 604.39 563.23 C 606.91 573.45 608.13 583.94 610.3 594.23 C 614.24 612.93 621.3 630.81 628.3 648.58 L 647.06 695.93 C 658.979 696.223 669.808 689.03 674.16 677.93 C 671.7 677.74 668.49 675.36 667.05 673.36 C 659.05 662.29 657.41 648.05 655.36 634.55 C 653.09 619.63 650.06 604.83 647.02 590.04 L 633.58 524.6 C 632.03 517.05 630.48 509.49 628.46 502.05 C 620.64 473.23 605.82 446.05 603.53 416.25 C 603.19 411.87 602.98 407.06 600.01 403.81 C 596.89 400.38 591.77 399.81 587.14 399.54 C 568.41 398.34 552.25 396.51 534 400.93 Z " fill="rgb(63,61,86)"/><path d=" M 483.47 675.06 C 481.43 674.576 479.346 674.308 477.25 674.26 C 473.178 674.404 469.412 676.461 467.09 679.81 C 465.922 681.682 465.004 683.699 464.36 685.81 L 461.65 693.59 C 460.85 695.87 460.07 698.5 461.26 700.59 C 462.145 701.888 463.42 702.872 464.9 703.4 C 471.46 706.32 478.9 706.48 486 707.18 C 492.94 707.86 499.82 709.08 506.67 710.36 C 509.03 710.81 511.38 711.26 513.77 711.5 C 519.11 712.04 524.49 711.5 529.83 711.02 L 535.34 710.49 C 537.184 710.41 539.009 710.074 540.76 709.49 C 542.528 708.89 543.973 707.593 544.76 705.9 C 546.12 702.53 543.2 698.54 539.63 697.84 C 538.18 697.56 536.63 697.69 535.21 697.5 C 533.544 697.214 531.919 696.727 530.37 696.05 C 523.37 693.28 516.2 690.48 510 686.12 C 508.28 684.91 506.48 683.22 506.67 681.12 C 506.849 680.221 507.148 679.349 507.56 678.53 C 508.401 676.384 508.429 674.005 507.64 671.84 C 507.3 670.92 506.64 669.95 505.71 669.84 C 503.07 669.52 503.39 673.37 503 674.84 C 502.47 676.84 501.51 677.02 499.63 676.84 C 494.23 676.35 488.83 676.08 483.47 675.06 Z " fill="rgb(242,242,242)"/><path d=" M 641.34 701.93 C 641.388 705.837 642.732 709.618 645.16 712.68 C 645.902 713.593 646.829 714.34 647.88 714.87 C 649.462 715.521 651.174 715.792 652.88 715.66 C 657.64 715.556 662.344 714.605 666.77 712.85 C 668.329 712.144 669.933 711.539 671.57 711.04 C 673.631 710.618 675.714 710.318 677.81 710.14 C 686.08 708.95 693.34 704.07 701.33 701.6 C 703.717 701.008 706.057 700.24 708.33 699.3 C 711.49 697.81 714.05 695.3 716.56 692.87 C 718.04 691.558 719.314 690.031 720.34 688.34 C 721.81 685.61 721.9 682.34 721.96 679.25 C 722.014 678.767 721.931 678.278 721.72 677.84 C 721.492 677.524 721.18 677.279 720.82 677.13 C 718.39 675.93 715.51 676.53 712.82 677 C 703.1 678.73 693.15 678.41 683.28 678.09 C 681.355 678.355 679.492 677.292 678.74 675.5 L 674.99 669.5 C 673.92 667.78 672.22 665.81 670.28 666.4 C 668.73 666.87 668.1 668.77 668.16 670.4 C 668.22 672.03 668.72 673.65 668.41 675.24 C 667.963 677.009 666.805 678.514 665.21 679.4 C 663.635 680.257 661.954 680.902 660.21 681.32 C 654.69 682.88 648.27 684.65 644 688.71 C 640.86 691.59 641.15 698.04 641.34 701.93 Z " fill="rgb(242,242,242)"/><path d=" M 639.4 305.19 C 641.553 303.545 643.401 301.534 644.86 299.25 C 646.117 296.673 646.906 293.893 647.19 291.04 L 648.76 281.12 C 649.63 275.65 650.65 269.86 654.3 265.69 C 657.95 261.52 665.22 260.03 668.93 264.15 C 670.55 265.94 671.19 268.4 671.59 270.79 C 673.901 285.225 669.556 299.93 659.77 310.79 C 655.28 315.71 649.77 319.62 645.02 324.27 C 640.88 328.27 637.29 332.86 633.47 337.21 C 624.232 347.718 613.651 356.964 602 364.71 C 602.14 357.27 603.09 349.29 602 341.9 C 601.19 336.56 599 333.68 604.17 330.19 C 616.17 322.03 628.28 314.65 639.4 305.19 Z " fill="rgb(213,171,176)"/><path d=" M 538.56 232.01 C 538.17 237.33 535.96 242.77 531.56 245.84 Q 550.25 252.38 568.43 260.26 C 566.09 258.01 565.38 254.56 565.27 251.32 C 564.96 242.85 567.89 234.52 572.17 227.22 C 572.851 226.294 573.244 225.188 573.3 224.04 C 573.16 221.68 570.36 220.59 568.06 220.04 C 560.213 218.136 552.204 216.975 544.14 216.57 C 540.69 216.46 536.6 215.37 537.38 219.76 C 538.12 223.86 538.87 227.86 538.56 232.01 Z " fill="rgb(213,171,176)"/><circle vector-effect="non-scaling-stroke" cx="562.66" cy="205.63" r="29.230000000000018" fill="rgb(213,171,176)"/><path d=" M 591.6 284.58 C 590.579 282.385 589.336 280.301 587.89 278.36 C 582.59 270.75 577.15 263.15 570.35 256.85 C 565.199 252.256 559.624 248.161 553.7 244.62 C 550.504 242.429 546.989 240.743 543.28 239.62 C 541.079 239.132 538.841 238.828 536.59 238.71 L 529 238.09 C 528.334 238.002 527.659 238.022 527 238.15 C 524.94 238.67 524 241.23 524.44 243.3 C 524.88 245.37 526.44 247.05 527.82 248.62 C 528.16 264.11 521.27 279.39 520.34 294.86 C 518.71 321.91 535.22 347.07 536.54 374.14 C 536.676 375.363 536.546 376.601 536.16 377.77 C 535.94 378.33 535.61 378.84 535.36 379.39 C 534.58 381.09 534.61 383.02 534.47 384.89 C 533.925 391.559 531.005 397.812 526.24 402.51 C 527.478 404.047 529.07 405.262 530.88 406.05 C 534.07 407.44 537.88 407.56 541.27 408.53 C 550.11 411.11 559.17 413.71 568.36 413.16 C 569.502 410.676 570.209 408.014 570.45 405.29 C 571.75 404.48 573.25 406.21 573.45 407.73 C 573.65 409.25 573.36 411.02 574.45 412.12 C 575.54 413.22 576.92 413.05 578.25 412.88 C 583.86 412.17 589.25 410.28 594.75 409.01 C 600.25 407.74 606.13 407.13 611.48 408.95 C 612.56 407.58 612.1 405.55 611.22 404.05 C 610.34 402.55 609.09 401.23 608.59 399.56 C 608.338 398.598 608.231 397.604 608.27 396.61 C 608.27 388.06 610.03 379.42 608.36 371.03 C 607.87 368.57 607.09 366.17 606.59 363.7 C 605.59 358.91 605.74 353.97 605.87 349.08 C 606 344.19 605.41 338.9 605.31 333.94 C 605.307 331.89 605.173 329.843 604.91 327.81 C 604.57 325.68 603.91 323.6 603.73 321.45 C 603.19 315.99 605.39 310.57 605.06 305.09 C 604.51 296.77 594.84 292.25 591.6 284.58 Z " fill="rgb(255,111,97)"/><path d=" M 525.63 280.66 C 518.55 299.44 515.09 319.36 511.63 339.14 L 503.63 385.6 C 501.36 398.73 499.08 411.94 499.17 425.26 C 499.17 429 499.41 432.81 498.43 436.42 C 497.15 441.16 493.97 445.11 491.56 449.42 C 486.67 458.222 485.041 468.466 486.96 478.35 C 487.78 482.5 490.02 487.21 494.23 487.69 C 497.69 488.07 500.68 485.32 502.7 482.48 C 507.34 475.97 509.64 468.11 511.7 460.37 C 518.332 435.075 522.969 409.3 525.57 383.28 C 525.817 379.986 526.282 376.713 526.96 373.48 C 527.843 370.147 528.973 366.885 530.34 363.72 Q 534.93 352.34 539.53 340.96 C 546.6 323.43 553.71 305.82 563.42 289.6 C 553.82 286.84 543.83 283.6 534.23 280.87 C 531.46 280.05 528.49 280.54 525.63 280.66 Z " fill="rgb(213,171,176)"/><path d=" M 542.27 294.93 C 535.55 293.48 528.6 293.93 521.74 293.76 C 520.766 293.831 519.795 293.578 518.98 293.04 C 517.59 291.85 518.18 289.62 518.88 287.93 L 522.2 279.93 C 522.745 278.276 523.654 276.766 524.86 275.51 C 526.55 274.01 528.93 273.64 531.17 273.37 C 538.46 272.53 545.96 272.25 553.03 274.22 C 560.1 276.19 566.75 280.67 569.91 287.3 C 571.23 290.06 571.84 293.54 570.09 296.05 C 567.49 299.78 561.66 303.95 557.31 301.91 C 552.1 299.44 548.11 296.17 542.27 294.93 Z " fill="rgb(255,111,97)"/><path d=" M 578 160.23 C 572.224 160.168 566.556 161.802 561.7 164.93 C 552.339 156.06 538.926 152.919 526.6 156.71 C 524.818 146.484 515.65 139.219 505.288 139.822 C 494.925 140.424 486.661 148.702 486.076 159.066 C 485.491 169.43 492.771 178.585 503 180.35 C 497.452 199.299 508.316 219.157 527.265 224.705 C 546.214 230.253 566.072 219.389 571.62 200.44 C 573.729 200.872 575.877 201.09 578.03 201.09 C 592.13 201.09 603.57 191.94 603.57 180.66 C 603.57 169.38 592.08 160.23 578 160.23 Z " fill="rgb(63,61,86)"/><g opacity="0.1"><path d=" M 583.09 190.87 C 580.937 190.876 578.788 190.658 576.68 190.22 C 575.678 193.878 574.099 197.351 572 200.51 C 573.977 200.891 575.986 201.085 578 201.09 C 591.18 201.09 602 193.09 603.39 182.85 C 598.7 187.73 591.35 190.87 583.09 190.87 Z " fill="rgb(0,0,0)"/></g><g opacity="0.1"><path d=" M 542.23 216.41 C 530.887 216.394 520.223 211.003 513.484 201.878 C 506.745 192.754 504.729 180.976 508.05 170.13 C 498.283 168.412 491.16 159.927 491.16 150.01 C 491.158 148.782 491.268 147.557 491.49 146.35 C 486.409 151.839 484.734 159.666 487.123 166.753 C 489.512 173.841 495.583 179.057 502.95 180.35 C 497.218 199.169 507.769 219.083 526.559 224.911 C 545.349 230.739 565.316 220.29 571.24 201.53 C 564.534 210.876 553.733 216.416 542.23 216.41 L 542.23 216.41 Z " fill="rgb(0,0,0)"/></g><path d="M 672.566 276.213 L 672.566 276.213 C 672.717 276.321 672.752 276.53 672.644 276.68 L 669.816 280.645 C 669.708 280.795 669.499 280.83 669.348 280.723 L 669.348 280.723 C 669.198 280.615 669.163 280.406 669.27 280.256 L 672.099 276.291 C 672.206 276.141 672.416 276.106 672.566 276.213 Z" style="stroke:none;fill:#3A3768;stroke-miterlimit:10;"/><path d="M 656.793 259.62 L 656.793 259.62 C 656.879 259.681 656.898 259.8 656.837 259.885 L 656.001 261.057 C 655.94 261.143 655.821 261.162 655.736 261.101 L 655.736 261.101 C 655.651 261.041 655.631 260.922 655.692 260.836 L 656.528 259.664 C 656.589 259.579 656.708 259.559 656.793 259.62 Z" style="stroke:none;fill:#3A3768;stroke-miterlimit:10;"/><path d="M 654.846 262.353 L 654.846 262.353 C 654.941 262.42 654.963 262.552 654.895 262.646 L 653.298 264.884 C 653.231 264.979 653.099 265.001 653.005 264.933 L 653.005 264.933 C 652.911 264.866 652.889 264.735 652.956 264.641 L 654.553 262.402 C 654.621 262.308 654.752 262.286 654.846 262.353 Z" style="stroke:none;fill:#3A3768;stroke-miterlimit:10;"/><path d="M 652.368 265.839 L 652.368 265.839 C 652.458 265.904 652.479 266.029 652.415 266.118 L 650.788 268.398 C 650.724 268.488 650.599 268.508 650.509 268.444 L 650.509 268.444 C 650.42 268.38 650.399 268.255 650.463 268.165 L 652.089 265.886 C 652.153 265.796 652.278 265.775 652.368 265.839 Z" style="stroke:none;fill:#3A3768;stroke-miterlimit:10;"/><path d="M 663.292 258.062 L 677.488 268.192 C 678.62 269 678.884 270.575 678.076 271.707 L 654.465 304.797 C 653.657 305.929 652.082 306.192 650.949 305.385 L 636.753 295.255 C 635.621 294.447 635.358 292.872 636.166 291.74 L 659.777 258.65 C 660.585 257.518 662.16 257.255 663.292 258.062 Z" style="stroke:none;fill:#3A3768;stroke-miterlimit:10;"/><g style="mix-blend-mode:normal;" opacity="0.1"><path d="M 663.292 258.062 L 677.488 268.192 C 678.62 269 678.884 270.575 678.076 271.707 L 654.465 304.797 C 653.657 305.929 652.082 306.192 650.949 305.385 L 636.753 295.255 C 635.621 294.447 635.358 292.872 636.166 291.74 L 659.777 258.65 C 660.585 257.518 662.16 257.255 663.292 258.062 Z" style="stroke:none;fill:#000000;stroke-miterlimit:10;"/></g><path d="M 662.365 256.198 L 676.562 266.328 C 677.694 267.136 677.957 268.711 677.149 269.843 L 653.538 302.933 C 652.73 304.065 651.155 304.328 650.023 303.52 L 635.826 293.39 C 634.694 292.583 634.431 291.008 635.239 289.875 L 658.85 256.786 C 659.658 255.654 661.233 255.39 662.365 256.198 Z" style="stroke:none;fill:#3A3768;stroke-miterlimit:10;"/><path d=" M 675.28 266.93 L 673.19 265.43 L 673.01 265.68 C 672.547 266.317 671.662 266.472 671.01 266.03 L 664.33 261.26 C 663.67 260.788 663.518 259.87 663.99 259.21 L 664.17 258.96 L 662.17 257.56 C 661.786 257.283 661.307 257.171 660.84 257.247 C 660.372 257.324 659.955 257.584 659.68 257.97 L 636.6 290.32 C 636.029 291.122 636.212 292.234 637.01 292.81 L 650.15 302.18 C 650.535 302.456 651.015 302.567 651.482 302.488 C 651.95 302.409 652.366 302.147 652.64 301.76 L 675.72 269.42 C 675.994 269.032 676.102 268.551 676.019 268.083 C 675.936 267.616 675.67 267.2 675.28 266.93 Z " fill="rgb(25,229,28)"/><path d="M 667.16 261.309 L 669.195 262.761 C 669.339 262.863 669.373 263.063 669.27 263.207 L 669.27 263.207 C 669.167 263.351 668.967 263.384 668.824 263.282 L 666.789 261.83 C 666.645 261.727 666.611 261.527 666.714 261.383 L 666.714 261.383 C 666.817 261.239 667.017 261.206 667.16 261.309 Z" style="stroke:none;fill:#E6E8EC;stroke-miterlimit:10;"/><circle vector-effect="non-scaling-stroke" cx="669.9" cy="263.72" r="0.36000000000001364" fill="rgb(230,232,236)"/><path d=" M 670 13.93 C 632.997 13.93 603 43.927 603 80.93 C 603 117.93 673.2 240.47 673.2 240.47 C 673.2 240.47 737 117.98 737 80.93 C 737 43.927 707.003 13.93 670 13.93 Z  M 670 125.61 C 650.615 125.61 634.9 109.895 634.9 90.51 C 634.9 71.125 650.615 55.41 670 55.41 C 689.385 55.41 705.1 71.125 705.1 90.51 C 705.111 99.825 701.417 108.762 694.833 115.352 C 688.249 121.941 679.315 125.643 670 125.64 L 670 125.61 Z " fill="rgb(25,229,28)"/><g opacity="0.1"><path d=" M 670 13.93 C 632.997 13.93 603 43.927 603 80.93 C 603 117.93 673.2 240.47 673.2 240.47 C 673.2 240.47 737 117.98 737 80.93 C 737 43.927 707.003 13.93 670 13.93 Z  M 670 125.61 C 650.615 125.61 634.9 109.895 634.9 90.51 C 634.9 71.125 650.615 55.41 670 55.41 C 689.385 55.41 705.1 71.125 705.1 90.51 C 705.111 99.825 701.417 108.762 694.833 115.352 C 688.249 121.941 679.315 125.643 670 125.64 L 670 125.61 Z " fill="rgb(0,0,0)"/></g><path d=" M 670 0 C 632.997 0 603 29.997 603 67 C 603 104 673.2 240.5 673.2 240.5 C 673.2 240.5 737 104.02 737 67.01 C 737.003 49.239 729.945 32.194 717.38 19.627 C 704.814 7.06 687.771 0 670 0 L 670 0 Z  M 670 111.68 C 650.615 111.68 634.9 95.965 634.9 76.58 C 634.9 57.195 650.615 41.48 670 41.48 C 689.385 41.48 705.1 57.195 705.1 76.58 C 705.1 85.889 701.402 94.817 694.819 101.399 C 688.237 107.982 679.309 111.68 670 111.68 L 670 111.68 Z " fill="rgb(25,229,28)"/></g></svg>