<?xml version="1.0" encoding="UTF-8" standalone="no"?><!-- Generator: Gravit.io --><svg xmlns="http://www.w3.org/2000/svg" xmlns:xlink="http://www.w3.org/1999/xlink" style="isolation:isolate" viewBox="0 0 1142.046 959.789" width="1142.046pt" height="959.789pt"><defs><clipPath id="_clipPath_fdr59VJIe6b321XXBcmfdScMXilv5G2k"><rect width="1142.046" height="959.789"/></clipPath></defs><g clip-path="url(#_clipPath_fdr59VJIe6b321XXBcmfdScMXilv5G2k)"><linearGradient id="_lgradient_2" x1="0.49999967272727286" y1="0.9312029573697419" x2="0.4999996727272729" y2="-1.7951908215518841e-7" gradientTransform="matrix(825,0,0,674.337,122.951,104.907)" gradientUnits="userSpaceOnUse"><stop offset="0%" stop-opacity="0.25" style="stop-color:rgb(128,128,128)"/><stop offset="53.513999999999996%" stop-opacity="0.12" style="stop-color:rgb(128,128,128)"/><stop offset="100%" stop-opacity="0.1" style="stop-color:rgb(128,128,128)"/></linearGradient><path d=" M 829.064 752.8 L 669.299 752.8 L 397.178 779.244 L 122.951 752.8 L 122.951 104.907 L 396.041 124.74 L 675.029 104.907 L 947.951 142.37 L 940.945 639.909 L 829.064 752.8 L 829.064 752.8 Z " fill="url(#_lgradient_2)"/><path d=" M 823.856 743.794 L 667.586 743.794 L 401.418 769.524 L 133.19 743.794 L 133.19 113.412 L 400.306 132.709 L 673.19 113.412 L 940.142 149.863 L 933.289 633.955 L 823.856 743.794 L 823.856 743.794 Z " fill="rgb(255,255,255)"/><path d=" M 824.736 726.631 L 660.154 726.631 L 409.096 750.901 L 156.095 726.631 L 156.095 132.035 L 408.047 150.237 L 665.44 132.035 L 917.237 166.417 L 917.237 633.6 L 824.736 726.631 L 824.736 726.631 Z " fill="rgb(25,229,28)"/><clipPath id="_clipPath_Wp2q8IVIGipNCA7qV67kC0nGm2DPYvZU"><path d=" M 889.286 734.556 L 724.703 734.556 L 473.645 758.825 L 220.644 734.556 L 220.644 139.96 L 472.596 158.162 L 729.989 139.96 L 981.786 174.341 L 981.786 641.525 L 889.286 734.556 L 889.286 734.556 Z " fill="rgb(255,255,255)"/></clipPath><g clip-path="url(#_clipPath_Wp2q8IVIGipNCA7qV67kC0nGm2DPYvZU)"><g><path d=" M 1142.046 905.143 L 564.089 585.083 L 710.891 97.332 L 660.931 77.52 L 589.788 313.893 L 22.967 0 L 0 54.646 L 572.409 371.634 L 441.726 805.828 L 491.686 825.64 L 546.71 642.823 L 1119.079 959.789 L 1142.046 905.143 L 1142.046 905.143 Z " fill="rgb(255,255,255)"/></g></g><path d=" M 813.083 742.811 L 815.019 620.076 L 933.289 624.847 L 813.083 742.811 L 813.083 742.811 Z " fill="rgb(58,0,95)"/><path d=" M 156.095 388.993 L 518.844 549.605 L 542.951 599.576 L 518.951 624.576 L 156.095 452.489 L 156.095 388.993 L 156.095 388.993 Z " fill="rgb(255,255,255)"/><path d=" M 823.856 742.811 L 825.618 629.555 L 933.289 633.957 L 823.856 742.811 L 823.856 742.811 Z " fill="rgb(255,255,255)"/><path d=" M 648.951 647.576 L 800.309 150.451 L 860.519 158.672 L 690.951 673.576 L 648.951 647.576 L 648.951 647.576 Z " fill="rgb(255,255,255)"/><g opacity="0.1"><path d=" M 408.047 750.901 L 659.999 726.631 L 659.999 132.035 L 408.047 150.237" fill="rgb(0,0,0)"/></g><path d=" M 638.799 348.436 C 638.799 396.465 551.834 532.478 551.834 532.478 C 551.834 532.478 464.869 396.465 464.869 348.436 C 464.859 317.359 481.432 288.639 508.343 273.098 C 535.254 257.556 568.414 257.556 595.325 273.098 C 622.236 288.639 638.809 317.359 638.799 348.436 L 638.799 348.436 Z " fill="rgb(58,0,95)"/><circle vector-effect="non-scaling-stroke" cx="551.83402" cy="342.36863" r="26.291669999999954" fill="rgb(255,255,255)"/><path d=" M 784.67 388.993 L 917.237 423.009 L 917.237 486.505 L 754.951 428.576 L 784.67 388.993 L 784.67 388.993 Z " fill="rgb(255,255,255)"/><path d=" M 279.434 510.983 L 245.951 742.576 L 283.951 750.576 L 334.01 536.866 L 333.951 506.576 L 279.434 510.983 L 279.434 510.983 Z " fill="rgb(255,255,255)"/><path d=" M 278.084 208.643 L 240.514 426.371 L 269.604 442.076 L 338.951 208.576 L 278.084 208.643 L 278.084 208.643 Z " fill="rgb(255,255,255)"/><circle vector-effect="non-scaling-stroke" cx="349.95073" cy="165.57551" r="8" fill="rgb(58,0,95)"/><circle vector-effect="non-scaling-stroke" cx="253.95073000000002" cy="579.57551" r="8.000000000000014" fill="rgb(58,0,95)"/><circle vector-effect="non-scaling-stroke" cx="245.95073" cy="638.57551" r="8" fill="rgb(58,0,95)"/><circle vector-effect="non-scaling-stroke" cx="330.95073" cy="624.57551" r="8" fill="rgb(58,0,95)"/><circle vector-effect="non-scaling-stroke" cx="193.95073" cy="384.57551" r="8" fill="rgb(58,0,95)"/><circle vector-effect="non-scaling-stroke" cx="823.95073" cy="376.57551" r="8" fill="rgb(58,0,95)"/><circle vector-effect="non-scaling-stroke" cx="754.95073" cy="654.57551" r="8" fill="rgb(58,0,95)"/></g></svg>