<?xml version="1.0" encoding="UTF-8" standalone="no"?><!-- Generator: Gravit.io --><svg xmlns="http://www.w3.org/2000/svg" xmlns:xlink="http://www.w3.org/1999/xlink" style="isolation:isolate" viewBox="0 0 759.609 659" width="759.609pt" height="659pt"><defs><clipPath id="_clipPath_fIHr0s7Kn7i6IONbGnpOI2Bvilva5qQj"><rect width="759.609" height="659"/></clipPath></defs><g clip-path="url(#_clipPath_fIHr0s7Kn7i6IONbGnpOI2Bvilva5qQj)"><clipPath id="_clipPath_nhcRKTU8PiubxxPOzxqx5roPndHGaCHF"><rect x="0" y="0" width="759.609" height="659" transform="matrix(1,0,0,1,0,0)" fill="rgb(255,255,255)"/></clipPath><g clip-path="url(#_clipPath_nhcRKTU8PiubxxPOzxqx5roPndHGaCHF)"><g><ellipse vector-effect="non-scaling-stroke" cx="213.5" cy="260.5" rx="175.5" ry="177.5" fill="rgb(235,235,235)"/><clipPath id="_clipPath_CK2LRDgApbMs9RZQuRcQGILy17IP2GS2"><rect x="0" y="0" width="759.609" height="659" transform="matrix(1,0,0,1,0,0)" fill="rgb(255,255,255)"/></clipPath><g clip-path="url(#_clipPath_CK2LRDgApbMs9RZQuRcQGILy17IP2GS2)"><g><g><clipPath id="_clipPath_atfDdMU9lPXPkOtY2SqfxMd2yRq8vhmr"><rect x="0" y="0" width="759.609" height="659" transform="matrix(1,0,0,1,0,0)" fill="rgb(255,255,255)"/></clipPath><g clip-path="url(#_clipPath_atfDdMU9lPXPkOtY2SqfxMd2yRq8vhmr)"><g><g><path d=" M 312.11 431.803 C 314.031 430.598 315.965 429.338 317.86 428.059 L 319.146 429.965 C 317.23 431.258 315.275 432.531 313.333 433.75 L 312.11 431.803 L 312.11 431.803 L 312.11 431.803 Z " fill="rgb(230,230,230)"/><path d=" M 90.167 90.741 C 92.729 89.012 95.351 87.326 97.961 85.729 L 99.161 87.691 C 95.252 90.081 91.34 92.661 87.582 95.325 L 86.252 93.448 Q 88.188 92.077 90.167 90.741 Z  M 75.091 101.94 L 76.545 103.722 C 72.971 106.638 69.461 109.709 66.108 112.85 L 64.537 111.172 C 67.927 107.996 71.477 104.89 75.091 101.94 L 75.091 101.94 L 75.091 101.94 Z  M 110.162 78.818 C 114.296 76.66 118.551 74.621 122.808 72.758 L 123.728 74.865 C 119.521 76.706 115.315 78.722 111.227 80.857 L 110.162 78.818 L 110.162 78.818 Z  M 54.64 121.106 L 56.324 122.673 C 53.189 126.043 50.131 129.567 47.237 133.146 L 45.449 131.701 C 48.377 128.08 51.469 124.515 54.64 121.106 L 54.64 121.106 L 54.64 121.106 Z  M 135.842 67.582 C 140.223 66.014 144.719 64.579 149.202 63.317 L 149.826 65.529 C 145.392 66.778 140.948 68.197 136.615 69.747 L 135.842 67.582 L 135.842 67.582 Z  M 37.013 142.904 L 38.897 144.222 C 36.258 147.992 33.718 151.9 31.347 155.835 L 29.378 154.648 C 31.775 150.669 34.344 146.718 37.013 142.904 Z  M 162.845 59.978 C 167.415 59.027 172.07 58.224 176.683 57.592 L 176.995 59.871 C 172.435 60.495 167.832 61.289 163.314 62.23 L 162.845 59.978 L 162.845 59.978 Z  M 22.566 166.892 L 24.612 167.941 C 22.515 172.039 20.533 176.259 18.723 180.485 L 16.608 179.58 C 18.44 175.306 20.444 171.038 22.566 166.892 Z  M 190.647 56.163 C 195.301 55.848 200.019 55.691 204.673 55.696 L 204.67 57.995 C 200.07 57.991 195.403 58.146 190.801 58.457 L 190.647 56.163 L 190.647 56.163 Z  M 11.532 192.647 L 13.703 193.406 C 12.182 197.752 10.794 202.204 9.575 206.641 L 7.357 206.033 C 8.59 201.545 9.995 197.041 11.532 192.647 Z  M 218.697 56.19 C 223.34 56.513 228.034 57 232.651 57.638 L 232.335 59.916 C 227.771 59.285 223.129 58.803 218.537 58.484 L 218.697 56.19 L 218.697 56.19 Z  M 4.104 219.675 L 6.357 220.131 C 5.443 224.644 4.671 229.246 4.065 233.811 L 1.786 233.508 C 2.399 228.892 3.179 224.238 4.104 219.675 L 4.104 219.675 L 4.104 219.675 Z  M 246.471 60.034 C 251.031 60.986 255.615 62.107 260.095 63.365 L 259.473 65.578 C 255.043 64.334 250.511 63.226 246.002 62.285 L 246.471 60.034 L 246.471 60.034 Z  M 0.417 247.472 L 2.711 247.619 C 2.418 252.21 2.28 256.876 2.301 261.486 L 0.002 261.496 C -0.02 256.834 0.12 252.115 0.417 247.472 L 0.417 247.472 L 0.417 247.472 Z  M 273.457 67.614 C 277.844 69.176 282.23 70.91 286.495 72.765 L 285.578 74.874 C 281.361 73.039 277.023 71.325 272.685 69.78 L 273.457 67.614 L 273.457 67.614 Z  M 0.55 275.521 L 2.842 275.353 C 3.179 279.95 3.681 284.592 4.333 289.153 L 2.057 289.478 C 1.397 284.866 0.89 280.171 0.55 275.521 Z  M 299.147 78.794 C 303.277 80.939 307.383 83.254 311.353 85.676 L 310.156 87.638 C 306.231 85.245 302.17 82.955 298.087 80.834 L 299.147 78.794 L 299.147 78.794 Z  M 4.522 303.301 L 6.77 302.818 C 7.736 307.327 8.872 311.859 10.147 316.289 L 7.937 316.925 C 6.647 312.444 5.498 307.859 4.522 303.301 Z  M 323.052 93.376 C 326.852 96.069 330.606 98.93 334.209 101.876 L 332.752 103.656 C 329.191 100.742 325.48 97.915 321.723 95.251 L 323.052 93.376 L 323.052 93.376 Z  M 12.28 330.262 L 14.442 329.475 C 16.018 333.802 17.765 338.128 19.633 342.333 L 17.532 343.266 C 15.642 339.013 13.876 334.639 12.28 330.262 Z  M 344.749 111.127 C 348.14 114.316 351.464 117.665 354.628 121.081 L 352.941 122.643 C 349.813 119.266 346.527 115.955 343.174 112.802 L 344.749 111.127 L 344.749 111.127 Z  M 23.663 355.877 L 25.695 354.802 C 27.846 358.864 30.168 362.91 32.596 366.828 L 30.642 368.039 C 28.186 364.078 25.838 359.986 23.663 355.877 Z  M 363.8 131.689 C 366.718 135.307 369.554 139.078 372.229 142.896 L 370.345 144.215 C 367.7 140.439 364.896 136.71 362.01 133.133 L 363.8 131.689 L 363.8 131.689 Z  M 40.298 378.363 C 42.983 382.109 45.829 385.806 48.754 389.352 L 46.981 390.815 C 44.022 387.229 41.145 383.491 38.428 379.703 L 40.298 378.363 L 40.298 378.363 Z  M 57.941 399.738 C 61.113 403.084 64.437 406.358 67.82 409.468 L 66.264 411.16 C 62.842 408.015 59.48 404.704 56.272 401.32 L 57.941 399.738 L 57.941 399.738 Z  M 78.347 418.493 C 81.94 421.364 85.678 424.146 89.458 426.762 L 88.15 428.653 C 84.326 426.007 80.546 423.193 76.912 420.289 L 78.347 418.493 L 78.347 418.493 Z  M 101.116 434.247 C 105.075 436.6 109.163 438.843 113.265 440.915 L 112.228 442.967 C 108.079 440.872 103.945 438.603 99.942 436.223 L 101.116 434.247 L 101.116 434.247 Z  M 125.845 446.735 C 130.092 448.526 134.45 450.19 138.795 451.683 L 138.049 453.857 C 133.654 452.348 129.247 450.665 124.951 448.854 L 125.845 446.735 L 125.845 446.735 Z  M 152.057 455.736 C 156.502 456.931 161.046 457.988 165.564 458.878 L 165.12 461.134 C 160.551 460.234 155.955 459.165 151.459 457.957 L 152.057 455.736 L 152.057 455.736 Z  M 179.256 461.092 C 183.83 461.672 188.478 462.102 193.07 462.369 L 192.937 464.664 C 188.293 464.394 183.592 463.96 178.967 463.373 L 179.256 461.092 L 179.256 461.092 Z  M 206.939 462.701 C 211.552 462.652 216.216 462.444 220.801 462.082 L 220.983 464.374 C 216.345 464.74 211.629 464.951 206.963 465 L 206.939 462.701 L 206.939 462.701 Z  M 234.591 460.511 C 239.152 459.833 243.744 458.986 248.241 457.996 L 248.736 460.241 C 244.187 461.243 239.542 462.099 234.929 462.786 L 234.591 460.511 L 234.591 460.511 Z  M 261.687 454.544 C 266.104 453.245 270.532 451.776 274.849 450.176 L 275.648 452.332 C 271.282 453.95 266.803 455.436 262.337 456.75 L 261.687 454.544 L 261.687 454.544 Z  M 287.677 444.91 C 291.869 443.018 296.053 440.954 300.113 438.776 L 301.2 440.803 C 297.094 443.006 292.862 445.093 288.623 447.006 L 287.677 444.91 L 287.677 444.91 Z " fill="rgb(202,202,202)"/><path d=" M 378.09 156.126 L 380.059 154.94 C 381.257 156.928 382.427 158.947 383.537 160.941 L 381.528 162.06 C 380.43 160.089 379.274 158.092 378.09 156.126 Z " fill="rgb(230,230,230)"/><ellipse vector-effect="non-scaling-stroke" cx="477.6088778576261" cy="641.9999823826242" rx="282" ry="17" fill="rgb(63,61,86)"/><path d=" M 528.156 154.798 C 528.156 154.798 536.057 257.516 524.995 260.677 C 524.995 260.677 474.426 287.541 411.215 281.22 C 411.215 281.22 349.584 314.406 359.066 282.801 C 368.548 251.195 411.215 259.096 411.215 259.096 C 411.215 259.096 487.069 243.294 490.229 232.232 C 493.39 221.17 480.748 175.341 485.488 173.761 C 490.229 172.181 528.156 154.798 528.156 154.798 Z " fill="rgb(160,97,106)"/><path d=" M 368.161 257.242 L 368.161 257.242 L 389.38 252.328 C 391.489 251.839 393.655 252.878 394.595 254.827 L 416.331 299.9 C 416.811 300.896 416.826 302.052 416.374 303.06 C 415.921 304.067 415.046 304.824 413.983 305.126 L 392.419 311.252 C 390.03 311.931 387.508 310.732 386.527 308.452 L 372.658 276.237 L 372.235 276.472 L 369.596 270.368 L 370.034 270.144 L 366.163 261.152 C 365.827 260.372 365.857 259.483 366.243 258.727 C 366.629 257.971 367.333 257.427 368.161 257.242 L 368.161 257.242 L 368.161 257.242 L 368.161 257.242 Z " fill="rgb(63,61,86)"/><path d=" M 386.824 254 L 389.301 253.426 C 390.767 253.087 392.271 253.814 392.915 255.174 L 414.13 299.958 C 414.377 300.48 414.385 301.084 414.15 301.611 C 413.916 302.139 413.464 302.539 412.911 302.705 L 391.498 309.166 C 390.248 309.543 388.913 308.922 388.397 307.721 L 368.325 261.002 C 368.062 260.39 368.084 259.693 368.385 259.098 C 368.686 258.504 369.235 258.074 369.884 257.923 L 372.233 257.379 C 372.701 257.271 373.183 257.49 373.409 257.913 L 373.409 257.913 C 373.609 258.287 374.034 258.48 374.447 258.385 L 385.602 255.801 C 386.417 255.612 386.95 254.827 386.824 254 Z " fill="rgb(25,229,28)"/><path d=" M 433.5 333.888 C 433.5 333.888 439.66 482.285 449.142 504.409 C 457.04 522.837 461.648 582.931 462.968 602.492 C 463.232 606.415 463.364 608.707 463.364 608.707 C 463.364 608.707 488.649 608.707 490.229 602.386 C 491.81 596.065 496.55 526.533 490.229 504.409 C 483.908 482.285 498.291 329.147 498.291 329.147 L 433.5 333.888 L 433.5 333.888 L 433.5 333.888 Z " fill="rgb(58,0,95)"/><path d=" M 469.686 600.806 C 469.686 600.806 453.883 605.547 450.722 611.868 C 447.562 618.189 395.412 629.251 411.215 637.152 C 427.018 645.054 474.426 630.831 474.426 630.831 C 474.426 630.831 499.711 629.251 498.131 619.769 C 496.55 610.288 490.795 598.605 490.795 598.605 L 469.686 600.806 L 469.686 600.806 L 469.686 600.806 Z " fill="rgb(58,0,95)"/><path d=" M 513.933 617.82 C 513.933 617.82 498.131 622.561 494.97 628.882 C 494.97 628.882 439.66 646.265 455.463 654.167 C 455.463 654.167 518.674 647.845 518.674 647.845 C 518.674 647.845 543.959 646.265 542.379 636.783 C 542.379 636.783 535.043 615.619 535.043 615.619 L 513.933 617.82 L 513.933 617.82 L 513.933 617.82 Z " fill="rgb(58,0,95)"/><path d=" M 447.562 330.209 L 469.686 368.136 L 506.609 500 C 506.609 500 502.872 620.981 507.612 620.981 C 507.612 620.981 537.638 628.882 539.218 620.981 C 540.553 614.306 558.252 550.37 549.43 507.814 C 543.691 480.917 540 453.625 538.387 426.171 L 534.477 352.333 C 534.477 352.333 550.28 323.888 532.897 319.147 C 515.514 314.406 447.562 330.209 447.562 330.209 Z " fill="rgb(58,0,95)"/><circle vector-effect="non-scaling-stroke" cx="468.1053278576262" cy="48.919012382624146" r="37.92674000000011" fill="rgb(160,97,106)"/><path d=" M 463.364 74.204 C 463.364 74.204 469.686 124.773 468.105 127.933 C 468.105 127.933 506.032 93.167 506.032 93.167 C 506.032 93.167 491.81 71.043 494.97 59.981 L 463.364 74.204 L 463.364 74.204 L 463.364 74.204 Z " fill="rgb(160,97,106)"/><path d=" M 551.86 124.772 C 551.86 124.772 507.612 93.167 506.032 86.846 L 472.846 115.291 L 467.207 108.579 C 467.207 108.579 441.241 134.254 441.241 145.316 C 441.241 145.316 439.66 189.564 444.401 199.046 C 444.401 199.046 430.179 328.629 430.179 328.629 C 430.179 328.629 445.981 342.851 447.562 344.431 C 447.562 344.431 512.353 334.95 512.353 334.95 C 512.353 334.95 543.959 331.789 543.959 327.048 C 543.959 327.048 534.477 251.195 537.638 232.232 C 540.798 213.268 551.86 124.772 551.86 124.772 Z " fill="rgb(25,229,28)"/><path d=" M 561.342 169.02 C 561.342 169.02 569.243 271.739 558.181 274.899 C 558.181 274.899 507.612 301.764 444.401 295.443 C 444.401 295.443 382.77 328.629 392.252 297.023 C 401.734 265.417 444.401 273.319 444.401 273.319 C 444.401 273.319 520.255 257.516 523.415 246.454 C 526.576 235.392 513.933 189.564 518.674 187.984 C 523.415 186.403 561.342 169.02 561.342 169.02 Z " fill="rgb(160,97,106)"/><path d=" M 451.905 29.973 C 457.089 28.128 462.808 27.18 468.094 28.71 C 475.576 30.875 480.757 37.432 486.346 42.857 C 491.934 48.281 499.771 53.088 507.13 50.537 C 506.686 47.348 507.523 44.112 509.458 41.538 C 510.277 40.459 511.318 39.436 511.525 38.098 C 511.839 36.066 510.131 34.314 509.619 32.324 C 508.721 28.835 511.182 24.06 508.156 22.104 C 507.358 21.588 506.347 21.471 505.567 20.926 C 502.509 18.788 505.905 13.471 503.883 10.335 C 503.277 9.525 502.49 8.869 501.585 8.418 C 486.921 -0.138 468.988 -0.162 452.012 0.054 C 449.649 0.084 446.358 1.258 447.025 3.525 C 443.817 1.222 439.616 4.456 437.03 7.441 L 431.737 13.55 C 429.249 16.207 427.079 19.143 425.268 22.3 C 423.651 25.392 423.294 30.146 426.512 31.494 C 424.119 30.491 421.217 44.662 432.246 42.331 C 438.654 40.976 444.935 32.453 451.905 29.973 Z " fill="rgb(47,46,65)"/><path d=" M 526.576 127.933 L 551.86 124.772 C 551.86 124.772 577.145 173.761 562.922 181.663 C 562.922 181.663 512.353 195.885 512.353 192.725 C 512.353 189.564 526.576 127.933 526.576 127.933 Z " fill="rgb(25,229,28)"/><path d=" M 658.031 632.094 C 657.768 631.663 651.547 621.276 649.39 599.706 C 647.412 579.918 648.684 546.562 665.982 500.034 C 698.754 411.89 658.43 340.77 658.018 340.062 L 660.007 338.908 C 660.112 339.088 670.517 357.22 676.664 386.094 C 684.786 424.374 681.828 464.176 668.138 500.836 C 635.423 588.83 659.745 630.485 659.994 630.896 L 658.031 632.094 L 658.031 632.094 L 658.031 632.094 Z " fill="rgb(63,61,86)"/><circle vector-effect="non-scaling-stroke" cx="645.2169578576263" cy="319.9410123826242" r="14.945369999999912" fill="rgb(25,229,28)"/><circle vector-effect="non-scaling-stroke" cx="692.3523478576262" cy="375.1239123826241" r="14.945369999999912" fill="rgb(25,229,28)"/><circle vector-effect="non-scaling-stroke" cx="660.1623278576262" cy="411.9125123826241" r="14.945369999999912" fill="rgb(25,229,28)"/><circle vector-effect="non-scaling-stroke" cx="699.2502078576263" cy="442.9528923826241" r="14.945369999999912" fill="rgb(25,229,28)"/><circle vector-effect="non-scaling-stroke" cx="648.6658878576263" cy="491.2379223826241" r="14.945369999999912" fill="rgb(25,229,28)"/><path d=" M 667.06 632.644 C 667.06 632.644 652.115 595.856 696.951 568.264 L 667.06 632.644 L 667.06 632.644 L 667.06 632.644 Z " fill="rgb(63,61,86)"/><path d=" M 648.68 631.977 C 648.68 631.977 641.878 592.855 589.233 593.19 L 648.68 631.977 L 648.68 631.977 L 648.68 631.977 Z " fill="rgb(63,61,86)"/><g><g><g><ellipse vector-effect="non-scaling-stroke" cx="110.60888785762631" cy="257.3791823826242" rx="35.65254500000003" ry="35.412839767295395" fill="rgb(58,0,95)"/><g><g><g><g><g><g><g><g><path d=" M 126.372 252.935 C 126.372 243.814 118.979 236.421 109.859 236.421 C 100.739 236.421 93.346 243.814 93.346 252.935 C 93.346 256.888 94.736 260.516 97.053 263.359 L 97.052 263.359 L 109.859 279.775 L 122.605 263.446 L 122.595 263.446 C 124.954 260.59 126.372 256.927 126.372 252.935 Z " fill="rgb(25,229,28)"/><path d=" M 109.859 263.678 C 103.925 263.678 99.115 258.868 99.115 252.935 C 99.115 247.001 103.925 242.191 109.859 242.191 C 115.793 242.191 120.603 247.001 120.603 252.935 C 120.603 258.868 115.793 263.678 109.859 263.678 Z " fill="rgb(255,255,255)"/><path d=" M 107.371 259.648 C 108.453 259.647 109.536 259.235 110.36 258.412 L 115.336 253.435 C 116.134 252.637 116.574 251.576 116.574 250.446 C 116.574 249.317 116.134 248.256 115.336 247.457 C 113.688 245.809 111.006 245.809 109.359 247.457 L 104.382 252.434 C 103.584 253.232 103.144 254.294 103.144 255.423 C 103.144 256.552 103.584 257.613 104.382 258.412 C 105.206 259.235 106.288 259.648 107.371 259.648 Z  M 110.715 248.814 C 111.165 248.365 111.756 248.139 112.347 248.139 C 112.938 248.139 113.529 248.365 113.98 248.814 L 113.98 248.814 C 114.416 249.25 114.656 249.83 114.656 250.446 C 114.656 251.063 114.416 251.642 113.979 252.078 L 112.169 253.888 L 108.905 250.624 L 110.715 248.814 L 110.715 248.814 L 110.715 248.814 Z  M 105.738 253.791 L 107.549 251.981 L 110.813 255.245 L 109.003 257.055 C 108.103 257.955 106.638 257.955 105.738 257.055 C 105.302 256.619 105.062 256.039 105.062 255.423 C 105.062 254.806 105.302 254.227 105.738 253.791 Z " fill="rgb(25,229,28)"/></g></g></g></g></g></g></g></g></g></g></g></g></g></g><g><g><g><ellipse vector-effect="non-scaling-stroke" cx="226.4838878576263" cy="143.7541823826242" rx="35.65254500000003" ry="35.412839767295395" fill="rgb(58,0,95)"/><g><g><g><g><g><g><g><g><path d=" M 242.247 139.31 C 242.247 130.189 234.854 122.796 225.734 122.796 C 216.614 122.796 209.221 130.189 209.221 139.31 C 209.221 143.263 210.611 146.891 212.928 149.734 L 212.927 149.734 L 225.734 166.15 L 238.48 149.821 L 238.47 149.821 C 240.829 146.965 242.247 143.302 242.247 139.31 Z " fill="rgb(25,229,28)"/><path d=" M 225.734 150.053 C 219.8 150.053 214.99 145.243 214.99 139.31 C 214.99 133.376 219.8 128.566 225.734 128.566 C 231.668 128.566 236.478 133.376 236.478 139.31 C 236.478 145.243 231.668 150.053 225.734 150.053 Z " fill="rgb(255,255,255)"/><path d=" M 223.246 146.023 C 224.328 146.022 225.411 145.61 226.235 144.787 L 231.211 139.81 C 232.009 139.012 232.449 137.951 232.449 136.821 C 232.449 135.692 232.009 134.631 231.211 133.832 C 229.563 132.184 226.881 132.184 225.234 133.832 L 220.257 138.809 C 219.459 139.607 219.019 140.669 219.019 141.798 C 219.019 142.927 219.459 143.988 220.257 144.787 C 221.081 145.61 222.163 146.023 223.246 146.023 Z  M 226.59 135.189 C 227.04 134.74 227.631 134.514 228.222 134.514 C 228.813 134.514 229.404 134.74 229.855 135.189 L 229.855 135.189 C 230.291 135.625 230.531 136.205 230.531 136.821 C 230.531 137.438 230.291 138.017 229.854 138.453 L 228.044 140.263 L 224.78 136.999 L 226.59 135.189 L 226.59 135.189 L 226.59 135.189 Z  M 221.613 140.166 L 223.424 138.356 L 226.688 141.62 L 224.878 143.43 C 223.978 144.33 222.513 144.33 221.613 143.43 C 221.177 142.994 220.937 142.414 220.937 141.798 C 220.937 141.181 221.177 140.602 221.613 140.166 Z " fill="rgb(25,229,28)"/></g></g></g></g></g></g></g></g></g></g></g><g><g><g><ellipse vector-effect="non-scaling-stroke" cx="226.4838878576263" cy="364.9128397672954" rx="35.65254500000003" ry="35.412839767295395" fill="rgb(58,0,95)"/><g><g><g><g><g><g><g><g><path d=" M 242.247 360.469 C 242.247 351.348 234.854 343.955 225.734 343.955 C 216.614 343.955 209.221 351.348 209.221 360.469 C 209.221 364.422 210.611 368.05 212.928 370.893 L 212.927 370.893 L 225.734 387.309 L 238.48 370.98 L 238.47 370.98 C 240.829 368.124 242.247 364.461 242.247 360.469 Z " fill="rgb(25,229,28)"/><path d=" M 225.734 371.212 C 219.8 371.212 214.99 366.402 214.99 360.469 C 214.99 354.535 219.8 349.725 225.734 349.725 C 231.668 349.725 236.478 354.535 236.478 360.469 C 236.478 366.402 231.668 371.212 225.734 371.212 Z " fill="rgb(255,255,255)"/><path d=" M 223.246 367.182 C 224.328 367.181 225.411 366.769 226.235 365.946 L 231.211 360.969 C 232.009 360.171 232.449 359.11 232.449 357.98 C 232.449 356.851 232.009 355.79 231.211 354.991 C 229.563 353.343 226.881 353.343 225.234 354.991 L 220.257 359.968 C 219.459 360.766 219.019 361.828 219.019 362.957 C 219.019 364.086 219.459 365.147 220.257 365.946 C 221.081 366.769 222.163 367.182 223.246 367.182 Z  M 226.59 356.348 C 227.04 355.899 227.631 355.673 228.222 355.673 C 228.813 355.673 229.404 355.899 229.855 356.348 L 229.855 356.348 C 230.291 356.784 230.531 357.364 230.531 357.98 C 230.531 358.597 230.291 359.176 229.854 359.612 L 228.044 361.422 L 224.78 358.158 L 226.59 356.348 L 226.59 356.348 L 226.59 356.348 Z  M 221.613 361.325 L 223.424 359.515 L 226.688 362.779 L 224.878 364.589 C 223.978 365.489 222.513 365.489 221.613 364.589 C 221.177 364.153 220.937 363.573 220.937 362.957 C 220.937 362.34 221.177 361.761 221.613 361.325 Z " fill="rgb(25,229,28)"/></g></g></g></g></g></g></g></g></g></g></g></g></g></g></g></g></g></svg>