<?xml version="1.0" encoding="UTF-8" standalone="no"?><!-- Generator: Gravit.io --><svg xmlns="http://www.w3.org/2000/svg" xmlns:xlink="http://www.w3.org/1999/xlink" style="isolation:isolate" viewBox="0 0 884 612" width="884pt" height="612pt"><defs><clipPath id="_clipPath_L6jtk0kqJB6ppOsL9ujCsZeRy4TzuRzS"><rect width="884" height="612"/></clipPath></defs><g clip-path="url(#_clipPath_L6jtk0kqJB6ppOsL9ujCsZeRy4TzuRzS)"><linearGradient id="_lgradient_3" x1="0.5" y1="1" x2="0.5000000000000001" y2="0" gradientTransform="matrix(884,0,0,612,0,0)" gradientUnits="userSpaceOnUse"><stop offset="0%" stop-opacity="0.25" style="stop-color:rgb(128,128,128)"/><stop offset="54%" stop-opacity="0.12" style="stop-color:rgb(128,128,128)"/><stop offset="100%" stop-opacity="0.1" style="stop-color:rgb(128,128,128)"/></linearGradient><rect x="0" y="0" width="884" height="612" transform="matrix(1,0,0,1,0,0)" fill="url(#_lgradient_3)"/><rect x="11" y="9" width="865" height="576" transform="matrix(1,0,0,1,0,0)" fill="rgb(255,255,255)"/><rect x="11" y="9" width="865" height="57" transform="matrix(1,0,0,1,0,0)" fill="rgb(189,189,189)"/><circle vector-effect="non-scaling-stroke" cx="51.91" cy="37.5" r="14" fill="rgb(255,82,82)"/><circle vector-effect="non-scaling-stroke" cx="92" cy="37.5" r="14" fill="rgb(255,255,0)"/><circle vector-effect="non-scaling-stroke" cx="132.09" cy="37.5" r="14" fill="rgb(105,240,174)"/><rect x="92" y="125" width="147" height="17" transform="matrix(1,0,0,1,0,0)" fill="rgb(224,224,224)"/><rect x="92" y="153" width="147" height="17" transform="matrix(1,0,0,1,0,0)" fill="rgb(224,224,224)"/><rect x="92" y="181" width="245" height="17" transform="matrix(1,0,0,1,0,0)" fill="rgb(224,224,224)"/><rect x="92" y="209" width="291" height="17" transform="matrix(1,0,0,1,0,0)" fill="rgb(224,224,224)"/><rect x="104" y="315" width="44" height="206" transform="matrix(1,0,0,1,0,0)" fill="rgb(245,245,245)"/><rect x="177" y="315" width="44" height="206" transform="matrix(1,0,0,1,0,0)" fill="rgb(245,245,245)"/><rect x="250" y="315" width="44" height="206" transform="matrix(1,0,0,1,0,0)" fill="rgb(245,245,245)"/><rect x="323" y="315" width="44" height="206" transform="matrix(1,0,0,1,0,0)" fill="rgb(245,245,245)"/><rect x="104" y="418" width="44" height="103" transform="matrix(1,0,0,1,0,0)" fill="rgb(58,0,95)"/><g style="opacity:0.4;"><g opacity="0.4"><rect x="104" y="375" width="44" height="45" transform="matrix(1,0,0,1,0,0)" fill="rgb(58,0,95)"/></g></g><rect x="177" y="440.36" width="44" height="80.64" transform="matrix(1,0,0,1,0,0)" fill="rgb(105,240,174)"/><g opacity="0.4"><rect x="177" y="388" width="44" height="52.36" transform="matrix(1,0,0,1,0,0)" fill="rgb(105,240,174)"/></g><rect x="250" y="403" width="44" height="118" transform="matrix(1,0,0,1,0,0)" fill="rgb(25,229,28)"/><g opacity="0.4"><rect x="250" y="362" width="44" height="41" transform="matrix(1,0,0,1,0,0)" fill="rgb(25,229,28)"/></g><rect x="323" y="444" width="44" height="77" transform="matrix(1,0,0,1,0,0)" fill="rgb(175,94,225)"/><g opacity="0.4"><rect x="323" y="420" width="44" height="24" transform="matrix(1,0,0,1,0,0)" fill="rgb(175,94,225)"/></g><linearGradient id="_lgradient_4" x1="0" y1="0.5" x2="6.123233995736766e-17" y2="-0.5" gradientTransform="matrix(109.52,0,0,218,632,170)" gradientUnits="userSpaceOnUse"><stop offset="0%" stop-opacity="0.1" style="stop-color:rgb(128,128,128)"/></linearGradient><path d=" M 632.5 170 L 632 170 L 632 388 L 632.52 388 C 692.719 388 741.52 339.199 741.52 279 C 741.52 218.801 692.719 170 632.52 170 L 632.5 170 Z " fill="url(#_lgradient_4)"/><linearGradient id="_lgradient_5" x1="0" y1="0.5" x2="6.123233995736766e-17" y2="-0.5" gradientTransform="matrix(108.503,0,0,144.73,523.497,243.27)" gradientUnits="userSpaceOnUse"><stop offset="0%" stop-opacity="0.1" style="stop-color:rgb(128,128,128)"/></linearGradient><path d=" M 529.5 243.27 C 517.989 276.513 523.223 313.268 543.555 341.977 C 563.887 370.686 596.821 387.823 632 388 L 632 294.26 L 529.5 243.27 Z " fill="url(#_lgradient_5)"/><linearGradient id="_lgradient_6" x1="0" y1="0.5" x2="6.123233995736766e-17" y2="-0.5" gradientTransform="matrix(102.5,0,0,124.27,529.5,170)" gradientUnits="userSpaceOnUse"><stop offset="0%" stop-opacity="0.1" style="stop-color:rgb(128,128,128)"/></linearGradient><path d=" M 632 170 C 585.748 170.203 544.661 199.573 529.5 243.27 L 631.98 294.27 L 632 170 Z " fill="url(#_lgradient_6)"/><path d=" M 632.5 175 L 632 175 L 632 383 L 632.5 383 C 689.938 383 736.5 336.438 736.5 279 C 736.5 221.562 689.938 175 632.5 175 Z " fill="rgb(25,229,28)"/><path d=" M 534.22 244.91 C 523.24 276.625 528.232 311.69 547.627 339.08 C 567.022 366.471 598.438 382.825 632 383 L 632 293.56 L 534.22 244.91 Z " fill="rgb(58,0,95)"/><path d=" M 632 175 C 587.879 175.2 548.686 203.218 534.22 244.9 L 632 293.56 L 632 175 Z " fill="rgb(105,240,174)"/><rect x="524" y="410" width="13" height="14" transform="matrix(1,0,0,1,0,0)" fill="rgb(105,240,174)"/><rect x="632" y="410" width="13" height="14" transform="matrix(1,0,0,1,0,0)" fill="rgb(58,0,95)"/><rect x="740" y="410" width="13" height="14" transform="matrix(1,0,0,1,0,0)" fill="rgb(25,229,28)"/><rect x="541" y="413" width="45" height="8" transform="matrix(1,0,0,1,0,0)" fill="rgb(245,245,245)"/><rect x="650" y="413" width="45" height="8" transform="matrix(1,0,0,1,0,0)" fill="rgb(245,245,245)"/><rect x="759" y="413" width="45" height="8" transform="matrix(1,0,0,1,0,0)" fill="rgb(245,245,245)"/></g></svg>