<svg xmlns="http://www.w3.org/2000/svg" style="isolation:isolate" viewBox="0 0 1135.7 856.85">
  <defs>
    <clipPath id="a">
      <path d="M0 0h1135.7v856.85H0z"/>
    </clipPath>
  </defs>
  <g clip-path="url(#a)">
    <path fill="#19E51C" d="M584.53 172.83c-71.4 11.92-142.91 5.5-211.75-3.38-68.84-8.88-137.52-20.22-209.07-18.02-46 1.43-97.17 10.47-129 38.21-30.62 26.7-35 63.19-34.71 96.18.22 24.83 2.55 50.54 19.36 70.49 11.67 13.86 29.51 23.91 43 36.72 47 44.58 33.67 113.64 3.91 172.13-14 27.43-31.11 54.37-40.5 82.49-9.39 28.12-10.32 58.45 7.38 81.78 17.54 23.08 51.09 36.39 86 43.51 70.89 14.47 149.57 7 225.67-3.38 168.43-23.13 335.03-60.54 501.03-97.84 61.47-13.81 123.21-27.69 182.35-48 32.84-11.26 66.25-25.43 87.28-47.83 26.69-28.45 26.93-67.72.56-91.55-44.19-39.91-143.19-32.45-177.56-77.91-18.94-25-11.23-58.61 3.24-88.17 31-63.4 91.75-125.65 83-189.36-6-43.76-48.38-80.39-104.68-90.52-59-10.62-134.41 7.11-167.78 50.61-34.41 44.78-104.69 73.32-167.73 83.84z" opacity=".1"/>
    <path fill="#19E51C" d="M1044.67 222.95s-14.07-5.72-58.81 14.81c0 0-50.33 17.92-61.92 14.78 0 0-18-3.88-30.46-21 0 0-8.75-47.48-17.23-54.83-8.48-7.35-44.5 4.19-44.5 4.19s-43.19 9.9-51.42-47.82c0 0 5.84-43.5-2.11-56.85 0 0 16 6.92 42.54-4.26s47.69 12 47.69 12 6.68 17.29 6 27.6c-.68 10.31 3.53 14.19 16.17 9.21 0 0 6.2-8.83-2.58-23.43-8.78-14.6-15.06-25.46-12.61-36.79 2.45-11.33 9.5-27 32.17-34.91 22.67-7.91 53.44-9.37 68.22-15.52C990.6 3.98 994.17-.03 994.17-.03s-9.09 9.11 12.32 47.73 7.77 55.38 7.77 55.38-11.4 27.15-61.7 24.95c0 0-48.47 1.77-22.05 22.32 0 0 16.93-3.44 42.23-11.49 25.3-8.05 43.57 25.16 48.1 48.26 4.53 23.1 23.83 35.83 23.83 35.83z"/>
    <path fill="#444053" d="M979.51 29.29l.27-.07c1.94 7.37-19.72 37-38.24 60.52l-.22-.17c26.13-33.21 39.69-54.62 38.19-60.28z"/>
    <path fill="#444053" d="M941.71 89.09l.11.3c-14.79 18.8-33.4 41.25-48.29 57.87-1.42 1.58-2.83 3.25-4.18 4.94l-.43-.34c1.36-1.7 2.78-3.37 4.2-5 14.89-16.58 33.8-38.98 48.59-57.77z"/>
    <path fill="#444053" d="M889.28 151.43l.3.51c-27.1 33.83-28.89 86.36-29 86.81l-5.71-6.6c.1-.48 7.13-46.67 34.41-80.72z"/>
    <mask id="b" width="400%" height="400%" x="-200%" y="-200%">
      <rect width="400%" height="400%" x="-200%" y="-200%" fill="#fff"/>
      <path d="M1013.25 204.6s-32-16.61-56.86-10.65l-81-21.07s-23.8-9.67-28.59-20.69c0 0-16.33-17.27-17.26-26.21-.93-8.94-16.83-31.39-27.2-32.26"/>
    </mask>
    <path fill="none" stroke="#444053" stroke-miterlimit="10" stroke-width="2" d="M1013.25 204.6s-32-16.61-56.86-10.65l-81-21.07s-23.8-9.67-28.59-20.69c0 0-16.33-17.27-17.26-26.21-.93-8.94-16.83-31.39-27.2-32.26" mask="url(#b)" vector-effect="non-scaling-stroke"/>
    <path fill="none" d="M1013.25 204.6s-32-16.61-56.86-10.65l-81-21.07s-23.8-9.67-28.59-20.69c0 0-16.33-17.27-17.26-26.21-.93-8.94-16.83-31.39-27.2-32.26"/>
    <mask id="c" width="400%" height="400%" x="-200%" y="-200%">
      <rect width="400%" height="400%" x="-200%" y="-200%" fill="#fff"/>
      <path d="M1008.62 220.59s-16.09-10.84-14.22-23.48"/>
    </mask>
    <path fill="none" stroke="#444053" stroke-miterlimit="10" stroke-width="2" d="M1008.62 220.59s-16.09-10.84-14.22-23.48" mask="url(#c)" vector-effect="non-scaling-stroke"/>
    <path fill="none" d="M1008.62 220.59s-16.09-10.84-14.22-23.48"/>
    <mask id="d" width="400%" height="400%" x="-200%" y="-200%">
      <rect width="400%" height="400%" x="-200%" y="-200%" fill="#fff"/>
      <path d="M983.93 234.59s-23-8.35-25.32-41.11"/>
    </mask>
    <path fill="none" stroke="#444053" stroke-miterlimit="10" stroke-width="2" d="M983.93 234.59s-23-8.35-25.32-41.11" mask="url(#d)" vector-effect="non-scaling-stroke"/>
    <path fill="none" d="M983.93 234.59s-23-8.35-25.32-41.11"/>
    <mask id="e" width="400%" height="400%" x="-200%" y="-200%">
      <rect width="400%" height="400%" x="-200%" y="-200%" fill="#fff"/>
      <path d="M946.85 243.07s-22-18.24-14.69-50.12"/>
    </mask>
    <path fill="none" stroke="#444053" stroke-miterlimit="10" stroke-width="2" d="M946.85 243.07s-22-18.24-14.69-50.12" mask="url(#e)" vector-effect="non-scaling-stroke"/>
    <path fill="none" d="M946.85 243.07s-22-18.24-14.69-50.12"/>
    <mask id="f" width="400%" height="400%" x="-200%" y="-200%">
      <rect width="400%" height="400%" x="-200%" y="-200%" fill="#fff"/>
      <path d="M902.18 234.16s-14.65-30.73-1.61-50.73"/>
    </mask>
    <path fill="none" stroke="#444053" stroke-miterlimit="10" stroke-width="2" d="M902.18 234.16s-14.65-30.73-1.61-50.73" mask="url(#f)" vector-effect="non-scaling-stroke"/>
    <path fill="none" d="M902.18 234.16s-14.65-30.73-1.61-50.73"/>
    <mask id="g" width="400%" height="400%" x="-200%" y="-200%">
      <rect width="400%" height="400%" x="-200%" y="-200%" fill="#fff"/>
      <path d="M1013.62 184.35s-16.64 5.28-13.07 14"/>
    </mask>
    <path fill="none" stroke="#444053" stroke-miterlimit="10" stroke-width="2" d="M1013.62 184.35s-16.64 5.28-13.07 14" mask="url(#g)" vector-effect="non-scaling-stroke"/>
    <path fill="none" d="M1013.62 184.35s-16.64 5.28-13.07 14"/>
    <mask id="h" width="400%" height="400%" x="-200%" y="-200%">
      <rect width="400%" height="400%" x="-200%" y="-200%" fill="#fff"/>
      <path d="M993.54 154.14s-22.26 7.07-22.79 38.57"/>
    </mask>
    <path fill="none" stroke="#444053" stroke-miterlimit="10" stroke-width="2" d="M993.54 154.14s-22.26 7.07-22.79 38.57" mask="url(#h)" vector-effect="non-scaling-stroke"/>
    <path fill="none" d="M993.54 154.14s-22.26 7.07-22.79 38.57"/>
    <mask id="i" width="400%" height="400%" x="-200%" y="-200%">
      <rect width="400%" height="400%" x="-200%" y="-200%" fill="#fff"/>
      <path d="M962.48 146.87s-20.27 25-18.78 47.76"/>
    </mask>
    <path fill="none" stroke="#444053" stroke-miterlimit="10" stroke-width="2" d="M962.48 146.87s-20.27 25-18.78 47.76" mask="url(#i)" vector-effect="non-scaling-stroke"/>
    <path fill="none" d="M962.48 146.87s-20.27 25-18.78 47.76"/>
    <mask id="j" width="400%" height="400%" x="-200%" y="-200%">
      <rect width="400%" height="400%" x="-200%" y="-200%" fill="#fff"/>
      <path d="M926.99 156.69s-20.14 19.24-17.57 29.94"/>
    </mask>
    <path fill="none" stroke="#444053" stroke-miterlimit="10" stroke-width="2" d="M926.99 156.69s-20.14 19.24-17.57 29.94" mask="url(#j)" vector-effect="non-scaling-stroke"/>
    <path fill="none" d="M926.99 156.69s-20.14 19.24-17.57 29.94"/>
    <mask id="k" width="400%" height="400%" x="-200%" y="-200%">
      <rect width="400%" height="400%" x="-200%" y="-200%" fill="#fff"/>
      <path d="M914.85 149.89s-18.88 3.38-21.52-2.81"/>
    </mask>
    <path fill="none" stroke="#444053" stroke-miterlimit="10" stroke-width="2" d="M914.85 149.89s-18.88 3.38-21.52-2.81" mask="url(#k)" vector-effect="non-scaling-stroke"/>
    <path fill="none" d="M914.85 149.89s-18.88 3.38-21.52-2.81"/>
    <mask id="l" width="400%" height="400%" x="-200%" y="-200%">
      <rect width="400%" height="400%" x="-200%" y="-200%" fill="#fff"/>
      <path d="M890.31 127.1s9.54 12.63 12 9.8"/>
    </mask>
    <path fill="none" stroke="#444053" stroke-miterlimit="10" stroke-width="2" d="M890.31 127.1s9.54 12.63 12 9.8" mask="url(#l)" vector-effect="non-scaling-stroke"/>
    <path fill="none" d="M890.31 127.1s9.54 12.63 12 9.8"/>
    <mask id="m" width="400%" height="400%" x="-200%" y="-200%">
      <rect width="400%" height="400%" x="-200%" y="-200%" fill="#fff"/>
      <path d="M984.85 119.11s-47.58 3.45-58.35-10.89"/>
    </mask>
    <path fill="none" stroke="#444053" stroke-miterlimit="10" stroke-width="2" d="M984.85 119.11s-47.58 3.45-58.35-10.89" mask="url(#m)" vector-effect="non-scaling-stroke"/>
    <path fill="none" d="M984.85 119.11s-47.58 3.45-58.35-10.89"/>
    <mask id="n" width="400%" height="400%" x="-200%" y="-200%">
      <rect width="400%" height="400%" x="-200%" y="-200%" fill="#fff"/>
      <path d="M880.3 63.43s22.33 47.93 38.55 54"/>
    </mask>
    <path fill="none" stroke="#444053" stroke-miterlimit="10" stroke-width="2" d="M880.3 63.43s22.33 47.93 38.55 54" mask="url(#n)" vector-effect="non-scaling-stroke"/>
    <path fill="none" d="M880.3 63.43s22.33 47.93 38.55 54"/>
    <mask id="o" width="400%" height="400%" x="-200%" y="-200%">
      <rect width="400%" height="400%" x="-200%" y="-200%" fill="#fff"/>
      <path d="M903.73 40.62s13.71 44.08 30.7 57.84"/>
    </mask>
    <path fill="none" stroke="#444053" stroke-miterlimit="10" stroke-width="2" d="M903.73 40.62s13.71 44.08 30.7 57.84" mask="url(#o)" vector-effect="non-scaling-stroke"/>
    <path fill="none" d="M903.73 40.62s13.71 44.08 30.7 57.84"/>
    <mask id="p" width="400%" height="400%" x="-200%" y="-200%">
      <rect width="400%" height="400%" x="-200%" y="-200%" fill="#fff"/>
      <path d="M1004.85 82.72s-36.19 15.54-57.92-.18"/>
    </mask>
    <path fill="none" stroke="#444053" stroke-miterlimit="10" stroke-width="1.5" d="M1004.85 82.72s-36.19 15.54-57.92-.18" mask="url(#p)" vector-effect="non-scaling-stroke"/>
    <path fill="none" d="M1004.85 82.72s-36.19 15.54-57.92-.18"/>
    <mask id="q" width="400%" height="400%" x="-200%" y="-200%">
      <rect width="400%" height="400%" x="-200%" y="-200%" fill="#fff"/>
      <path d="M935.96 31.22s8.27 32.41 19.41 40.21"/>
    </mask>
    <path fill="none" stroke="#444053" stroke-miterlimit="10" stroke-width="1.5" d="M935.96 31.22s8.27 32.41 19.41 40.21" mask="url(#q)" vector-effect="non-scaling-stroke"/>
    <path fill="none" d="M935.96 31.22s8.27 32.41 19.41 40.21"/>
    <mask id="r" width="400%" height="400%" x="-200%" y="-200%">
      <rect width="400%" height="400%" x="-200%" y="-200%" fill="#fff"/>
      <path d="M999.43 46.43s-20.34 7.7-27.93 1.8"/>
    </mask>
    <path fill="none" stroke="#444053" stroke-miterlimit="10" stroke-width="1.5" d="M999.43 46.43s-20.34 7.7-27.93 1.8" mask="url(#r)" vector-effect="non-scaling-stroke"/>
    <path fill="none" d="M999.43 46.43s-20.34 7.7-27.93 1.8"/>
    <mask id="s" width="400%" height="400%" x="-200%" y="-200%">
      <rect width="400%" height="400%" x="-200%" y="-200%" fill="#fff"/>
      <path d="M872.9 137.69s-.06 28.25-7.7 30.25"/>
    </mask>
    <path fill="none" stroke="#444053" stroke-miterlimit="10" stroke-width="2" d="M872.9 137.69s-.06 28.25-7.7 30.25" mask="url(#s)" vector-effect="non-scaling-stroke"/>
    <path fill="none" d="M872.9 137.69s-.06 28.25-7.7 30.25"/>
    <mask id="t" width="400%" height="400%" x="-200%" y="-200%">
      <rect width="400%" height="400%" x="-200%" y="-200%" fill="#fff"/>
      <path d="M810.02 174.29s30.54 2.61 44.63-13.15"/>
    </mask>
    <path fill="none" stroke="#444053" stroke-miterlimit="10" stroke-width="2" d="M810.02 174.29s30.54 2.61 44.63-13.15" mask="url(#t)" vector-effect="non-scaling-stroke"/>
    <path fill="none" d="M810.02 174.29s30.54 2.61 44.63-13.15"/>
    <mask id="u" width="400%" height="400%" x="-200%" y="-200%">
      <rect width="400%" height="400%" x="-200%" y="-200%" fill="#fff"/>
      <path d="M865.01 104.31s-7.39 28.66-27.77 36.37"/>
    </mask>
    <path fill="none" stroke="#444053" stroke-miterlimit="10" stroke-width="2" d="M865.01 104.31s-7.39 28.66-27.77 36.37" mask="url(#u)" vector-effect="non-scaling-stroke"/>
    <path fill="none" d="M865.01 104.31s-7.39 28.66-27.77 36.37"/>
    <mask id="v" width="400%" height="400%" x="-200%" y="-200%">
      <rect width="400%" height="400%" x="-200%" y="-200%" fill="#fff"/>
      <path d="M791.7 144.11s21.62 7.51 40.21-11.63"/>
    </mask>
    <path fill="none" stroke="#444053" stroke-miterlimit="10" stroke-width="2" d="M791.7 144.11s21.62 7.51 40.21-11.63" mask="url(#v)" vector-effect="non-scaling-stroke"/>
    <path fill="none" d="M791.7 144.11s21.62 7.51 40.21-11.63"/>
    <mask id="w" width="400%" height="400%" x="-200%" y="-200%">
      <rect width="400%" height="400%" x="-200%" y="-200%" fill="#fff"/>
      <path d="M840.97 79.68s-2 24.34-15.27 35.72"/>
    </mask>
    <path fill="none" stroke="#444053" stroke-miterlimit="10" stroke-width="2" d="M840.97 79.68s-2 24.34-15.27 35.72" mask="url(#w)" vector-effect="non-scaling-stroke"/>
    <path fill="none" d="M840.97 79.68s-2 24.34-15.27 35.72"/>
    <mask id="x" width="400%" height="400%" x="-200%" y="-200%">
      <rect width="400%" height="400%" x="-200%" y="-200%" fill="#fff"/>
      <path d="M792.52 107.03s17.94.12 22.15-5.73"/>
    </mask>
    <path fill="none" stroke="#444053" stroke-miterlimit="10" stroke-width="2" d="M792.52 107.03s17.94.12 22.15-5.73" mask="url(#x)" vector-effect="non-scaling-stroke"/>
    <path fill="none" d="M792.52 107.03s17.94.12 22.15-5.73"/>
    <ellipse cx="675.84" cy="808.62" fill="#19E51C" opacity=".1" rx="353.51" ry="16.83" vector-effect="non-scaling-stroke"/>
    <path fill="#19E51C" d="M184.61 820.71s-36.11-2.18-31.85 23.12c0 0-.84 4.47 3.21 6.5 0 0 .06-1.87 3.7-1.24 1.294.221 2.61.285 3.92.19 1.775-.125 3.461-.828 4.8-2 0 0 10.15-4.19 14.09-20.78 0 0 2.92-3.61 2.81-4.54l-6.1 2.6s2.09 4.39.45 8.05c0 0-.2-7.89-1.37-7.71-.24 0-3.17 1.53-3.17 1.53s3.59 7.65.88 13.22c0 0 1-9.44-2-12.67l-4.29 2.5s4.16 7.95 1.36 14.38c0 0 .72-9.89-2.25-13.75l-3.89 3s3.93 7.79 1.54 13.14c0 0-.32-11.52-2.38-12.39 0 0-3.4 3-3.92 4.23 0 0 2.69 5.66 1 8.64 0 0-1-7.67-1.86-7.71 0 0-3.39 5.09-3.74 8.57.164-3.224 1.171-6.348 2.92-9.06-1.956.369-3.761 1.305-5.19 2.69 0 0 .53-3.6 6-3.91 0 0 2.8-3.86 3.55-4.09 0 0-5.47-.46-8.78 1 0 0 2.92-3.39 9.78-1.85l3.84-3.13s-7.2-1-10.25.1c0 0 3.51-3 11.28-.81l4.18-2.5s-6.13-1.32-9.79-.85c0 0 3.86-2.08 11 .18l3-1.34s-4.49-.89-5.81-1l-1.39-.51c2.849-.475 5.775-.15 8.45.94 0 0 6.37-2.34 6.27-2.74z"/>
    <ellipse cx="159.74" cy="852.53" fill="#19E51C" opacity=".1" rx="25.55" ry="4.32" vector-effect="non-scaling-stroke"/>
    <path fill="#19E51C" d="M121.35 822.06s-20.35-1.23-17.95 13c-.256 1.486.475 2.968 1.81 3.67 0 0 0-1.06 2.09-.7.73.123 1.472.16 2.21.11.998-.069 1.946-.462 2.7-1.12 0 0 5.72-2.36 7.95-11.71 0 0 1.64-2 1.58-2.57l-3.44 1.47c.662 1.425.752 3.051.25 4.54 0 0-.11-4.45-.77-4.34-.13 0-1.78.85-1.78.85s2 4.32.49 7.46c0 0 .58-5.32-1.12-7.14l-2.42 1.41s2.36 4.46.76 8.09c0 0 .41-5.58-1.27-7.75l-2.19 1.71s2.22 4.39.87 7.41c0 0-.18-6.49-1.34-7-.833.702-1.575 1.505-2.21 2.39 0 0 1.51 3.19.57 4.87 0 0-.57-4.33-1-4.34 0 0-1.91 2.86-2.11 4.83.097-1.818.666-3.579 1.65-5.11-1.102.21-2.12.734-2.93 1.51 0 0 .3-2 3.4-2.2.578-.842 1.249-1.617 2-2.31-1.671-.138-3.354.056-4.95.57 0 0 1.64-1.91 5.52-1l2.16-1.76s-4.06-.56-5.78 0c0 0 2-1.69 6.36-.46l2.36-1.4c-1.811-.4-3.667-.562-5.52-.48 0 0 2.17-1.17 6.21.1l1.68-.76s-2.53-.5-3.28-.57l-.78-.29c1.605-.264 3.252-.081 4.76.53 0 0 3.53-1.29 3.46-1.51z"/>
    <ellipse cx="107.34" cy="840" fill="#19E51C" opacity=".1" rx="14.41" ry="2.44" vector-effect="non-scaling-stroke"/>
    <path fill="#19E51C" d="M160.1 791.82s-24.57-1.48-21.68 15.74c-.303 1.792.581 3.576 2.19 4.42 0 0 0-1.27 2.52-.84.882.149 1.778.192 2.67.13 1.204-.084 2.349-.558 3.26-1.35 0 0 6.91-2.85 9.6-14.14 0 0 2-2.46 1.9-3.1l-4.14 1.75s1.41 3 .3 5.48c0 0-.13-5.37-.93-5.24-.16 0-2.16 1-2.16 1s2.44 5.21.6 9c0 0 .7-6.42-1.36-8.62l-2.92 1.71s2.85 5.38.92 9.77c0 0 .5-6.73-1.53-9.36l-2.64 2.07s2.67 5.3 1 8.94c0 0-.21-7.84-1.62-8.43-1.002.849-1.899 1.816-2.67 2.88 0 0 1.84 3.85.7 5.88 0 0-.7-5.22-1.27-5.25 0 0-2.3 3.46-2.54 5.84.119-2.196.808-4.322 2-6.17-1.331.251-2.558.887-3.53 1.83 0 0 .36-2.45 4.1-2.66 0 0 1.91-2.63 2.42-2.79 0 0-3.72-.31-6 .69 0 0 2-2.31 6.66-1.26l2.61-2.13s-4.9-.67-7 .07c0 0 2.39-2 7.67-.55l2.92-1.7c-2.19-.475-4.431-.667-6.67-.57 0 0 2.63-1.42 7.5.12l2-.91s-3.06-.61-3.95-.7l-1-.34c1.939-.324 3.93-.102 5.75.64 0 0 4.4-1.58 4.32-1.85z"/>
    <ellipse cx="143.18" cy="813.48" fill="#19E51C" opacity=".1" rx="17.39" ry="2.94" vector-effect="non-scaling-stroke"/>
    <path fill="#D2D4DE" d="M668.59 784.06v7.82H437.33v-6.36c28.841-10.685 48.399-37.701 49.544-68.436 1.145-30.736-16.348-59.132-44.314-71.934h224.46c-20.892 9.596-36.328 28.12-42 50.4-7.691 30.32 3.981 62.255 29.41 80.47 4.419 3.179 9.166 5.874 14.16 8.04z"/>
    <path d="M667.02 645.15c-20.892 9.596-36.328 28.12-42 50.4H484.58c-5.672-22.28-21.108-40.804-42-50.4h224.44z" opacity=".1"/>
    <path fill="#D2D4DE" d="M172.53 605.32v43.89c0 24.25 17.74 43.9 39.63 43.9h680.38c21.89 0 39.63-19.65 39.63-43.9v-43.89H172.53z"/>
    <path d="M668.59 784.06v7.82H437.33v-6.36c6.344-2.355 12.344-5.551 17.84-9.5h199.24c4.425 3.18 9.179 5.875 14.18 8.04z" opacity=".1"/>
    <path fill="#d2d4de" d="M370.41 778.46H735.5c5.243 0 9.5 4.257 9.5 9.5v4.17c0 5.243-4.257 9.5-9.5 9.5H370.41c-5.243 0-9.5-4.257-9.5-9.5v-4.17c0-5.243 4.257-9.5 9.5-9.5z"/>
    <path fill="#30374E" d="M932.17 124.29c0-21.887-17.743-39.63-39.63-39.63H212.16c-21.887 0-39.63 17.743-39.63 39.63v489.56h759.64V124.29z"/>
    <path fill="#DFE3EF" d="M911.45 141.97v420.67c0 10.775-8.735 19.51-19.51 19.51H212.77c-5.175.003-10.139-2.052-13.799-5.711-3.659-3.66-5.714-8.624-5.711-13.799V141.97c-.008-5.18 2.044-10.15 5.704-13.815 3.659-3.665 8.626-5.725 13.806-5.725h679.17c5.179.003 10.144 2.063 13.803 5.728 3.659 3.665 5.712 8.633 5.707 13.812z"/>
    <circle cx="552.35" cy="103.56" r="9.15" fill="#FFF" vector-effect="non-scaling-stroke"/>
    <circle cx="552.35" cy="651.04" r="22.56" fill="#FFF" vector-effect="non-scaling-stroke"/>
    <path fill="#FFF" d="M911.44 141.97H193.26c-.011-5.18 2.041-10.152 5.701-13.818 3.66-3.666 8.629-5.725 13.809-5.722h679.16c5.18-.003 10.149 2.056 13.809 5.722 3.66 3.666 5.712 8.638 5.701 13.818z"/>
    <circle cx="212.77" cy="132.21" r="4.88" fill="#DFE3EF" vector-effect="non-scaling-stroke"/>
    <circle cx="227.4" cy="132.21" r="4.88" fill="#DFE3EF" vector-effect="non-scaling-stroke"/>
    <circle cx="242.03" cy="132.21" r="4.88" fill="#DFE3EF" vector-effect="non-scaling-stroke"/>
    <path fill="#FFF" d="M260.88 196H840.5v338.72H260.88z"/>
    <linearGradient id="y" x1=".50098756" x2=".50098756" y1="1.00000855" y2="-.00072869" gradientTransform="matrix(106.909 0 0 217.6 896.39 584.779)" gradientUnits="userSpaceOnUse">
      <stop offset="0%" stop-color="gray" stop-opacity=".25"/>
      <stop offset="54%" stop-color="gray" stop-opacity=".12"/>
      <stop offset="100%" stop-color="gray" stop-opacity=".1"/>
    </linearGradient>
    <path fill="url(#y)" d="M1002.27 653.26c.21-.57-1.38-3.77-1.38-3.93 0-.16-1.63-1.94-1.63-2.93 0-.99-2.17-3.15-2.17-3.15s-2.9-1.2-3.21-3.82c-.31-2.62-3.48-2.67-3.49-2.67v-.6c.063-1.038-.066-2.079-.38-3.07-.378-.722-1.024-1.268-1.8-1.52-.14-.951-.481-1.861-1-2.67-.721-.751-1.001-1.822-.74-2.83.32-1-.42-3.51-2-3.88-1.58-.37-3.27-.94-3.27-.94l-.42.07-.21-.07c-.367.067-.738.113-1.11.14-.326.008-.644-.098-.9-.3-.53-.57-4.8-1.67-5.59-1.67-1.057-.208-2.084-.544-3.06-1l-2.27-1.73c-.769-.834-1.44-1.753-2-2.74-.19-.449-.35-.91-.48-1.38.785-.806 1.458-1.714 2-2.7l.15-.31c.113.015.227.015.34 0l.14-.06c.541-.275.945-.759 1.12-1.34.042-.11.076-.224.1-.34v-.12c.005-.08.005-.16 0-.24.005-.043.005-.087 0-.13.005-.08.005-.16 0-.24v-.43c.05-.37.09-.74.17-1.11.457-1.371 1.053-2.691 1.78-3.94q.14-.28.24-.57c.08-.21.15-.43.21-.64.005-.067.005-.133 0-.2 0-.15.08-.31.11-.47.03-.16 0-.14 0-.21 0-.22.06-.44.08-.66.112-1.252-.073-2.513-.54-3.68-.39-1-1-1.87-1.38-2.85-.61-1.49-.77-3.18-1.51-4.6-1.241-2.379-4.019-3.512-6.57-2.68-1.15.43-2.14 1.26-3.31 1.63-1.56.5-3.22.12-4.84-.1-1.62-.22-3.4-.24-4.69.81-1.5 1.21-1.91 3.49-3.31 4.83-.59.56-1.32.91-1.94 1.43-.447.346-.792.805-1 1.33v.11c-.003.047-.003.093 0 .14-.005.053-.005.107 0 .16v.11c-.005.093-.005.187 0 .28.012.088.029.174.05.26v.07c.017.075.041.149.07.22l.09.24.06.12c-.006.033-.006.067 0 .1.204.389.368.798.49 1.22.08.261.08.539 0 .8-.14.295-.341.558-.59.77-1.046 1.094-1.856 2.391-2.38 3.81-.06.16-.11.33-.17.49h.07c.15.048.304.081.46.1h.27c.359.019.718-.008 1.07-.08l.27-.06c.368-.101.726-.235 1.07-.4v.51c.005 4.726 2.686 9.041 6.92 11.14v.34c.005.093.005.187 0 .28l-.14-.13s-1-.47-1.85.89c-.661.894-1.558 1.586-2.59 2 0 0-9.6 1.52-10 2.78l-4.48.26s-1.58.21-1.74 3.51l-1 3.61s-1.85 3.25-1.69 4.93c.041 1.041-.513 2.015-1.43 2.51l-.21 3c-.529-.059-1.06.096-1.475.43-.415.334-.68.82-.735 1.35-.204 1.088-.656 2.115-1.32 3 0 0-2.9 2.41-3.06 4.45l-1.8 1.1s-4.16-.94-5.11-2.62l-.3-.27c-.537-.56-1.119-1.075-1.74-1.54.12.263.148.559.08.84l-.31-.34-.51-1.04s-6.2-7.12-10.15-7.62c-.856.217-1.534.871-1.78 1.72-.5 1.7-1 4.52.28 5.91l6.25 6.66.16.12 1.36 1.74c-.23.55-.43 1.08-.59 1.57 0 .11-.07.21-.1.31v.1l-.09.29c0 .06 0 .12-.05.17v.1c-.15.53-.24.93-.29 1.16l-.35-.11.34.15c-.004.037-.004.073 0 .11l.32.14c1.85.81 11.07 4.85 11.55 5.47 1.985 1.714 4.791 2.106 7.17 1 1.79-.854 3.172-2.376 3.85-4.24 1.14-1.516 2.182-3.102 3.12-4.75.1-.62 2.48-1.36 2.48-1.36s.21 7-1 9.59-3.48 13.92-3.48 13.92c.149-.02.301-.02.45 0l-.13.66c.185-.034.375-.034.56 0-.17 1.3-1.14 7.3-1.14 7.3-.129 1.253-.411 2.486-.84 3.67-.53.94-.59 5.86-.59 5.86l-.84 3.57s.11.24.32.61c.567 1.211 1.398 2.28 2.43 3.13-.068.56-.213 1.109-.43 1.63-.326.798-.47 1.659-.42 2.52-.407 1.705-.671 3.441-.79 5.19-.054 1.35-.249 2.69-.58 4l-1 9.12s-.63 7.9-.32 10c.157 1.695.086 3.404-.21 5.08 0 0 .63 6.24.48 6.92 0 0-1 3.62-.48 5.24l.21 6.08s.32 5.87.69 7.75c.198 1.43.16 2.882-.11 4.3-.099 1.342-.276 2.678-.53 4-.15 0-1.53 2.78 1.27 5.51s1.06 2.3 1.06 2.3-2.22-1.1-2 1.15c.22 2.25.6 1.59.63 1.53l-.52 1.72.37.05c-.1.12-.2.25-.31.37-.318.399-.673.767-1.06 1.1-.412.402-.658.945-.69 1.52-2.248 2.424-4.78 4.57-7.54 6.39-1.536.791-2.976 1.758-4.29 2.88-.65.71-.54 1.29.81 1.73 3.716 1.157 7.684 1.23 11.44.21 2.142-.711 4.068-1.953 5.6-3.61 1.392-.67 2.947-.927 4.48-.74 2.22.42 6.65-2.46 6.65-2.46l-.08-.74-.24-2.14c-.3-.366-.435-.841-.37-1.31.025-.632-.035-1.264-.18-1.88 0-.21-.08-.42-.12-.61l.41-.08s-.53-2.67.42-3.19l.68-7.39c-.515-.702-1.136-1.319-1.84-1.83-.63-.27-.06-3.52 0-3.93.06-.41 1-8.55 1-8.55-.168-1.218-.131-2.455.11-3.66.42-1.1-.53-5.34-.53-5.34-.178-.402-.072-.872.26-1.16.58-.63.37-6.23.37-6.23s-.05-2.83-.05-3.57c.152-1.489.561-2.941 1.21-4.29.58-.89.22-3.67.22-3.67v-.21V732.5c.247-1.531.581-3.047 1-4.54.69-2.2 1.48-6.08 1.48-6.08l4.91-12.79v-.15c1.317 2.5 2.09 5.25 2.27 8.07.267 1.962.407 3.94.42 5.92.037 2.397.197 4.79.48 7.17 0 0 .68 8.49.68 8.86 0 0 .85 6.91 1.38 7.91 0 0-.53 4-.85 4.35l.1 8s-.79 6.08-.95 7.34c0 0-.79 6.08-.26 8l.32 2.14s1.9 1.94.79 2.1c-.817.178-1.517.7-1.921 1.431-.405.732-.473 1.603-.189 2.389.659 1.915 1.433 3.789 2.32 5.61l.88-.18v.62l.06 3.12c.175 1.215.229 2.444.16 3.67-.15.5-.37 2.85-.47 4.07 0 .45-.06.75-.06.75s0 2.78 5.86 1.94c5.86-.84 6.91-3.14 6.91-3.14v-.29c.09-.53.28-1.66.43-2.28.21-.84-1.68-4.61-1.68-4.61s-.32-2.57-.85-3.15c-.219-.331-.363-.707-.42-1.1 0-.21-.09-.43-.13-.64l.39.07s-.31-1.84.9-2.41c.831-.443 1.159-1.467.74-2.31.042-1.166.199-2.325.47-3.46-.169-.592-.009-1.229.42-1.67.75-.74 1.32-5.87 1.32-5.87l.11-19.81c.196-1.635.179-3.289-.05-4.92-.43-1.42-.85-4.14-.27-4.88.58-.74.06-4.13.06-4.13s0-7.18.79-9c.79-1.82.53-13.05.53-13.05l.21-7.39s1.72-1.62 1.31-10.13c1.84-.11 3.91-.18 4.23.07.58.47 4.32 2.89 6.54 1.37.912-.637 1.79-1.321 2.63-2.05l-.93-15.71c.58.88.94 1.46.94 1.46 0-2.2 6.22-9.33 6.22-9.33s5.8-7.49 7.07-8.38c1.27-.89 3.75-5.6 3.75-5.6.363-.9.784-1.775 1.26-2.62.89-.91-1.01-3.42-.79-4zm-13.62 5.5c-1.58.16-4.9 3.78-5 4.56-.111.522-.351 1.007-.7 1.41 0-.32 0-.64-.07-1-.38-4.63-.78-10.27-.6-10.81.213-1.721.283-3.457.21-5.19l.06-.08c1.06 3.29 4.37 7.16 4.37 7.16s.58 1.68 1.26 1.73c.68.05.47 2.22.47 2.22z"/>
    <path fill="#65617D" d="M904.06 657.57s1.93-10.09 8.12-10.14l4.52 9.3-3 2.08s-6.57.21-9.64-1.24z"/>
    <path d="M916.7 656.73l-3 2.08c-2.65.076-5.3-.145-7.9-.66-.59-.14-1.166-.334-1.72-.58v-.17c.279-1.269.671-2.51 1.17-3.71.19-.45.4-.92.64-1.38.814-1.815 2.188-3.322 3.92-4.3.642-.32 1.343-.504 2.06-.54h.28l.09.2 1.53 3.15 2.93 5.91z" opacity=".1"/>
    <path fill="#65617D" d="M968.07 698.64s6.5-.62 7.07-.15c0 0 4.27 2.86 6.45 1.35 0 0 .73-6.76.73-7l-.21-7.64-3.9-5.25-4.89-9.21-10-1 .26 14.61v7.48l4.49 6.81z"/>
    <path d="M968.07 698.64s6.5-.62 7.07-.15c0 0 4.27 2.86 6.45 1.35 0 0 .73-6.76.73-7l-.21-7.64-3.9-5.25-4.89-9.21-10-1 .26 14.61v7.48l4.49 6.81z" opacity=".1"/>
    <path fill="#A0616A" d="M910.85 647.17s-.51 6.34-4.47 6.44c0 0-1.12-.67-2.62-1.8-3.48-2.6-9-7.59-7.46-12.24 2.18-6.65 12.79 5.62 12.79 5.62l.82.91.94 1.07z"/>
    <path d="M910.85 647.17s-.51 6.34-4.47 6.44c0 0-1.12-.67-2.62-1.8l-.34-.43c.669.349 1.406.547 2.16.58 1.225.065 2.358-.648 2.83-1.78.42-.816.787-1.657 1.1-2.52.185-.505.319-1.028.4-1.56l.94 1.07z" opacity=".1"/>
    <path fill="#E7EFFD" d="M909.16 658.66l-.89-1.15-3-3.85-1.53-2c.672.351 1.413.552 2.17.59 1.222.053 2.348-.662 2.82-1.79.418-.813.785-1.652 1.1-2.51.49-1.41.48-2.13.31-2.37.61.471 1.181.989 1.71 1.55l.29.27.1.21 1.51 3v.13c.17.99.68 7.06-4.59 7.92z"/>
    <path fill="#65617D" d="M940.31 792.5s-4.37 2.86-6.56 2.44c-1.513-.193-3.049.061-4.42.73-1.503 1.644-3.399 2.88-5.51 3.59-3.53 1.19-8.47.72-11.28-.21-1.33-.44-1.44-1-.8-1.72 1.295-1.113 2.715-2.073 4.23-2.86 2.726-1.807 5.224-3.936 7.44-6.34.026-.57.265-1.109.67-1.51.366-.332.701-.697 1-1.09.56-.66 1.08-1.35 1.08-1.35l12.85.41s.22.93.39 1.88c.145.612.205 1.241.18 1.87-.066.465.065.935.36 1.3l.23 2.12.14.74zM967.19 796.08c-.16.63-.34 1.74-.43 2.27v.28s-1 2.29-6.81 3.12c-5.81.83-5.77-1.92-5.77-1.92s0-.3.06-.74c.083-1.341.236-2.676.46-4 .064-1.216.01-2.435-.16-3.64l-.06-3.1v-2.16l9.56-1c.064.715.168 1.426.31 2.13.064.388.207.759.42 1.09.52.57.83 3.12.83 3.12s1.8 3.72 1.59 4.55z"/>
    <path d="M939.06 784.59s.22.93.39 1.88c-1.39.25-7.45 1.3-9 .57-1.745-.647-3.561-1.084-5.41-1.3l.06-.21c.56-.66 1.08-1.35 1.08-1.35l12.88.41zM964.27 787.3c-2.42-.42-7.74.58-9.83 1v-2.16l9.56-1c.05.724.14 1.446.27 2.16z" opacity=".1"/>
    <path fill="#3F3D56" d="M969.68 708.43l-.2 7.33s.26 11.18-.52 13l-.78 8.89s.52 3.38-.06 4.11c0 0-.15 3.43.26 4.83.229 1.621.246 3.265.05 4.89l-.1 19.66s-.57 5.09-1.3 5.82c-.429.437-.586 1.073-.41 1.66-.272 1.128-.429 2.28-.47 3.44.412.832.089 1.842-.73 2.28-1.2.58-.89 2.4-.89 2.4-2.85-.68-11 1.14-11 1.14-.88-1.807-1.645-3.667-2.29-5.57-.285-.778-.22-1.641.179-2.367.399-.727 1.092-1.245 1.901-1.423 1.09-.16-.78-2.08-.78-2.08s.21-.26-.32-2.13c-.53-1.87.11-6.66.26-7.91l.94-7.27s-.42-7.65-.1-8c0 0 1.35-3.33.83-4.31 0 0-1.35-7.49-1.35-7.86l-.68-8.79s-.62-5.87-.47-7.12c-.01-1.963-.147-3.924-.41-5.87-.178-2.794-.942-5.52-2.24-8l-.05.15-4.84 12.69s-.78 3.85-1.45 6c-.421 1.486-.754 2.995-1 4.52v.78s.37 2.75-.2 3.64c-.647 1.339-1.053 2.781-1.2 4.26 0 .73.05 3.54.05 3.54s.21 5.56-.36 6.18c-.327.286-.433.751-.26 1.15 0 0 .93 4.21.52 5.3-.24 1.199-.277 2.429-.11 3.64 0 0-.83 8.06-.93 8.48 0 0-.68 3.64-.05 3.9.694.51 1.304 1.124 1.81 1.82 0 0 .27 6.81-.67 7.33l-.42 3.17s-7.54 1.46-9.25.62c-1.747-.642-3.562-1.078-5.41-1.3l.52-1.71c0 .06-.38.62-.62-1.51s1.92-1.15 1.92-1.15 1.72.42-1-2.28c-2.72-2.7-1.4-5.46-1.25-5.46.252-1.322.425-2.658.52-4 .265-1.408.302-2.85.11-4.27-.37-1.87-.68-7.7-.68-7.7s.26-4.41-.21-6c-.47-1.59.31-4.52.47-5.2.16-.68-.47-6.86-.47-6.86.287-1.65.358-3.331.21-5-.31-2.14.31-10 .31-10l.94-9c.328-1.31.519-2.65.57-4 .123-1.731.383-3.45.78-5.14-.05-.853.09-1.707.41-2.5.424-1.455.669-2.956.73-4.47l5-11.44 2.44-10.09 33-.31s.12.88.32 2.47c0 0 .48 3.94.79 6.84.29 2.64.61 5.75.91 9.2.86 11.02-1.22 12.96-1.22 12.96z"/>
    <path fill="#A0616A" d="M966.62 617.43l-7.7 8.22s-9.88-4-8.84-5.3c.4-.53.34-2.18.11-4-.37-2.88-1.15-6.19-1.15-6.19s17.26-2.81 15.81.1c-.466 1.096-.505 2.327-.11 3.45.417 1.335 1.052 2.592 1.88 3.72z"/>
    <path d="M964.85 610.25c-.53 1.06-.79 1.17-.46 2.31-2.25 2.42-5.12 5.07-8.69 5.07-1.912.006-3.799-.436-5.51-1.29-.37-2.88-1.15-6.19-1.15-6.19s17.26-2.81 15.81.1z" opacity=".1"/>
    <path fill="#A0616A" d="M968.07 604.94c.128 4.505-2.202 8.724-6.084 11.014-3.881 2.29-8.701 2.29-12.582 0-3.882-2.29-6.212-6.509-6.084-11.014v-.17c.231-6.7 5.754-11.999 12.458-11.953 6.704.046 12.153 5.42 12.292 12.123z"/>
    <path d="M969.85 686.59c-1.63 0-7.09.06-13.19.15h-2.15c-7.23.11-14.36-1.3-17.22-1-6.08.57 2.18-5.62 2.18-5.62 4.534 1.101 9.198 1.572 13.86 1.4l1.75-.09c5.53-.31 11.09-.83 14-1.7.19 1.62.47 3.95.77 6.86z" opacity=".1"/>
    <path fill="#E3A79F" d="M969.85 686.27c-1.63 0-7.09.06-13.19.16h-2.15c-7.23.12-14.36-1.29-17.22-1-6.08.57 2.18-5.62 2.18-5.62 4.534 1.101 9.198 1.572 13.86 1.4l1.75-.09c5.53-.31 11.09-.83 14-1.7.19 1.61.47 3.95.77 6.85z"/>
    <path d="M952.37 620.86l-9.52 4.47-7.43 57.1s4.37-2 6.86-.73l10.19.11s5.62-.32 6.45.31l10.61-2.6s1.76-4 .41-4.58l.42-6.76-.83-41.18-1.67-5.3-4.47-2.7-4.54 3.62-2.19.32-4.29-2.08z" opacity=".1"/>
    <path fill="#E7EFFD" d="M952.37 620.23l-9.52 4.47-7.38 57.1s4.37-2 6.86-.73l10.19.1s5.62-.31 6.45.31l10.61-2.6s1.76-4 .41-4.57l.42-6.76-.83-41.18-1.67-5.31-4.47-2.7-4.59 3.64-2.19.31-4.29-2.08z"/>
    <path d="M952.21 622.88s2.76 3.28 2.71 4l-.16 2.28-2.08 4.22s-1.14 5.25-1.14 6.34l-1.82 10.55-2.19 14.56-2.75 19.09 2.8 4.83 3.33-2.81 4.42-34 .94-6.71s1-12.06 1-13.31c-.111-1.516-.304-3.025-.58-4.52 0 0 .68-3.12 3.49-3.85l-.21-.16-1.61-1.3-1.41.57s-3.91-1.23-4.74.22z" opacity=".1"/>
    <path fill="#3F3D56" d="M951.9 622.57s2.76 3.28 2.7 4l-.15 2.29-2.08 4.21s-1.15 5.26-1.15 6.35l-1.82 10.55-2.18 14.56-2.76 19.08 2.81 4.84 3.33-2.81 4.42-34 .94-6.71s1-12.06 1-13.31c-.109-1.519-.299-3.031-.57-4.53 0 0 .68-3.12 3.49-3.84l-.21-.16-1.61-1.3-1.41.57s-3.92-1.24-4.75.21z"/>
    <path d="M950.08 617.11s-.42.32-.52 2.4c-.33 2.29-.852 4.548-1.56 6.75 0 0 5.41-3.74 8.11-3.32l-6.03-5.83z" opacity=".1"/>
    <path fill="#E7EFFD" d="M950.08 616.49s-.42.31-.52 2.39c-.329 2.293-.851 4.554-1.56 6.76 0 0 5.41-3.74 8.11-3.33l-6.03-5.82z"/>
    <path d="M964.85 615.43l-8.53 7.49s7.18 4.26 8.11 5.3l1.87-10.19-1.45-2.6z" opacity=".1"/>
    <path fill="#E7EFFD" d="M965.16 614.83l-8.53 7.48s7.18 4.27 8.11 5.31c.93 1.04 1.88-10.19 1.88-10.19l-1.46-2.6z"/>
    <path d="M950.39 617.11s-.93-.46-1.82.89c-.644.894-1.528 1.587-2.55 2 0 0-9.46 1.51-9.82 2.76l-4.42.26s-1.56.21-1.72 3.48l-1 3.59s-1.82 3.22-1.66 4.89c.044 1.029-.498 1.993-1.4 2.49l6.5 16.9s.2 7-1 9.52l-3.43 13.83s.93-.21.88.41l-1.14 7.44c-.129 1.243-.411 2.466-.84 3.64-.52.94-.57 5.82-.57 5.82l-.83 3.54s2 4.42 5 3.8l8.48-12.43 3.48-12.74 2.7-12.58.78-8.53 1.25-18.88 1.82-12.48s2.04-6.73 1.31-7.62z" opacity=".1"/>
    <path fill="#FDFDFD" d="M950.064 616.527s-1.027-.688-1.989 1.286c-.703 1.309-1.67 2.323-2.788 2.925 0 0-10.34 2.207-10.734 4.02l-4.831.381s-1.705.307-1.88 5.103l-1.093 5.249s-1.989 4.708-1.815 7.135c.043 1.51-.553 2.923-1.541 3.655l7.105 24.711s.23 10.235-1.093 13.905l-3.76 20.236s1.027-.307.973.599l-1.257 10.879c-.136 1.817-.441 3.605-.908 5.322-.568 1.36-.623 8.51-.623 8.51l-.907 5.176s2.186 6.462 5.466 5.541l9.269-18.174 3.804-18.614 2.951-18.408.853-12.472 1.366-27.591 1.989-18.247s2.285-9.841 1.443-11.127z"/>
    <path d="M916.7 656.73l-3 2.08c-2.65.076-5.3-.145-7.9-.66l-1.68-.75-.34-.14.35.11c1.339.476 2.792.525 4.16.14 4.27-1.43 3.8-8.48 3.63-10.07v-.31c.057.095.12.185.19.27l.19.2 1.51 3v.13l2.89 6z" opacity=".1"/>
    <path fill="#FDFDFD" d="M927.15 636.43l-1.46.42-.2 3c-1.092-.111-2.069.679-2.19 1.77-.198 1.086-.642 2.113-1.3 3 0 0-2.86 2.39-3 4.41l-1.77 1.1s-4.11-.94-5-2.6c0 0 1.87 13.41-8.12 10.14 0 0 11.18 4.88 11.7 5.56 1.952 1.701 4.723 2.093 7.07 1 1.766-.856 3.129-2.366 3.8-4.21 0 0 3-4.22 3.12-4.84l2.44-1.35 4.48-10.82-9.57-6.58z"/>
    <path d="M963.65 621.69l1.51-6.86c.273.993.731 1.926 1.35 2.75l2.24 1.72c.955.455 1.963.791 3 1 .78 0 5 1.09 5.51 1.66.51.57 2.6.16 2.6.16s1.72.57 3.23.93c1.51.36 2.23 2.86 1.92 3.85-.256 1 .019 2.061.73 2.81.496.808.816 1.71.94 2.65.765.247 1.399.791 1.76 1.51.335 1.182.46 2.414.37 3.64l-7.74 10.92c.068 1.716-.002 3.435-.21 5.14-.31.94 1.09 16.85 1.09 16.85l1.62 27.35c-.83.713-1.698 1.38-2.6 2-.47.21-.94-9.67-.94-10 0-.33-12-18-12-18-.651-.994-1.191-2.057-1.61-3.17 0-.57-1.51-5.82-1.51-5.82l-2.29-10.14 1.03-30.95z" opacity=".1"/>
    <path fill="#FDFDFD" d="M989.46 649.642v.943l-7.76 17.109c.073 2.698.006 5.401-.2 8.082-.18.865.21 9.655.58 16.889.26 5.22.51 9.608.51 9.608l.68 18.24-.01 15.106c-.828 1.124-.656 1.031-1.56 2.001-.47.33-16.98-.141-16.98-.66s3.392-26.582 2.42-29.54c-.973-2.958.329-6.26-.09-8.009 0-.897-1.51-9.152-1.51-9.152l-2.28-15.945 1-48.747.88-10.787c.56 1.556 1.231 3.007 2 4.324l2.23 2.705c.956.714 1.963 1.242 3 1.572.78 0 5 1.714 5.51 2.611.51.896 2.6.251 2.6.251s1.71.897 3.22 1.463c1.51.566 2.24 4.497 1.93 6.054-.259 1.569.013 3.238.72 4.418.5 1.267.821 2.688.94 4.168.769.384 1.407 1.24 1.77 2.374.327 1.587.462 3.256.4 4.922z"/>
    <path d="M925.9 775.49c.26 0 11.18.42 11 2.19-.18 1.77-11-2.19-11-2.19zM928.35 778.43s7.33 1.19 5.4 2.29c-1.93 1.1-5.4-2.29-5.4-2.29zM955.59 774.35s12.17 1 10.35 2.39c0 0-6.14 1.56-6.34 1.61-1.403-1.265-2.742-2.6-4.01-4zM954.14 779.71s6.76 1.14 7 2.44c.24 1.3-7-2.44-7-2.44zM957.85 748.43s6.19 1.46 6.55 2.45l-6.55-2.45zM934.01 752.88s-3.22.93-.1 2.8c3.12 1.87.1-2.8.1-2.8zM948.31 702.91c.37 0 6-1.87 8-1 1.415.527 2.91.807 4.42.83l-12.42.17zM949.04 708.83l-.05.52-4.84 12.69s-.78 3.85-1.45 6c-.421 1.486-.754 2.995-1 4.52l4.29-26.61 3.05 2.88z" opacity=".1"/>
    <path fill="#3F3D56" d="M956.59 686.43h-2.07l-1.18-5.24 1.75-.09 1.5 5.33z"/>
    <path fill="#A0616A" d="M981.12 680.08l-1.29 1.07-4.32 3.56s-11.7 6.24-14.93.31c-2.84-5.22 10.43-9 13.62-9.76l.68-.17 6.24 4.99z"/>
    <path d="M931.15 628.97s2.29 1 2.81 2.49c.52 1.49-2.81-2.49-2.81-2.49zM924.08 644.57s-3.33 4.05-2 5.61c1.33 1.56 2-5.61 2-5.61zM983.57 631.26s-3.12.31-3.23 3l3.23-3zM954.66 673.89c.31-.31 7.48-10.92 9.15-10l-9.15 10zM968.07 604.94c.002 2.04-.499 4.05-1.46 5.85h-.09c-.79-.17-1.2-1.08-1.8-1.65-.752-.718-1.88-.875-2.8-.39-.932.549-1.468 1.582-1.38 2.66-.4-1.66-.27-3.43-.66-5.1-.39-1.67-1.55-3.36-3.15-3.39-.68 0-1.48.26-2-.26-.3-.31-.36-.8-.59-1.17-1.13-1.85-4.6-.91-6 0-1.518 1.216-3.129 2.309-4.82 3.27.231-6.7 5.754-11.999 12.458-11.953 6.704.046 12.153 5.42 12.292 12.123v.01z" opacity=".1"/>
    <path fill="#3F3D56" d="M954.16 601.15c.23.38.29.87.59 1.18.5.51 1.3.25 2 .26 1.59 0 2.75 1.72 3.14 3.39.39 1.67.26 3.44.66 5.1-.09-1.081.446-2.118 1.38-2.67.923-.48 2.048-.319 2.8.4.6.57 1 1.48 1.8 1.65.8.17 1.54-.59 1.82-1.42.197-.855.347-1.719.45-2.59.35-1.62 1.41-2.95 2-4.49.691-1.879.669-3.946-.06-5.81-.39-1-1-1.85-1.36-2.83-.6-1.48-.76-3.15-1.49-4.56-1.204-2.362-3.952-3.492-6.47-2.66-1.13.42-2.11 1.24-3.26 1.61-1.54.5-3.18.12-4.77-.1-1.59-.22-3.35-.24-4.63.81-1.47 1.2-1.87 3.46-3.26 4.79-.58.55-1.3.91-1.91 1.42-.675.491-1.073 1.276-1.07 2.11.09 1.08 1.14 2.06.75 3.05-.137.289-.331.548-.57.76-1.16 1.216-2.023 2.684-2.52 4.29 2.78.87 5.79-2.2 8-3.65 1.38-.95 4.85-1.88 5.98-.04z"/>
    <path d="M981.12 680.08l-1.29 1.07c-1.14-1.9-5.83-5.7-5.83-5.7l.2-.19.68-.17 6.24 4.99z" opacity=".1"/>
    <path fill="#E7EFFD" d="M982.37 678.16s-.46 1.15-.95 2.16c0 0-1 1.91-1 1.17-.06-1.46-6.09-6.35-6.09-6.35l.82-.8 1-.92 6.22 4.74z"/>
    <path d="M982.58 670.43l.68 11.6c-1.61-2.51-6-9-8.9-8.74l6.92-7.95c.284-.317.547-.651.79-1 .26 3.33.51 6.09.51 6.09z" opacity=".1"/>
    <path d="M982.37 678.16s-.46 1.15-.95 2.16c-1.81-2.49-4.3-5.43-6.29-6l1-.92 6.24 4.76z" opacity=".1"/>
    <path fill="#FDFDFD" d="M985.841 629.38l1.87 1.46s3.12 0 3.43 2.65l3.18 3.8s2.13 2.13 2.13 3.12c0 0 1.61 2.75 1.61 2.91 0 0 1.56 3.32 1.35 3.9 0 0 1.66 3.06 1.09 4-.469.841-.886 1.709-1.25 2.6 0 0-2.44 4.68-3.69 5.56l-4.42 11.612s-6.85 7.138-6.85 9.328c0 0-6.771-5.66-10.291-5.38l5.821-15.7s1.2-1.3 1.25-2.08c0 0 3.33-4.37 4.89-4.52 0 0 .26-2.14-.42-2.19-.68-.05-1.25-1.71-1.25-1.71s-4.57-5.41-4.63-8.84c-.06-3.43 6.18-10.52 6.18-10.52z"/>
    <path d="M990.33 641.03s-4.37 3.23-3.44 4.27c.93 1.04 3.44-4.27 3.44-4.27zM989.04 645.148s8.11-2.6 9 0h-9zM940.31 792.5s-4.37 2.86-6.56 2.44c-1.513-.193-3.049.061-4.42.73-1.503 1.644-3.399 2.88-5.51 3.59-3.53 1.19-8.47.72-11.28-.21-1.33-.44-1.44-1-.8-1.72 3.06.61 9.88 1.82 11.72.94 2.022-1.077 3.967-2.293 5.82-3.64 0 0 4.47-.63 5.1-.63 1.988-.635 3.938-1.383 5.84-2.24l.09.74zM966.76 798.35v.28s-1 2.29-6.81 3.12c-5.81.83-5.77-1.92-5.77-1.92s0-.3.06-.74c1.78.69 5.77 1.46 12.52-.74zM933.31 640.43s0 11.85-1 13c-1 1.15 1-13 1-13zM980.19 644.23l1.5 4.24" opacity=".1"/>
    <g opacity=".1">
      <path d="M943.42 598.78c.38-1-.62-1.93-.75-3-.128.296-.183.618-.16.94.06.79.65 1.52.8 2.25.042-.06.078-.124.11-.19zM960.68 609.98c-.38-1.64-.27-3.38-.64-5s-1.56-3.35-3.15-3.38c-.69 0-1.49.25-2-.26-.3-.31-.36-.8-.59-1.18-1.14-1.84-4.6-.91-6 0-2.13 1.42-5.05 4.38-7.78 3.71-.134.327-.251.661-.35 1 2.78.87 5.79-2.2 8-3.65 1.42-1 4.89-1.88 6 0 .23.38.29.87.59 1.18.5.51 1.3.25 2 .26 1.59 0 2.75 1.72 3.14 3.39.39 1.67.26 3.44.66 5.1-.045-.394-.004-.793.12-1.17zM968.5 608.03c-.29.82-1 1.58-1.83 1.41-.83-.17-1.19-1.08-1.79-1.65-.758-.714-1.886-.871-2.81-.39-.881.53-1.408 1.493-1.38 2.52.214-.636.651-1.172 1.23-1.51.923-.48 2.048-.319 2.8.4.6.57 1 1.48 1.8 1.65.8.17 1.54-.59 1.82-1.42.147-.485.245-.985.29-1.49-.04.16-.08.32-.13.48zM970.94 600.94c-.58 1.55-1.64 2.88-2 4.5-.074.33-.127.664-.16 1 .36-1.62 1.41-2.94 2-4.48.259-.694.421-1.421.48-2.16-.08.387-.186.768-.32 1.14z" opacity=".1"/>
    </g>
    <path fill="#DFE3EF" d="M315.35 228.01h74v76.72h-74zM410.35 228.01h74v76.72h-74z"/>
    <path fill="#19E51C" d="M505.35 228.01h74v76.72h-74zM600.35 228.01h74v76.72h-74zM695.35 228.01h74v76.72h-74z" opacity=".2"/>
    <path fill="#19E51C" d="M703.819772 244.253488l58.978-44.622 46.26216 61.14584-58.978 44.622z" opacity=".1"/>
    <path fill="#FFF" d="M352.35 235.97c-5 0-9.508 3.013-11.42 7.632-1.913 4.62-.853 9.937 2.684 13.471 3.537 3.535 8.855 4.59 13.473 2.673 4.618-1.916 7.627-6.426 7.623-11.426 0-3.277-1.303-6.42-3.621-8.736-2.318-2.317-5.462-3.617-8.739-3.614zm8.5 15.68c-.48-.16-1.4-.21-1.75-.62-.17-.21-.06-1-.06-1 .634.04 1.268-.084 1.84-.36.23-.14.13-.16 0-.36-.65-1.09-.36-2.47-.39-3.66.082-1.026-.367-2.022-1.19-2.64-.575-.294-1.215-.435-1.86-.41-.511-.013-1.019.068-1.5.24-2.52 1-1 4.35-1.9 6.26-.15.33-.36.44 0 .63.544.232 1.128.357 1.72.37v.83c-.07.29-.7.49-.94.56-.341.089-.675.203-1 .34-.094.035-.156.125-.156.225s.062.19.156.225c.234.038.465.095.69.17 1.016.266 1.953.773 2.73 1.48.709.707 1.133 1.65 1.19 2.65.027.273-.1.539-.33.69l-.34.21c-.05.034-.115.037-.168.007-.053-.029-.085-.086-.082-.147.035-1.745-1.066-3.312-2.72-3.87-.81-.28-1.67-.3-2.47-.58-.25-.08-.73-.19-.83-.46-.08-.286-.117-.583-.11-.88v-.68c0-.22.38-.46.46-.6.266-.584.406-1.218.41-1.86.52.14.58-.81.67-1.11.09-.3.3-1.24-.15-1.4.137-.272.222-.567.25-.87.152-.775.128-1.575-.07-2.34-.526-1.489-1.941-2.478-3.52-2.46-1.609-.135-3.125.77-3.77 2.25-.246.758-.305 1.564-.17 2.35.023.371.118.735.28 1.07-.38.17-.27 1-.2 1.27s.18 1.39.72 1.24c.037.486.114.967.23 1.44.095.312.263.596.49.83.1.12.16.13.15.28.019.476-.018.953-.11 1.42-.12.45-1.11.64-1.51.72-.85.107-1.679.339-2.46.69-1.951-3.291-1.998-7.374-.123-10.709s5.387-5.417 9.213-5.461c2.834-.021 5.562 1.079 7.59 3.06 2.057 2.005 3.215 4.757 3.21 7.63.001 1.454-.292 2.892-.86 4.23-.344-.426-.807-.739-1.33-.9l.07.01z"/>
    <path fill="#19E51C" d="M353.48 292.65v-13.67l6.3 6.3 1.57-1.63-9-9-9 9 1.58 1.57 6.3-6.24v13.67h2.25zM448.48 292.65v-13.67l6.3 6.3 1.57-1.63-9-9-9 9 1.57 1.57 6.31-6.24v13.67h2.25z" opacity=".5"/>
    <path fill="#DFE3EF" d="M315.35 380.14h169v126h-169z"/>
    <path fill="#19E51C" d="M419.24 418.84c-18.136-6.262-38.18-3.37-53.806 7.762-15.626 11.132-24.907 29.132-24.914 48.318 0 2.325-1.885 4.21-4.21 4.21s-4.21-1.885-4.21-4.21c.009-21.856 10.557-42.367 28.33-55.088 17.772-12.721 40.588-16.091 61.28-9.052"/>
    <path fill="#FFF" d="M421.71 410.78c27.424 9.387 45.859 35.154 45.89 64.14 0 2.325-1.885 4.21-4.21 4.21s-4.21-1.885-4.21-4.21c-.03-25.286-16.054-47.785-39.94-56.08"/>
    <path fill="#19E51C" d="M406.09 444.96h-.07c-2.496.009-4.819 1.281-6.17 3.38-1.351-2.099-3.674-3.371-6.17-3.38h-.07c-4.03.033-7.28 3.31-7.28 7.34.16 3.121 1.242 6.124 3.11 8.63 3.91 5.35 10.41 10 10.41 10s6.5-4.68 10.41-10c1.868-2.506 2.95-5.509 3.11-8.63 0-4.03-3.25-7.307-7.28-7.34z"/>
    <path fill="#DFE3EF" d="M530.96 327.47h256.39v190.67H530.96z"/>
    <path fill="#FFF" d="M557.35 470.95h10.5v35.19h-10.5zM577.35 427.39h10.5v78.75h-10.5z"/>
    <path fill="#DFE3EF" d="M597.35 388.14h10.5v118h-10.5z"/>
    <path fill="#FFF" d="M617.35 360.14h10.5v146h-10.5z"/>
    <path fill="#19E51C" d="M597.35 360.14h10.5v146h-10.5zM637.35 425.89h10.5v80.25h-10.5z"/>
    <path fill="#FFF" d="M657.35 405.14h10.5v101h-10.5zM677.35 373.64h10.5v132.5h-10.5z"/>
    <path fill="#19E51C" d="M697.35 447.14h10.5v59h-10.5zM717.35 419.89h10.5v86.25h-10.5zM737.35 388.14h10.5v118h-10.5zM757.35 388.14h10.5v118h-10.5z" opacity=".2"/>
    <path fill="#65617D" d="M816.01 309.05l10.28-5.78 4.82 2.89 96.34 463.72-5.77 1.1-12.04-10.45-93.63-451.48z"/>
    <path d="M826.29 303.27l95.39 467.71 5.77-1.1-96.34-463.72-4.82-2.89z" opacity=".1"/>
    <path fill="#65617D" d="M755.38 328.62l73.32 7.02v5.67l-72.93-6.35-.39-6.34zM763.15 397.7h77.75v8.3h-78.75l1-8.3zM770.28 470.13l78.49-3.12 9.82 3.12v5.32l-69.74 3.67h-17.93l-.64-8.99z"/>
    <path d="M789.85 474.45l68.74-4.32v5.32l-69.74 3.67 1-4.67z" opacity=".1"/>
    <path d="M770.28 470.13l19.57 4.32-1 4.67h-17.93l-.64-8.99z" opacity=".1"/>
    <path fill="#65617D" d="M777.39 548.74l86.66-8.04 9.55 2.49v5.55l-77.41 8.13-18.8 1.67v-9.8z"/>
    <path d="M795.86 552.2l69.13-6.95 8.61-2.06v5.55l-77.41 8.13-.33-4.67z" opacity=".1"/>
    <path d="M776.23 553.22l19.63-1.02.33 4.67-18.8 1.67-1.16-5.32z" opacity=".1"/>
    <path fill="#65617D" d="M781.51 626.92l97.73-12.98 8.38 3.33v6.34l-84.3 12.68h-19.81l-2-9.37z"/>
    <path d="M803.32 632.28l84.3-15.01v6.34l-84.3 12.68v-4.01zM782.68 632.39l20.64-.11v4.01h-19.81l-.83-3.9z" opacity=".1"/>
    <path fill="#65617D" d="M787.28 707.42l107.2-19.99 9.49 5.58v4.41l-94.06 22.82-19.39 1.47-3.24-14.29z"/>
    <path d="M809.91 715.7l94.06-22.69v4.41l-94.06 22.82v-4.54zM789.39 716.73l20.52-1.03v4.54l-19.39 1.47-1.13-4.98z" opacity=".1"/>
    <path fill="#65617D" d="M762.21 297.49l-8.67 1.93 31.32 498.64 9.15 3.37h7.23l-39.03-503.94z"/>
    <path d="M757.98 298.43l36.03 503h7.23l-39.03-503.94-4.23.94z" opacity=".1"/>
    <path fill="#FFF" d="M712.869414 241.124334l58.978-44.622 46.26216 61.14584-58.978 44.622z"/>
    <path fill="#DFE3EF" d="M712.869414 241.124334l58.978-44.622 46.26216 61.14584-58.978 44.622z"/>
    <path fill="#19E51C" d="M783.32 270.35l-8.24-10.92 8.82 1.22.27-2.25-12.6-1.75-1.72 12.63 2.2.31 1.26-8.78 8.25 10.9 1.76-1.36z" opacity=".5"/>
    <path fill="#FFF" d="M763.85 246.52c-3.763 2.848-8.876 3.13-12.929.713-4.053-2.416-6.237-7.049-5.521-11.713.037-.244.169-.463.368-.61.199-.146.448-.207.692-.17.51.082.858.56.78 1.07-.615 3.919 1.21 7.818 4.613 9.856 3.403 2.038 7.703 1.806 10.867-.586 4.017-3.177 4.883-8.924 1.982-13.144-2.901-4.22-8.577-5.469-12.982-2.856l2.19 2.89c.25.412.148.946-.235 1.237-.384.291-.926.245-1.255-.107l-2.78-3.67c-.309-.412-.229-.996.18-1.31 5.111-3.666 12.212-2.591 16.009 2.424 3.797 5.014 2.906 12.141-2.009 16.066l.03-.09z"/>
    <path fill="#FFF" d="M749.9 235.72l7.1-.17c.652-.063 1.285.243 1.64.793s.373 1.253.047 1.821c-.327.568-.943.906-1.597.876-.19.005-.379-.022-.56-.08l-6.79-2.1c-.148-.046-.271-.149-.342-.286-.071-.137-.085-.297-.038-.444.076-.237.292-.401.54-.41z"/>
    <linearGradient id="z" x1="0" x2=".03838781" y1=".5" y2="1.49926292" gradientTransform="matrix(120.363 0 0 234.907 719.701 243.389)" gradientUnits="userSpaceOnUse">
      <stop offset="100%" stop-color="gray" stop-opacity=".1"/>
      <stop offset="100%" stop-color="gray" stop-opacity=".10015601"/>
      <stop offset="100%" stop-color="gray" stop-opacity=".12054761"/>
    </linearGradient>
    <path fill="url(#z)" d="M840.03 471.75c-.74-2.68-1.22-5-1.22-5-.015-1.792-.486-3.551-1.37-5.11v-.74l-.21-5.44c.34-1.001.765-1.971 1.27-2.9.91-1.75-.31-8-.31-8s-4-8.7-3.3-14.34c.7-5.64-8.42-24.6-8.42-24.6-.023-1.862.168-3.721.57-5.54.073-.382.093-.772.06-1.16.005-.047.005-.093 0-.14-.27-3.69-3.46-10.51-3.46-10.51l-.11-13.22s1.56-7.86-1.88-18.19c-1.21-3.61-2-6.5-2.52-8.74-.06-.25-.11-.5-.16-.73 6.22-1.2 11-2.18 11-2.18s-4.22-15.06-6.78-17.62c-2.56-2.56-4.84-10.85-4.84-10.85s-1.69-10.69.25-13.91c1.94-3.22 2-8.64 2-8.64s4.58-3.6 5.11-5.14c.749-2.199 1.19-4.49 1.31-6.81-.07-1.8-.72-3.4-.56-4.35.16-.95-1.55-4.51-.83-6.25.187-.533.272-1.096.25-1.66v-.05c-.05-1.495-.245-2.982-.58-4.44-1.406-1.099-3.028-1.889-4.76-2.32l-.12-.4-.31-1.06c-.151-.093-.308-.176-.47-.25v-.39l-.1-1.54.61-3.5c1.21-6.09-6.87-6.68-6.87-6.68-.54-.923-1.407-1.608-2.43-1.92-1.64-.51.08 9.08.86 9.67 1.252 1.523 2.379 3.145 3.37 4.85l.14.24c-.127.124-.244.258-.35.4l.39 2.08.06.32c-.512.681-.916 1.437-1.2 2.24.869.904 1.34 2.117 1.31 3.37-.062 1.415.156 2.829.64 4.16-.09-.09-1.17-1.18-2.19-.86-1.02.32-3.88 1.29-3.88 1.29s-2.15.46-1.93.93c.22.47-1.37 2.62-1.37 2.62l-6-5.27c-.06-.17-.13-.33-.19-.5-.267-.774-.464-1.571-.59-2.38.625-.18 1.236-.404 1.83-.67.604-.231 1.142-.605 1.57-1.09.455-.774.738-1.637.83-2.53.55-1.675 1.219-3.309 2-4.89 1.091-2.753 1.379-5.76.83-8.67-.133-.897-.475-1.75-1-2.49-1-1.26-2.74-1.73-4-2.72-1.26-.99-2.15-2.55-3.64-3.27-1.411-.55-2.963-.624-4.42-.21-2.911.606-5.682 1.753-8.17 3.38-.757.643-1.717.998-2.71 1-.803-.222-1.508-.708-2-1.38v-.08l-.06-.08c-.568 1.387-.82 2.883-.74 4.38q0 .34.06.69c-.005.08-.005.16 0 .24.005.07.005.14 0 .21.009.103.009.207 0 .31-.114.301-.291.574-.52.8-.164.208-.311.429-.44.66.019-.081.042-.161.07-.24-.352.556-.54 1.201-.54 1.86-.005.476.17.937.49 1.29.309.272.644.513 1 .72-.094.642-.127 1.292-.1 1.94.167 3.929 2.379 7.484 5.83 9.37.08.16.15.32.22.49.916 1.964 1.361 4.114 1.3 6.28 0 .16 0 .31-.06.47l-.2.25s-9.57.46-11.91-1.5l-5.5 5.21s-3.41.8-4.12.16l-4.72.09c-1.695-1.415-3.866-2.131-6.07-2-1.381-.966-2.893-1.73-4.49-2.27h-.12c-.701-.222-1.441-.287-2.17-.19 0 0-4.86-3.71-6.32-5.75 0 0-8.29-9.54-8.33-9.57v-.37l-.12-1.13c-.194.04-.392.064-.59.07l-.14-.38c-.418-1.087-.926-2.138-1.52-3.14 0 0 0-1.43.35-1.8l-.39-5.58s-4.62-9.76-8.14-2.2c0 0-7 5.07-.76 10.42 0 0 2.45 1.07 2.83 2 .25.6 1.13 2.24 1.72 3.33l.27.49-.07.06.13.93v.36c-1.11.69-1.85 1.36-1.65 1.84.369.807.634 1.657.79 2.53 0 0 8.75 10.13 10 14.56 0 0 22.89 12.44 30.29 13.11l-1 6.69s-.24 4-.09 5.43l-.58 7.92s-.91 9.55-1.94 10.92l-.61 7.07c-.153 2.738-.541 5.458-1.16 8.13-.533 2.67-.533 5.42 0 8.09 0 0-3.4 8.69 5.31 2.55 0 0 4.38-.44 9.42-.81V354.48c.12 4.9.35 11.65.77 16.75.74 9 4.18 26.77 4.18 26.77l.34 9c-.139.853-.193 1.717-.16 2.58.058 3.165 1.016 6.248 2.76 8.89l.92 6s1.77 3.88 1.89 6.23c0 .194-.017.388-.05.58-.038.305-.038.615 0 .92 0 2.72 1.9 9.16 1.9 9.16s.35 6.55 1.35 6.89c1 .34-1 3.82-1.53 4.83v-.18l-.11.2c-.181.538-.266 1.103-.25 1.67-.072.917.386 1.795 1.18 2.26 1.91 1.07 2.95 2 1.38 2.42-.577.114-1.148.257-1.71.43 0-.07-.07-.15-.09-.21-.468.181-.729.682-.61 1.17.049.775.279 1.529.67 2.2.763 1.685 1.72 3.276 2.85 4.74l.75-.11c-.102.292-.24.571-.41.83-.271.414-.638.757-1.07 1-.401.259-.85.435-1.32.52-1.078.071-2.073.603-2.73 1.46-.93 1.3-1.48 3.05.51 4.49l7.12 2.15s12.07.98 11.37-1.69c-.7-2.67-1.23-5-1.23-5-.017-1.658-.414-3.29-1.16-4.77-.138-.24-.292-.47-.46-.69l.43-.06s.65-6 1.78-7.21c.27-.27.32-.48.25-.63.11-.33-.21-.51-.61-.6 0 .08-.05.15-.07.24-.389-.069-.785-.099-1.18-.09 0 0-.51-3.12.72-4.31.198-.27.274-.611.21-.94-.006-.429-.066-.856-.18-1.27-.003.023-.003.047 0 .07-.829-2.5-1.87-4.926-3.11-7.25 0 0-.2-2.85.54-4l-.7-15.48s0-6.95-1-10.15l.81-7.07v-.2s-.06-.43-.16-1.09v.07c-.27-1.83-.77-5.14-1.11-6.67-.47-2.17-.38-12.64-.38-12.64l1.59-4.53 3.44 7.57 3.73 10.13c.998 1.238 1.641 2.725 1.86 4.3v.32c-.015.23-.015.46 0 .69-.005 1.299.401 2.566 1.16 3.62 0 0 1.07 4.81 2.49 6 .918.964 1.455 2.229 1.51 3.56 0 0 1.94 7 2.77 8.17.71 1 .85 3.88.88 4.75v.26s.32 2.5.4 4.62v.69c-.019.536-.092 1.069-.22 1.59-.005.033-.005.067 0 .1v-.36c-.292 1.447-.403 2.925-.33 4.4.05 2.53.55 5.51 2.15 7.21 2.77 2.94 4.42 2.49 4.42 2.49s-1.13 3.85-2.67 4.67c-.06.031-.114.071-.16.12-.004-.073-.004-.147 0-.22-.334.397-.483.917-.41 1.43.146 2.028.899 3.965 2.16 5.56.387.349.854.597 1.36.72l-.24.16c-.169.106-.347.2-.53.28-.253.119-.523.2-.8.24-1.077.073-2.071.605-2.73 1.46-.92 1.3-1.47 3.05.52 4.49l7.11 2.15s12.08 1.1 11.33-1.58z"/>
    <path fill="#2D293D" d="M794.09 478.01l-6.89-2.16c-1.93-1.44-1.4-3.19-.5-4.49.627-.847 1.59-1.379 2.64-1.46.459-.074.896-.248 1.28-.51.408-.249.751-.592 1-1 .467-.807.699-1.728.67-2.66 0 0 7.38-2.47 9.5-.36.399.375.736.81 1 1.29.729 1.482 1.115 3.109 1.13 4.76 0 0 .48 2.36 1.2 5s-11.03 1.59-11.03 1.59zM827.22 473.43l-6.89-2.16c-1.93-1.45-1.4-3.2-.51-4.49.621-.853 1.587-1.387 2.64-1.46.269-.034.53-.115.77-.24.176-.078.346-.169.51-.27 1.86-1.12 1.72-3.69 1.72-3.69s7.37-2.47 9.5-.36c.285.284.537.599.75.94.861 1.57 1.322 3.329 1.34 5.12 0 0 .47 2.36 1.19 5s-11.02 1.61-11.02 1.61z"/>
    <path d="M801.85 465.35c.399.375.736.81 1 1.29l-11.13 1.73c.467-.807.699-1.728.67-2.66 0 0 7.32-2.47 9.46-.36zM835.71 461.66l.08 2.09c-1.63 2.94-10.06 2.63-12.56 1.29.176-.078.346-.169.51-.27 1.86-1.12 1.72-3.69 1.72-3.69s7.37-2.47 9.5-.36c.285.284.537.599.75.94z" opacity=".1"/>
    <path fill="#575988" d="M836.69 452.59c-.486.931-.894 1.901-1.22 2.9l.29 7.5c-1.78 3.21-11.7 2.55-13.1.89-1.4-1.66-3-6.07-1.5-6.89 1.5-.82 2.58-4.67 2.58-4.67s-1.6.45-4.28-2.5-2.18-9.71-1.77-11.35c.41-1.64-.27-7-.27-7s-.05-3.8-.86-5c-.81-1.2-2.69-8.17-2.69-8.17-.054-1.323-.574-2.584-1.47-3.56-1.38-1.18-2.42-6-2.42-6-.813-1.169-1.204-2.579-1.11-4 .2-2.39-1.8-4.88-1.8-4.88l-3.63-10.14-3.33-7.58-1.54 4.53s-.08 10.47.39 12.64l1.26 7.95s-1.76 3.87-.78 7.07l1 10.14s1.41 14.32.69 15.48l-.51 4s4.22 8.21 3 9.4l-.69 4.31s2.66-.11 1.56 1.08l-1.72 7.2-11.44 1.77c-1.096-1.471-2.022-3.061-2.76-4.74-1.65-3.46.17-3.15 1.68-3.59 1.51-.44.51-1.35-1.34-2.42-1.85-1.07-.9-3.68-.9-3.68s2.58-4.76 1.61-5.1c-.97-.34-1.31-6.9-1.31-6.9s-2.2-7.71-1.8-9.82c.4-2.11-1.8-7.07-1.8-7.07l-.89-6c-2.165-3.314-3.063-7.297-2.53-11.22l-.35-9.22s-3.35-17.76-4.08-26.77c-.46-5.77-.7-13.66-.81-18.59-.06-2.76-.08-4.59-.08-4.59l40.88-5.88c.148 2.05.482 4.081 1 6.07.5 2.24 1.27 5.13 2.44 8.74 3.35 10.34 1.84 18.2 1.84 18.2l.13 13.22s4 8.7 3.31 11.76c-.384 1.821-.569 3.679-.55 5.54 0 0 8.82 19 8.18 24.62l3.21 14.34s1.17 6.23.28 7.98z"/>
    <path d="M811.32 403.99l12.43-2.14" opacity=".05"/>
    <path d="M821.47 389.71s.6 4.4-2 6.17c-.04 0 4.77-.95 2-6.17zM820.17 375.68s-10.12 9-13.94 8.43c-3.82-.57 13.94-8.43 13.94-8.43zM795.99 408.63s-7.86 2.11-8 5.3c-.14 3.19 8-5.3 8-5.3z" opacity=".1"/>
    <path d="M799.26 448.18s-11.13 2.52-7.89 3.82c2.768.975 5.611 1.724 8.5 2.24 0 0 3.62.05-.61-6.06z" opacity=".05"/>
    <g opacity=".05">
      <path d="M789.19 454.35c-.588-.335-.989-.921-1.09-1.59l-.11.21s-.94 2.6.91 3.67l.6.37c.33-.08.69-.14 1-.24 1.54-.44.54-1.34-1.31-2.42zM803.6 453.03c.3-.29.26-1 0-2-.421.859-.604 1.816-.53 2.77.121-.291.302-.553.53-.77zM800.06 405.83c-.372 1.142-.584 2.33-.63 3.53.185-.835.446-1.652.78-2.44 0 0-.06-.42-.15-1.09zM825.53 399.86c.062-.346.085-.698.07-1.05-.12.72-.19 1.38-.24 2 .05-.38.11-.64.17-.95zM801.09 439.62c.186-.69.253-1.407.2-2.12-.317.857-.469 1.766-.45 2.68.061-.196.145-.384.25-.56zM804.13 457.43c-.518 1.931-.879 3.901-1.08 5.89l-11.44 1.77c-1.096-1.471-2.022-3.061-2.76-4.74-.15-.31-.26-.58-.36-.83-.67.34-.92 1.07.07 3.12.732 1.685 1.658 3.28 2.76 4.75l11.43-1.78s.63-6 1.72-7.2c.54-.57.17-.84-.34-.98zM788.29 440.97s.35 6.55 1.32 6.89c.44-1.11.72-2.15.29-2.3-1-.35-1.31-6.9-1.31-6.9s-2.2-7.71-1.81-9.82c.39-2.11-1.79-7.07-1.79-7.07l-.9-6c-2.166-3.317-3.061-7.305-2.52-11.23l-.36-9.21s-3.35-17.76-4.07-26.77c-.47-5.77-.7-13.66-.81-18.59 0-.89 0-1.68-.05-2.34h-.33s0 1.83.08 4.6c.11 4.92.35 12.81.81 18.58.73 9 4.08 26.77 4.08 26.77l.35 9.22c-.541 3.958.376 7.978 2.58 11.31l.89 6s2.19 5 1.8 7.07c-.39 2.07 1.75 9.79 1.75 9.79zM822.95 461.33c-.986-1.318-1.669-2.838-2-4.45-1.14 1.11.37 5.17 1.7 6.74 1.33 1.57 11.31 2.33 13.09-.88l-.07-1.81c-2.46 2.64-11.4 1.97-12.72.4zM836.98 450.04c-.491.929-.9 1.899-1.22 2.9l.05 1.33c.26-.661.554-1.309.88-1.94.269-.759.378-1.566.32-2.37l-.03.08zM823.18 452.07c.334-.747.618-1.515.85-2.3 0 0-1.6.45-4.29-2.5-1.95-2.14-2.21-6.31-2-9-.42 1.63-.92 8.41 1.76 11.35 1.71 1.87 2.99 2.35 3.68 2.45zM817.41 431.19c.241 1.864.378 3.74.41 5.62 0-.37.11-.67.16-.89.42-1.63-.27-7-.27-7s-.06-3.8-.86-5c-.8-1.2-2.7-8.17-2.7-8.17-.053-1.323-.574-2.585-1.47-3.56-1.37-1.18-2.41-6-2.41-6-.821-1.165-1.213-2.578-1.11-4 .19-2.39-1.81-4.88-1.81-4.88l-3.62-10.14-3.34-7.58-1.54 4.45v1.45l1.25-3.68 3.34 7.58 3.62 10.13s2 2.49 1.81 4.88c-.103 1.42.286 2.832 1.1 4 0 0 1 4.81 2.42 6 .896.972 1.417 2.23 1.47 3.55 0 0 1.89 7 2.69 8.18.8 1.18.86 5.06.86 5.06z" opacity=".05"/>
    </g>
    <path fill="#D5ABB0" d="M818.66 256.09l-.58 3.49.1 1.55.08 1.13-3.95.56-.48-.8c-.95-1.708-2.04-3.333-3.26-4.86-.76-.59-2.44-10.18-.85-9.67.973.333 1.788 1.013 2.29 1.91 0 0 7.84.6 6.65 6.69z"/>
    <path d="M818.26 262.26l-3.95.56-.48-.8c1.05-1.3 2.874-1.673 4.35-.89l.08 1.13z" opacity=".1"/>
    <path fill="#DCE6F2" d="M819.33 264.1l-5.18 1.42-.14-.78-.38-2.08c1.141-1.617 3.371-2.014 5-.89l.3 1.06.4 1.27z"/>
    <path fill="#D5ABB0" d="M734.36 259.71l-5.46 3.21-.55-1c-.57-1.09-1.43-2.74-1.67-3.33-.37-.91-2.74-2-2.74-2-6.06-5.36.72-10.42.72-10.42 3.4-7.55 7.89 2.21 7.89 2.21s.77 5.21.38 5.58c-.39.37-.34 1.8-.34 1.8.576 1.004 1.068 2.054 1.47 3.14.2.53.3.81.3.81z"/>
    <path d="M734.36 259.71l-5.46 3.21-.55-1c.76-.69 3.47-3.06 4.39-3 .439.039.881.039 1.32 0 .2.51.3.79.3.79z" opacity=".1"/>
    <path fill="#DCE6F2" d="M734.99 261.43l-6.14 3.28-.17-1.35-.13-.92s3.52-3.26 4.59-3.18c.547.059 1.1.035 1.64-.07l.12 1.13.09 1.11z"/>
    <path fill="#D5ABB0" d="M804.35 279.71s-27.22 4.14-22.18 2.28c3.52-1.29 4.84-3.61 5-6.13.059-2.165-.371-4.315-1.26-6.29-.708-1.699-1.59-3.321-2.63-4.84 0 0 20.46-12.3 16.68-1.69-.585 1.606-.922 3.292-1 5-.061 1.697.187 3.391.73 5 .909 2.61 2.522 4.918 4.66 6.67z"/>
    <path d="M800 263.04c-.585 1.606-.922 3.292-1 5-1.9 1.73-4.07 1.7-6.84 1.81-2.13.08-4.47.69-6.21-.28-.708-1.699-1.59-3.321-2.63-4.84 0 0 20.46-12.3 16.68-1.69z" opacity=".1"/>
    <circle cx="791.39" cy="259.28" r="11.31" fill="#D5ABB0" vector-effect="non-scaling-stroke"/>
    <path d="M804.35 279.71s-27.22 4.14-22.18 2.28c3.52-1.29 4.84-3.61 5-6.13 1.31-1.52 4-2.69 5.74-3.33 1.583-.598 3.312-.692 4.95-.27.643.168 1.26.428 1.83.77.908 2.614 2.52 4.926 4.66 6.68zM819.33 264.1l-5.18 1.42-.14-.78c1.091-1.636 3.097-2.402 5-1.91l.32 1.27zM734.99 261.43l-6.14 3.28-.17-1.35c1.996-1.153 4.075-2.156 6.22-3l.09 1.07zM817.85 348.19c-10.53 2.08-25.51 4.84-27.93 4.2-2-.53-8.34-.22-13.85.18-.06-2.76-.08-4.59-.08-4.59l40.86-5.86c.148 2.05.482 4.081 1 6.07z" opacity=".1"/>
    <path fill="#FDFDFD" d="M828.692 389.71s-24.172 7.17-27.962 6.17c-3.79-1-32.88 1.82-32.88 1.82-8.42 6.13-6.14-47.63-6.14-47.63-.521-2.672-.521-5.418 0-8.09.607-2.68.988-5.406 1.14-8.15 0 0-.41-5.69.58-7.06l1.86-10.92s.7-6.5.56-7.92l.07-5.43 1-6.69c-7.16-.68-29.33-13.15-29.33-13.15-1.22-4.42-9.7-14.56-9.7-14.56-.147-.875-.403-1.728-.76-2.54-.63-1.5 7.8-4.87 7.8-4.87s6.67 7.55 8.08 9.59c1.41 2.04 6.12 5.75 6.12 5.75.706-.098 1.425-.03 2.1.2.037-.004.073-.004.11 0 1.553.544 3.019 1.312 4.35 2.28 2.142-.123 4.248.594 5.87 2 0 0 3.88-.72 4.57-.08l4-.15s3.05-7.16 5.32-5.2l11.53 1.51c1.17-1.69 4.13-3 6-3.67 1.583-.597 3.312-.692 4.95-.27.712.173 1.388.468 2 .87l5.83 5.29s1.54-2.15 1.33-2.62l1.87-.92s2.72-1 3.75-1.29c0 0 2 .77 2.13.86-.478-1.329-.695-2.738-.64-4.15.038-1.25-.418-2.464-1.27-3.38 3-8.3 10.78-1.75 10.78-1.75s1 4.44.33 6.18c-.67 1.74 1 5.29.81 6.24-.19.95.48 2.55.55 4.36-.114 2.313-.538 4.6-1.26 6.8-.51 1.55-4.94 5.14-4.94 5.14s-.07 5.43-2 8.64c-1.93 3.21-.23 13.9-.23 13.9s2.23 8.29 4.7 10.86c2.47 2.57 7.022 62.03 7.022 62.03z"/>
    <path d="M775.05 284.74s-1.17-3.09-2.13-3.34c-.958-.313-1.893-.691-2.8-1.13l.57-1.19s3.6.84 4.21 1.86c.61 1.02.15 3.8.15 3.8zM755.69 278.54c-.16 1-8.58 2.14-8.58 2.14l4.11-4.45h.11c1.558.553 3.027 1.331 4.36 2.31z" opacity=".1"/>
    <circle cx="730.72" cy="266.44" r=".76" fill="#DFE3EF" vector-effect="non-scaling-stroke"/>
    <circle cx="731.75" cy="267.92" r=".76" fill="#DFE3EF" vector-effect="non-scaling-stroke"/>
    <circle cx="732.76" cy="269.29" r=".76" fill="#DFE3EF" vector-effect="non-scaling-stroke"/>
    <circle cx="733.81" cy="270.77" r=".76" fill="#DFE3EF" vector-effect="non-scaling-stroke"/>
    <circle cx="823.36" cy="267.24" r=".62" fill="#DFE3EF" vector-effect="non-scaling-stroke"/>
    <circle cx="823.51" cy="268.64" r=".62" fill="#DFE3EF" vector-effect="non-scaling-stroke"/>
    <circle cx="823.65" cy="270.03" r=".62" fill="#DFE3EF" vector-effect="non-scaling-stroke"/>
    <path d="M776.09 310.49c-.1-.11 22.36 26.11 38.39 9.84 0 0-26.14 4.58-38.39-9.84zM764.32 325.02s12.83-.14 14.32 3.49l.14 3.84c-.723.443-1.625.477-2.38.09-1.32-.65-9.22-4.29-11.88-2.29l-.2-5.13z" opacity=".1"/>
    <path fill="#E8E8E8" d="M764.56 325.01s12.27-.14 13.69 3.33l.14 3.66c-.695.419-1.557.449-2.28.08-1.26-.61-8.82-4.08-11.36-2.18l-.19-4.89z"/>
    <path d="M770.25 296.92c1.425 2.983 3.205 5.783 5.3 8.34 2.28 2.826 5.006 5.261 8.07 7.21 0 0-13.09-13.79-13.37-15.55zM765.48 282.19s2.5 9.15 8.13 12.07l-8.13-12.07zM762.24 283.25c-.06-.17-1.62 7.37 7.54 11.16 0 .02-3.87-1.15-7.54-11.16zM817.96 274.91c-.14 0 4.56 2.75 5.85 4 .04.05-3.15-4.3-5.85-4z" opacity=".1"/>
    <path fill="#2D293D" d="M788.72 269.65c.118.596.453 1.127.94 1.49.34.147.71.215 1.08.2 3.45.08 7.05.09 10.18-1.36.588-.234 1.11-.608 1.52-1.09.445-.777.721-1.639.81-2.53.512-1.675 1.147-3.309 1.9-4.89 1.049-2.76 1.322-5.755.79-8.66-.138-.896-.48-1.747-1-2.49-1-1.27-2.65-1.74-3.9-2.73s-2.09-2.55-3.53-3.28c-1.363-.545-2.87-.619-4.28-.21-2.802.588-5.466 1.705-7.85 3.29-.721.643-1.654.999-2.62 1-.81-.229-1.517-.731-2-1.42-.614 1.573-.837 3.272-.65 4.95.04.248.04.502 0 .75-.108.299-.279.572-.5.8-.81 1-1.28 2.6-.4 3.57.38.42 1 .64 1.33 1.06.66.77.49 1.92.52 2.94-.031.356.069.711.28 1 .387.336.924.443 1.41.28.476-.159.978-.227 1.48-.2.537.16 1.005.494 1.33.95 1.502 1.948 2.579 4.19 3.16 6.58z"/>
    <g opacity=".1">
      <path d="M802.78 268.01c-.407.481-.925.855-1.51 1.09-3.14 1.45-6.73 1.43-10.19 1.35-.368.02-.734-.049-1.07-.2-.495-.356-.832-.89-.94-1.49-.579-2.387-1.649-4.628-3.14-6.58-.323-.456-.792-.787-1.33-.94-.502-.032-1.005.036-1.48.2-.487.155-1.019.049-1.41-.28-.21-.29-.312-.643-.29-1 0-1 .15-2.17-.52-2.94-.37-.43-.94-.64-1.33-1.07-.509-.641-.624-1.509-.3-2.26-.632.9-.632 2.1 0 3 .39.42 1 .63 1.33 1.06.67.77.5 1.92.52 2.94-.022.357.08.71.29 1 .386.338.924.445 1.41.28.476-.159.978-.227 1.48-.2.537.16 1.005.494 1.33.95 1.493 1.947 2.563 4.185 3.14 6.57.111.602.447 1.138.94 1.5.337.147.703.215 1.07.2 3.46.08 7 .09 10.19-1.36.587-.231 1.106-.606 1.51-1.09.206-.281.362-.596.46-.93l-.16.2zM780.15 252.43c.148-.171.258-.372.32-.59.046-.245.046-.495 0-.74-.148-1.381-.022-2.778.37-4.11l-.06-.07c-.617 1.572-.843 3.271-.66 4.95.03.185.04.373.03.56z" opacity=".1"/>
    </g>
    <path d="M786.97 276.58s14.2 1.33 15.38-.85M814.2 269.68s7.85-.3 9.69 2.58" opacity=".1"/>
    <path fill="#FFF" d="M828.5472 619.198504l74 .148-.15344 76.72-74-.148z"/>
    <path fill="#FFF" d="M828.5472 619.198504l74 .148-.15344 76.72-74-.148z"/>
    <path fill="#19E51C" d="M866.79 684.65v-13.66l6.29 6.31 1.58-1.63-9-9-9 9 1.57 1.57 6.31-6.23v13.67l2.25-.03z" opacity=".5"/>
    <path fill="#DFE3EF" d="M853.41 638.37h12.27v-12.26h-.88c-3.028-.003-5.933 1.198-8.075 3.338-2.142 2.14-3.345 5.044-3.345 8.072 0 .27.01.58.03.85z"/>
    <path fill="#DFE3EF" d="M857.65 646.43c3.263 4.07 8.868 5.412 13.62 3.26 4.752-2.151 7.442-7.248 6.537-12.385-.905-5.137-5.176-9.008-10.377-9.405v12.23h-12.26c.168 2.303 1.033 4.5 2.48 6.3z"/>
    <path fill="#19E51C" d="M213.79 103.28c-6.45 13.32-17 28.49-28.93 22.69-11.93-5.8-20.84-30.36-14.39-43.68 6.45-13.32 21.38-19.43 33.38-13.63 12 5.8 16.4 21.29 9.94 34.62z"/>
    <path fill="#19E51C" d="M188.26 134.43s-2.33-.38-1.44-2.31c.079-.171.172-.335.28-.49.358-.547.615-1.153.76-1.79.057-.224.1-.451.13-.68.141-1.032.104-2.081-.11-3.1l6.35-.42s-2.47 2.11-2.18 3.2c.045.161.149.3.29.39.129.083.271.144.42.18.163.037.323.083.48.14 1.67.58 1 1.43 1 1.43-.25 2.7-5.98 3.45-5.98 3.45z"/>
    <path fill="#444053" d="M192.34 129.2l-4.48.61c.057-.224.1-.451.13-.68 1.13 0 2.92-.21 4.06-.32.045.161.149.3.29.39z"/>
    <path fill="#19E51C" d="M188.26 134.43s-2.33-.38-1.44-2.31c.9.218 1.835.256 2.75.11 1.522-.388 2.837-1.348 3.67-2.68 1.67.58 1 1.43 1 1.43-.25 2.7-5.98 3.45-5.98 3.45z"/>
    <path d="M188.26 134.43s-2.33-.38-1.44-2.31c.9.218 1.835.256 2.75.11 1.522-.388 2.837-1.348 3.67-2.68 1.67.58 1 1.43 1 1.43-.25 2.7-5.98 3.45-5.98 3.45z" opacity=".1"/>
    <path fill="#FFF" d="M191.65 70.03s-7.1-.85-9.11 3.87c.851-.137 1.721-.086 2.55.15.52.236 1.089.346 1.66.32 1.069-1.98 2.805-3.518 4.9-4.34z" opacity=".1"/>
    <path fill="#19E51C" d="M177.55 166.67c-1.169 1.291-2.515 2.409-4 3.32-.41.26-.84.52-1.28.76-11.31 6.22-31.3 6.33-40.67-1.93-8.75-7.71-11.77-19.27-8.37-28.72.17-.46.35-.91.55-1.37.907-2.074 2.132-3.993 3.63-5.69 7.11-8.06 19-9.7 29.19-4.84.904.425 1.782.903 2.63 1.43.41.24.82.51 1.22.78 1.049.705 2.051 1.476 3 2.31.52.46 1 .93 1.57 1.41l.13.12c3.213 2.896 6.18 6.053 8.87 9.44.82 1.05 1.6 2.11 2.29 3.19.49.74 1 1.49 1.38 2.24 1.86 3.009 2.876 6.463 2.94 10 0 .32 0 .64-.07 1v.15c-.151 1.278-.523 2.52-1.1 3.67-.516.989-1.158 1.906-1.91 2.73z"/>
    <path d="M177.55 166.67c-1.169 1.291-2.515 2.409-4 3.32-.41.26-.84.52-1.28.76-11.31 6.22-31.3 6.33-40.67-1.93-8.75-7.71-11.77-19.27-8.37-28.72.17-.46.35-.91.55-1.37.907-2.074 2.132-3.993 3.63-5.69 7.11-8.06 19-9.7 29.19-4.84.904.425 1.782.903 2.63 1.43.41.24.82.51 1.22.78 1.049.705 2.051 1.476 3 2.31.52.46 1 .93 1.57 1.41l.13.12c3.213 2.896 6.18 6.053 8.87 9.44.82 1.05 1.6 2.11 2.29 3.19.49.74 1 1.49 1.38 2.24 1.86 3.009 2.876 6.463 2.94 10 0 .32 0 .64-.07 1v.15c-.151 1.278-.523 2.52-1.1 3.67-.516.989-1.158 1.906-1.91 2.73z" opacity=".1"/>
    <path fill="#19E51C" d="M183.98 166.43c-.146-.12-.28-.254-.4-.4-.43-.491-.945-.901-1.52-1.21-.203-.117-.413-.221-.63-.31-.639-.284-1.311-.485-2-.6-.33-.063-.664-.103-1-.12l.9-4.3v-.06l.39-1.87c.26.545.561 1.07.9 1.57.46.7 1 1.38 1.6 1.39.163-.009.318-.073.44-.18.119-.101.217-.223.29-.36.1-.16.18-.3.27-.43 1-1.44 1.63-.53 1.63-.53 1.14.41 1.61 1.76 1.78 3.13q0 .3.06.6c.056.971.023 1.945-.1 2.91 0 0-.99 2.14-2.61.77z"/>
    <path fill="#444053" d="M182.06 164.81c-.203-.117-.413-.221-.63-.31.22-.93.49-2.34.68-3.43 0-.08 0-.15.05-.23.05-.08 0-.23.06-.33.163-.009.318-.073.44-.18l-.09.68v.27l-.51 3.53z"/>
    <path fill="#19E51C" d="M183.98 166.43c.445-.815.731-1.708.84-2.63.019-.556-.045-1.112-.19-1.65-.05-.17-.09-.32-.15-.48-.234-.802-.667-1.531-1.26-2.12 1-1.44 1.63-.53 1.63-.53 1.14.41 1.61 1.76 1.78 3.13q0 .3.06.6c.056.971.023 1.945-.1 2.91 0 0-.99 2.14-2.61.77z"/>
    <path d="M183.98 166.43c.445-.815.731-1.708.84-2.63.019-.556-.045-1.112-.19-1.65-.05-.17-.09-.32-.15-.48-.234-.802-.667-1.531-1.26-2.12 1-1.44 1.63-.53 1.63-.53 1.14.41 1.61 1.76 1.78 3.13q0 .3.06.6c.056.971.023 1.945-.1 2.91 0 0-.99 2.14-2.61.77z" opacity=".1"/>
    <path fill="#FFF" d="M125.48 145.14s-2.72 6.61 1.29 9.82c.09-.859.374-1.686.83-2.42.369-.439.626-.96.75-1.52-1.624-1.557-2.641-3.642-2.87-5.88z" opacity=".1"/>
    <path fill="#19E51C" d="M227.27 125.3c-5.4 3.47-11.63 6.83-17.55 8.61-4.55 1.39-8.91 1.82-12.56.66-1.582-.496-3.036-1.332-4.26-2.45-.827-.755-1.549-1.616-2.15-2.56-4.23-6.61-4.15-18.23-.8-28.3 2.33-7 6.22-13.2 11.33-16.47 12.46-8 28.38-5.41 35.56 5.78 7.18 11.19 2.89 26.74-9.57 34.73z"/>
    <path d="M227.27 125.3c-5.4 3.47-11.63 6.83-17.55 8.61-4.55 1.39-8.91 1.82-12.56.66-1.582-.496-3.036-1.332-4.26-2.45-.827-.755-1.549-1.616-2.15-2.56-4.23-6.61-4.15-18.23-.8-28.3 2.33-7 6.22-13.2 11.33-16.47 12.46-8 28.38-5.41 35.56 5.78 7.18 11.19 2.89 26.74-9.57 34.73z" opacity=".1"/>
    <path fill="#19E51C" d="M196.11 138.67c-1.6 2.23-6.86-.15-6.86-.15s-1.79-1.55 0-2.72c.16-.102.327-.192.5-.27.589-.286 1.126-.668 1.59-1.13.16-.17.32-.34.46-.52.444-.54.823-1.131 1.13-1.76.152-.304.283-.618.39-.94l5.64 3c-.599.101-1.191.245-1.77.43-.81.26-1.61.65-1.76 1.16-.063.154-.063.326 0 .48.065.14.157.265.27.37.116.118.226.241.33.37 1.13 1.33.08 1.68.08 1.68z"/>
    <path fill="#444053" d="M195.44 136.21l-4.13-1.78c.16-.17.32-.34.46-.52 1 .55 2.6 1.35 3.63 1.85-.043.15-.029.31.04.45z"/>
    <path fill="#19E51C" d="M196.11 138.67c-1.6 2.23-6.86-.15-6.86-.15s-1.79-1.55 0-2.72c.662.653 1.442 1.172 2.3 1.53 1.499.464 3.12.328 4.52-.38 1.09 1.37.04 1.72.04 1.72z"/>
    <path d="M196.11 138.67c-1.6 2.23-6.86-.15-6.86-.15s-1.79-1.55 0-2.72c.662.653 1.442 1.172 2.3 1.53 1.499.464 3.12.328 4.52-.38 1.09 1.37.04 1.72.04 1.72z" opacity=".1"/>
    <path fill="#FFF" d="M225.74 85.43s-5.61-4.44-9.79-1.46c.797.324 1.511.823 2.09 1.46.324.474.756.865 1.26 1.14 1.944-1.131 4.226-1.535 6.44-1.14z" opacity=".1"/>
    <g opacity=".1">
      <path d="M114.63 120.79c-.454.73-.735 1.555-.82 2.41-4-3.19-1.29-9.81-1.29-9.81.229 2.239 1.242 4.325 2.86 5.89-.125.556-.383 1.074-.75 1.51zM165.46 132.03l1.3-6.22c.264.54.564 1.061.9 1.56-.041 1.663-.451 3.295-1.2 4.78-.331-.058-.665-.098-1-.12zM165.14 134.25c-.17.22-.36.45-.55.67-1.169 1.291-2.516 2.409-4 3.32-.4.27-.83.52-1.27.76-9.7 5.34-25.78 6.18-36.08 1.1.938-2.595 2.356-4.99 4.18-7.06 7.11-8.06 19-9.7 29.19-4.84 2.476 1.181 4.775 2.702 6.83 4.52.56.5 1.14 1 1.7 1.53z" opacity=".1"/>
      <path d="M171.02 134.67c-.148-.118-.282-.252-.4-.4-.435-.486-.949-.895-1.52-1.21-.2-.11-.42-.22-.63-.31-.64-.28-1.312-.481-2-.6-.331-.058-.665-.098-1-.12l1.3-6.22c.264.54.564 1.061.9 1.56.46.7 1.05 1.38 1.6 1.39.164-.005.32-.069.44-.18.121-.098.22-.221.29-.36l.26-.42c1-1.44 1.64-.54 1.64-.54 2.57.93 1.74 6.64 1.74 6.64s-1.01 2.15-2.62.77z" opacity=".1"/>
      <path d="M169.1 133.06c-.2-.11-.42-.22-.63-.31.26-1.1.58-2.87.79-4 .164-.005.32-.069.44-.18l-.6 4.49zM171.02 134.67c.444-.812.729-1.701.84-2.62.03-1.571-.547-3.093-1.61-4.25 1-1.44 1.64-.54 1.64-.54 2.57.93 1.74 6.64 1.74 6.64s-1 2.15-2.61.77z" opacity=".1"/>
      <path d="M171.02 134.67c.444-.812.729-1.701.84-2.62.03-1.571-.547-3.093-1.61-4.25 1-1.44 1.64-.54 1.64-.54 2.57.93 1.74 6.64 1.74 6.64s-1 2.15-2.61.77zM113.85 123.2c-4-3.19-1.29-9.81-1.29-9.81.229 2.239 1.242 4.325 2.86 5.89-.125.556-.383 1.074-.75 1.51-.454.73-.735 1.555-.82 2.41z" opacity=".1"/>
    </g>
    <path fill="#19E51C" d="M165.41 133.69l-.4.44c-1.074 1.108-2.284 2.075-3.6 2.88l-.38.24c-.29.18-.59.35-.89.52-9.79 5.38-26.07 6.19-36.35 1-1.557-.771-3.009-1.739-4.32-2.88-11.11-9.79-13-25.81-4.2-35.79 7.12-8.06 19-9.7 29.2-4.83.32.15.63.3.95.47 2.113 1.093 4.087 2.436 5.88 4 3.856 3.332 7.394 7.015 10.57 11 .65.83 1.27 1.67 1.84 2.51.16.22.3.46.45.68.28.41.54.83.79 1.25.25.42.39.67.58 1 1.869 3.006 2.888 6.461 2.95 10-.041 1.663-.451 3.295-1.2 4.78-.5.989-1.129 1.907-1.87 2.73z"/>
    <path fill="#19E51C" d="M171.85 133.43c-.148-.118-.282-.252-.4-.4-.432-.489-.947-.898-1.52-1.21-.203-.117-.413-.221-.63-.31-.64-.28-1.312-.481-2-.6-.331-.058-.665-.098-1-.12l1.3-6.22c.264.54.564 1.061.9 1.56.46.7 1.05 1.38 1.6 1.39.163-.009.318-.073.44-.18.119-.101.217-.223.29-.36.09-.16.18-.3.26-.42 1-1.45 1.64-.54 1.64-.54 2.57.93 1.74 6.64 1.74 6.64s-1.02 2.16-2.62.77z"/>
    <path fill="#444053" d="M169.92 131.83c-.203-.117-.413-.221-.63-.31.26-1.1.58-2.87.79-4 .163-.009.318-.073.44-.18l-.6 4.49z"/>
    <path fill="#19E51C" d="M171.85 133.43c.444-.812.729-1.701.84-2.62.03-1.571-.547-3.093-1.61-4.25 1-1.45 1.64-.54 1.64-.54 2.57.93 1.74 6.64 1.74 6.64s-1.01 2.16-2.61.77z"/>
    <path d="M171.85 133.43c.444-.812.729-1.701.84-2.62.03-1.571-.547-3.093-1.61-4.25 1-1.45 1.64-.54 1.64-.54 2.57.93 1.74 6.64 1.74 6.64s-1.01 2.16-2.61.77z" opacity=".1"/>
    <path fill="#FFF" d="M113.34 112.16s-2.73 6.61 1.29 9.82c.09-.858.37-1.684.82-2.42.368-.44.629-.961.76-1.52-1.624-1.557-2.641-3.642-2.87-5.88z" opacity=".1"/>
    <g opacity=".1">
      <path d="M154.25 67.55c-.532.217-1.109.299-1.68.24-.857.041-1.694.274-2.45.68.37-5.12 7.38-6.6 7.38-6.6-1.719 1.451-2.87 3.463-3.25 5.68zM164.16 113.9c.49.74.95 1.49 1.37 2.25-.952-.338-1.881-.739-2.78-1.2-7.18-3.63-14.3-11.39-18.28-19.72 2.476 1.177 4.775 2.695 6.83 4.51 3.856 3.332 7.394 7.015 10.57 11 .82 1.02 1.59 2.08 2.29 3.16zM177.06 115.28c-1.397.903-2.973 1.49-4.62 1.72-.136-.311-.293-.611-.47-.9l5.88-2.45c-.302.524-.566 1.069-.79 1.63z" opacity=".1"/>
      <path d="M175.04 123.89s-2.33.39-2.11-1.71c.019-.19.056-.377.11-.56.155-.634.202-1.29.14-1.94-.018-.232-.051-.462-.1-.69-.126-.691-.342-1.364-.64-2-.136-.311-.293-.611-.47-.9l5.88-2.45c-.302.524-.566 1.069-.79 1.63-.32.79-.54 1.65-.24 2.11.1.13.241.221.4.26.149.028.301.028.45 0h.5c1.77 0 1.37 1 1.37 1 .69 2.72-4.5 5.25-4.5 5.25z" opacity=".1"/>
      <path d="M177.22 117.65l-4 2c-.018-.232-.051-.462-.1-.69 1.06-.41 2.7-1.14 3.74-1.6.085.134.211.236.36.29zM175.04 123.89s-2.33.39-2.11-1.71c.922-.097 1.817-.365 2.64-.79 1.314-.859 2.245-2.191 2.6-3.72 1.77 0 1.37 1 1.37 1 .69 2.69-4.5 5.22-4.5 5.22z" opacity=".1"/>
      <path d="M175.04 123.89s-2.33.39-2.11-1.71c.922-.097 1.817-.365 2.64-.79 1.314-.859 2.245-2.191 2.6-3.72 1.77 0 1.37 1 1.37 1 .69 2.69-4.5 5.22-4.5 5.22zM154.25 67.55c-.532.217-1.109.299-1.68.24-.857.041-1.694.274-2.45.68.37-5.12 7.38-6.6 7.38-6.6-1.719 1.451-2.87 3.463-3.25 5.68z" opacity=".1"/>
    </g>
    <path fill="#19E51C" d="M177.47 114.67c-1.393.917-2.97 1.518-4.62 1.76-1.108.15-2.232.15-3.34 0-1.569-.203-3.104-.621-4.56-1.24-.6-.24-1.19-.51-1.78-.81l-.12-.06c-6.83-3.49-13.59-10.71-17.63-18.58-2.75-5.36-4.24-11-3.62-16 1.82-14.69 14-25.28 27.18-23.65 13.18 1.63 22.42 14.86 20.6 29.55-.569 5.062-1.607 10.06-3.1 14.93-.13.43-.27.85-.42 1.27-1.94 5.59-4.7 10.33-8.59 12.83z"/>
    <path d="M177.47 114.67c-1.393.917-2.97 1.518-4.62 1.76-1.108.15-2.232.15-3.34 0-1.569-.203-3.104-.621-4.56-1.24-.6-.24-1.19-.51-1.78-.81l-.12-.06c-6.83-3.49-13.59-10.71-17.63-18.58-2.75-5.36-4.24-11-3.62-16 1.82-14.69 14-25.28 27.18-23.65 13.18 1.63 22.42 14.86 20.6 29.55-.569 5.062-1.607 10.06-3.1 14.93-.13.43-.27.85-.42 1.27-1.94 5.59-4.7 10.33-8.59 12.83z" opacity=".1"/>
    <path fill="#19E51C" d="M175.45 123.28s-2.33.39-2.11-1.72c.02-.19.057-.377.11-.56.155-.631.202-1.283.14-1.93-.018-.235-.051-.469-.1-.7-.128-.691-.343-1.363-.64-2-.136-.311-.293-.611-.47-.9l5.88-2.45c-.301.528-.565 1.076-.79 1.64-.32.78-.54 1.65-.24 2.1.099.133.24.228.4.27.149.027.301.027.45 0h.5c1.77 0 1.37 1 1.37 1 .69 2.72-4.5 5.25-4.5 5.25z"/>
    <path fill="#444053" d="M177.63 117.04l-4 2c-.018-.235-.051-.469-.1-.7 1.06-.41 2.7-1.14 3.74-1.6.084.137.21.242.36.3z"/>
    <path fill="#19E51C" d="M175.45 123.28s-2.33.39-2.11-1.72c.924-.086 1.821-.354 2.64-.79 1.316-.856 2.248-2.19 2.6-3.72 1.77 0 1.37 1 1.37 1 .69 2.7-4.5 5.23-4.5 5.23z"/>
    <path d="M175.45 123.28s-2.33.39-2.11-1.72c.924-.086 1.821-.354 2.64-.79 1.316-.856 2.248-2.19 2.6-3.72 1.77 0 1.37 1 1.37 1 .69 2.7-4.5 5.23-4.5 5.23z" opacity=".1"/>
    <path fill="#FFF" d="M157.9 61.25s-7 1.49-7.37 6.61c.757-.412 1.599-.645 2.46-.68.568.052 1.14-.03 1.67-.24.377-2.219 1.525-4.233 3.24-5.69z" opacity=".1"/>
    <path fill="#19E51C" d="M251.08 174.64c-8.69 10.06-24.82 10.37-36 .69-5.44-4.7-11.06-10.44-14.39-16.25-1.885-3.001-2.922-6.457-3-10 .024-1.66.409-3.295 1.13-4.79.495-1.005 1.117-1.943 1.85-2.79 2.464-2.629 5.513-4.64 8.9-5.87 11.52-4.57 28.54-4.08 37 3.26 11.16 9.69 13.2 25.69 4.51 35.75z"/>
    <path fill="#19E51C" d="M198.53 150.66c-.264-.545-.568-1.07-.91-1.57-.48-.7-1.07-1.37-1.61-1.37-.168-.002-.33.062-.45.18-.113.106-.211.227-.29.36-.078.149-.165.292-.26.43-1 1.46-1.63.56-1.63.56-2.58-.91-1.8-6.63-1.8-6.63s1-2.16 2.6-.8c.149.12.286.254.41.4.436.486.954.892 1.53 1.2.204.112.414.212.63.3.642.269 1.313.464 2 .58.331.057.665.094 1 .11l-1.22 6.25z"/>
    <path fill="#444053" d="M196.01 147.72c-.168-.002-.33.062-.45.18l.56-4.48c.204.112.414.212.63.3-.25 1.11-.55 2.88-.74 4z"/>
    <path fill="#19E51C" d="M195.01 148.69c-1 1.46-1.63.56-1.63.56-2.58-.91-1.8-6.63-1.8-6.63s1-2.16 2.6-.8c-.436.816-.707 1.71-.8 2.63-.025 1.571.559 3.09 1.63 4.24z"/>
    <path d="M195.01 148.69c-1 1.46-1.63.56-1.63.56-2.58-.91-1.8-6.63-1.8-6.63s1-2.16 2.6-.8c-.436.816-.707 1.71-.8 2.63-.025 1.571.559 3.09 1.63 4.24z" opacity=".1"/>
    <path fill="#FFF" d="M252.85 162.53s2.66-6.65-1.38-9.81c-.085.86-.362 1.691-.81 2.43-.364.441-.617.962-.74 1.52 1.642 1.543 2.681 3.621 2.93 5.86z" opacity=".1"/>
    <path d="M200.66 159.08c-1.885-3.001-2.922-6.457-3-10-.48-.7-1.07-1.37-1.61-1.37-.168-.002-.33.062-.45.18-.113.106-.211.227-.29.36-.078.149-.165.292-.26.43-1 1.46-1.63.56-1.63.56-2.58-.91-1.8-6.63-1.8-6.63s1-2.16 2.6-.8c.149.12.286.254.41.4.436.486.954.892 1.53 1.2.204.112.414.212.63.3.642.269 1.313.464 2 .58.495-1.005 1.117-1.943 1.85-2.79 2.464-2.629 5.513-4.64 8.9-5.87-1.4 8.87-4.01 18.2-8.88 23.45zM186.63 162.14c-.727-.11-1.445-.27-2.15-.48-.64-.18-1.27-.4-1.91-.65l-.41-.17c-.53-.23-1.08-.49-1.61-.76s-.81-.43-1.22-.66c-7.61-4.39-15-13.21-18.3-22.17-.935-2.449-1.537-5.011-1.79-7.62-.121-1.382-.101-2.772.06-4.15.478-3.949 1.754-7.759 3.75-11.2.22-.36.43-.71.66-1.06 5-7.71 13.41-12.37 22.35-11.44-1.94 5.61-4.7 10.39-8.59 12.89-.32.78-.54 1.65-.24 2.1.099.133.24.228.4.27.149.027.301.027.45 0h.5c1.77 0 1.37 1 1.37 1 .69 2.65-4.5 5.18-4.5 5.18s-2.33.39-2.11-1.72c.02-.19.057-.377.11-.56.155-.631.202-1.283.14-1.93-.018-.235-.051-.469-.1-.7-.128-.691-.343-1.363-.64-2-1.108.15-2.232.15-3.34 0-1.569-.203-3.104-.621-4.56-1.24.21.33.39.67.58 1 1.869 3.006 2.888 6.461 2.95 10 .46.7 1.05 1.38 1.6 1.39.163-.009.318-.073.44-.18.119-.101.217-.223.29-.36.09-.16.18-.3.26-.42 1-1.45 1.64-.54 1.64-.54 2.57.93 1.74 6.64 1.74 6.64s-1 2.15-2.61.77c-.148-.118-.282-.252-.4-.4-.432-.489-.947-.898-1.52-1.21-.203-.117-.413-.221-.63-.31-.64-.28-1.312-.481-2-.6-.497 1.003-1.126 1.934-1.87 2.77l-.4.44.13.12c3.213 2.896 6.18 6.053 8.87 9.44.82 1.05 1.6 2.11 2.29 3.19.49.74 1 1.49 1.38 2.24 1.86 3.009 2.876 6.463 2.94 10 .46.7 1 1.38 1.6 1.39.163-.009.318-.073.44-.18.119-.101.217-.223.29-.36.1-.16.18-.3.27-.43 1-1.44 1.63-.53 1.63-.53 1.13.49 1.6 1.83 1.77 3.2z" opacity=".1"/>
    <g opacity=".1">
      <path d="M175.24 112.12c-.534.209-1.11.288-1.68.23-.86.042-1.7.274-2.46.68.38-5.11 7.38-6.59 7.38-6.59-1.719 1.45-2.867 3.463-3.24 5.68zM210.15 130.76c-.12 1-.27 2.09-.43 3.15-4.55 1.39-8.91 1.82-12.56.66-.81.26-1.61.65-1.76 1.16-.063.154-.063.326 0 .48.065.14.157.265.27.37.116.118.226.241.33.37 1.12 1.37.07 1.72.07 1.72-1.6 2.23-6.86-.15-6.86-.15s-1.79-1.55 0-2.72c.16-.102.327-.192.5-.27.589-.286 1.126-.668 1.59-1.13.16-.17.32-.34.46-.52.444-.54.823-1.131 1.13-1.76-.827-.755-1.549-1.616-2.15-2.56-4.23-6.61-4.15-18.23-.8-28.3 12.99 1.85 22.01 14.96 20.21 29.5zM198.04 159.84c-1.393.903-2.966 1.49-4.61 1.72-.136-.311-.293-.611-.47-.9l5.88-2.44c-.304.521-.571 1.062-.8 1.62z" opacity=".1"/>
      <path d="M196.03 168.43s-2.34.39-2.11-1.72c.016-.189.05-.377.1-.56.16-.63.207-1.283.14-1.93-.015-.235-.045-.469-.09-.7-.135-.689-.349-1.361-.64-2-.136-.311-.293-.611-.47-.9l5.88-2.44c-.304.521-.571 1.062-.8 1.62-.31.79-.53 1.66-.23 2.11.09.137.23.234.39.27.152.032.308.032.46 0h.5c1.77 0 1.37 1 1.37 1 .68 2.75-4.5 5.25-4.5 5.25z" opacity=".1"/>
      <path d="M198.2 162.22l-4 2q0-.34-.09-.69c1.05-.41 2.7-1.14 3.74-1.6.077.137.201.24.35.29zM196.02 168.43s-2.33.39-2.11-1.72c.924-.084 1.822-.353 2.64-.79 1.318-.856 2.254-2.189 2.61-3.72 1.77 0 1.37 1 1.37 1 .68 2.73-4.51 5.23-4.51 5.23z" opacity=".1"/>
      <path d="M196.02 168.43s-2.33.39-2.11-1.72c.924-.084 1.822-.353 2.64-.79 1.318-.856 2.254-2.189 2.61-3.72 1.77 0 1.37 1 1.37 1 .68 2.73-4.51 5.23-4.51 5.23zM175.24 112.12c-.534.209-1.11.288-1.68.23-.86.042-1.7.274-2.46.68.38-5.11 7.38-6.59 7.38-6.59-1.719 1.45-2.867 3.463-3.24 5.68z" opacity=".1"/>
    </g>
    <path fill="#19E51C" d="M208.72 131.59c-1.81 14.69-6.87 32.44-20.07 30.84-13.2-1.6-29.52-22-27.71-36.72 1.81-14.72 14-25.28 27.18-23.65 13.18 1.63 22.42 14.83 20.6 29.53z"/>
    <path fill="#19E51C" d="M194.59 169.28s-2.34.39-2.11-1.72c.022-.188.056-.375.1-.56.163-.63.214-1.283.15-1.93 0-.24-.06-.47-.1-.69-.201-1.023-.576-2.004-1.11-2.9l5.88-2.44s-1.66 2.79-1 3.73c.094.137.237.234.4.27.148.032.302.032.45 0h.5c1.77 0 1.37 1 1.37 1 .66 2.71-4.53 5.24-4.53 5.24z"/>
    <path fill="#444053" d="M196.77 163.04l-4 2c0-.24-.06-.47-.1-.69 1.06-.42 2.7-1.14 3.74-1.61.079.141.207.247.36.3z"/>
    <path fill="#19E51C" d="M194.59 169.28s-2.34.39-2.11-1.72c.922-.088 1.818-.353 2.64-.78 1.314-.863 2.245-2.198 2.6-3.73 1.77 0 1.37 1 1.37 1 .69 2.7-4.5 5.23-4.5 5.23z"/>
    <path d="M194.59 169.28s-2.34.39-2.11-1.72c.922-.088 1.818-.353 2.64-.78 1.314-.863 2.245-2.198 2.6-3.73 1.77 0 1.37 1 1.37 1 .69 2.7-4.5 5.23-4.5 5.23z" opacity=".1"/>
    <path fill="#FFF" d="M177.04 107.26s-7 1.48-7.38 6.6c.761-.411 1.606-.644 2.47-.68.568.058 1.141-.024 1.67-.24.37-2.218 1.519-4.232 3.24-5.68z" opacity=".1"/>
    <mask id="A" width="400%" height="400%" x="-200%" y="-200%">
      <rect width="400%" height="400%" x="-200%" y="-200%" fill="#fff"/>
      <path d="M194.23 164.36c-1.24.106-2.372.747-3.1 1.755-.728 1.009-.98 2.285-.69 3.495.88 2.94 4.5 3.88 6.86 5.85 2.36 1.97 3.49 5.12 3.78 8.19.505 5.881-1.605 11.687-5.77 15.87-2.12 2.1-4.68 3.7-6.78 5.82-2.395 2.654-4.365 5.663-5.84 8.92-1.336 2.307-2.216 4.85-2.59 7.49-.35 4.22 1.77 8.24 4.3 11.63 2.53 3.39 5.56 6.43 7.52 10.18 2.679 5.185 3.12 11.241 1.22 16.76-.1.447-.351.846-.71 1.13-.182.132-.411.18-.631.132-.219-.048-.408-.187-.519-.382"/>
    </mask>
    <path fill="none" stroke="#444053" stroke-miterlimit="10" stroke-width="2" d="M194.23 164.36c-1.24.106-2.372.747-3.1 1.755-.728 1.009-.98 2.285-.69 3.495.88 2.94 4.5 3.88 6.86 5.85 2.36 1.97 3.49 5.12 3.78 8.19.505 5.881-1.605 11.687-5.77 15.87-2.12 2.1-4.68 3.7-6.78 5.82-2.395 2.654-4.365 5.663-5.84 8.92-1.336 2.307-2.216 4.85-2.59 7.49-.35 4.22 1.77 8.24 4.3 11.63 2.53 3.39 5.56 6.43 7.52 10.18 2.679 5.185 3.12 11.241 1.22 16.76-.1.447-.351.846-.71 1.13-.182.132-.411.18-.631.132-.219-.048-.408-.187-.519-.382" mask="url(#A)" vector-effect="non-scaling-stroke"/>
    <path fill="none" d="M194.23 164.36c-1.24.106-2.372.747-3.1 1.755-.728 1.009-.98 2.285-.69 3.495.88 2.94 4.5 3.88 6.86 5.85 2.36 1.97 3.49 5.12 3.78 8.19.505 5.881-1.605 11.687-5.77 15.87-2.12 2.1-4.68 3.7-6.78 5.82-2.395 2.654-4.365 5.663-5.84 8.92-1.336 2.307-2.216 4.85-2.59 7.49-.35 4.22 1.77 8.24 4.3 11.63 2.53 3.39 5.56 6.43 7.52 10.18 2.679 5.185 3.12 11.241 1.22 16.76-.1.447-.351.846-.71 1.13-.182.132-.411.18-.631.132-.219-.048-.408-.187-.519-.382"/>
    <mask id="B" width="400%" height="400%" x="-200%" y="-200%">
      <rect width="400%" height="400%" x="-200%" y="-200%" fill="#fff"/>
      <path d="M181.93 163.62c-.636.72-.669 1.791-.08 2.55.604.722 1.499 1.137 2.44 1.13 1.13 0 2.39-.35 3.32.3.631.549.996 1.343 1 2.18-.007.823.076 1.645.25 2.45.228.655.597 1.253 1.08 1.75.545.635 1.229 1.134 2 1.46 1.66.65 3.6.07 5.3.61 2.26.71 3.47 3.13 4.15 5.4.928 2.696 1.098 5.595.49 8.38-.589 1.78-1.349 3.498-2.27 5.13-.923 1.643-1.431 3.486-1.48 5.37-.016 1.918 1.085 3.671 2.82 4.49"/>
    </mask>
    <path fill="none" stroke="#444053" stroke-miterlimit="10" stroke-width="2" d="M181.93 163.62c-.636.72-.669 1.791-.08 2.55.604.722 1.499 1.137 2.44 1.13 1.13 0 2.39-.35 3.32.3.631.549.996 1.343 1 2.18-.007.823.076 1.645.25 2.45.228.655.597 1.253 1.08 1.75.545.635 1.229 1.134 2 1.46 1.66.65 3.6.07 5.3.61 2.26.71 3.47 3.13 4.15 5.4.928 2.696 1.098 5.595.49 8.38-.589 1.78-1.349 3.498-2.27 5.13-.923 1.643-1.431 3.486-1.48 5.37-.016 1.918 1.085 3.671 2.82 4.49" mask="url(#B)" vector-effect="non-scaling-stroke"/>
    <path fill="none" d="M181.93 163.62c-.636.72-.669 1.791-.08 2.55.604.722 1.499 1.137 2.44 1.13 1.13 0 2.39-.35 3.32.3.631.549.996 1.343 1 2.18-.007.823.076 1.645.25 2.45.228.655.597 1.253 1.08 1.75.545.635 1.229 1.134 2 1.46 1.66.65 3.6.07 5.3.61 2.26.71 3.47 3.13 4.15 5.4.928 2.696 1.098 5.595.49 8.38-.589 1.78-1.349 3.498-2.27 5.13-.923 1.643-1.431 3.486-1.48 5.37-.016 1.918 1.085 3.671 2.82 4.49"/>
    <path fill="#EFB7B9" d="M268.85 263.66l-1.88 1.13 2.54 9.2s.84.48 2.05 1.28c2.24 1.47 5.74 4 7.59 6.73 2.87 4.14 15.64 15.76 14 10.92-1.64-4.84-2.36-3.93-2.36-3.93s2.8-7.31-4.1-10.6c-5.24-2.5-12.84-9.7-16.19-13-.99-1.07-1.65-1.73-1.65-1.73z"/>
    <path fill="#925978" d="M306.92 288.27c1.128 1.087 2.094 2.329 2.87 3.69.779 1.382.925 3.033.4 4.53-.34.81-.92 1.5-1.27 2.3-1.67 3.86 2.67 8.08 1.85 12.21-.5 2.55-2.8 4.27-4.78 6-1.98 1.73-3.93 4-3.4 6.58.384 1.176.922 2.296 1.6 3.33.678 1.061.754 2.399.2 3.53-1.16 1.79-4.56 1.49-5 3.57-.44 1.86 2.12 3.77 1.1 5.37-.616.73-1.616 1.007-2.52.7-.877-.311-1.776-.555-2.69-.73-1.212-.087-2.375.497-3.028 1.522-.654 1.025-.693 2.326-.102 3.388.53.95 1.55 1.76 1.43 2.83-.137.691-.593 1.277-1.23 1.58-2.217 1.14-4.939.328-6.17-1.84-.84-1.63-.6-3.59-.49-5.42.11-1.83 0-3.89-1.31-5.18-.667-.561-1.415-1.016-2.22-1.35-2.274-1.133-4.348-2.629-6.14-4.43-1.58-1.59-3-3.61-2.86-5.84.15-2.53 2.26-4.71 2.09-7.23-.17-2.52-2.71-4.39-4.86-5.93-2.15-1.54-4.4-3.91-3.7-6.46.76-2.75 4.32-3.56 6.08-5.8.643-.876 1.093-1.878 1.32-2.94.47-1.86.59-3.79 1-5.65.346-1.907 1.373-3.623 2.89-4.83 1.9-1.31 4.42-1.22 6.7-.88 2.28.34 4.63.89 6.87.35 1.67-.41 3.18-1.4 4.87-1.7 2.102-.302 4.215.467 5.63 2.05.8.87.8 1.1 1.92 1.22 1.147.041 2.222.573 2.95 1.46z"/>
    <g opacity=".1">
      <path d="M303.85 330.92c-.817.618-1.738 1.086-2.72 1.38.813-.624 1.736-1.092 2.72-1.38zM295.07 339.43c-.385-.023-.772.024-1.14.14.685-.694 1.636-1.059 2.61-1 .914.174 1.813.418 2.69.73.364.083.739.107 1.11.07-.012.038-.029.075-.05.11-.621.722-1.616.999-2.52.7-.88-.318-1.782-.568-2.7-.75zM276.4 289.77c-.45 1.87-.57 3.8-1 5.66-.227 1.062-.677 2.064-1.32 2.94-1.76 2.24-5.33 3.05-6.08 5.8-.7 2.55 1.54 4.91 3.69 6.45s4.68 3.29 4.86 5.93c.18 2.64-1.93 4.71-2.08 7.23-.14 2.23 1.28 4.26 2.86 5.85 1.793 1.8 3.866 3.296 6.14 4.43.805.327 1.552.783 2.21 1.35 1.32 1.28 1.44 3.34 1.32 5.17-.12 1.83-.35 3.79.49 5.43 1.084 1.893 3.331 2.788 5.42 2.16-.212.22-.455.408-.72.56-2.217 1.14-4.939.328-6.17-1.84-.84-1.64-.6-3.59-.49-5.43.11-1.84 0-3.89-1.32-5.17-.658-.567-1.405-1.023-2.21-1.35-2.272-1.136-4.345-2.632-6.14-4.43-1.58-1.59-3-3.62-2.86-5.85.15-2.52 2.26-4.7 2.09-7.23-.17-2.53-2.71-4.38-4.86-5.93-2.15-1.55-4.4-3.9-3.7-6.45.76-2.75 4.32-3.56 6.08-5.8.643-.876 1.093-1.878 1.32-2.94.47-1.86.59-3.79 1-5.66.356-1.908 1.394-3.621 2.92-4.82.336-.227.694-.418 1.07-.57-1.297 1.198-2.18 2.777-2.52 4.51z" opacity=".1"/>
    </g>
    <path fill="#4C4981" d="M230.4 314.21l-2.05-2.85s-3.74 5.31 1.68 8.64c5.42 3.33.37-5.79.37-5.79z"/>
    <path fill="#00FF04" d="M230.4 314.21l-2.05-2.85s-3.74 5.31 1.68 8.64c5.42 3.33.37-5.79.37-5.79z" opacity=".1"/>
    <path fill="#EFB7B9" d="M212.64 403.13s-.36 5.34-1.2 10.54c-.6 3.72-1.45 7.38-2.59 8.94-2.73 3.77-2.13 16-2.13 16l-3.4 13.89c.25 2.82-1.69 6.51-2.61 8.07-.27.47-.46.75-.46.75l2.37 4 3.82.95s6.55-2.18 4.59-6.49c-.338-.869-.488-1.799-.44-2.73 0-5.57 3.69-14.94 3.69-14.94s9-17.16 8.06-20.68c-.098-.38-.162-.768-.19-1.16-.28-3.9 2-10.64 2-10.64l-11.51-6.5zM153.75 377.48c-6.18 4-16.73 14.61-18.68 17.39-2.42 3.45-8.55 7.37-8.55 7.37l-4.32 2.59c-.58.381-1.085.866-1.49 1.43-.242.32-.466.654-.67 1l6.22 7.25s1.71-1.32 3.6-3c0 0 4.19-4 4.77-5.49 1.12-2.92 8.07-6.31 8.07-6.31s12.89-7.63 14.37-8.9c1.425-1.202 2.978-2.245 4.63-3.11.88-.48 1.9-1 3.08-1.51 3.328-1.657 6.522-3.573 9.55-5.73l-6-9-11 4.49c-1.302.204-2.533.73-3.58 1.53z"/>
    <path d="M200.71 460.58c-.27.47-.46.75-.46.75l2.37 4 3.82.95s6.55-2.18 4.59-6.49c-.338-.869-.488-1.799-.44-2.73-2 .47-2.69 3.27-2.69 3.27s-.26 1.16-3.32 2.24c-2.07.69-3.28-.92-3.87-1.99z" opacity=".1"/>
    <path fill="#444053" d="M200.13 460.29c-.9.72-1.25 4-1.38 6.25-.07 1.1-.09 1.95-.09 2.12 0 .51 3.4 1.66 5.52 1.09 2.12-.57 10.62 2 10.62 2 2.925.056 5.836-.422 8.59-1.41 2.8-1 2.51-2.23 1.34-3.26-.915-.731-1.955-1.29-3.07-1.65-1.246-.538-2.319-1.41-3.1-2.52-1.124-1.476-2.474-2.765-4-3.82-1.38-.92-2.93-1.73-3.92-1.56-2.16.35-2.85 3.3-2.85 3.3s-.26 1.15-3.31 2.24c-3.05 1.09-4.27-2.85-4.35-2.78z"/>
    <path d="M198.75 466.54c-.07 1.1-.09 1.95-.09 2.12 0 .51 3.4 1.66 5.52 1.09 2.12-.57 10.62 2 10.62 2 2.925.056 5.836-.422 8.59-1.41 2.8-1 2.51-2.23 1.34-3.26-2.24.72-6.65 2-9.3 1.83-3.16-.14-13.8-1.89-16.68-2.37zM120.9 406.27h-.19c-.242.32-.466.654-.67 1l6.22 7.25s1.71-1.32 3.6-3c-.51-3.72-8.37-5.94-8.37-5.94l-.59.69z" opacity=".1"/>
    <path fill="#444053" d="M114.43 408.43s.59 8.05 2.34 11c1.32 2.26 2.47 1.88 4.68.73.7-.37 1.51-.81 2.47-1.28 4-1.92 4.07-3.89 4.07-3.89 5.82-5.69-6.87-9.28-6.87-9.28l-.59.73c-1.434-.042-2.857.26-4.15.88-.683.309-1.336.68-1.95 1.11z"/>
    <path d="M114.43 408.43s.59 8.05 2.34 11c1.32 2.26 2.47 1.88 4.68.73-2.013-1.013-3.505-2.829-4.11-5-.753-2.549-1.091-5.203-1-7.86-.67.317-1.309.696-1.91 1.13z" opacity=".1"/>
    <path fill="#EFB7B9" d="M268.85 300.06l-10.78 7.91-2.22 1.63 1.56 5.33 1.61 5.5 4.52 4.77s6.08-.76 9.55-3.83c1.264-1.033 2.092-2.504 2.32-4.12.064-.5.188-.99.37-1.46.219-.543.527-1.047.91-1.49.479-.532 1.047-.975 1.68-1.31 3.1-1.69 7.51-1.18 7.51-1.18s-1.13-13.8-3.37-11.71c-1.45 1.36-5.17 1-7.61.52-1.32-.24-2.27-.5-2.27-.5l-3.78-.06z"/>
    <circle cx="288.57" cy="304.36" r="11.38" opacity=".1" vector-effect="non-scaling-stroke"/>
    <circle cx="288.93" cy="304.14" r="11.38" fill="#EFB7B9" vector-effect="non-scaling-stroke"/>
    <path fill="#444053" d="M229.49 318.07c-2.09 1.5-4.73 5.33-4.73 5.33l2.77 16.13 15.38 5.68h.06c.88-.76 12-10.33 16.42-8.83 4.59 1.57 13.38-3.61 13.38-3.61s3.72-7.81 4.71-9.49c.99-1.68-.81-8.93-.81-8.93-.31.54-.61 1-.91 1.49-.766 1.199-1.71 2.275-2.8 3.19-1.062.975-2.448 1.52-3.89 1.53-.378-.03-.758-.01-1.13.06-5.47 1-7-4.46-7.44-6.74-.1-.58-.13-1-.13-1l-2.32-4.9-1.46-3.07s-23.93 12.11-26 12.62c-.397.109-.771.292-1.1.54z"/>
    <path fill="#925978" d="M275.75 315.79c-.308.475-.642.932-1 1.37l3 5c.047-1.151-.027-2.304-.22-3.44l-1.78-2.93z"/>
    <path fill="#FFF" d="M274 318.01c-.336.355-.693.689-1.07 1l-.13.1 3.64 6.07c.34-.68.64-1.26.87-1.65l-3.31-5.52zM270.47 320.34l4.57 7.64c.28-.58.57-1.15.84-1.7l-3.95-6.58c-.456.276-.947.492-1.46.64zM267.56 320.64l6.1 10.18.83-1.71-5.15-8.58h-.29c-.378-.022-.757.002-1.13.07l-.36.04zM272.74 332.73l-.74.45-7.81-13c.678.362 1.432.56 2.2.58l6.75 11.25-.4.72z"/>
    <path fill="#925978" d="M255.4 305.51l5.11 8.52v-.18c-.11-.59-.14-1-.14-1l-2.32-4.89-1.46-3.07-1.19.62z"/>
    <path fill="#FFF" d="M253.03 306.7l16.58 27.64c.53-.24 1-.48 1.44-.69l-16.59-27.67-1.43.72zM250.66 307.88l16.48 27.49q.78-.29 1.5-.6l-16.55-27.6-1.43.71zM248.29 309.07l16.26 27.12c.53-.13 1.06-.29 1.58-.46l-16.41-27.37-1.43.71zM245.92 310.25l15.82 26.38c.581-.024 1.159-.091 1.73-.2l-16.13-26.89-1.42.71zM243.54 311.43l14.85 24.76c.34.002.677.056 1 .16.363.122.739.203 1.12.24L245 310.72l-1.46.71zM241.16 312.6l14.48 24.16c.516-.197 1.048-.351 1.59-.46l-14.64-24.4-1.43.7z"/>
    <path fill="#925978" d="M238.78 313.76l14.44 24.1c.49-.26 1-.49 1.44-.7l-14.45-24.09-1.43.69zM236.38 314.92l14.56 24.27c.45-.29.91-.56 1.36-.82l-14.45-24.14-1.47.69zM233.98 316.06l14.76 24.6c.42-.3.87-.6 1.31-.9l-14.62-24.33-1.45.63zM231.56 317.15l15 25.08 1.28-1-14.85-24.77-1.43.69z"/>
    <path fill="#FFF" d="M229.46 318.09l-.29.22 15.33 25.57c.36-.3.79-.64 1.25-1l-15.2-25.35c-.397.113-.767.303-1.09.56zM228.37 319.02c-.38.37-.77.78-1.14 1.2l14.81 24.69.85.32v-.05l.74-.63-15.26-25.53zM226.51 321.07c-.4.49-.76 1-1 1.34l12.61 21 2.38.88-13.99-23.22zM224.79 323.34l-.05.08.7 4.09 8.68 14.48 2.38.88-11.71-19.53z"/>
    <path fill="#925978" d="M225.93 330.38l.75 4.33 3.48 5.81 2.38.88-6.61-11.02zM227.17 337.58l.34 1.96 1.07.4-1.41-2.36z"/>
    <path d="M229.49 318.07c.77 2.43 1.59 4.63 1.59 4.63l5.67 11.81 12.55-5.43c.697-2.004 1.062-4.108 1.08-6.23-.18-2.4 1-5.83 7-7.92.35-.12.71-.24 1.1-.35.686-.195 1.355-.446 2-.75 2.929-1.26 5.203-3.679 6.28-6.68l.08-.25 8.24-5.91c-.064-.128-.138-.252-.22-.37-1.32-.24-2.27-.5-2.27-.5l-3.78-.06-10.78 7.91-1.46-3.07s-23.93 12.11-26 12.62c-.391.114-.757.301-1.08.55z" opacity=".1"/>
    <path fill="#19E51C" d="M249.51 293.09c-.693 2.446-2.199 4.584-4.27 6.06-3.49 2.51-3 3.94-3 3.94l-10.33 6.34s-1.79 2.41-3.56 2l2.51 11 5.67 11.81 12.55-5.43c.697-2.004 1.062-4.108 1.08-6.23-.19-2.54 1.09-6.23 8.11-8.26 3.829-.947 6.936-3.736 8.29-7.44.05-.16.07-.25.07-.25l8.25-5.91c-.644-1.194-1.782-2.043-3.11-2.32-.449-.066-.893-.159-1.33-.28-1.21-.36-1.78-1-1.77-2.1 0-1.51-.06-8-2.85-8.2-2.79-.2-16.31 5.27-16.31 5.27z"/>
    <path fill="#4C4981" d="M270.44 298.02l-5.24 4.7 1.36 4.06c.05-.16.07-.25.07-.25l8.25-5.91c-.644-1.194-1.782-2.043-3.11-2.32-.449-.066-.893-.159-1.33-.28z"/>
    <path fill="#00FF04" d="M270.44 298.02l-5.24 4.7 1.36 4.06c.05-.16.07-.25.07-.25l8.25-5.91c-.644-1.194-1.782-2.043-3.11-2.32-.449-.066-.893-.159-1.33-.28z" opacity=".1"/>
    <path d="M268.85 263.66l-1.88 1.13 2.54 9.2s.84.48 2.05 1.28c-.21-1-1.13-5.72-1.41-8.29-.1-.94-.12-1.59 0-1.68.12-.09.2 0 .37.07-1.01-1.05-1.67-1.71-1.67-1.71z" opacity=".1"/>
    <path fill="#19E51C" d="M251.52 259.12s-3.18 13.07-1.74 19.68c0 0 1.2 9.67-.27 14.29l15.75-2.45.56-2.92s-2.82-2-3.28-4.52l-1.24-5.24c-.135-2.357-.47-4.699-1-7-.59-1.71 1.85-2 3.7-.82.247.15.478.324.69.52-.618 1.017-.363 2.337.59 3.05.665.467 1.411.806 2.2 1 1.164.309 2.351.519 3.55.63 0 0-1.13-5.6-1.44-8.5-.11-.94-.13-1.59 0-1.67.55-.33 4.42 3.5 4.42 3.5s.19-4.82-1.91-5.82c0 0-.33 1.38-1.46.88-1.13-.5-13.4-7.3-13.4-7.3s-4.64-3.95-5.72 2.69z"/>
    <path d="M262.41 264.43l1.59 5.77c.247.15.478.324.69.52-.618 1.017-.363 2.337.59 3.05.665.467 1.411.806 2.2 1 .988.227 1.99.387 3 .48 0 0-1.13-5.6-1.45-8.49l-6.62-2.33z" opacity=".1"/>
    <path fill="#4C4981" d="M263 264.54l1.69 6.15c-.618 1.017-.363 2.337.59 3.05 1.66 1.25 5.76 1.59 5.76 1.59s-1.13-5.6-1.44-8.5l-6.6-2.29z"/>
    <path fill="#00FF04" d="M263.14 264.43l1.69 6.14c-.617 1.018-.367 2.338.58 3.06 1.67 1.25 5.77 1.58 5.77 1.58s-1.13-5.6-1.45-8.49l-6.59-2.29z" opacity=".1"/>
    <path d="M224.12 409.59l-11.48-6.46s-.36 5.34-1.2 10.54c3.95 2.5 7.62 4.88 10.71 6.56-.3-3.9 1.97-10.64 1.97-10.64zM153.75 377.48c1.347 2.28 2.944 4.403 4.76 6.33 0 0 1.16 1.61 3.19 3.86.88-.48 1.9-1 3.08-1.51 3.328-1.657 6.522-3.573 9.55-5.73l-6-9-11 4.49c-1.305.213-2.536.749-3.58 1.56z" opacity=".1"/>
    <path fill="#444053" d="M190.49 340.8c-2.06 3.23-12.08 14-12.08 14-1.674 2.161-3.185 4.444-4.52 6.83-1.76 3.3-7.16 7.41-11.29 11.13-4.13 3.72-4.13 1.23-6.57 2.57-2.44 1.34 4.82 9.1 4.82 9.1s12.29 17 26.22 17.72c13.93.72 34.29 19.11 42.75 20.94 8.46 1.83 3.21-3 6.81-4.25 3.6-1.25 5.36-5.21 5.36-5.21s-1.32-9.69-.24-11.83c1.08-2.14 2.34-10.88 2.34-10.88s0-7.73.6-9c.6-1.27.32-10.29-.12-12.9-.44-2.61 1.91-6.38 1.91-6.38s-.83-1.38.33-4.45c1.16-3.07-1-12.88-1-12.88-17.96-10.54-21.05-21.88-21.05-21.88l-2.25.69c-14.24-3.59-29.97 13.45-32.02 16.68z"/>
    <path d="M222.51 324.09s1.41 15.25 23.32 21.2c-17.98-10.52-21.07-21.86-21.07-21.86l-2.25.66zM224.91 350.35s-18.06 29.17-18.52 30.7c-.46 1.53 19.26-29.89 18.52-30.7zM223.3 341.21s-13.86 20.79-16.58 21.67c0 0 13.29-20.07 16.58-21.67zM214.85 336.29s-9.78 7-17.38 6.18l17.38-6.18zM212.16 331.79s-9.39 3.91-11.76 3.7l11.76-3.7zM233.7 358.55l.71 19.29-3.41-5.69 2.7-13.6zM291.72 294.73c-.18 1.07-.76 2.13-.46 3.17.29.716.767 1.341 1.38 1.81 1.43 1.33 2.79 3 3 4.89.26 2.77-1.95 5.31-1.72 8.08.068.852.369 1.668.87 2.36.305.418.676.783 1.1 1.08.997.69 2.226.959 3.42.75 2.053-.5 3.682-2.06 4.27-4.09.545-2.003.576-4.112.09-6.13-1-5.31-3.58-10.18-6.1-15-.171-.402-.452-.749-.81-1-.88-.51-4.26-.57-5.1.11-1.16.93 1.06 3.38.06 3.97z" opacity=".1"/>
    <path fill="#925978" d="M292.09 294.51c-.19 1.07-.76 2.13-.47 3.17.291.718.771 1.344 1.39 1.81 1.42 1.33 2.78 2.95 3 4.89.25 2.77-2 5.31-1.73 8.08.076.852.38 1.667.88 2.36.298.42.667.786 1.09 1.08 1.001.69 2.233.959 3.43.75 2.05-.502 3.675-2.062 4.26-4.09.553-2.002.588-4.111.1-6.13-1-5.31-3.58-10.18-6.1-15-.174-.401-.454-.746-.81-1-.88-.51-4.26-.57-5.1.11-1.18.89 1.06 3.38.06 3.97z"/>
    <path fill="#EFB7B9" d="M312.17 361.66l-5.69 4.35 2.13 1.51 11.55 8.19s4 8.29 11 6c0 0-4-9.39-4.76-9.69l-2.17-1.13-10.27-7.85-1.79-1.38z"/>
    <path d="M312.17 361.66l-5.69 4.35 2.13 1.51c2.69-1.71 5-3.57 5.37-4.48l-1.81-1.38zM246.64 324.93l-12.31 8 8.64 12.19c.88-.76 12-10.33 16.42-8.83 4.59 1.57 13.38-3.61 13.38-3.61s3.72-7.81 4.71-9.49c.99-1.68-.81-8.93-.81-8.93.479-.532 1.047-.975 1.68-1.31-.545-.021-1.091.012-1.63.1-2.43 1.07-3.67 2.76-3.76 5.89v.86c0 .48.05 1 .11 1.53v.25c.6 4.88-1.58 6.94-1.58 6.94-1.33 2.38-3.514 4.167-6.11 5-4.29 1.38-18.74-8.59-18.74-8.59z" opacity=".1"/>
    <path fill="#19E51C" d="M247.08 325.66l-12.31 8 9.72 13.77s4.82-2.64 6.4-4.59l9.62-5.19c9.7 3.42 13.86-2.4 13.86-2.4s11.26 17.53 12 17.61c.74.08 6.84 4.88 6.84 4.88s4.72 6.07 6.1 6.57c.52.179 1.023.406 1.5.68.14.076.274.163.4.26l-4.13 2.4c.019.052.043.102.07.15l.05.08c.597 1.049 1.468 1.917 2.52 2.51 1.87 1 14.08-6.61 13.88-8.32-.045-.321-.172-.624-.37-.88-.887-1.028-1.967-1.87-3.18-2.48l-.32-.18-.12-.06s-7.06-7.08-9.35-8.12l-10-13.46s-4-5.33-3.48-6.48c0 0-2.05-10.83-3.67-11l-2.34-2.39c1.07-2.25-.05-3-1.31-3.2-.749-.111-1.511-.111-2.26 0-2.64 1.17-3.88 3.07-3.76 6.75 0 .55.06 1.15.14 1.78.6 4.88-1.58 6.94-1.58 6.94-1.33 2.38-3.514 4.167-6.11 5-4.36 1.34-18.81-8.63-18.81-8.63z"/>
    <path d="M313.2 361.19c.082.159.133.332.15.51.2 1.71-12 9.36-13.88 8.33-.924-.527-1.712-1.264-2.3-2.15l-.05-.08c-.027-.048-.051-.098-.07-.15l4.13-2.4c-.126-.097-.26-.184-.4-.26l.18-.1c3.736-.665 6.958-3.01 8.74-6.36l3.5 2.66z" opacity=".1"/>
    <path fill="#4C4981" d="M301.18 365.25l-4.13 2.4c.593 1.152 1.511 2.104 2.64 2.74 1.87 1 14.08-6.61 13.88-8.32-.15-1.36-2.54-2.81-3.55-3.36-1.759 3.445-5.031 5.866-8.84 6.54z"/>
    <path fill="#00FF04" d="M301.18 365.25l-4.13 2.4c.593 1.152 1.511 2.104 2.64 2.74 1.87 1 14.08-6.61 13.88-8.32-.15-1.36-2.54-2.81-3.55-3.36-1.759 3.445-5.031 5.866-8.84 6.54z" opacity=".1"/>
    <path fill="#4C4981" d="M273.4 320.57l3 1.29 3-8.07c-.749-.111-1.511-.111-2.26 0-2.62 1.2-3.86 3.1-3.74 6.78z"/>
    <path fill="#00FF04" d="M273.53 320.5l3 1.28 3-8.07c-.749-.111-1.511-.111-2.26 0-2.62 1.2-3.86 3.1-3.74 6.79z" opacity=".1"/>
    <path d="M292.85 294.07c-.19 1.07-.77 2.13-.47 3.17.288.717.765 1.343 1.38 1.81 1.43 1.33 2.79 2.95 3 4.89.25 2.77-2 5.31-1.73 8.08.048.863.332 1.697.82 2.41.31.391.682.728 1.1 1 .995.695 2.226.965 3.42.75.421-.071.829-.206 1.21-.4-.575.422-1.238.709-1.94.84-1.731.312-3.488-.396-4.52-1.82-.499-.698-.803-1.516-.88-2.37-.23-2.77 2-5.31 1.73-8.08-.17-1.94-1.53-3.56-3-4.89-.621-.464-1.102-1.09-1.39-1.81-.29-1 .28-2.1.47-3.17 1-.59-1.22-3-.1-4 .177-.119.373-.207.58-.26-.68 1.08 1.24 3.29.32 3.85zM266.69 316.05s-3.9.27-4.37 2.29c0 0 3.74-3.61 3.22-4.55" opacity=".1"/>
    <path fill="#EFB7B9" d="M332.04 376.43s-10.08-4.83-8.72 1.24c1.36 6.07 8.72-1.24 8.72-1.24z"/>
    <path fill="#19E51C" d="M310.66122 341.614285l9.555-4.3575 48.97 107.38-9.555 4.3575z"/>
    <mask id="C" width="400%" height="400%" x="-200%" y="-200%">
      <rect width="400%" height="400%" x="-200%" y="-200%" fill="#fff"/>
      <path d="M192.4 164.83c-1.86 4.08-6.39 7.71-5.05 12 .69 2.21 2.8 3.63 4.76 4.86 4.58 2.9 9.25 5.9 12.57 10.18 3.32 4.28 5.12 10.15 3.2 15.22-1.31 3.47-4.15 6.15-5.81 9.47-1.901 4.192-2.287 8.915-1.09 13.36 1.199 4.419 3.049 8.636 5.49 12.51.85 1.46 1.85 3 3.44 3.58 1.187.286 2.412.387 3.63.3 4.23.16 8.05 3 10.31 6.55s3.17 7.85 3.62 12.06c.22 2.12.38 4.37 1.58 6.13 1.68 2.46 4.88 3.27 7.82 3.77 7.64 1.3 15.407 1.7 23.14 1.19"/>
    </mask>
    <path fill="none" stroke="#444053" stroke-miterlimit="10" stroke-width="2" d="M192.4 164.83c-1.86 4.08-6.39 7.71-5.05 12 .69 2.21 2.8 3.63 4.76 4.86 4.58 2.9 9.25 5.9 12.57 10.18 3.32 4.28 5.12 10.15 3.2 15.22-1.31 3.47-4.15 6.15-5.81 9.47-1.901 4.192-2.287 8.915-1.09 13.36 1.199 4.419 3.049 8.636 5.49 12.51.85 1.46 1.85 3 3.44 3.58 1.187.286 2.412.387 3.63.3 4.23.16 8.05 3 10.31 6.55s3.17 7.85 3.62 12.06c.22 2.12.38 4.37 1.58 6.13 1.68 2.46 4.88 3.27 7.82 3.77 7.64 1.3 15.407 1.7 23.14 1.19" mask="url(#C)" vector-effect="non-scaling-stroke"/>
    <path fill="none" d="M192.4 164.83c-1.86 4.08-6.39 7.71-5.05 12 .69 2.21 2.8 3.63 4.76 4.86 4.58 2.9 9.25 5.9 12.57 10.18 3.32 4.28 5.12 10.15 3.2 15.22-1.31 3.47-4.15 6.15-5.81 9.47-1.901 4.192-2.287 8.915-1.09 13.36 1.199 4.419 3.049 8.636 5.49 12.51.85 1.46 1.85 3 3.44 3.58 1.187.286 2.412.387 3.63.3 4.23.16 8.05 3 10.31 6.55s3.17 7.85 3.62 12.06c.22 2.12.38 4.37 1.58 6.13 1.68 2.46 4.88 3.27 7.82 3.77 7.64 1.3 15.407 1.7 23.14 1.19"/>
    <path fill="#444053" d="M252.83 269.78h4.67c2.506 0 4.54 2.034 4.54 4.54 0 2.506-2.034 4.54-4.54 4.54h-4.67c-2.506 0-4.54-2.034-4.54-4.54 0-2.506 2.034-4.54 4.54-4.54z"/>
    <path fill="#FFF" d="M439.953 234.799c-.697 0-1.234.479-1.477 1.111h-.017c-.914 0-1.667.753-1.667 1.667v2.779h1.112v3.716c-.033.107-.033.222 0 .33v10.784c-.033.107-.033.222 0 .329v3.178c0 .914.752 1.667 1.667 1.667h15.558c.915 0 1.667-.753 1.667-1.667v-3.23c.016-.075.016-.151 0-.226V244.35c.016-.075.016-.152 0-.226v-3.768h1.112v-2.779c0-.914-.753-1.667-1.667-1.667h-.017c-.244-.632-.78-1.111-1.477-1.111h-14.794zm0 1.111h14.794c.276 0 .493.198.539.469l.035.174.086.469h.834c.314 0 .555.241.555.555v1.667h-18.892v-1.667c0-.314.241-.555.555-.555h.851l.069-.469.035-.174c.046-.271.263-.469.539-.469zm-.938 4.446h16.67v3.334h-16.67v-3.334zm0 4.445h16.67v10.002h-16.67v-10.002zm5.001 1.111v5.002h1.111v-1.668h.92l1.633 2.432-1.441 2.014h1.111l.869-1.198.798 1.198h1.111l-1.337-2.014 1.337-1.876h-1.111l-.764 1.077-1.233-1.841c.523-.282.886-.827.886-1.459 0-.914-.753-1.667-1.667-1.667h-2.223zm1.111 1.112h1.112c.314 0 .555.241.555.555 0 .315-.241.556-.555.556h-1.112v-1.111zm-6.112 8.891h16.67v2.778c0 .314-.241.556-.556.556h-15.558c-.315 0-.556-.242-.556-.556v-2.778z"/>
  </g>
</svg>
