<?xml version="1.0" encoding="UTF-8" standalone="no"?><!-- Generator: Gravit.io --><svg xmlns="http://www.w3.org/2000/svg" xmlns:xlink="http://www.w3.org/1999/xlink" style="isolation:isolate" viewBox="0 0 511 511" width="511pt" height="511pt"><defs><clipPath id="_clipPath_6dITn19lNjRqBAKgnOEFP3swDPH0RsKX"><rect width="511" height="511"/></clipPath></defs><g clip-path="url(#_clipPath_6dITn19lNjRqBAKgnOEFP3swDPH0RsKX)"><linearGradient id="_lgradient_24" x1="-0.04789710804570251" y1="-0.10936780004429503" x2="1.0667381568003782" y2="1.0191148692733853" gradientTransform="matrix(459.051,0,0,455.213,27.987,55.786)" gradientUnits="userSpaceOnUse"><stop offset="0%" stop-opacity="1" style="stop-color:rgb(58,0,95)"/><stop offset="36.07383002218939%" stop-opacity="1" style="stop-color:rgb(39,24,126)"/><stop offset="69.53819259478631%" stop-opacity="1" style="stop-color:rgb(20,81,143)"/><stop offset="98.69565217391305%" stop-opacity="1" style="stop-color:rgb(37,113,191)"/></linearGradient><path d=" M 476.322 266.96 C 452.841 243.583 425.694 265.463 425.694 265.463 L 425.694 142.402 C 425.694 138.269 422.345 134.916 418.213 134.916 C 414.076 134.916 410.727 138.269 410.727 142.402 L 410.727 275.993 C 410.727 275.993 375.035 304.129 359.694 311.006 L 359.694 89.431 C 359.694 79.131 368.072 70.753 378.373 70.753 L 392.049 70.753 C 402.349 70.753 410.727 79.131 410.727 89.431 L 410.727 111.759 C 410.727 115.895 414.076 119.244 418.213 119.244 C 422.345 119.244 425.694 115.895 425.694 111.759 L 425.694 89.431 C 425.694 70.877 410.603 55.786 392.049 55.786 L 378.373 55.786 C 359.819 55.786 344.723 70.877 344.723 89.431 L 344.723 316.94 C 340.259 318.192 335.678 319.042 331.024 319.49 L 331.024 161.685 C 331.024 143.037 315.854 127.868 297.211 127.868 L 283.866 127.868 C 265.222 127.868 250.053 143.037 250.053 161.685 L 250.053 237.95 L 236.349 245.225 L 236.349 219.845 C 236.349 203.057 222.692 189.4 205.908 189.4 L 185.822 189.4 C 169.035 189.4 155.382 203.057 155.382 219.845 L 155.382 288.203 L 130.941 301.174 L 62.31 320.788 C 50.368 324.199 40.395 332.02 34.235 342.804 C 28.072 353.591 26.399 366.153 29.526 378.172 L 37.202 407.708 C 38.239 411.708 42.325 414.106 46.329 413.069 C 50.329 412.028 52.731 407.942 51.69 403.938 L 44.013 374.406 C 39.561 357.276 49.405 340.044 66.426 335.182 L 129.175 317.248 L 176.337 443.12 C 179.495 451.549 178.996 475.596 154.048 484.457 L 106.629 495.229 C 90.103 498.98 73.818 489.073 69.553 472.668 L 59.927 435.627 C 58.886 431.627 54.801 429.225 50.801 430.262 C 46.797 431.303 44.399 435.389 45.436 439.393 L 55.066 476.438 C 60.477 497.249 78.965 510.999 99.545 510.999 C 114.668 510.999 157.366 499.054 157.366 499.054 C 170.36 496.106 181.44 487.685 187.76 475.958 C 192.976 466.282 194.524 455.147 192.286 444.539 L 356.341 404.375 C 369.909 401.05 382.79 394.605 393.581 385.736 L 473.418 320.137 C 497.757 298.55 483.48 274.082 476.322 266.96 Z  M 283.866 142.838 L 297.211 142.838 C 307.6 142.838 316.053 151.295 316.053 161.685 L 316.053 319.864 L 268.821 319.845 C 264.481 319.806 267.483 316.94 267.721 316.745 L 281.324 305.728 C 294.014 295.447 302.302 281.155 305.955 263.24 C 308.275 251.876 303.94 240.5 294.649 233.552 C 285.971 227.065 274.809 225.817 265.023 230.106 L 265.023 161.685 C 265.023 151.295 273.476 142.838 283.866 142.838 Z  M 170.353 219.845 C 170.353 211.314 177.292 204.371 185.822 204.371 L 205.908 204.371 C 214.438 204.371 221.382 211.314 221.382 219.845 L 221.382 253.17 L 170.349 280.258 L 170.349 219.845 L 170.353 219.845 Z  M 463.917 308.574 L 384.076 374.172 C 375.008 381.627 364.185 387.042 352.782 389.833 L 187.518 430.297 L 143.074 311.689 L 269.975 244.328 C 275.133 241.587 281.008 242.043 285.682 245.54 C 290.357 249.038 292.454 254.535 291.289 260.25 C 288.345 274.671 281.823 286.059 271.901 294.094 L 258.298 305.116 C 252.723 309.63 250.669 316.917 253.062 323.681 C 255.456 330.441 261.639 334.815 268.813 334.815 L 323.351 334.839 L 323.39 334.839 C 342.805 334.839 361.464 328.936 377.347 317.767 L 438.299 274.905 C 446.833 268.901 458.322 269.962 465.612 277.424 C 469.811 281.712 478.03 294.457 463.917 308.574 L 463.917 308.574 Z " fill="url(#_lgradient_24)"/><linearGradient id="_lgradient_25" x1="-0.04789710804570251" y1="-0.10936780004429503" x2="1.0667381568003782" y2="1.0191148692733853" gradientTransform="matrix(58.979,0,0,58.983,88.692,418.422)" gradientUnits="userSpaceOnUse"><stop offset="0%" stop-opacity="1" style="stop-color:rgb(58,0,95)"/><stop offset="36.07383002218939%" stop-opacity="1" style="stop-color:rgb(39,24,126)"/><stop offset="66.95652173913044%" stop-opacity="1" style="stop-color:rgb(20,81,143)"/><stop offset="98.69565217391305%" stop-opacity="1" style="stop-color:rgb(37,113,191)"/></linearGradient><path d=" M 147.67 447.915 C 147.67 431.654 134.442 418.422 118.181 418.422 C 101.92 418.422 88.692 431.654 88.692 447.915 C 88.692 464.172 101.92 477.404 118.181 477.404 C 134.442 477.404 147.67 464.172 147.67 447.915 L 147.67 447.915 Z  M 103.662 447.915 C 103.662 439.907 110.173 433.393 118.181 433.393 C 126.185 433.393 132.7 439.907 132.7 447.915 C 132.7 455.919 126.189 462.434 118.181 462.434 C 110.173 462.434 103.662 455.919 103.662 447.915 L 103.662 447.915 Z " fill="url(#_lgradient_25)"/><linearGradient id="_lgradient_26" x1="-0.04789710804570251" y1="-0.10936780004429503" x2="1.0667381568003782" y2="1.0191148692733853" gradientTransform="matrix(304.477,0,0,242.092,24.994,0)" gradientUnits="userSpaceOnUse"><stop offset="0%" stop-opacity="1" style="stop-color:rgb(58,0,95)"/><stop offset="36.07383002218939%" stop-opacity="1" style="stop-color:rgb(39,24,126)"/><stop offset="66.95652173913044%" stop-opacity="1" style="stop-color:rgb(20,81,143)"/><stop offset="98.69565217391305%" stop-opacity="1" style="stop-color:rgb(37,113,191)"/></linearGradient><path d=" M 64.352 235.022 L 173.164 125.373 L 197.639 138.031 C 206.407 142.566 217.078 141.014 224.189 134.168 L 283.417 77.154 C 283.417 77.154 281.788 106.437 306.446 106.437 C 319.14 106.437 329.472 96.105 329.472 83.408 L 329.472 23.025 C 329.472 22.955 329.468 22.881 329.468 22.807 C 329.386 7.053 317.866 0 306.446 0 L 246.591 0 C 233.893 0 223.565 10.331 223.565 23.025 C 223.565 48.335 249.324 46.051 249.324 46.051 L 204.138 89.544 L 179.308 76.702 C 170.329 72.055 159.51 73.758 152.384 80.932 L 31.666 202.581 C 22.723 211.595 22.777 226.203 31.791 235.147 C 36.134 239.455 50.964 248.41 64.352 235.022 Z  M 42.29 213.127 L 163.008 91.478 C 164.567 89.911 167.07 87.166 172.431 90 L 202.025 105.306 C 204.875 106.78 208.345 106.277 210.657 104.051 L 273.082 43.961 C 275.281 41.844 275.975 38.6 274.832 35.77 C 273.69 32.936 270.945 31.084 267.889 31.084 L 246.591 31.084 C 242.15 31.084 238.536 27.47 238.536 23.025 C 238.536 18.585 242.15 14.971 246.591 14.971 L 306.446 14.971 C 308.649 14.971 314.497 14.971 314.497 22.979 C 314.497 23.045 314.501 23.111 314.501 23.181 L 314.501 83.408 C 314.501 87.848 310.887 91.462 306.446 91.462 C 302.002 91.462 298.388 87.848 298.388 83.408 L 298.388 59.56 C 298.388 56.558 296.595 53.844 293.834 52.671 C 291.074 51.493 287.877 52.086 285.713 54.168 L 213.807 123.384 C 211.32 125.778 207.585 126.324 204.52 124.737 L 175.164 109.552 C 172.259 108.051 168.715 108.608 166.411 110.928 L 53.729 224.476 C 48.816 229.388 43.853 226.028 42.333 224.519 C 39.183 221.388 39.163 216.277 42.29 213.127 L 42.29 213.127 Z " fill="url(#_lgradient_26)"/></g></svg>