<?xml version="1.0" encoding="UTF-8" standalone="no"?><!-- Generator: Gravit.io --><svg xmlns="http://www.w3.org/2000/svg" xmlns:xlink="http://www.w3.org/1999/xlink" style="isolation:isolate" viewBox="0 0 512 512" width="512pt" height="512pt"><defs><clipPath id="_clipPath_OLKUk1OQ45loWbZA7UcFriiWV3iah4Pp"><rect width="512" height="512"/></clipPath></defs><g clip-path="url(#_clipPath_OLKUk1OQ45loWbZA7UcFriiWV3iah4Pp)"><linearGradient id="_lgradient_22" x1="0.008877840909090828" y1="-0.28679630141801005" x2="0.9854403409090908" y2="0.9964320436772162" gradientTransform="matrix(512,0,0,390.823,0,121.178)" gradientUnits="userSpaceOnUse"><stop offset="0%" stop-opacity="1" style="stop-color:rgb(58,0,95)"/><stop offset="35.421538094148296%" stop-opacity="1" style="stop-color:rgb(39,24,126)"/><stop offset="67.3913043478261%" stop-opacity="1" style="stop-color:rgb(20,81,143)"/><stop offset="100%" stop-opacity="1" style="stop-color:rgb(37,113,191)"/></linearGradient><path d=" M 486.489 255.827 L 463.26 252.918 C 456.198 235.64 446.052 219.658 433.442 205.83 L 450.521 133.476 C 451.223 130.502 450.527 127.371 448.631 124.975 C 446.735 122.579 443.848 121.181 440.793 121.179 L 438.608 121.178 C 438.595 121.178 438.586 121.178 438.573 121.178 C 410.222 121.178 384.671 139.016 374.621 165.18 C 367.513 162.355 360.206 160.028 352.754 158.265 C 347.379 156.994 341.992 160.319 340.721 165.695 C 339.45 171.07 342.776 176.457 348.151 177.728 C 373.606 183.748 396.313 196.621 414.211 214.484 C 414.865 215.442 415.68 216.29 416.638 216.975 C 429.685 230.669 439.998 247.099 446.688 265.511 C 447.969 269.04 451.12 271.553 454.844 272.019 L 484.006 275.67 C 488.565 276.242 492.002 280.136 492.002 284.73 L 492.002 335.147 C 492.002 339.741 488.564 343.636 484.006 344.207 L 456.983 347.59 C 453.096 348.076 449.851 350.787 448.681 354.526 C 440.664 380.141 425.432 402.792 404.629 420.028 C 402.336 421.928 401.009 424.751 401.009 427.728 L 401.009 483.002 C 401.009 487.963 396.973 491.999 392.013 491.999 L 334.006 491.999 C 329.045 491.999 325.009 487.963 325.009 483.002 L 325.009 461.936 C 325.009 456.413 320.531 451.936 315.009 451.936 L 230.995 451.936 C 225.473 451.936 220.995 456.413 220.995 461.936 L 220.995 483.002 C 220.995 487.963 216.959 491.999 211.998 491.999 L 153.99 491.999 C 149.03 491.999 144.994 487.963 144.994 483.002 L 144.994 443.973 C 144.994 440.306 142.987 436.934 139.765 435.185 C 94.883 410.818 67 363.987 67 312.969 C 67 236.341 129.341 174 205.969 174 L 218.5 174 C 224.022 174 228.5 169.523 228.5 164 C 228.5 158.477 224.022 154 218.5 154 L 205.969 154 C 131.737 154 69.232 205.147 51.827 274.05 L 44.5 274.05 C 30.99 274.05 20 263.059 20 249.55 C 20 236.041 30.99 225.05 44.5 225.05 C 50.022 225.05 54.5 220.573 54.5 215.05 C 54.5 209.527 50.022 205.05 44.5 205.05 C 19.963 205.05 0 225.012 0 249.55 C 0 274.088 19.963 294.05 44.5 294.05 L 48.131 294.05 C 47.391 300.256 47 306.567 47 312.969 C 47 369.318 76.734 421.201 124.993 449.796 L 124.993 483.004 C 124.993 498.993 138.001 512.001 153.989 512.001 L 211.996 512.001 C 227.985 512.001 240.993 498.993 240.993 483.004 L 240.993 471.938 L 305.007 471.938 L 305.007 483.004 C 305.007 498.992 318.015 512.001 334.004 512.001 L 392.011 512.001 C 407.999 512.001 421.007 498.993 421.007 483.004 L 421.007 432.34 C 441.311 414.482 456.633 391.958 465.701 366.655 L 486.488 364.052 C 501.032 362.232 512 349.805 512 335.147 L 512 284.73 C 512 270.074 501.033 257.647 486.489 255.827 Z  M 416.648 189.917 C 409.188 183.815 401.198 178.409 392.794 173.767 C 398.319 157.892 411.795 146.08 427.866 142.392 L 416.648 189.917 Z " fill="url(#_lgradient_22)"/><linearGradient id="_lgradient_23" x1="0.008877840909090828" y1="-0.28679630141801005" x2="0.988399621212121" y2="0.9731711069081185" gradientTransform="matrix(20,0,0,20,381.001,251)" gradientUnits="userSpaceOnUse"><stop offset="0%" stop-opacity="1" style="stop-color:rgb(58,0,95)"/><stop offset="35.421538094148296%" stop-opacity="1" style="stop-color:rgb(39,24,126)"/><stop offset="67.3913043478261%" stop-opacity="1" style="stop-color:rgb(20,81,143)"/><stop offset="100%" stop-opacity="1" style="stop-color:rgb(37,113,191)"/></linearGradient><path d=" M 398.07 253.93 C 396.211 252.07 393.631 251 391.001 251 C 388.371 251 385.791 252.07 383.931 253.93 C 382.071 255.79 381.001 258.37 381.001 261 C 381.001 263.63 382.07 266.21 383.931 268.07 C 385.792 269.93 388.371 271 391.001 271 C 393.631 271 396.211 269.93 398.07 268.07 C 399.93 266.21 401.001 263.63 401.001 261 C 401.001 258.37 399.93 255.79 398.07 253.93 Z " fill="url(#_lgradient_23)"/><linearGradient id="_lgradient_24" x1="0.008877840909090828" y1="-0.28679630141801005" x2="0.988399621212121" y2="0.9731711069081185" gradientTransform="matrix(20,0,0,59.665,283.242,58.333)" gradientUnits="userSpaceOnUse"><stop offset="0%" stop-opacity="1" style="stop-color:rgb(58,0,95)"/><stop offset="35.421538094148296%" stop-opacity="1" style="stop-color:rgb(39,24,126)"/><stop offset="67.3913043478261%" stop-opacity="1" style="stop-color:rgb(20,81,143)"/><stop offset="100%" stop-opacity="1" style="stop-color:rgb(37,113,191)"/></linearGradient><path d=" M 293.242 58.333 C 287.72 58.333 283.242 62.81 283.242 68.333 L 283.242 107.998 C 283.242 113.521 287.72 117.998 293.242 117.998 C 298.764 117.998 303.242 113.521 303.242 107.998 L 303.242 68.333 C 303.242 62.811 298.765 58.333 293.242 58.333 Z " fill="url(#_lgradient_24)"/><linearGradient id="_lgradient_25" x1="0.008877840909090828" y1="-0.28679630141801005" x2="0.988399621212121" y2="0.9731711069081185" gradientTransform="matrix(20,0,0,20,283.241,22.05)" gradientUnits="userSpaceOnUse"><stop offset="0%" stop-opacity="1" style="stop-color:rgb(58,0,95)"/><stop offset="35.421538094148296%" stop-opacity="1" style="stop-color:rgb(39,24,126)"/><stop offset="67.3913043478261%" stop-opacity="1" style="stop-color:rgb(20,81,143)"/><stop offset="100%" stop-opacity="1" style="stop-color:rgb(37,113,191)"/></linearGradient><path d=" M 300.31 24.98 C 298.451 23.12 295.871 22.05 293.241 22.05 C 290.61 22.05 288.031 23.12 286.171 24.98 C 284.311 26.84 283.241 29.42 283.241 32.05 C 283.241 34.69 284.31 37.26 286.171 39.12 C 288.031 40.98 290.61 42.05 293.241 42.05 C 295.871 42.05 298.451 40.98 300.31 39.12 C 302.17 37.26 303.241 34.68 303.241 32.05 C 303.241 29.42 302.17 26.85 300.31 24.98 Z " fill="url(#_lgradient_25)"/><linearGradient id="_lgradient_26" x1="0.008877840909090828" y1="-0.28679630141801005" x2="0.988399621212121" y2="0.9731711069081185" gradientTransform="matrix(20,0,0,37,202,0)" gradientUnits="userSpaceOnUse"><stop offset="0%" stop-opacity="1" style="stop-color:rgb(58,0,95)"/><stop offset="35.421538094148296%" stop-opacity="1" style="stop-color:rgb(39,24,126)"/><stop offset="67.3913043478261%" stop-opacity="1" style="stop-color:rgb(20,81,143)"/><stop offset="100%" stop-opacity="1" style="stop-color:rgb(37,113,191)"/></linearGradient><path d=" M 212 0 C 206.478 0 202 4.477 202 10 L 202 27 C 202 32.523 206.478 37 212 37 C 217.522 37 222 32.523 222 27 L 222 10 C 222 4.477 217.523 0 212 0 Z " fill="url(#_lgradient_26)"/><linearGradient id="_lgradient_27" x1="0.008877840909090828" y1="-0.28679630141801005" x2="0.988399621212121" y2="0.9731711069081185" gradientTransform="matrix(20.001,0,0,20.469,93.938,302.969)" gradientUnits="userSpaceOnUse"><stop offset="0%" stop-opacity="1" style="stop-color:rgb(58,0,95)"/><stop offset="35.421538094148296%" stop-opacity="1" style="stop-color:rgb(39,24,126)"/><stop offset="67.3913043478261%" stop-opacity="1" style="stop-color:rgb(20,81,143)"/><stop offset="100%" stop-opacity="1" style="stop-color:rgb(37,113,191)"/></linearGradient><path d=" M 113.938 312.969 C 113.938 307.446 109.46 302.969 103.938 302.969 C 98.416 302.969 93.938 307.446 93.938 312.969 L 93.939 313.5 C 93.973 319.001 98.444 323.438 103.938 323.438 C 103.958 323.438 103.979 323.438 104.001 323.438 C 109.523 323.403 113.973 318.898 113.939 313.375 L 113.938 312.969 Z " fill="url(#_lgradient_27)"/><linearGradient id="_lgradient_28" x1="0.008877840909090828" y1="-0.28679630141801005" x2="0.988399621212121" y2="0.9731711069081185" gradientTransform="matrix(62.35,0,0,70.735,100.656,339.46)" gradientUnits="userSpaceOnUse"><stop offset="0%" stop-opacity="1" style="stop-color:rgb(58,0,95)"/><stop offset="35.421538094148296%" stop-opacity="1" style="stop-color:rgb(39,24,126)"/><stop offset="67.3913043478261%" stop-opacity="1" style="stop-color:rgb(20,81,143)"/><stop offset="100%" stop-opacity="1" style="stop-color:rgb(37,113,191)"/></linearGradient><path d=" M 158.203 391.651 C 140.82 381.072 127.251 364.819 119.997 345.886 C 118.02 340.727 112.237 338.148 107.081 340.126 C 101.924 342.102 99.345 347.884 101.321 353.042 C 110.151 376.089 126.66 395.868 147.807 408.736 C 149.431 409.724 151.224 410.195 152.995 410.195 C 156.37 410.195 159.665 408.486 161.548 405.392 C 164.419 400.674 162.92 394.522 158.203 391.651 Z " fill="url(#_lgradient_28)"/><linearGradient id="_lgradient_29" x1="0.008877840909090828" y1="-0.28679630141801005" x2="0.988399621212121" y2="0.9731711069081185" gradientTransform="matrix(84,0,0,84,170,48.052)" gradientUnits="userSpaceOnUse"><stop offset="0%" stop-opacity="1" style="stop-color:rgb(58,0,95)"/><stop offset="35.421538094148296%" stop-opacity="1" style="stop-color:rgb(39,24,126)"/><stop offset="67.3913043478261%" stop-opacity="1" style="stop-color:rgb(20,81,143)"/><stop offset="100%" stop-opacity="1" style="stop-color:rgb(37,113,191)"/></linearGradient><path d=" M 212 48.052 C 188.841 48.052 170 66.893 170 90.052 C 170 113.211 188.841 132.052 212 132.052 C 235.159 132.052 254 113.211 254 90.052 C 254 66.893 235.159 48.052 212 48.052 Z  M 212 112.052 C 199.869 112.052 190 102.183 190 90.052 C 190 77.921 199.869 68.052 212 68.052 C 224.131 68.052 234 77.921 234 90.052 C 234 102.183 224.131 112.052 212 112.052 Z " fill="url(#_lgradient_29)"/><linearGradient id="_lgradient_30" x1="0.008877840909090828" y1="-0.28679630141801005" x2="0.988399621212121" y2="0.9731711069081185" gradientTransform="matrix(150,0,0,84,198,148)" gradientUnits="userSpaceOnUse"><stop offset="0%" stop-opacity="1" style="stop-color:rgb(58,0,95)"/><stop offset="35.421538094148296%" stop-opacity="1" style="stop-color:rgb(39,24,126)"/><stop offset="67.3913043478261%" stop-opacity="1" style="stop-color:rgb(20,81,143)"/><stop offset="100%" stop-opacity="1" style="stop-color:rgb(37,113,191)"/></linearGradient><path d=" M 338 212 L 329 212 C 332.954 205.597 335.242 198.062 335.242 190 C 335.242 166.841 316.401 148 293.242 148 C 270.083 148 251.242 166.841 251.242 190 C 251.241 198.062 253.529 205.597 257.483 212 L 208 212 C 202.478 212 198 216.477 198 222 C 198 227.523 202.478 232 208 232 L 338 232 C 343.522 232 348 227.523 348 222 C 348 216.477 343.523 212 338 212 Z  M 293.242 212 C 281.111 212 271.242 202.131 271.242 190 C 271.242 177.869 281.111 168 293.242 168 C 305.373 168 315.242 177.869 315.242 190 C 315.242 202.131 305.372 212 293.242 212 Z " fill="url(#_lgradient_30)"/></g></svg>