<?xml version="1.0" encoding="UTF-8" standalone="no"?><!-- Generator: Gravit.io --><svg xmlns="http://www.w3.org/2000/svg" xmlns:xlink="http://www.w3.org/1999/xlink" style="isolation:isolate" viewBox="0 0 512 512" width="512pt" height="512pt"><defs><clipPath id="_clipPath_gqOVU7gI3wW7Vbg4Ogh7sf8b31HneO1D"><rect width="512" height="512"/></clipPath></defs><g clip-path="url(#_clipPath_gqOVU7gI3wW7Vbg4Ogh7sf8b31HneO1D)"><linearGradient id="_lgradient_5" x1="-0.17279411764705885" y1="-0.1654411764705881" x2="1.7186532507739938" y2="1.7185887512899896" gradientTransform="matrix(272,0,0,272,48,48)" gradientUnits="userSpaceOnUse"><stop offset="0%" stop-opacity="1" style="stop-color:rgb(58,0,95)"/><stop offset="29.130434782608695%" stop-opacity="1" style="stop-color:rgb(39,24,126)"/><stop offset="71.73913043478261%" stop-opacity="1" style="stop-color:rgb(20,81,143)"/><stop offset="99.1304347826087%" stop-opacity="1" style="stop-color:rgb(37,113,191)"/></linearGradient><path d=" M 184 48 C 108.889 48 48 108.889 48 184 C 48 259.111 108.889 320 184 320 C 259.111 320 320 259.111 320 184 C 319.916 108.924 259.076 48.084 184 48 L 184 48 Z  M 184 304 C 117.726 304 64 250.274 64 184 C 64 117.726 117.726 64 184 64 C 250.274 64 304 117.726 304 184 C 303.925 250.243 250.243 303.925 184 304 L 184 304 Z " fill="url(#_lgradient_5)"/><linearGradient id="_lgradient_6" x1="-0.17279411764705885" y1="-0.1654411764705881" x2="1.7186532507739938" y2="1.7185887512899896" gradientTransform="matrix(480.348,0,0,480.348,14.724,14.724)" gradientUnits="userSpaceOnUse"><stop offset="0%" stop-opacity="1" style="stop-color:rgb(58,0,95)"/><stop offset="29.130434782608695%" stop-opacity="1" style="stop-color:rgb(39,24,126)"/><stop offset="71.73913043478261%" stop-opacity="1" style="stop-color:rgb(20,81,143)"/><stop offset="99.1304347826087%" stop-opacity="1" style="stop-color:rgb(37,113,191)"/></linearGradient><path d=" M 347.72 291.152 C 344.546 288.151 339.582 288.151 336.408 291.152 L 330.752 296.8 L 318.4 284.416 C 371.404 213.585 360.667 113.835 293.802 55.907 C 226.938 -2.021 126.677 1.564 64.12 64.12 C 1.564 126.677 -2.021 226.938 55.907 293.802 C 113.835 360.667 213.585 371.404 284.416 318.4 L 296.8 330.752 L 291.152 336.408 C 288.029 339.532 288.029 344.596 291.152 347.72 L 426.912 483.48 C 442.553 498.984 467.784 498.929 483.356 483.356 C 498.929 467.784 498.984 442.553 483.48 426.912 L 347.72 291.152 Z  M 32 184 C 32 100.053 100.053 32 184 32 C 267.947 32 336 100.053 336 184 C 336 267.947 267.947 336 184 336 C 100.091 335.907 32.093 267.909 32 184 Z  M 308.128 296.8 L 319.408 308.08 L 308.08 319.408 L 296.8 308.128 Q 302.744 302.744 308.128 296.8 Z  M 472.168 472.168 C 462.666 481.225 447.726 481.225 438.224 472.168 L 308.12 342.064 L 342.064 308.12 L 472.168 438.224 C 476.67 442.725 479.199 448.83 479.199 455.196 C 479.199 461.562 476.67 467.667 472.168 472.168 Z " fill="url(#_lgradient_6)"/><linearGradient id="_lgradient_7" x1="-0.17279411764705885" y1="-0.1654411764705881" x2="1.7186532507739938" y2="1.7185887512899896" gradientTransform="matrix(11.312,-11.312,11.312,11.312,440.868,452.28)" gradientUnits="userSpaceOnUse"><stop offset="0%" stop-opacity="1" style="stop-color:rgb(58,0,95)"/><stop offset="29.130434782608695%" stop-opacity="1" style="stop-color:rgb(39,24,126)"/><stop offset="71.73913043478261%" stop-opacity="1" style="stop-color:rgb(20,81,143)"/><stop offset="99.1304347826087%" stop-opacity="1" style="stop-color:rgb(37,113,191)"/></linearGradient><path d=" M 440.868 452.28 L 452.18 440.968 L 463.492 452.28 L 452.18 463.592 L 440.868 452.28 Z " fill="url(#_lgradient_7)"/><linearGradient id="_lgradient_8" x1="1.1670424328147126" y1="-7.813883736881534" x2="0.49821380183131303" y2="2.81067242142457" gradientTransform="matrix(11.312,-11.312,45.242,45.242,384.317,395.72)" gradientUnits="userSpaceOnUse"><stop offset="0%" stop-opacity="1" style="stop-color:rgb(58,0,95)"/><stop offset="74.95481904789618%" stop-opacity="1" style="stop-color:rgb(39,24,126)"/><stop offset="79.75489210242455%" stop-opacity="1" style="stop-color:rgb(20,81,143)"/><stop offset="99.1304347826087%" stop-opacity="1" style="stop-color:rgb(37,113,191)"/></linearGradient><path d=" M 384.317 395.72 L 395.629 384.408 L 440.871 429.65 L 429.559 440.962 L 384.317 395.72 Z " fill="url(#_lgradient_8)"/><linearGradient id="_lgradient_9" x1="-0.17279411764705885" y1="-0.1654411764705881" x2="1.7186532507739938" y2="1.7185887512899896" gradientTransform="matrix(144,0,0,208.004,112,80)" gradientUnits="userSpaceOnUse"><stop offset="0%" stop-opacity="1" style="stop-color:rgb(58,0,95)"/><stop offset="29.130434782608695%" stop-opacity="1" style="stop-color:rgb(39,24,126)"/><stop offset="71.73913043478261%" stop-opacity="1" style="stop-color:rgb(20,81,143)"/><stop offset="99.1304347826087%" stop-opacity="1" style="stop-color:rgb(37,113,191)"/></linearGradient><path d=" M 184 80 C 144.254 80.044 112.044 112.254 112 152 C 112 202.224 175.072 281.6 177.752 285 C 179.27 286.899 181.569 288.004 184 288.004 C 186.431 288.004 188.73 286.899 190.248 285 C 192.928 281.64 256 202.224 256 152 C 255.956 112.254 223.746 80.044 184 80 L 184 80 Z  M 184 266.832 C 168.208 245.6 128 188.096 128 152 C 128 121.072 153.072 96 184 96 C 214.928 96 240 121.072 240 152 C 240 188.056 199.784 245.6 184 266.832 Z " fill="url(#_lgradient_9)"/><linearGradient id="_lgradient_10" x1="-0.17279411764705885" y1="-0.1654411764705881" x2="1.7186532507739938" y2="1.7185887512899896" gradientTransform="matrix(80,0,0,80,144,112)" gradientUnits="userSpaceOnUse"><stop offset="0%" stop-opacity="1" style="stop-color:rgb(58,0,95)"/><stop offset="29.130434782608695%" stop-opacity="1" style="stop-color:rgb(39,24,126)"/><stop offset="71.73913043478261%" stop-opacity="1" style="stop-color:rgb(20,81,143)"/><stop offset="99.1304347826087%" stop-opacity="1" style="stop-color:rgb(37,113,191)"/></linearGradient><path d=" M 184 112 C 161.909 112 144 129.909 144 152 C 144 174.091 161.909 192 184 192 C 206.091 192 224 174.091 224 152 C 223.974 129.92 206.08 112.026 184 112 L 184 112 Z  M 184 176 C 170.745 176 160 165.255 160 152 C 160 138.745 170.745 128 184 128 C 197.255 128 208 138.745 208 152 C 208 165.255 197.255 176 184 176 Z " fill="url(#_lgradient_10)"/><linearGradient id="_lgradient_11" x1="-0.17279411764705885" y1="-0.1654411764705881" x2="1.7186532507739938" y2="1.7185887512899896" gradientTransform="matrix(28.27,0,0,28.263,169.865,137.868)" gradientUnits="userSpaceOnUse"><stop offset="0%" stop-opacity="1" style="stop-color:rgb(58,0,95)"/><stop offset="29.130434782608695%" stop-opacity="1" style="stop-color:rgb(39,24,126)"/><stop offset="71.73913043478261%" stop-opacity="1" style="stop-color:rgb(20,81,143)"/><stop offset="99.1304347826087%" stop-opacity="1" style="stop-color:rgb(37,113,191)"/></linearGradient><path d=" M 178.763 166.132 C 181.041 166.129 183.32 165.263 185.055 163.53 L 195.529 153.054 C 197.209 151.374 198.135 149.14 198.135 146.762 C 198.135 144.386 197.209 142.152 195.529 140.47 C 192.06 137.001 186.416 137.001 182.947 140.47 L 172.471 150.946 C 170.791 152.626 169.865 154.862 169.865 157.238 C 169.865 159.614 170.791 161.848 172.471 163.53 C 174.206 165.263 176.482 166.132 178.763 166.132 Z  M 185.802 143.327 C 186.75 142.38 187.994 141.906 189.237 141.906 C 190.482 141.906 191.726 142.38 192.674 143.327 L 192.674 143.327 C 193.592 144.244 194.097 145.465 194.097 146.762 C 194.097 148.06 193.592 149.279 192.672 150.197 L 188.862 154.006 L 181.992 147.136 L 185.802 143.327 Z  M 175.326 153.803 L 179.138 149.993 L 186.008 156.863 L 182.198 160.673 C 180.303 162.568 177.221 162.568 175.326 160.673 C 174.408 159.755 173.903 158.534 173.903 157.238 C 173.903 155.939 174.408 154.72 175.326 153.803 Z " fill="url(#_lgradient_11)"/><linearGradient id="_lgradient_12" x1="-0.17279411764705885" y1="-0.1654411764705881" x2="1.7186532507739938" y2="1.7185887512899896" gradientTransform="matrix(80,0,0,112,416,16)" gradientUnits="userSpaceOnUse"><stop offset="0%" stop-opacity="1" style="stop-color:rgb(58,0,95)"/><stop offset="29.130434782608695%" stop-opacity="1" style="stop-color:rgb(39,24,126)"/><stop offset="71.73913043478261%" stop-opacity="1" style="stop-color:rgb(20,81,143)"/><stop offset="99.1304347826087%" stop-opacity="1" style="stop-color:rgb(37,113,191)"/></linearGradient><path d=" M 456 128 C 458.43 128.001 460.729 126.897 462.248 125 C 465.704 120.68 496 82.056 496 56 C 496 33.909 478.091 16 456 16 C 433.909 16 416 33.909 416 56 C 416 82.056 446.296 120.68 449.752 125 C 451.271 126.897 453.57 128.001 456 128 Z  M 456 32 C 469.255 32 480 42.745 480 56 C 480 69.944 465.896 92.8 456 106.672 C 446.096 92.8 432 69.968 432 56 C 432 42.745 442.745 32 456 32 Z " fill="url(#_lgradient_12)"/><linearGradient id="_lgradient_13" x1="-0.17279411764705885" y1="-0.1654411764705881" x2="1.7186532507739938" y2="1.7185887512899896" gradientTransform="matrix(16,0,0,16,448,48)" gradientUnits="userSpaceOnUse"><stop offset="0%" stop-opacity="1" style="stop-color:rgb(58,0,95)"/><stop offset="29.130434782608695%" stop-opacity="1" style="stop-color:rgb(39,24,126)"/><stop offset="71.73913043478261%" stop-opacity="1" style="stop-color:rgb(20,81,143)"/><stop offset="99.1304347826087%" stop-opacity="1" style="stop-color:rgb(37,113,191)"/></linearGradient><path d=" M 448 48 L 464 48 L 464 64 L 448 64 L 448 48 Z " fill="url(#_lgradient_13)"/><linearGradient id="_lgradient_14" x1="-0.17279411764705885" y1="-0.1654411764705881" x2="1.7186532507739938" y2="1.7185887512899896" gradientTransform="matrix(80,0,0,112.004,16,376)" gradientUnits="userSpaceOnUse"><stop offset="0%" stop-opacity="1" style="stop-color:rgb(58,0,95)"/><stop offset="29.130434782608695%" stop-opacity="1" style="stop-color:rgb(39,24,126)"/><stop offset="71.73913043478261%" stop-opacity="1" style="stop-color:rgb(20,81,143)"/><stop offset="99.1304347826087%" stop-opacity="1" style="stop-color:rgb(37,113,191)"/></linearGradient><path d=" M 56 376 C 33.92 376.026 16.026 393.92 16 416 C 16 442.056 46.296 480.68 49.752 485 C 51.27 486.899 53.569 488.004 56 488.004 C 58.431 488.004 60.73 486.899 62.248 485 C 65.704 480.68 96 442.056 96 416 C 95.974 393.92 78.08 376.026 56 376 L 56 376 Z  M 56 466.672 C 46.096 452.8 32 429.968 32 416 C 32 402.745 42.745 392 56 392 C 69.255 392 80 402.745 80 416 C 80 429.944 65.896 452.8 56 466.672 Z " fill="url(#_lgradient_14)"/><linearGradient id="_lgradient_15" x1="-0.17279411764705885" y1="-0.1654411764705881" x2="1.7186532507739938" y2="1.7185887512899896" gradientTransform="matrix(16,0,0,16,48,408)" gradientUnits="userSpaceOnUse"><stop offset="0%" stop-opacity="1" style="stop-color:rgb(58,0,95)"/><stop offset="29.130434782608695%" stop-opacity="1" style="stop-color:rgb(39,24,126)"/><stop offset="71.73913043478261%" stop-opacity="1" style="stop-color:rgb(20,81,143)"/><stop offset="99.1304347826087%" stop-opacity="1" style="stop-color:rgb(37,113,191)"/></linearGradient><path d=" M 48 408 L 64 408 L 64 424 L 48 424 L 48 408 Z " fill="url(#_lgradient_15)"/><linearGradient id="_lgradient_16" x1="-0.17279411764705885" y1="-0.1654411764705881" x2="1.7186532507739938" y2="1.7185887512899896" gradientTransform="matrix(16,0,0,32,448,144)" gradientUnits="userSpaceOnUse"><stop offset="0%" stop-opacity="1" style="stop-color:rgb(58,0,95)"/><stop offset="29.130434782608695%" stop-opacity="1" style="stop-color:rgb(39,24,126)"/><stop offset="71.73913043478261%" stop-opacity="1" style="stop-color:rgb(20,81,143)"/><stop offset="99.1304347826087%" stop-opacity="1" style="stop-color:rgb(37,113,191)"/></linearGradient><path d=" M 448 144 L 464 144 L 464 176 L 448 176 L 448 144 Z " fill="url(#_lgradient_16)"/><linearGradient id="_lgradient_17" x1="-0.17279411764705885" y1="-0.1654411764705881" x2="1.7186532507739938" y2="1.7185887512899896" gradientTransform="matrix(16,0,0,32,448,192)" gradientUnits="userSpaceOnUse"><stop offset="0%" stop-opacity="1" style="stop-color:rgb(58,0,95)"/><stop offset="29.130434782608695%" stop-opacity="1" style="stop-color:rgb(39,24,126)"/><stop offset="71.73913043478261%" stop-opacity="1" style="stop-color:rgb(20,81,143)"/><stop offset="99.1304347826087%" stop-opacity="1" style="stop-color:rgb(37,113,191)"/></linearGradient><path d=" M 448 192 L 464 192 L 464 224 L 448 224 L 448 192 Z " fill="url(#_lgradient_17)"/><linearGradient id="_lgradient_18" x1="-0.17279411764705885" y1="-0.1654411764705881" x2="1.7186532507739938" y2="1.7185887512899896" gradientTransform="matrix(32,0,0,16,432,240)" gradientUnits="userSpaceOnUse"><stop offset="0%" stop-opacity="1" style="stop-color:rgb(58,0,95)"/><stop offset="29.130434782608695%" stop-opacity="1" style="stop-color:rgb(39,24,126)"/><stop offset="71.73913043478261%" stop-opacity="1" style="stop-color:rgb(20,81,143)"/><stop offset="99.1304347826087%" stop-opacity="1" style="stop-color:rgb(37,113,191)"/></linearGradient><path d=" M 432 240 L 464 240 L 464 256 L 432 256 L 432 240 Z " fill="url(#_lgradient_18)"/><linearGradient id="_lgradient_19" x1="-0.17279411764705885" y1="-0.1654411764705881" x2="1.7186532507739938" y2="1.7185887512899896" gradientTransform="matrix(32,0,0,16,384,240)" gradientUnits="userSpaceOnUse"><stop offset="0%" stop-opacity="1" style="stop-color:rgb(58,0,95)"/><stop offset="29.130434782608695%" stop-opacity="1" style="stop-color:rgb(39,24,126)"/><stop offset="71.73913043478261%" stop-opacity="1" style="stop-color:rgb(20,81,143)"/><stop offset="99.1304347826087%" stop-opacity="1" style="stop-color:rgb(37,113,191)"/></linearGradient><path d=" M 384 240 L 416 240 L 416 256 L 384 256 L 384 240 Z " fill="url(#_lgradient_19)"/><linearGradient id="_lgradient_20" x1="-0.17279411764705885" y1="-0.1654411764705881" x2="1.7186532507739938" y2="1.7185887512899896" gradientTransform="matrix(32,0,0,16,128,472)" gradientUnits="userSpaceOnUse"><stop offset="0%" stop-opacity="1" style="stop-color:rgb(58,0,95)"/><stop offset="29.130434782608695%" stop-opacity="1" style="stop-color:rgb(39,24,126)"/><stop offset="71.73913043478261%" stop-opacity="1" style="stop-color:rgb(20,81,143)"/><stop offset="99.1304347826087%" stop-opacity="1" style="stop-color:rgb(37,113,191)"/></linearGradient><path d=" M 128 472 L 160 472 L 160 488 L 128 488 L 128 472 Z " fill="url(#_lgradient_20)"/><linearGradient id="_lgradient_21" x1="-0.17279411764705885" y1="-0.1654411764705881" x2="1.7186532507739938" y2="1.7185887512899896" gradientTransform="matrix(32,0,0,16,80,472)" gradientUnits="userSpaceOnUse"><stop offset="0%" stop-opacity="1" style="stop-color:rgb(58,0,95)"/><stop offset="29.130434782608695%" stop-opacity="1" style="stop-color:rgb(39,24,126)"/><stop offset="71.73913043478261%" stop-opacity="1" style="stop-color:rgb(20,81,143)"/><stop offset="99.1304347826087%" stop-opacity="1" style="stop-color:rgb(37,113,191)"/></linearGradient><path d=" M 80 472 L 112 472 L 112 488 L 80 488 L 80 472 Z " fill="url(#_lgradient_21)"/><linearGradient id="_lgradient_22" x1="-0.17279411764705885" y1="-0.1654411764705881" x2="1.7186532507739938" y2="1.7185887512899896" gradientTransform="matrix(16,0,0,32,176,408)" gradientUnits="userSpaceOnUse"><stop offset="0%" stop-opacity="1" style="stop-color:rgb(58,0,95)"/><stop offset="29.130434782608695%" stop-opacity="1" style="stop-color:rgb(39,24,126)"/><stop offset="71.73913043478261%" stop-opacity="1" style="stop-color:rgb(20,81,143)"/><stop offset="99.1304347826087%" stop-opacity="1" style="stop-color:rgb(37,113,191)"/></linearGradient><path d=" M 176 408 L 192 408 L 192 440 L 176 440 L 176 408 Z " fill="url(#_lgradient_22)"/><linearGradient id="_lgradient_23" x1="-10.750000000000007" y1="-14.062499999999979" x2="21.404605263157897" y2="1.9832785087719351" gradientTransform="matrix(16,0,0,32,176,456)" gradientUnits="userSpaceOnUse"><stop offset="0%" stop-opacity="1" style="stop-color:rgb(58,0,95)"/><stop offset="29.130434782608695%" stop-opacity="1" style="stop-color:rgb(39,24,126)"/><stop offset="71.73913043478261%" stop-opacity="1" style="stop-color:rgb(20,81,143)"/><stop offset="99.1304347826087%" stop-opacity="1" style="stop-color:rgb(37,113,191)"/></linearGradient><path d=" M 176 456 L 192 456 L 192 488 L 176 488 L 176 456 Z " fill="url(#_lgradient_23)"/></g></svg>