<svg xmlns="http://www.w3.org/2000/svg" style="isolation:isolate" viewBox="0 0 1113.61 844.14">
  <defs>
    <clipPath id="a">
      <path d="M0 0h1113.61v844.14H0z"/>
    </clipPath>
  </defs>
  <g clip-path="url(#a)">
    <path fill="#19E51C" d="M1047 458.22c-39.15 53.72-26.23 130.4-3.6 191.49 7.58 20.45 16.19 42.08 12.26 64.33-4.8 27.2-27.36 47.58-50.81 58.68-42.75 20.23-93.25 17-131.49-8.49-33-22-56.23-58.56-89.87-79.51-56.3-35.05-129.39-19.39-192.05 7.37-44.33 18.93-92.89 43.31-136.09 25.83-30.4-12.3-50.87-43.61-61.64-77.08-5.2-16.16-8.84-33.7-19.2-46.35-6.16-7.52-14.3-12.76-22.67-17.14-76.39-40-174.65-15-248.71-59.63-50-30.14-81.12-88.63-94.05-150.12C-3.85 306.11-.65 241.2 4.5 177.4c3.66-45.34 9.45-93.79 36.71-129.42C70.04 10.31 118.36-4.66 161.57 1.24c43.21 5.9 81.95 29.9 115.84 58.55 42.39 35.74 81.39 80.61 134.11 94.18 35.91 9.24 74.06 2.7 111.39-.19 62.4-4.82 124.58.73 186.38 7 59.16 6 118.73 12.7 174.76 32.37 39.65 13.92 71.08 40.23 108.41 58.21 24.33 11.72 51.1 14.44 74 29.58 28.26 18.65 53.8 51.69 45.51 91.34-7.83 37.69-44.17 57.43-64.97 85.94z" opacity=".1"/>
    <g opacity=".5">
      <g opacity=".5">
        <mask id="b" width="400%" height="400%" x="-200%" y="-200%">
          <rect width="400%" height="400%" x="-200%" y="-200%" fill="#fff"/>
          <path d="M854.99 703.24s3.3-97.76 56.19-153c22.2-23.18 36.78-52.62 40.64-84.48 1.804-15.12 2.219-30.374 1.24-45.57"/>
        </mask>
        <path fill="none" stroke="#535461" stroke-miterlimit="10" stroke-width="4" d="M854.99 703.24s3.3-97.76 56.19-153c22.2-23.18 36.78-52.62 40.64-84.48 1.804-15.12 2.219-30.374 1.24-45.57" mask="url(#b)" vector-effect="non-scaling-stroke"/>
        <path fill="none" d="M854.99 703.24s3.3-97.76 56.19-153c22.2-23.18 36.78-52.62 40.64-84.48 1.804-15.12 2.219-30.374 1.24-45.57"/>
      </g>
      <path fill="#19E51C" d="M986.19 385.2c-3.62 10.92-33.88 36-33.88 36s-9.27-38.21-5.65-49.12c3.62-10.916 15.404-16.83 26.32-13.21 10.916 3.62 16.83 15.404 13.21 26.32v.01zM998.8 456.5c-9 7.2-48 11.82-48 11.82s13-37.11 22-44.3c5.765-5.018 13.816-6.474 20.973-3.793 7.157 2.682 12.27 9.069 13.319 16.639 1.049 7.571-2.134 15.107-8.292 19.634zM963.12 559.34c-11.38 1.68-47.41-14-47.41-14s29.94-25.48 41.32-27.16c7.36-1.088 14.741 1.833 19.363 7.663s5.782 13.682 3.045 20.6c-2.738 6.918-8.958 11.849-16.318 12.937v-.04zM918.59 631.08c-10.93 3.58-49.1-5.82-49.1-5.82s25.21-30.17 36.14-33.75c10.927-3.59 22.695 2.358 26.285 13.285s-2.358 22.695-13.285 26.285h-.04zM908.59 456.67c5.31 10.2 39.21 30.17 39.21 30.17s3.08-39.19-2.23-49.4c-5.307-10.201-17.879-14.167-28.08-8.86-10.201 5.307-14.167 17.879-8.86 28.08l-.04.01zM857.58 541.22c8.12 8.15 46.4 17.07 46.4 17.07s-8.79-38.32-16.9-46.47c-8.116-8.146-21.299-8.171-29.445-.055s-8.171 21.299-.055 29.445v.01zM819.28 630.21c6.62 9.4 42.85 24.67 42.85 24.67s-2.18-39.25-8.81-48.66c-4.177-6.352-11.483-9.923-19.061-9.315-7.578.608-14.222 5.298-17.333 12.235-3.11 6.937-2.193 15.017 2.394 21.08l-.04-.01z" opacity=".5"/>
      <g opacity=".5">
        <mask id="c" width="400%" height="400%" x="-200%" y="-200%">
          <rect width="400%" height="400%" x="-200%" y="-200%" fill="#fff"/>
          <path d="M866.61 662.78s-30-43.64-24.74-84.7c2.318-17.208-1.009-34.703-9.48-49.86-4.079-7.164-8.805-13.939-14.12-20.24"/>
        </mask>
        <path fill="none" stroke="#535461" stroke-miterlimit="10" stroke-width="4" d="M866.61 662.78s-30-43.64-24.74-84.7c2.318-17.208-1.009-34.703-9.48-49.86-4.079-7.164-8.805-13.939-14.12-20.24" mask="url(#c)" vector-effect="non-scaling-stroke"/>
        <path fill="none" d="M866.61 662.78s-30-43.64-24.74-84.7c2.318-17.208-1.009-34.703-9.48-49.86-4.079-7.164-8.805-13.939-14.12-20.24"/>
      </g>
      <path fill="#19E51C" d="M821.44 482.08c1.93 5.92-3.17 26.58-3.17 26.58s-16.33-13.66-18.26-19.57c-1.933-5.918 1.297-12.282 7.215-14.215 5.918-1.933 12.282 1.297 14.215 7.215v-.01zM849.87 509.07c-1.59 6-17.11 20.59-17.11 20.59s-6.28-20.34-4.69-26.36c1.593-6.02 7.765-9.608 13.785-8.015 6.02 1.593 9.608 7.765 8.015 13.785zM867.41 565.33c-4.41 4.39-25.16 9.14-25.16 9.14s4.84-20.73 9.26-25.12c4.418-4.391 11.559-4.368 15.95.05s4.368 11.559-.05 15.95v-.02zM871.1 610.9c-3.61 5.07-23.3 13.24-23.3 13.24s1.27-21.25 4.88-26.32c3.606-5.075 10.645-6.266 15.72-2.66 5.075 3.606 6.266 10.645 2.66 15.72l.04.02zM810.64 538.14c5.59 2.74 26.76.54 26.76.54s-11.27-18.06-16.86-20.79c-5.592-2.734-12.341-.417-15.075 5.175s-.417 12.341 5.175 15.075zM815.63 591.39c6.16.94 25.7-7.49 25.7-7.49s-16.16-13.86-22.31-14.76c-6.155-.936-11.904 3.295-12.84 9.45-.936 6.155 3.295 11.904 9.45 12.84v-.04zM827.57 642.46c5.91 2 26.6-3 26.6-3s-13.58-16.39-19.49-18.36c-5.909-1.963-12.292 1.236-14.255 7.145-1.963 5.909 1.236 12.292 7.145 14.255v-.04z" opacity=".5"/>
      <path fill="#FFF" d="M821.44 482.08c1.93 5.92-3.17 26.58-3.17 26.58s-16.33-13.66-18.26-19.57c-1.933-5.918 1.297-12.282 7.215-14.215 5.918-1.933 12.282 1.297 14.215 7.215v-.01zM849.87 509.07c-1.59 6-17.11 20.59-17.11 20.59s-6.28-20.34-4.69-26.36c1.593-6.02 7.765-9.608 13.785-8.015 6.02 1.593 9.608 7.765 8.015 13.785zM867.41 565.33c-4.41 4.39-25.16 9.14-25.16 9.14s4.84-20.73 9.26-25.12c4.418-4.391 11.559-4.368 15.95.05s4.368 11.559-.05 15.95v-.02zM871.1 610.9c-3.61 5.07-23.3 13.24-23.3 13.24s1.27-21.25 4.88-26.32c3.606-5.075 10.645-6.266 15.72-2.66 5.075 3.606 6.266 10.645 2.66 15.72l.04.02zM810.64 538.14c5.59 2.74 26.76.54 26.76.54s-11.27-18.06-16.86-20.79c-5.592-2.734-12.341-.417-15.075 5.175s-.417 12.341 5.175 15.075zM815.63 591.39c6.16.94 25.7-7.49 25.7-7.49s-16.16-13.86-22.31-14.76c-6.155-.936-11.904 3.295-12.84 9.45-.936 6.155 3.295 11.904 9.45 12.84v-.04zM827.57 642.46c5.91 2 26.6-3 26.6-3s-13.58-16.39-19.49-18.36c-5.909-1.963-12.292 1.236-14.255 7.145-1.963 5.909 1.236 12.292 7.145 14.255v-.04z" opacity=".5"/>
      <path fill="#474059" d="M811.1 781.11h85.33l21.34-130.13h-128l21.33 130.13z" opacity=".5"/>
      <path d="M806.1 650.98l19.93 121.6h71.8l-1.4 8.53H811.1l-21.33-130.13h16.33z" opacity=".1"/>
    </g>
    <linearGradient id="d" x1=".5" x2=".5" y1="1.00001324" y2="0" gradientTransform="matrix(626 0 0 755.3 201.28 39.29)" gradientUnits="userSpaceOnUse">
      <stop offset="0%" stop-color="gray" stop-opacity=".25"/>
      <stop offset="54%" stop-color="gray" stop-opacity=".12"/>
      <stop offset="100%" stop-color="gray" stop-opacity=".1"/>
    </linearGradient>
    <path fill="url(#d)" d="M201.28 39.29h626v755.3h-626z"/>
    <path fill="#FFF" d="M209.28 48.95h610v736h-610z"/>
    <path fill="#C0BCCF" d="M446.28 131.95h246v12h-246zM446.28 169.95h246v12h-246z"/>
    <path fill="#19E51C" d="M505.28 207.95h128v12h-128z"/>
    <path fill="#C0BCCF" d="M446.28 372.95h246v12h-246zM446.28 410.95h246v12h-246z" opacity=".5"/>
    <path fill="#19E51C" d="M505.28 448.95h128v12h-128z" opacity=".5"/>
    <path fill="#C0BCCF" d="M446.28 613.95h246v12h-246zM446.28 651.95h246v12h-246z" opacity=".5"/>
    <path fill="#19E51C" d="M505.28 689.95h128v12h-128z" opacity=".5"/>
    <linearGradient id="e" x1="0" x2="0" y1=".5" y2="-.5" gradientTransform="matrix(167.386 0 0 543.041 575.94 301.038)" gradientUnits="userSpaceOnUse">
      <stop offset="0%" stop-color="gray" stop-opacity=".1"/>
    </linearGradient>
    <path fill="url(#e)" d="M578.41 578.7h.15c.22 6.7 1.17 12.76 3 14.44 4.36 4 22.44-4 21.2-8.84-.25-1-.67-2.64-1.2-4.71 4.88-.61 9.05-2 10.71-4.86l3.14 9.68.22.69h.24c2.07 19.62 6.76 60.36 10.51 65.82 5 7.23 10.75 38.56 10.75 38.56l10.75 64.27s4.14 37 6.62 41c.721.764 1.68 1.261 2.72 1.41-1.45 4.34-3.53 9.41-6 12.24-5 5.62-11.58 16.87-17.37 16.07-5.79-.8-7.44 11.25 3.31 12.85 5.95.89 15.44-.19 22.73-1.33 0 3.22 2.24 6.92 7.87 7.76 10.75 1.61 33.08-3.21 33.08-3.21s19-8 19.85-13.66c.6-4.1-2.31-20.56-3.93-29.19 3-4.81-.2-46.32-.2-46.32l-5.79-79.53s3.31-44.18 0-52.22c-2.07-5-2.84-28-3.13-44.45l4 .26c.227-.275.435-.565.62-.87l1 .07s5-5.62.83-14.46c-3.07-6.57-2.49-36.23-2-51l.59-7c.219-.213.387-.473.49-.76 7.756-1.048 15.295-3.33 22.33-6.76 2.123-.883 4.099-2.083 5.86-3.56 4.14-4 1.65-28.12-6.62-64.27-8.27-36.15-15.71-32.94-15.71-32.94s-19.85-1.61-28.95-13.66c-9.1-12.05-15.21-11.89-15.21-11.89-.23-1.58-.39-3.07-.5-4.46 0-.52-.08-1-.11-1.52 3.094-2.877 5.453-6.454 6.88-10.43 1.86-1 4.15-1.33 5.93-2.59.454-.33.867-.712 1.23-1.14 1.784-1.646 2.916-3.878 3.19-6.29.284-2.633.159-5.295-.37-7.89-.63-3.84-1.56-7.77-3.8-10.79-2.24-3.02-5.59-4.84-8.82-6.53q-13.12-6.89-26.31-13.64c-1.718-1.05-3.635-1.731-5.63-2-3.52-.2-6.68 2.21-9.52 4.5-1.133.892-2.218 1.843-3.25 2.85-.877.778-1.678 1.639-2.39 2.57-3.32 4.45-4.73 12.83-3.27 18.39.46 1.76 1.45 2.27 2.67 2.25-1.81 3.599-2.752 7.572-2.75 11.6.04 8.963 4.642 17.288 12.21 22.09 0 .56 0 1.11.05 1.64.041 2.052-.026 4.105-.2 6.15 0 0-22 11.89-24.47 17.51l-11.58 9.64s-17.37 8.84-17.37 40.17l-9.1 44.18-1.65 84.35s1.14-1 3-2.42c-.06.56-.11 1.14-.16 1.73-.248 3.224-.331 6.458-.25 9.69l-.12.76zm111.1 218.31c-.34 1.29-.84 3-1.47 5-.28-1.66-.56-3.3-.84-4.86.72-.07 1.49-.11 2.31-.14z"/>
    <path fill="#53526B" d="M659.47 786.65s-3.19 14.34-8 19.91c-4.81 5.57-11.11 16.73-16.67 15.93-5.56-.8-7.17 11.15 3.19 12.74 10.36 1.59 31.81-3.18 31.81-3.18s18.32-8 19.11-13.54c.79-5.54-4.78-34.25-4.78-34.25l-24.66 2.39z"/>
    <path d="M659.47 786.65s-3.19 14.34-8 19.91c-4.81 5.57-11.11 16.73-16.67 15.93-5.56-.8-7.17 11.15 3.19 12.74 10.36 1.59 31.81-3.18 31.81-3.18s18.32-8 19.11-13.54c.79-5.54-4.78-34.25-4.78-34.25l-24.66 2.39z" opacity=".05"/>
    <path fill="#53526B" d="M688.94 793.02s-3.19 14.34-8 19.91c-4.81 5.57-11.14 16.73-16.69 15.93-5.55-.8-7.17 11.15 3.19 12.74 10.36 1.59 31.86-3.19 31.86-3.19s18.32-8 19.11-13.54c.79-5.54-4.78-34.25-4.78-34.25l-24.69 2.4z"/>
    <path fill="#5F5D7E" d="M616.46 574.81s6.37 68.49 11.15 75.66l10.35 38.23 10.35 63.71s4 36.64 6.37 40.62l31.93 2.27-18.38-210.94-51.77-9.55z"/>
    <path d="M616.46 574.81s6.37 68.49 11.15 75.66l10.35 38.23 10.35 63.71s4 36.64 6.37 40.62l31.93 2.27-18.38-210.94-51.77-9.55z" opacity=".05"/>
    <path fill="#5F5D7E" d="M603.72 542.14l2.08 6.61 11.25 35.71.22.68h.06c1.51.34 33.39 7.67 40.27 9.92.371.115.735.252 1.09.41 3.19 1.59 7.17 58.93 7.17 58.93s2.39 54.16 4 58.14c1.61 3.98 8 86 11.95 83.62 3.95-2.38 32.65 0 32.65 0 3.19-3.19 0-46.19 0-46.19l-5.66-78.83s3.19-43.8 0-51.77l-3.19-61.32-65.19-10.19-6.3-1-30.4-4.72z"/>
    <path d="M605.8 548.76l11.25 35.71.27.7c1.51.34 33.39 7.67 40.27 9.92h.69l-17.81-47.22-.51-1.36-5.79.37-28.37 1.88z" opacity=".02"/>
    <path d="M680.18 382.87s-29.47 31.86-47.79 5.57l-17.52 11.95 3.19 18.32-10.36 138.57s27.08-.8 46.19 5.57c10.867 3.855 22.983 1.058 31.06-7.17l-3.15-121.84 7.17-37.43-8.79-13.54z" opacity=".1"/>
    <path fill="#53526B" d="M680.18 380.48s-29.47 31.86-47.79 5.57L614.87 398l3.19 18.32-10.36 138.57s27.08-.8 46.19 5.57c10.867 3.855 22.983 1.058 31.06-7.17l-3.15-121.84 7.17-37.43-8.79-13.54z"/>
    <g fill="#E82127">
      <path d="M621.35 522.36v5.02h-1.6v-3.34h-5.85v3.34h-1.61v-5.01l9.06-.01M619.92 520.74h-6.18c-.825-.198-1.473-.837-1.68-1.66h9.53c-.209.822-.856 1.46-1.68 1.66"/>
    </g>
    <path fill="#E82127" d="M675.8 519.14c-.215.813-.855 1.445-1.67 1.65h-2.6l-.13.05v6.56h-1.6v-6.56l-.15-.05h-2.6c-.812-.211-1.449-.84-1.67-1.65h10.42z"/>
    <path fill="#D6DBE6" d="M618.85 545.34s0 20.71-4.78 29.47l-32.65 4 5.57-29.47 31.86-4z"/>
    <path fill="#FDC2CC" d="M584.45 593.14c4.2 4 21.61-4 20.41-8.76-.84-3.37-3.78-15.43-5.45-22.27l-1.16-4.81s-10.2-3.19-13.8 0c-1.31 1.16-2.23 5.73-2.66 11.25-.74 9.59.01 22.05 2.66 24.59zM622.8 394.81l27.87 21.5s41.41-2.39 31.06-22.3c-4.507-8.757-7.226-18.322-8-28.14-.337-3.622-.337-7.268 0-10.89 0 0-38.23-35-33.45 4.78.377 3.053.597 6.124.66 9.2.57 29.86-18.14 25.85-18.14 25.85z"/>
    <path d="M640.36 359.77c.377 3.053.597 6.124.66 9.2 4.29 2.841 9.324 4.351 14.47 4.34 7.13 0 12.38-6.94 17.12-11.55-.53-6.61 1.19-6.77 1.19-6.77s-38.22-35.04-33.44 4.78z" opacity=".1"/>
    <circle cx="655.49" cy="345.44" r="26.28" fill="#FDC2CC" vector-effect="non-scaling-stroke"/>
    <path d="M674.2 370.52s4.38.4 13.14 12.34l27.87 13.54s7.17-3.19 15.13 32.65c0 0 10.35 59.73 6.37 63.71-3.98 3.98-19.91 9.57-27.91 9.57 0 0-2.39 50.17 1.59 58.93 3.98 8.76-.8 14.34-.8 14.34l-35-2.39s-11.95-15.13-14.34-41.41c0 0-10.35-101.15-6.37-109.91 0 0 21.5-31.06 20.71-33.45-.79-2.39-.39-17.92-.39-17.92z" opacity=".1"/>
    <path fill="#D6DBE6" d="M674.29 370.28s5.89-.16 14.65 11.79c8.76 11.95 27.86 13.54 27.86 13.54s7.17-3.19 15.13 32.65c7.96 35.84 10.35 59.73 6.37 63.71-3.98 3.98-19.91 9.56-27.87 9.56 0 0-2.39 50.17 1.59 58.93 3.98 8.76-.8 14.34-.8 14.34l-35-2.39s-11.95-15.13-14.34-41.41c-2.39-26.28-10.37-101.14-6.39-109.86 3.98-8.72 21.5-31.06 20.71-33.45-.79-2.39-1.91-17.41-1.91-17.41z"/>
    <path d="M581.8 568.54c3.81-2.91 11-7.44 17.62-6.44l-1.16-4.81s-10.2-3.19-13.8 0c-1.33 1.16-2.24 5.72-2.66 11.25zM640.8 375.3s-20.31 13.14-22.7 18.72l-11.15 9.56s-16.72 8.76-16.72 39.82l-8.76 43.8 39.82 55.75s4.78-55.75 7.17-69.29l5.57-39s11.95-15.13 10.35-19.11c-1.6-3.98-3.58-40.25-3.58-40.25z" opacity=".1"/>
    <path fill="#D6DBE6" d="M640.8 375.06s-21.18 11.79-23.56 17.36l-11.15 9.56s-16.72 8.76-16.72 39.82l-8.76 43.8-1.59 83.62s14.34-13.54 24.69-7.17l16.72-20.71s4.78-55.75 7.17-69.29l5.57-39s11.95-15.13 10.35-19.11c-1.6-3.98-2.72-38.88-2.72-38.88z"/>
    <path d="M632.42 313.47c1.348-1.715 2.907-3.254 4.64-4.58 2.74-2.28 5.77-4.66 9.17-4.46 1.924.256 3.771.917 5.42 1.94q12.7 6.69 25.33 13.52c3.11 1.68 6.32 3.46 8.49 6.48 2.17 3.02 3.05 6.9 3.66 10.7.51 2.574.632 5.21.36 7.82-.248 2.559-1.49 4.918-3.46 6.57-2.27 1.65-5.38 1.66-7.28 3.82-1.1 1.25-1.58 3-2.36 4.52-.78 1.52-2.13 3-3.67 2.73s-2.47-1.9-2.69-3.55c-.098-1.672-.001-3.35.29-5 .3-3-.08-6.18-1.82-8.41-1.2-1.52-2.92-2.44-4.08-4-2.78-3.76-1.51-10-4.56-13.53-1.803-1.878-4.477-2.642-7-2-2.47.52-4.73 1.86-7 3-3.067 1.547-6.279 2.786-9.59 3.7-2.78.76-6 2.58-6.95-1.12-1.45-5.43-.1-13.74 3.1-18.15z" opacity=".1"/>
    <path fill="#865A61" d="M633.22 312.68c1.348-1.715 2.907-3.254 4.64-4.58 2.74-2.28 5.77-4.66 9.17-4.46 1.924.256 3.771.917 5.42 1.94 8.46 4.46 15.49.24 25.33 13.52 2.1 2.84 6.32 3.46 8.49 6.48 2.17 3.02 3.05 6.9 3.66 10.7.51 2.574.632 5.21.36 7.82-.248 2.559-1.49 4.918-3.46 6.57-2.27 1.65-5.38 1.66-7.28 3.82-1.1 1.25-1.58 3-2.36 4.52-.78 1.52-2.13 3-3.67 2.73s-2.47-1.9-2.69-3.55c-.098-1.672-.001-3.35.29-5 .3-3-.08-6.18-1.82-8.41-1.2-1.52-2.92-2.44-4.08-4-2.78-3.76-1.51-10-4.56-13.53-1.803-1.878-4.477-2.642-7-2-2.47.52-4.73 1.86-7 3-3.067 1.547-6.279 2.786-9.59 3.7-2.78.76-6 2.58-6.95-1.12-1.46-5.43-.1-13.75 3.1-18.15z"/>
    <path d="M705 434.23s10.62 27.08 2.65 38.23l-17.52-4s15.93 4.78 13.54-4.78c-2.39-9.56 1.33-29.45 1.33-29.45zM710.8 501.14s-23.1 1.59-29.47-3.19c8.388 6.403 18.294 10.521 28.75 11.95l.72-8.76zM611.29 450.14s-11.95 36.64-11.15 42.21l2.39 66.9 2.39-.8-.8-66.9 7.17-41.41z" opacity=".1"/>
    <linearGradient id="f" x1="0" x2="0" y1=".5" y2="-.5" gradientTransform="matrix(566.343 0 0 513.398 152.23 30.87)" gradientUnits="userSpaceOnUse">
      <stop offset="0%" stop-color="gray" stop-opacity=".1"/>
    </linearGradient>
    <path fill="url(#f)" d="M713.61 494.92l-273-220c-3.209-3.208-7.563-5.007-12.1-5h-11.6c48.116-61.661 39.949-150.116-18.644-201.924-58.593-51.808-147.382-49.082-202.687 6.223-55.305 55.305-58.031 144.094-6.223 202.687 51.808 58.593 140.263 66.76 201.924 18.644v11.59c-.007 4.537 1.792 8.891 5 12.1l273 220c3.192 3.218 7.537 5.029 12.07 5.029s8.878-1.811 12.07-5.029l20.12-20.1c6.683-6.679 6.715-17.503.07-24.22zm-413.47-225c-50.335 0-91.14-40.805-91.14-91.14s40.805-91.14 91.14-91.14 91.14 40.805 91.14 91.14c.019 24.179-9.577 47.374-26.673 64.473-17.095 17.1-40.288 26.7-64.467 26.687v-.02z"/>
    <path fill="#19E51C" d="M715.61 492.92l-273-220c-3.209-3.208-7.563-5.007-12.1-5h-11.6c48.116-61.661 39.949-150.116-18.644-201.924-58.593-51.808-147.382-49.082-202.687 6.223-55.305 55.305-58.031 144.094-6.223 202.687 51.808 58.593 140.263 66.76 201.924 18.644v11.59c-.007 4.537 1.792 8.891 5 12.1l273 220c3.192 3.218 7.537 5.029 12.07 5.029s8.878-1.811 12.07-5.029l20.12-20.1c6.683-6.679 6.715-17.503.07-24.22zm-413.47-225c-50.335 0-91.14-40.805-91.14-91.14s40.805-91.14 91.14-91.14 91.14 40.805 91.14 91.14c.019 24.179-9.577 47.374-26.673 64.473-17.095 17.1-40.288 26.7-64.467 26.687v-.02z"/>
    <path fill="#FDC2CC" d="M695.31 472.86s-39.85-45.7-34.25-14.34c4 22.3 19.11 34.25 26.28 36.64 7.17 2.39 7.97-22.3 7.97-22.3z"/>
    <path fill="#D6DBE6" d="M704.87 430.65s.8 29.47 4.78 33.45l-2.39 8.76-15.93-4s4 26.28-12.74 23.1c0 0 11.15 10.35 22.3 11.95 11.15 1.6 10.35-2.39 10.35-2.39l16.72-19.91-23.09-50.96z"/>
    <path fill="#D6DBE6" d="M709.28 501.95l16.16-3.55-2.16-7.45-10-4-13 6 9 9z"/>
    <path fill="#C0BCCF" fill-opacity=".35" d="M237.58 175.94c-.025 14.708 4.743 29.023 13.58 40.78.89 1.19 1.82 2.34 2.79 3.47.52.61 1.06 1.21 1.61 1.8q.41.46.84.9c2.255 2.372 4.682 4.574 7.26 6.59l.18.13c3.984 3.123 8.312 5.78 12.9 7.92 2.355 1.106 4.772 2.075 7.24 2.9l.91.29c.56.19 1.14.36 1.71.52l.23.07c.29.08.58.17.88.24 5.811 1.579 11.808 2.376 17.83 2.37 1 0 2.05 0 3.07-.07 5.341-.23 10.635-1.096 15.77-2.58h.1c.95-.28 1.89-.57 2.82-.89h.1l.85-.3c3.237-1.14 6.38-2.531 9.4-4.16l.19-.1c.33-.18.66-.36 1-.55 4.433-2.488 8.572-5.467 12.34-8.88l.33-.31c2.066-1.87 4.007-3.875 5.81-6l.21-.25c.17-.19.33-.38.49-.58.44-.52.86-1.06 1.28-1.6 18.223-23.48 19.085-56.075 2.128-80.485-16.956-24.411-47.801-34.98-76.165-26.1-28.365 8.88-47.675 35.153-47.683 64.875z"/>
    <path fill="#19E51C" d="M317.696 143.95c-4.374 0-8.761 1.689-11.923 5.089l-24.302 24.302c-4.785 4.786-5.981 11.884-3.801 17.924l-.073.075c.056.16.17.294.228.457.2.51.409 1.033.683 1.519.209.379.438.777.683 1.137.656 1.045 1.378 2.061 2.28 2.963 3.159 3.159 7.546 4.86 11.923 4.86 2.799 0 5.572-.729 8.051-2.126.361-.19.715-.393 1.062-.608.121-.085.255-.143.379-.228.957-.616 1.848-1.329 2.659-2.127l14.581-14.581-.153-.076 9.648-9.645c6.557-6.56 6.557-17.515 0-24.074-3.166-3.16-7.55-4.861-11.925-4.861zm0 4.861c3.159 0 6.324 1.215 8.506 3.645 4.613 4.613 4.613 12.38 0 17.24l-9.493 9.493-13.594-13.595-21.494 21.721c-.669-3.908.541-7.904 3.267-10.785l24.302-24.303c2.183-2.182 5.347-3.416 8.506-3.416z"/>
    <g>
      <path fill="#C0BCCF" fill-opacity=".25" d="M240.61 422.953c-.025 14.708 4.743 29.023 13.58 40.78.89 1.19 1.82 2.34 2.79 3.47.52.61 1.06 1.21 1.61 1.8q.41.46.84.9c2.255 2.372 4.682 4.574 7.26 6.59l.18.13c3.984 3.123 8.312 5.78 12.9 7.92 2.355 1.107 4.772 2.075 7.24 2.9l.91.29c.56.19 1.14.36 1.71.52l.23.07c.29.08.58.17.88.24 5.812 1.58 11.808 2.377 17.83 2.37 1 0 2.05 0 3.07-.07 5.341-.23 10.635-1.096 15.77-2.58h.1c.95-.28 1.89-.57 2.82-.89h.1l.85-.3c3.237-1.14 6.38-2.531 9.4-4.16l.19-.1c.33-.18.66-.36 1-.55 4.433-2.488 8.572-5.467 12.34-8.88l.33-.31c2.066-1.87 4.007-3.875 5.81-6l.21-.25c.17-.19.33-.38.49-.58.44-.52.86-1.06 1.28-1.6 18.223-23.48 19.085-56.075 2.128-80.485-16.956-24.411-47.801-34.98-76.165-26.1-28.365 8.88-47.675 35.153-47.683 64.875z"/>
      <path fill="#19E51C" d="M320.726 390.963c-4.374 0-8.761 1.689-11.923 5.089l-24.302 24.303c-4.785 4.785-5.981 11.884-3.801 17.923l-.073.075c.056.16.17.294.228.457.2.51.409 1.033.683 1.519.209.379.438.778.683 1.137.656 1.045 1.378 2.061 2.28 2.963 3.159 3.159 7.546 4.86 11.923 4.86 2.799 0 5.572-.729 8.051-2.126.361-.19.715-.393 1.062-.608.122-.085.255-.143.379-.228.957-.616 1.848-1.329 2.659-2.127l14.581-14.581-.153-.076 9.648-9.645c6.557-6.56 6.557-17.515 0-24.074-3.166-3.16-7.55-4.861-11.925-4.861zm0 4.861c3.159 0 6.324 1.215 8.506 3.645 4.613 4.613 4.613 12.38 0 17.24l-9.493 9.493-13.594-13.595-21.494 21.722c-.669-3.909.541-7.905 3.267-10.786l24.302-24.302c2.183-2.183 5.347-3.417 8.506-3.417z"/>
    </g>
    <g>
      <path fill="#C0BCCF" fill-opacity=".25" d="M240.61 633.97c-.025 14.708 4.743 29.023 13.58 40.78.89 1.19 1.82 2.34 2.79 3.47.52.61 1.06 1.21 1.61 1.8q.41.46.84.9c2.255 2.372 4.682 4.574 7.26 6.59l.18.13c3.984 3.123 8.312 5.78 12.9 7.92 2.355 1.106 4.772 2.075 7.24 2.9l.91.29c.56.19 1.14.36 1.71.52l.23.07c.29.08.58.17.88.24 5.812 1.579 11.808 2.376 17.83 2.37 1 0 2.05 0 3.07-.07 5.341-.23 10.635-1.096 15.77-2.58h.1c.95-.28 1.89-.57 2.82-.89h.1l.85-.3c3.237-1.14 6.38-2.531 9.4-4.16l.19-.1c.33-.18.66-.36 1-.55 4.433-2.488 8.572-5.467 12.34-8.88l.33-.31c2.066-1.87 4.007-3.875 5.81-6l.21-.25c.17-.19.33-.38.49-.58.44-.52.86-1.06 1.28-1.6 18.223-23.48 19.085-56.075 2.128-80.485-16.956-24.411-47.801-34.981-76.165-26.1-28.365 8.88-47.675 35.153-47.683 64.875z"/>
      <path fill="#19E51C" d="M320.726 601.98c-4.374 0-8.761 1.689-11.923 5.089l-24.302 24.302c-4.785 4.786-5.981 11.884-3.801 17.924l-.073.075c.056.16.17.294.228.457.2.51.409 1.033.683 1.519.209.379.438.777.683 1.137.656 1.045 1.378 2.061 2.28 2.963 3.159 3.159 7.546 4.86 11.923 4.86 2.799 0 5.572-.729 8.051-2.126.361-.19.715-.393 1.062-.608.122-.085.255-.143.379-.228.957-.616 1.848-1.329 2.659-2.127l14.581-14.581-.153-.076 9.648-9.645c6.557-6.56 6.557-17.515 0-24.075-3.166-3.159-7.55-4.86-11.925-4.86zm0 4.86c3.159 0 6.324 1.216 8.506 3.646 4.613 4.612 4.613 12.38 0 17.24l-9.493 9.493-13.594-13.595-21.494 21.721c-.669-3.908.541-7.904 3.267-10.785l24.302-24.303c2.183-2.182 5.347-3.417 8.506-3.417z"/>
    </g>
  </g>
</svg>
