<?xml version="1.0" encoding="UTF-8" standalone="no"?><!-- Generator: Gravit.io --><svg xmlns="http://www.w3.org/2000/svg" xmlns:xlink="http://www.w3.org/1999/xlink" style="isolation:isolate" viewBox="0 0 871.909 596.6" width="871.909pt" height="596.6pt"><defs><clipPath id="_clipPath_Nwnc2arRbflfeWcq6ix2P9vSSHkTQynB"><rect width="871.909" height="596.6"/></clipPath></defs><g clip-path="url(#_clipPath_Nwnc2arRbflfeWcq6ix2P9vSSHkTQynB)"><linearGradient id="_lgradient_0" x1="0.5000000000000001" y1="1" x2="0.5000000000000002" y2="0" gradientTransform="matrix(871.909,0,0,161.227,0,0)" gradientUnits="userSpaceOnUse"><stop offset="0%" stop-opacity="0.25" style="stop-color:rgb(128,128,128)"/><stop offset="53.513999999999996%" stop-opacity="0.12" style="stop-color:rgb(128,128,128)"/><stop offset="100%" stop-opacity="0.1" style="stop-color:rgb(128,128,128)"/></linearGradient><rect x="0" y="0" width="871.909" height="161.227" transform="matrix(1,0,0,1,0,0)" fill="url(#_lgradient_0)"/><rect x="5.091" y="5.277" width="860.453" height="147.379" transform="matrix(1,0,0,1,0,0)" fill="rgb(255,255,255)"/><rect x="57.939" y="35.365" width="500.194" height="87.713" transform="matrix(1,0,0,1,0,0)" fill="rgb(245,245,245)"/><linearGradient id="_lgradient_1" x1="0.500312449739468" y1="0.9999999526651298" x2="0.5003124497394681" y2="0.0000420524017705759" gradientTransform="matrix(117.844,0,0,120.296,672.451,26.739)" gradientUnits="userSpaceOnUse"><stop offset="0%" stop-opacity="0.25" style="stop-color:rgb(179,179,179)"/><stop offset="53.513999999999996%" stop-opacity="0.1" style="stop-color:rgb(179,179,179)"/><stop offset="100%" stop-opacity="0.05" style="stop-color:rgb(179,179,179)"/></linearGradient><path d=" M 752.167 40.962 C 735.164 23.271 707.316 21.909 688.668 37.855 C 670.02 53.801 667.043 81.523 681.879 101.066 C 696.715 120.608 724.217 125.191 744.588 111.515 L 778.072 146.344 C 778.935 147.241 780.362 147.269 781.259 146.406 L 789.604 138.384 C 790.501 137.521 790.529 136.094 789.666 135.197 L 756.182 100.369 C 769.434 82.214 767.74 57.167 752.167 40.962 L 752.167 40.962 Z  M 741.738 96.947 C 732.078 106.234 717.774 108.787 705.497 103.417 C 693.221 98.046 685.388 85.809 685.651 72.411 C 685.915 59.014 694.223 47.094 706.702 42.211 C 719.181 37.327 733.372 40.442 742.66 50.102 C 755.341 63.292 754.928 84.265 741.738 96.947 L 741.738 96.947 Z " fill="url(#_lgradient_1)"/><path d=" M 694.237 63.854 C 690.512 63.854 690.505 69.643 694.237 69.643 C 697.963 69.643 697.969 63.854 694.237 63.854 Z " fill="rgb(58,0,95)"/><path d=" M 720.209 45.305 C 710.603 45.016 701.528 49.704 696.203 57.704 C 694.621 60.182 699.115 62.371 700.689 59.907 C 704.706 53.619 712.341 49.626 720.591 49.833 C 729.068 50.132 736.835 54.649 741.286 61.87 C 742.868 64.477 747.012 62.106 745.44 59.516 C 740.386 51.187 730.569 45.54 720.209 45.305 Z " fill="rgb(58,0,95)"/><path d=" M 752.167 35.87 C 735.164 18.18 707.316 16.817 688.668 32.764 C 670.02 48.71 667.043 76.432 681.879 95.974 C 696.715 115.517 724.217 120.1 744.588 106.424 L 778.072 141.252 C 778.935 142.149 780.362 142.177 781.259 141.315 L 789.604 133.292 C 790.501 132.43 790.529 131.003 789.666 130.106 L 756.182 95.277 C 769.434 77.123 767.74 52.076 752.167 35.87 Z  M 741.738 91.855 C 728.547 104.537 707.574 104.124 694.892 90.933 C 682.211 77.743 682.624 56.769 695.814 44.088 C 709.005 31.407 729.978 31.82 742.66 45.01 C 755.341 58.201 754.928 79.174 741.738 91.855 L 741.738 91.855 Z " fill="rgb(25,229,28)"/><path d=" M 694.237 58.762 C 690.512 58.762 690.505 64.552 694.237 64.552 C 697.963 64.552 697.969 58.762 694.237 58.762 Z " fill="rgb(25,229,28)"/><path d=" M 720.209 40.214 C 710.603 39.925 701.528 44.612 696.203 52.613 C 694.621 55.09 699.115 57.279 700.689 54.815 C 704.706 48.527 712.341 44.535 720.591 44.742 C 729.068 45.04 736.835 49.557 741.286 56.778 C 742.868 59.386 747.012 57.015 745.44 54.424 C 740.386 46.095 730.569 40.448 720.209 40.214 Z " fill="rgb(25,229,28)"/><rect x="4.909" y="240.6" width="867" height="59" transform="matrix(1,0,0,1,0,0)" fill="rgb(224,224,224)"/><rect x="4.909" y="339.6" width="867" height="59" transform="matrix(1,0,0,1,0,0)" fill="rgb(224,224,224)"/><rect x="4.909" y="438.6" width="867" height="59" transform="matrix(1,0,0,1,0,0)" fill="rgb(224,224,224)"/><rect x="4.909" y="537.6" width="867" height="59" transform="matrix(1,0,0,1,0,0)" fill="rgb(224,224,224)"/></g></svg>