<?xml version="1.0" encoding="UTF-8" standalone="no"?><!-- Generator: Gravit.io --><svg xmlns="http://www.w3.org/2000/svg" xmlns:xlink="http://www.w3.org/1999/xlink" style="isolation:isolate" viewBox="0 0 1113.61 844.14" width="1113.61pt" height="844.14pt"><defs><clipPath id="_clipPath_eBfTHRBxXEjNfrIkebnXogi7vzdkbLMe"><rect width="1113.61" height="844.14"/></clipPath></defs><g clip-path="url(#_clipPath_eBfTHRBxXEjNfrIkebnXogi7vzdkbLMe)"><g opacity="0.1"><path d=" M 1047 458.22 C 1007.85 511.94 1020.77 588.62 1043.4 649.71 C 1050.98 670.16 1059.59 691.79 1055.66 714.04 C 1050.86 741.24 1028.3 761.62 1004.85 772.72 C 962.1 792.95 911.6 789.72 873.36 764.23 C 840.36 742.23 817.13 705.67 783.49 684.72 C 727.19 649.67 654.1 665.33 591.44 692.09 C 547.11 711.02 498.55 735.4 455.35 717.92 C 424.95 705.62 404.48 674.31 393.71 640.84 C 388.51 624.68 384.87 607.14 374.51 594.49 C 368.35 586.97 360.21 581.73 351.84 577.35 C 275.45 537.35 177.19 562.35 103.13 517.72 C 53.13 487.58 22.01 429.09 9.08 367.6 C -3.85 306.11 -0.65 241.2 4.5 177.4 C 8.16 132.06 13.95 83.61 41.21 47.98 C 70.04 10.31 118.36 -4.66 161.57 1.24 C 204.78 7.14 243.52 31.14 277.41 59.79 C 319.8 95.53 358.8 140.4 411.52 153.97 C 447.43 163.21 485.58 156.67 522.91 153.78 C 585.31 148.96 647.49 154.51 709.29 160.78 C 768.45 166.78 828.02 173.48 884.05 193.15 C 923.7 207.07 955.13 233.38 992.46 251.36 C 1016.79 263.08 1043.56 265.8 1066.46 280.94 C 1094.72 299.59 1120.26 332.63 1111.97 372.28 C 1104.14 409.97 1067.8 429.71 1047 458.22 Z " fill="rgb(25,229,28)"/></g><g style="opacity:0.5;"><g opacity="0.5"><mask id="_mask_jn3HyzEgg6XFMaLQ7bLCETe75eyydrTr" x="-200%" y="-200%" width="400%" height="400%"><rect x="-200%" y="-200%" width="400%" height="400%" style="fill:white;"/><path d=" M 854.99 703.24 C 854.99 703.24 858.29 605.48 911.18 550.24 C 933.38 527.06 947.96 497.62 951.82 465.76 C 953.624 450.64 954.039 435.386 953.06 420.19" fill="black" stroke="none"/></mask><path d=" M 854.99 703.24 C 854.99 703.24 858.29 605.48 911.18 550.24 C 933.38 527.06 947.96 497.62 951.82 465.76 C 953.624 450.64 954.039 435.386 953.06 420.19" fill="none" mask="url(#_mask_jn3HyzEgg6XFMaLQ7bLCETe75eyydrTr)" vector-effect="non-scaling-stroke" stroke-width="4" stroke="rgb(83,84,97)" stroke-linejoin="miter" stroke-linecap="butt" stroke-miterlimit="10"/><path d=" M 854.99 703.24 C 854.99 703.24 858.29 605.48 911.18 550.24 C 933.38 527.06 947.96 497.62 951.82 465.76 C 953.624 450.64 954.039 435.386 953.06 420.19" fill="none"/></g><g opacity="0.5"><path d=" M 986.19 385.2 C 982.57 396.12 952.31 421.2 952.31 421.2 C 952.31 421.2 943.04 382.99 946.66 372.08 C 950.28 361.164 962.064 355.25 972.98 358.87 C 983.896 362.49 989.81 374.274 986.19 385.19 L 986.19 385.2 Z " fill="rgb(25,229,28)"/></g><g opacity="0.5"><path d=" M 998.8 456.5 C 989.8 463.7 950.8 468.32 950.8 468.32 C 950.8 468.32 963.8 431.21 972.8 424.02 C 978.565 419.002 986.616 417.546 993.773 420.227 C 1000.93 422.909 1006.043 429.296 1007.092 436.866 C 1008.141 444.437 1004.958 451.973 998.8 456.5 Z " fill="rgb(25,229,28)"/></g><g opacity="0.5"><path d=" M 963.12 559.34 C 951.74 561.02 915.71 545.34 915.71 545.34 C 915.71 545.34 945.65 519.86 957.03 518.18 C 964.39 517.092 971.771 520.013 976.393 525.843 C 981.015 531.673 982.175 539.525 979.438 546.443 C 976.7 553.361 970.48 558.292 963.12 559.38 L 963.12 559.34 Z " fill="rgb(25,229,28)"/></g><g opacity="0.5"><path d=" M 918.59 631.08 C 907.66 634.66 869.49 625.26 869.49 625.26 C 869.49 625.26 894.7 595.09 905.63 591.51 C 916.557 587.92 928.325 593.868 931.915 604.795 C 935.505 615.722 929.557 627.49 918.63 631.08 L 918.59 631.08 Z " fill="rgb(25,229,28)"/></g><g opacity="0.5"><path d=" M 908.59 456.67 C 913.9 466.87 947.8 486.84 947.8 486.84 C 947.8 486.84 950.88 447.65 945.57 437.44 C 940.263 427.239 927.691 423.273 917.49 428.58 C 907.289 433.887 903.323 446.459 908.63 456.66 L 908.59 456.67 Z " fill="rgb(25,229,28)"/></g><g opacity="0.5"><path d=" M 857.58 541.22 C 865.7 549.37 903.98 558.29 903.98 558.29 C 903.98 558.29 895.19 519.97 887.08 511.82 C 878.964 503.674 865.781 503.649 857.635 511.765 C 849.489 519.881 849.464 533.064 857.58 541.21 L 857.58 541.22 Z " fill="rgb(25,229,28)"/></g><g opacity="0.5"><path d=" M 819.28 630.21 C 825.9 639.61 862.13 654.88 862.13 654.88 C 862.13 654.88 859.95 615.63 853.32 606.22 C 849.143 599.868 841.837 596.297 834.259 596.905 C 826.681 597.513 820.037 602.203 816.926 609.14 C 813.816 616.077 814.733 624.157 819.32 630.22 L 819.28 630.21 Z " fill="rgb(25,229,28)"/></g><g opacity="0.5"><mask id="_mask_pITN7ZC0bpnisSvLZz0JoHOA2RWaVVSM" x="-200%" y="-200%" width="400%" height="400%"><rect x="-200%" y="-200%" width="400%" height="400%" style="fill:white;"/><path d=" M 866.61 662.78 C 866.61 662.78 836.61 619.14 841.87 578.08 C 844.188 560.872 840.861 543.377 832.39 528.22 C 828.311 521.056 823.585 514.281 818.27 507.98" fill="black" stroke="none"/></mask><path d=" M 866.61 662.78 C 866.61 662.78 836.61 619.14 841.87 578.08 C 844.188 560.872 840.861 543.377 832.39 528.22 C 828.311 521.056 823.585 514.281 818.27 507.98" fill="none" mask="url(#_mask_pITN7ZC0bpnisSvLZz0JoHOA2RWaVVSM)" vector-effect="non-scaling-stroke" stroke-width="4" stroke="rgb(83,84,97)" stroke-linejoin="miter" stroke-linecap="butt" stroke-miterlimit="10"/><path d=" M 866.61 662.78 C 866.61 662.78 836.61 619.14 841.87 578.08 C 844.188 560.872 840.861 543.377 832.39 528.22 C 828.311 521.056 823.585 514.281 818.27 507.98" fill="none"/></g><g opacity="0.5"><path d=" M 821.44 482.08 C 823.37 488 818.27 508.66 818.27 508.66 C 818.27 508.66 801.94 495 800.01 489.09 C 798.077 483.172 801.307 476.808 807.225 474.875 C 813.143 472.942 819.507 476.172 821.44 482.09 L 821.44 482.08 Z " fill="rgb(25,229,28)"/></g><g opacity="0.5"><path d=" M 849.87 509.07 C 848.28 515.07 832.76 529.66 832.76 529.66 C 832.76 529.66 826.48 509.32 828.07 503.3 C 829.663 497.28 835.835 493.692 841.855 495.285 C 847.875 496.878 851.463 503.05 849.87 509.07 L 849.87 509.07 Z " fill="rgb(25,229,28)"/></g><g opacity="0.5"><path d=" M 867.41 565.33 C 863 569.72 842.25 574.47 842.25 574.47 C 842.25 574.47 847.09 553.74 851.51 549.35 C 855.928 544.959 863.069 544.982 867.46 549.4 C 871.851 553.818 871.828 560.959 867.41 565.35 L 867.41 565.33 Z " fill="rgb(25,229,28)"/></g><g opacity="0.5"><path d=" M 871.1 610.9 C 867.49 615.97 847.8 624.14 847.8 624.14 C 847.8 624.14 849.07 602.89 852.68 597.82 C 856.286 592.745 863.325 591.554 868.4 595.16 C 873.475 598.766 874.666 605.805 871.06 610.88 L 871.1 610.9 Z " fill="rgb(25,229,28)"/></g><g opacity="0.5"><path d=" M 810.64 538.14 C 816.23 540.88 837.4 538.68 837.4 538.68 C 837.4 538.68 826.13 520.62 820.54 517.89 C 814.948 515.156 808.199 517.473 805.465 523.065 C 802.731 528.657 805.048 535.406 810.64 538.14 L 810.64 538.14 Z " fill="rgb(25,229,28)"/></g><g opacity="0.5"><path d=" M 815.63 591.39 C 821.79 592.33 841.33 583.9 841.33 583.9 C 841.33 583.9 825.17 570.04 819.02 569.14 C 812.865 568.204 807.116 572.435 806.18 578.59 C 805.244 584.745 809.475 590.494 815.63 591.43 L 815.63 591.39 Z " fill="rgb(25,229,28)"/></g><g opacity="0.5"><path d=" M 827.57 642.46 C 833.48 644.46 854.17 639.46 854.17 639.46 C 854.17 639.46 840.59 623.07 834.68 621.1 C 828.771 619.137 822.388 622.336 820.425 628.245 C 818.462 634.154 821.661 640.537 827.57 642.5 L 827.57 642.46 Z " fill="rgb(25,229,28)"/></g><g opacity="0.5"><path d=" M 821.44 482.08 C 823.37 488 818.27 508.66 818.27 508.66 C 818.27 508.66 801.94 495 800.01 489.09 C 798.077 483.172 801.307 476.808 807.225 474.875 C 813.143 472.942 819.507 476.172 821.44 482.09 L 821.44 482.08 Z " fill="rgb(255,255,255)"/></g><g opacity="0.5"><path d=" M 849.87 509.07 C 848.28 515.07 832.76 529.66 832.76 529.66 C 832.76 529.66 826.48 509.32 828.07 503.3 C 829.663 497.28 835.835 493.692 841.855 495.285 C 847.875 496.878 851.463 503.05 849.87 509.07 L 849.87 509.07 Z " fill="rgb(255,255,255)"/></g><g opacity="0.5"><path d=" M 867.41 565.33 C 863 569.72 842.25 574.47 842.25 574.47 C 842.25 574.47 847.09 553.74 851.51 549.35 C 855.928 544.959 863.069 544.982 867.46 549.4 C 871.851 553.818 871.828 560.959 867.41 565.35 L 867.41 565.33 Z " fill="rgb(255,255,255)"/></g><g opacity="0.5"><path d=" M 871.1 610.9 C 867.49 615.97 847.8 624.14 847.8 624.14 C 847.8 624.14 849.07 602.89 852.68 597.82 C 856.286 592.745 863.325 591.554 868.4 595.16 C 873.475 598.766 874.666 605.805 871.06 610.88 L 871.1 610.9 Z " fill="rgb(255,255,255)"/></g><g opacity="0.5"><path d=" M 810.64 538.14 C 816.23 540.88 837.4 538.68 837.4 538.68 C 837.4 538.68 826.13 520.62 820.54 517.89 C 814.948 515.156 808.199 517.473 805.465 523.065 C 802.731 528.657 805.048 535.406 810.64 538.14 L 810.64 538.14 Z " fill="rgb(255,255,255)"/></g><g opacity="0.5"><path d=" M 815.63 591.39 C 821.79 592.33 841.33 583.9 841.33 583.9 C 841.33 583.9 825.17 570.04 819.02 569.14 C 812.865 568.204 807.116 572.435 806.18 578.59 C 805.244 584.745 809.475 590.494 815.63 591.43 L 815.63 591.39 Z " fill="rgb(255,255,255)"/></g><g opacity="0.5"><path d=" M 827.57 642.46 C 833.48 644.46 854.17 639.46 854.17 639.46 C 854.17 639.46 840.59 623.07 834.68 621.1 C 828.771 619.137 822.388 622.336 820.425 628.245 C 818.462 634.154 821.661 640.537 827.57 642.5 L 827.57 642.46 Z " fill="rgb(255,255,255)"/></g><g opacity="0.5"><path d=" M 811.1 781.11 L 896.43 781.11 L 917.77 650.98 L 789.77 650.98 L 811.1 781.11 L 811.1 781.11 Z " fill="rgb(71,64,89)"/></g><g opacity="0.1"><path d=" M 806.1 650.98 L 826.03 772.58 L 897.83 772.58 L 896.43 781.11 L 811.1 781.11 L 789.77 650.98 L 806.1 650.98 L 806.1 650.98 Z " fill="rgb(0,0,0)"/></g></g><linearGradient id="_lgradient_4" x1="0.4999999999999999" y1="1.000013239772276" x2="0.49999999999999994" y2="0" gradientTransform="matrix(626,0,0,755.3,201.28,39.29)" gradientUnits="userSpaceOnUse"><stop offset="0%" stop-opacity="0.25" style="stop-color:rgb(128,128,128)"/><stop offset="54%" stop-opacity="0.12" style="stop-color:rgb(128,128,128)"/><stop offset="100%" stop-opacity="0.1" style="stop-color:rgb(128,128,128)"/></linearGradient><rect x="201.28" y="39.29" width="626" height="755.3" transform="matrix(1,0,0,1,0,0)" fill="url(#_lgradient_4)"/><rect x="209.28" y="48.95" width="610" height="736" transform="matrix(1,0,0,1,0,0)" fill="rgb(255,255,255)"/><rect x="446.28" y="131.95" width="246" height="12" transform="matrix(1,0,0,1,0,0)" fill="rgb(192,188,207)"/><rect x="446.28" y="169.95" width="246" height="12" transform="matrix(1,0,0,1,0,0)" fill="rgb(192,188,207)"/><rect x="505.28" y="207.95" width="128" height="12" transform="matrix(1,0,0,1,0,0)" fill="rgb(25,229,28)"/><g opacity="0.5"><rect x="446.28" y="372.95" width="246" height="12" transform="matrix(1,0,0,1,0,0)" fill="rgb(192,188,207)"/></g><g opacity="0.5"><rect x="446.28" y="410.95" width="246" height="12" transform="matrix(1,0,0,1,0,0)" fill="rgb(192,188,207)"/></g><g opacity="0.5"><rect x="505.28" y="448.95" width="128" height="12" transform="matrix(1,0,0,1,0,0)" fill="rgb(25,229,28)"/></g><g opacity="0.5"><rect x="446.28" y="613.95" width="246" height="12" transform="matrix(1,0,0,1,0,0)" fill="rgb(192,188,207)"/></g><g opacity="0.5"><rect x="446.28" y="651.95" width="246" height="12" transform="matrix(1,0,0,1,0,0)" fill="rgb(192,188,207)"/></g><g opacity="0.5"><rect x="505.28" y="689.95" width="128" height="12" transform="matrix(1,0,0,1,0,0)" fill="rgb(25,229,28)"/></g><linearGradient id="_lgradient_5" x1="0" y1="0.5" x2="6.123233995736766e-17" y2="-0.5" gradientTransform="matrix(167.386,0,0,543.041,575.94,301.038)" gradientUnits="userSpaceOnUse"><stop offset="0%" stop-opacity="0.1" style="stop-color:rgb(128,128,128)"/></linearGradient><path d=" M 578.41 578.7 L 578.56 578.7 C 578.78 585.4 579.73 591.46 581.56 593.14 C 585.92 597.14 604 589.14 602.76 584.3 C 602.51 583.3 602.09 581.66 601.56 579.59 C 606.44 578.98 610.61 577.59 612.27 574.73 L 615.41 584.41 L 615.63 585.1 L 615.69 585.1 L 615.87 585.1 C 617.94 604.72 622.63 645.46 626.38 650.92 C 631.38 658.15 637.13 689.48 637.13 689.48 L 647.88 753.75 C 647.88 753.75 652.02 790.75 654.5 794.75 C 655.221 795.514 656.18 796.011 657.22 796.16 C 655.77 800.5 653.69 805.57 651.22 808.4 C 646.22 814.02 639.64 825.27 633.85 824.47 C 628.06 823.67 626.41 835.72 637.16 837.32 C 643.11 838.21 652.6 837.13 659.89 835.99 C 659.89 839.21 662.13 842.91 667.76 843.75 C 678.51 845.36 700.84 840.54 700.84 840.54 C 700.84 840.54 719.84 832.54 720.69 826.88 C 721.29 822.78 718.38 806.32 716.76 797.69 C 719.76 792.88 716.56 751.37 716.56 751.37 L 710.77 671.84 C 710.77 671.84 714.08 627.66 710.77 619.62 C 708.7 614.62 707.93 591.62 707.64 575.17 L 711.64 575.43 C 711.867 575.155 712.075 574.865 712.26 574.56 L 713.26 574.63 C 713.26 574.63 718.26 569.01 714.09 560.17 C 711.02 553.6 711.6 523.94 712.09 509.17 L 712.09 509.17 L 712.68 502.17 C 712.899 501.957 713.067 501.697 713.17 501.41 C 720.926 500.362 728.465 498.08 735.5 494.65 C 737.623 493.767 739.599 492.567 741.36 491.09 C 745.5 487.09 743.01 462.97 734.74 426.82 C 726.47 390.67 719.03 393.88 719.03 393.88 C 719.03 393.88 699.18 392.27 690.08 380.22 C 680.98 368.17 674.87 368.33 674.87 368.33 L 674.87 368.33 C 674.64 366.75 674.48 365.26 674.37 363.87 C 674.37 363.35 674.29 362.87 674.26 362.35 C 677.354 359.473 679.713 355.896 681.14 351.92 C 683 350.92 685.29 350.59 687.07 349.33 C 687.524 349 687.937 348.618 688.3 348.19 C 690.084 346.544 691.216 344.312 691.49 341.9 C 691.774 339.267 691.649 336.605 691.12 334.01 C 690.49 330.17 689.56 326.24 687.32 323.22 C 685.08 320.2 681.73 318.38 678.5 316.69 Q 665.38 309.8 652.19 303.05 C 650.472 302 648.555 301.319 646.56 301.05 C 643.04 300.85 639.88 303.26 637.04 305.55 C 635.907 306.442 634.822 307.393 633.79 308.4 C 632.913 309.178 632.112 310.039 631.4 310.97 C 628.08 315.42 626.67 323.8 628.13 329.36 C 628.59 331.12 629.58 331.63 630.8 331.61 C 628.99 335.209 628.048 339.182 628.05 343.21 C 628.09 352.173 632.692 360.498 640.26 365.3 C 640.26 365.86 640.26 366.41 640.31 366.94 C 640.351 368.992 640.284 371.045 640.11 373.09 C 640.11 373.09 618.11 384.98 615.64 390.6 C 615.64 390.6 604.06 400.24 604.06 400.24 C 604.06 400.24 586.69 409.08 586.69 440.41 L 577.59 484.59 L 575.94 568.94 C 575.94 568.94 577.08 567.94 578.94 566.52 C 578.88 567.08 578.83 567.66 578.78 568.25 C 578.532 571.474 578.449 574.708 578.53 577.94 L 578.41 578.7 Z  M 689.51 797.01 C 689.17 798.3 688.67 800.01 688.04 802.01 C 687.76 800.35 687.48 798.71 687.2 797.15 C 687.92 797.08 688.69 797.04 689.51 797.01 L 689.51 797.01 Z " fill="url(#_lgradient_5)"/><path d=" M 659.47 786.65 C 659.47 786.65 656.28 800.99 651.47 806.56 C 646.66 812.13 640.36 823.29 634.8 822.49 C 629.24 821.69 627.63 833.64 637.99 835.23 C 648.35 836.82 669.8 832.05 669.8 832.05 C 669.8 832.05 688.12 824.05 688.91 818.51 C 689.7 812.97 684.13 784.26 684.13 784.26 L 659.47 786.65 Z " fill="rgb(83,82,107)"/><g opacity="0.05"><path d=" M 659.47 786.65 C 659.47 786.65 656.28 800.99 651.47 806.56 C 646.66 812.13 640.36 823.29 634.8 822.49 C 629.24 821.69 627.63 833.64 637.99 835.23 C 648.35 836.82 669.8 832.05 669.8 832.05 C 669.8 832.05 688.12 824.05 688.91 818.51 C 689.7 812.97 684.13 784.26 684.13 784.26 L 659.47 786.65 Z " fill="rgb(0,0,0)"/></g><path d=" M 688.94 793.02 C 688.94 793.02 685.75 807.36 680.94 812.93 C 676.13 818.5 669.8 829.66 664.25 828.86 C 658.7 828.06 657.08 840.01 667.44 841.6 C 677.8 843.19 699.3 838.41 699.3 838.41 C 699.3 838.41 717.62 830.41 718.41 824.87 C 719.2 819.33 713.63 790.62 713.63 790.62 L 688.94 793.02 Z " fill="rgb(83,82,107)"/><path d=" M 616.46 574.81 C 616.46 574.81 622.83 643.3 627.61 650.47 C 627.61 650.47 637.96 688.7 637.96 688.7 L 648.31 752.41 C 648.31 752.41 652.31 789.05 654.68 793.03 C 654.68 793.03 686.61 795.3 686.61 795.3 L 668.23 584.36 L 616.46 574.81 Z " fill="rgb(95,93,126)"/><g opacity="0.05"><path d=" M 616.46 574.81 C 616.46 574.81 622.83 643.3 627.61 650.47 C 627.61 650.47 637.96 688.7 637.96 688.7 L 648.31 752.41 C 648.31 752.41 652.31 789.05 654.68 793.03 C 654.68 793.03 686.61 795.3 686.61 795.3 L 668.23 584.36 L 616.46 574.81 Z " fill="rgb(0,0,0)"/></g><path d=" M 603.72 542.14 L 605.8 548.75 L 617.05 584.46 L 617.27 585.14 L 617.33 585.14 C 618.84 585.48 650.72 592.81 657.6 595.06 C 657.971 595.175 658.335 595.312 658.69 595.47 C 661.88 597.06 665.86 654.4 665.86 654.4 C 665.86 654.4 668.25 708.56 669.86 712.54 C 671.47 716.52 677.86 798.54 681.81 796.16 C 685.76 793.78 714.46 796.16 714.46 796.16 C 717.65 792.97 714.46 749.97 714.46 749.97 L 708.8 671.14 C 708.8 671.14 711.99 627.34 708.8 619.37 C 708.8 619.37 705.61 558.05 705.61 558.05 L 640.42 547.86 L 634.12 546.86 L 603.72 542.14 Z " fill="rgb(95,93,126)"/><g opacity="0.02"><path d=" M 605.8 548.76 L 617.05 584.47 L 617.32 585.17 C 618.83 585.51 650.71 592.84 657.59 595.09 L 658.28 595.09 L 640.47 547.87 L 639.96 546.51 L 634.17 546.88 L 605.8 548.76 Z " fill="rgb(0,0,0)"/></g><g opacity="0.1"><path d=" M 680.18 382.87 C 680.18 382.87 650.71 414.73 632.39 388.44 L 614.87 400.39 L 618.06 418.71 L 607.7 557.28 C 607.7 557.28 634.78 556.48 653.89 562.85 C 664.757 566.705 676.873 563.908 684.95 555.68 L 681.8 433.84 L 688.97 396.41 L 680.18 382.87 Z " fill="rgb(0,0,0)"/></g><path d=" M 680.18 380.48 C 680.18 380.48 650.71 412.34 632.39 386.05 L 614.87 398 L 618.06 416.32 L 607.7 554.89 C 607.7 554.89 634.78 554.09 653.89 560.46 C 664.757 564.315 676.873 561.518 684.95 553.29 L 681.8 431.45 L 688.97 394.02 L 680.18 380.48 Z " fill="rgb(83,82,107)"/><g><g><path d=" M 621.35 522.36 L 621.35 527.38 L 619.75 527.38 L 619.75 524.04 L 613.9 524.04 L 613.9 527.38 L 612.29 527.38 L 612.29 522.37 L 621.35 522.36" fill="rgb(232,33,39)"/><path d=" M 619.92 520.74 L 613.74 520.74 C 612.915 520.542 612.267 519.903 612.06 519.08 L 621.59 519.08 C 621.381 519.902 620.734 520.54 619.91 520.74" fill="rgb(232,33,39)"/></g><g><path d=" M 675.8 519.14 C 675.585 519.953 674.945 520.585 674.13 520.79 L 671.53 520.79 L 671.4 520.84 L 671.4 527.4 L 669.8 527.4 L 669.8 520.84 L 669.65 520.79 L 667.05 520.79 C 666.238 520.579 665.601 519.95 665.38 519.14 L 665.38 519.14 L 675.8 519.14 L 675.8 519.14 Z " fill="rgb(232,33,39)"/></g></g><path d=" M 618.85 545.34 C 618.85 545.34 618.85 566.05 614.07 574.81 C 614.07 574.81 581.42 578.81 581.42 578.81 L 586.99 549.34 L 618.85 545.34 Z " fill="rgb(214,219,230)"/><path d=" M 584.45 593.14 C 588.65 597.14 606.06 589.14 604.86 584.38 C 604.02 581.01 601.08 568.95 599.41 562.11 L 598.25 557.3 C 598.25 557.3 588.05 554.11 584.45 557.3 C 583.14 558.46 582.22 563.03 581.79 568.55 C 581.05 578.14 581.8 590.6 584.45 593.14 Z " fill="rgb(253,194,204)"/><path d=" M 622.8 394.81 L 650.67 416.31 C 650.67 416.31 692.08 413.92 681.73 394.01 C 677.223 385.253 674.504 375.688 673.73 365.87 C 673.393 362.248 673.393 358.602 673.73 354.98 C 673.73 354.98 635.5 319.98 640.28 359.76 C 640.657 362.813 640.877 365.884 640.94 368.96 C 641.51 398.82 622.8 394.81 622.8 394.81 Z " fill="rgb(253,194,204)"/><g opacity="0.1"><path d=" M 640.36 359.77 C 640.737 362.823 640.957 365.894 641.02 368.97 C 645.31 371.811 650.344 373.321 655.49 373.31 C 662.62 373.31 667.87 366.37 672.61 361.76 C 672.08 355.15 673.8 354.99 673.8 354.99 C 673.8 354.99 635.58 319.95 640.36 359.77 Z " fill="rgb(0,0,0)"/></g><circle vector-effect="non-scaling-stroke" cx="655.49" cy="345.43999999999994" r="26.279999999999973" fill="rgb(253,194,204)"/><g opacity="0.1"><path d=" M 674.2 370.52 C 674.2 370.52 678.58 370.92 687.34 382.86 C 687.34 382.86 715.21 396.4 715.21 396.4 C 715.21 396.4 722.38 393.21 730.34 429.05 C 730.34 429.05 740.69 488.78 736.71 492.76 C 732.73 496.74 716.8 502.33 708.8 502.33 C 708.8 502.33 706.41 552.5 710.39 561.26 C 714.37 570.02 709.59 575.6 709.59 575.6 L 674.59 573.21 C 674.59 573.21 662.64 558.08 660.25 531.8 C 660.25 531.8 649.9 430.65 653.88 421.89 C 653.88 421.89 675.38 390.83 674.59 388.44 C 673.8 386.05 674.2 370.52 674.2 370.52 Z " fill="rgb(0,0,0)"/></g><path d=" M 674.29 370.28 C 674.29 370.28 680.18 370.12 688.94 382.07 C 697.7 394.02 716.8 395.61 716.8 395.61 C 716.8 395.61 723.97 392.42 731.93 428.26 C 739.89 464.1 742.28 487.99 738.3 491.97 C 734.32 495.95 718.39 501.53 710.43 501.53 C 710.43 501.53 708.04 551.7 712.02 560.46 C 716 569.22 711.22 574.8 711.22 574.8 L 676.22 572.41 C 676.22 572.41 664.27 557.28 661.88 531 C 659.49 504.72 651.51 429.86 655.49 421.14 C 659.47 412.42 676.99 390.08 676.2 387.69 C 675.41 385.3 674.29 370.28 674.29 370.28 Z " fill="rgb(214,219,230)"/><g opacity="0.1"><path d=" M 581.8 568.54 C 585.61 565.63 592.8 561.1 599.42 562.1 L 598.26 557.29 C 598.26 557.29 588.06 554.1 584.46 557.29 C 583.13 558.45 582.22 563.01 581.8 568.54 Z " fill="rgb(0,0,0)"/></g><g opacity="0.1"><path d=" M 640.8 375.3 C 640.8 375.3 620.49 388.44 618.1 394.02 C 618.1 394.02 606.95 403.58 606.95 403.58 C 606.95 403.58 590.23 412.34 590.23 443.4 L 581.47 487.2 L 621.29 542.95 C 621.29 542.95 626.07 487.2 628.46 473.66 C 628.46 473.66 634.03 434.66 634.03 434.66 C 634.03 434.66 645.98 419.53 644.38 415.55 C 642.78 411.57 640.8 375.3 640.8 375.3 Z " fill="rgb(0,0,0)"/></g><path d=" M 640.8 375.06 C 640.8 375.06 619.62 386.85 617.24 392.42 C 617.24 392.42 606.09 401.98 606.09 401.98 C 606.09 401.98 589.37 410.74 589.37 441.8 L 580.61 485.6 L 579.02 569.22 C 579.02 569.22 593.36 555.68 603.71 562.05 C 603.71 562.05 620.43 541.34 620.43 541.34 C 620.43 541.34 625.21 485.59 627.6 472.05 C 627.6 472.05 633.17 433.05 633.17 433.05 C 633.17 433.05 645.12 417.92 643.52 413.94 C 641.92 409.96 640.8 375.06 640.8 375.06 Z " fill="rgb(214,219,230)"/><g opacity="0.1"><path d=" M 632.42 313.47 C 633.768 311.755 635.327 310.216 637.06 308.89 C 639.8 306.61 642.83 304.23 646.23 304.43 C 648.154 304.686 650.001 305.347 651.65 306.37 Q 664.35 313.06 676.98 319.89 C 680.09 321.57 683.3 323.35 685.47 326.37 C 687.64 329.39 688.52 333.27 689.13 337.07 C 689.64 339.644 689.762 342.28 689.49 344.89 C 689.242 347.449 688 349.808 686.03 351.46 C 683.76 353.11 680.65 353.12 678.75 355.28 C 677.65 356.53 677.17 358.28 676.39 359.8 C 675.61 361.32 674.26 362.8 672.72 362.53 C 671.18 362.26 670.25 360.63 670.03 358.98 C 669.932 357.308 670.029 355.63 670.32 353.98 C 670.62 350.98 670.24 347.8 668.5 345.57 C 667.3 344.05 665.58 343.13 664.42 341.57 C 661.64 337.81 662.91 331.57 659.86 328.04 C 658.057 326.162 655.383 325.398 652.86 326.04 C 650.39 326.56 648.13 327.9 645.86 329.04 C 642.793 330.587 639.581 331.826 636.27 332.74 C 633.49 333.5 630.27 335.32 629.32 331.62 C 627.87 326.19 629.22 317.88 632.42 313.47 Z " fill="rgb(0,0,0)"/></g><path d=" M 633.22 312.68 C 634.568 310.965 636.127 309.426 637.86 308.1 C 640.6 305.82 643.63 303.44 647.03 303.64 C 648.954 303.896 650.801 304.557 652.45 305.58 C 660.91 310.04 667.94 305.82 677.78 319.1 C 679.88 321.94 684.1 322.56 686.27 325.58 C 688.44 328.6 689.32 332.48 689.93 336.28 C 690.44 338.854 690.562 341.49 690.29 344.1 C 690.042 346.659 688.8 349.018 686.83 350.67 C 684.56 352.32 681.45 352.33 679.55 354.49 C 678.45 355.74 677.97 357.49 677.19 359.01 C 676.41 360.53 675.06 362.01 673.52 361.74 C 671.98 361.47 671.05 359.84 670.83 358.19 C 670.732 356.518 670.829 354.84 671.12 353.19 C 671.42 350.19 671.04 347.01 669.3 344.78 C 668.1 343.26 666.38 342.34 665.22 340.78 C 662.44 337.02 663.71 330.78 660.66 327.25 C 658.857 325.372 656.183 324.608 653.66 325.25 C 651.19 325.77 648.93 327.11 646.66 328.25 C 643.593 329.797 640.381 331.036 637.07 331.95 C 634.29 332.71 631.07 334.53 630.12 330.83 C 628.66 325.4 630.02 317.08 633.22 312.68 Z " fill="rgb(134,90,97)"/><g opacity="0.1"><path d=" M 705 434.23 C 705 434.23 715.62 461.31 707.65 472.46 L 690.13 468.46 C 690.13 468.46 706.06 473.24 703.67 463.68 C 701.28 454.12 705 434.23 705 434.23 Z " fill="rgb(0,0,0)"/></g><g opacity="0.1"><path d=" M 710.8 501.14 C 710.8 501.14 687.7 502.73 681.33 497.95 C 689.718 504.353 699.624 508.471 710.08 509.9 L 710.8 501.14 Z " fill="rgb(0,0,0)"/></g><g opacity="0.1"><path d=" M 611.29 450.14 C 611.29 450.14 599.34 486.78 600.14 492.35 C 600.14 492.35 602.53 559.25 602.53 559.25 L 604.92 558.45 L 604.12 491.55 L 611.29 450.14 Z " fill="rgb(0,0,0)"/></g><linearGradient id="_lgradient_6" x1="0" y1="0.5" x2="6.123233995736766e-17" y2="-0.5" gradientTransform="matrix(566.343,0,0,513.398,152.23,30.87)" gradientUnits="userSpaceOnUse"><stop offset="0%" stop-opacity="0.1" style="stop-color:rgb(128,128,128)"/></linearGradient><path d=" M 713.61 494.92 L 440.61 274.92 C 437.401 271.712 433.047 269.913 428.51 269.92 L 416.91 269.92 C 465.026 208.259 456.859 119.804 398.266 67.996 C 339.673 16.188 250.884 18.914 195.579 74.219 C 140.274 129.524 137.548 218.313 189.356 276.906 C 241.164 335.499 329.619 343.666 391.28 295.55 L 391.28 307.14 C 391.273 311.677 393.072 316.031 396.28 319.24 L 669.28 539.24 C 672.472 542.458 676.817 544.269 681.35 544.269 C 685.883 544.269 690.228 542.458 693.42 539.24 L 713.54 519.14 C 720.223 512.461 720.255 501.637 713.61 494.92 Z  M 300.14 269.92 C 249.805 269.92 209 229.115 209 178.78 C 209 128.445 249.805 87.64 300.14 87.64 C 350.475 87.64 391.28 128.445 391.28 178.78 C 391.299 202.959 381.703 226.154 364.607 243.253 C 347.512 260.353 324.319 269.953 300.14 269.94 L 300.14 269.92 Z " fill="url(#_lgradient_6)"/><path d=" M 715.61 492.92 L 442.61 272.92 C 439.401 269.712 435.047 267.913 430.51 267.92 L 418.91 267.92 C 467.026 206.259 458.859 117.804 400.266 65.996 C 341.673 14.188 252.884 16.914 197.579 72.219 C 142.274 127.524 139.548 216.313 191.356 274.906 C 243.164 333.499 331.619 341.666 393.28 293.55 L 393.28 305.14 C 393.273 309.677 395.072 314.031 398.28 317.24 L 671.28 537.24 C 674.472 540.458 678.817 542.269 683.35 542.269 C 687.883 542.269 692.228 540.458 695.42 537.24 L 715.54 517.14 C 722.223 510.461 722.255 499.637 715.61 492.92 Z  M 302.14 267.92 C 251.805 267.92 211 227.115 211 176.78 C 211 126.445 251.805 85.64 302.14 85.64 C 352.475 85.64 393.28 126.445 393.28 176.78 C 393.299 200.959 383.703 224.154 366.607 241.253 C 349.512 258.353 326.319 267.953 302.14 267.94 L 302.14 267.92 Z " fill="rgb(25,229,28)"/><path d=" M 695.31 472.86 C 695.31 472.86 655.46 427.16 661.06 458.52 C 665.06 480.82 680.17 492.77 687.34 495.16 C 694.51 497.55 695.31 472.86 695.31 472.86 Z " fill="rgb(253,194,204)"/><path d=" M 704.87 430.65 C 704.87 430.65 705.67 460.12 709.65 464.1 C 709.65 464.1 707.26 472.86 707.26 472.86 L 691.33 468.86 C 691.33 468.86 695.33 495.14 678.59 491.96 C 678.59 491.96 689.74 502.31 700.89 503.91 C 712.04 505.51 711.24 501.52 711.24 501.52 L 727.96 481.61 L 704.87 430.65 Z " fill="rgb(214,219,230)"/><path d=" M 709.28 501.95 L 725.44 498.4 L 723.28 490.95 L 713.28 486.95 L 700.28 492.95 L 709.28 501.95 L 709.28 501.95 Z " fill="rgb(214,219,230)"/><g><path d=" M 237.58 175.94 C 237.555 190.648 242.323 204.963 251.16 216.72 C 252.05 217.91 252.98 219.06 253.95 220.19 C 254.47 220.8 255.01 221.4 255.56 221.99 Q 255.97 222.45 256.4 222.89 C 258.655 225.262 261.082 227.464 263.66 229.48 L 263.84 229.61 C 267.824 232.733 272.152 235.39 276.74 237.53 C 279.095 238.636 281.512 239.605 283.98 240.43 L 284.89 240.72 C 285.45 240.91 286.03 241.08 286.6 241.24 L 286.83 241.31 C 287.12 241.39 287.41 241.48 287.71 241.55 C 293.521 243.129 299.518 243.926 305.54 243.92 C 306.54 243.92 307.59 243.92 308.61 243.85 C 313.951 243.62 319.245 242.754 324.38 241.27 L 324.48 241.27 C 325.43 240.99 326.37 240.7 327.3 240.38 L 327.4 240.38 L 328.25 240.08 C 331.487 238.94 334.63 237.549 337.65 235.92 L 337.84 235.82 C 338.17 235.64 338.5 235.46 338.84 235.27 C 343.273 232.782 347.412 229.803 351.18 226.39 L 351.51 226.08 C 353.576 224.21 355.517 222.205 357.32 220.08 L 357.53 219.83 C 357.7 219.64 357.86 219.45 358.02 219.25 C 358.46 218.73 358.88 218.19 359.3 217.65 C 377.523 194.17 378.385 161.575 361.428 137.165 C 344.472 112.754 313.627 102.185 285.263 111.065 C 256.898 119.945 237.588 146.218 237.58 175.94 L 237.58 175.94 Z " fill="rgb(192,188,207)" fill-opacity="0.35"/><path d=" M 317.696 143.95 C 313.322 143.95 308.935 145.639 305.773 149.039 L 281.471 173.341 C 276.686 178.127 275.49 185.225 277.67 191.265 L 277.597 191.34 C 277.653 191.5 277.767 191.634 277.825 191.797 C 278.025 192.307 278.234 192.83 278.508 193.316 C 278.717 193.695 278.946 194.093 279.191 194.453 C 279.847 195.498 280.569 196.514 281.471 197.416 C 284.63 200.575 289.017 202.276 293.394 202.276 C 296.193 202.276 298.966 201.547 301.445 200.15 C 301.806 199.96 302.16 199.757 302.507 199.542 C 302.628 199.457 302.762 199.399 302.886 199.314 C 303.843 198.698 304.734 197.985 305.545 197.187 L 320.126 182.606 L 319.973 182.53 L 329.621 172.885 C 336.178 166.325 336.178 155.37 329.621 148.811 C 326.455 145.651 322.071 143.95 317.696 143.95 Z  M 317.696 148.811 C 320.855 148.811 324.02 150.026 326.202 152.456 C 330.815 157.069 330.815 164.836 326.202 169.696 L 316.709 179.189 L 303.115 165.594 L 281.621 187.315 C 280.952 183.407 282.162 179.411 284.888 176.53 L 309.19 152.227 C 311.373 150.045 314.537 148.811 317.696 148.811 Z " fill="rgb(25,229,28)"/></g><g><path d=" M 240.61 422.953 C 240.585 437.661 245.353 451.976 254.19 463.733 C 255.08 464.923 256.01 466.073 256.98 467.203 C 257.5 467.813 258.04 468.413 258.59 469.003 Q 259 469.463 259.43 469.903 C 261.685 472.275 264.112 474.477 266.69 476.493 L 266.87 476.623 C 270.854 479.746 275.182 482.403 279.77 484.543 C 282.125 485.65 284.542 486.618 287.01 487.443 L 287.92 487.733 C 288.48 487.923 289.06 488.093 289.63 488.253 L 289.86 488.323 C 290.15 488.403 290.44 488.493 290.74 488.563 C 296.552 490.143 302.548 490.94 308.57 490.933 C 309.57 490.933 310.62 490.933 311.64 490.863 C 316.981 490.633 322.275 489.767 327.41 488.283 L 327.51 488.283 C 328.46 488.003 329.4 487.713 330.33 487.393 L 330.43 487.393 L 331.28 487.093 C 334.517 485.953 337.66 484.562 340.68 482.933 L 340.87 482.833 C 341.2 482.653 341.53 482.473 341.87 482.283 C 346.303 479.795 350.442 476.816 354.21 473.403 L 354.54 473.093 C 356.606 471.223 358.547 469.218 360.35 467.093 L 360.56 466.843 C 360.73 466.653 360.89 466.463 361.05 466.263 C 361.49 465.743 361.91 465.203 362.33 464.663 C 380.553 441.183 381.415 408.588 364.458 384.178 C 347.502 359.767 316.657 349.198 288.293 358.078 C 259.928 366.958 240.618 393.231 240.61 422.953 L 240.61 422.953 Z " fill="rgb(192,188,207)" fill-opacity="0.25"/><path d=" M 320.726 390.963 C 316.352 390.963 311.965 392.652 308.803 396.052 L 284.501 420.355 C 279.716 425.14 278.52 432.239 280.7 438.278 L 280.627 438.353 C 280.683 438.513 280.797 438.647 280.855 438.81 C 281.055 439.32 281.264 439.843 281.538 440.329 C 281.747 440.708 281.976 441.107 282.221 441.466 C 282.877 442.511 283.599 443.527 284.501 444.429 C 287.66 447.588 292.047 449.289 296.424 449.289 C 299.223 449.289 301.996 448.56 304.475 447.163 C 304.836 446.973 305.19 446.77 305.537 446.555 C 305.659 446.47 305.792 446.412 305.916 446.327 C 306.873 445.711 307.764 444.998 308.575 444.2 L 323.156 429.619 L 323.003 429.543 L 332.651 419.898 C 339.208 413.338 339.208 402.383 332.651 395.824 C 329.485 392.664 325.101 390.963 320.726 390.963 Z  M 320.726 395.824 C 323.885 395.824 327.05 397.039 329.232 399.469 C 333.845 404.082 333.845 411.849 329.232 416.709 L 319.739 426.202 L 306.145 412.607 L 284.651 434.329 C 283.982 430.42 285.192 426.424 287.918 423.543 L 312.22 399.241 C 314.403 397.058 317.567 395.824 320.726 395.824 Z " fill="rgb(25,229,28)"/></g><g><path d=" M 240.61 633.97 C 240.585 648.678 245.353 662.993 254.19 674.75 C 255.08 675.94 256.01 677.09 256.98 678.22 C 257.5 678.83 258.04 679.43 258.59 680.02 Q 259 680.48 259.43 680.92 C 261.685 683.292 264.112 685.494 266.69 687.51 L 266.87 687.64 C 270.854 690.763 275.182 693.42 279.77 695.56 C 282.125 696.666 284.542 697.635 287.01 698.46 L 287.92 698.75 C 288.48 698.94 289.06 699.11 289.63 699.27 L 289.86 699.34 C 290.15 699.42 290.44 699.51 290.74 699.58 C 296.552 701.159 302.548 701.956 308.57 701.95 C 309.57 701.95 310.62 701.95 311.64 701.88 C 316.981 701.65 322.275 700.784 327.41 699.3 L 327.51 699.3 C 328.46 699.02 329.4 698.73 330.33 698.41 L 330.43 698.41 L 331.28 698.11 C 334.517 696.97 337.66 695.579 340.68 693.95 L 340.87 693.85 C 341.2 693.67 341.53 693.49 341.87 693.3 C 346.303 690.812 350.442 687.833 354.21 684.42 L 354.54 684.11 C 356.606 682.24 358.547 680.235 360.35 678.11 L 360.56 677.86 C 360.73 677.67 360.89 677.48 361.05 677.28 C 361.49 676.76 361.91 676.22 362.33 675.68 C 380.553 652.2 381.415 619.605 364.458 595.195 C 347.502 570.784 316.657 560.214 288.293 569.095 C 259.928 577.975 240.618 604.248 240.61 633.97 L 240.61 633.97 Z " fill="rgb(192,188,207)" fill-opacity="0.25"/><path d=" M 320.726 601.98 C 316.352 601.98 311.965 603.669 308.803 607.069 L 284.501 631.371 C 279.716 636.157 278.52 643.255 280.7 649.295 L 280.627 649.37 C 280.683 649.53 280.797 649.664 280.855 649.827 C 281.055 650.337 281.264 650.86 281.538 651.346 C 281.747 651.725 281.976 652.123 282.221 652.483 C 282.877 653.528 283.599 654.544 284.501 655.446 C 287.66 658.605 292.047 660.306 296.424 660.306 C 299.223 660.306 301.996 659.577 304.475 658.18 C 304.836 657.99 305.19 657.787 305.537 657.572 C 305.659 657.487 305.792 657.429 305.916 657.344 C 306.873 656.728 307.764 656.015 308.575 655.217 L 323.156 640.636 L 323.003 640.56 L 332.651 630.915 C 339.208 624.355 339.208 613.4 332.651 606.84 C 329.485 603.681 325.101 601.98 320.726 601.98 Z  M 320.726 606.84 C 323.885 606.84 327.05 608.056 329.232 610.486 C 333.845 615.098 333.845 622.866 329.232 627.726 L 319.739 637.219 L 306.145 623.624 L 284.651 645.345 C 283.982 641.437 285.192 637.441 287.918 634.56 L 312.22 610.257 C 314.403 608.075 317.567 606.84 320.726 606.84 Z " fill="rgb(25,229,28)"/></g></g></svg>